<svg xmlns="http://www.w3.org/2000/svg" height="1024" preserveAspectRatio="none" style="display: block;" version="1.1" viewBox="0 0 2048 2048" width="1024">
<path d="M 0 0 L 2048 0 L 2048 2048 L 0 2048 L 0 0 z" fill="rgb(245,244,233)" transform="translate(0,0)"></path>
<path d="M 473.174 146.997 C 481.015 147.278 485.066 150.382 486.854 158.394 C 493.895 189.954 499.596 221.835 506.22 253.475 L 544.53 428.57 L 679.07 1051.92 C 724.558 1252.91 767.216 1454.53 807.033 1656.71 C 816.852 1707.41 829.564 1758.61 839.062 1809.47 C 841.461 1822.31 849.266 1855.87 848.787 1866.49 C 842.865 1875.3 788.743 1894.63 775.373 1899.93 C 729.06 1918.36 682.57 1936.33 635.909 1953.86 L 592.3 1934.74 C 570.549 1926.11 525.572 1902.62 504.252 1891.46 C 437.208 1856.72 372.034 1818.48 308.998 1776.91 C 289.508 1763.85 215.963 1712.91 205.158 1698.13 C 204.239 1681.4 204.687 1659.2 204.545 1642.02 L 204.103 1523.64 L 203.159 1203.78 L 199.184 364 C 199.209 347.424 197.322 261.376 201.792 252.427 C 203.632 248.745 209.884 246.41 213.57 244.72 C 228.064 238.077 243.336 232.755 258.213 227.031 C 284.988 216.514 311.919 206.398 338.998 196.687 L 473.174 146.997 z" fill="rgb(144,49,46)" transform="translate(0,0)"></path>
<path d="M 459.23 183.982 L 461.677 184.368 C 466.186 191.475 524.91 475.645 529.905 503.323 C 510.464 510.033 384.098 559.289 376.659 571.387 C 375.246 573.686 375.011 576.13 375.622 578.736 C 376.405 582.073 378.876 586.05 382.076 587.555 C 385.23 589.038 387.36 588.566 390.586 587.718 C 405.901 583.692 421.43 575.592 435.981 569.393 C 469.175 555.249 502.037 540.194 536.13 528.336 C 541.336 556.521 548.913 587.457 554.849 616.015 C 537.41 620.77 497.051 637.066 483.476 650.234 C 477.431 656.097 487.034 668.171 494.152 666.513 C 516.791 661.238 537.041 647.356 559.371 640.033 L 560.802 639.57 C 565.952 664.447 571.497 689.057 576.23 714.036 C 558.314 719.788 445.277 770.17 437.366 780.763 C 435.454 783.324 434.783 786.285 435.458 789.45 C 436.022 792.095 437.519 794.374 439.814 795.833 C 443.385 798.104 447.491 797.812 451.37 796.686 C 463.292 793.227 475.352 786.239 486.582 780.913 C 505.687 771.905 524.914 763.155 544.256 754.666 C 555.846 749.503 569.461 742.709 581.424 739.106 C 586.542 758.287 591.409 782.739 595.656 802.293 C 585.504 806.738 515.406 833.057 521.281 849.837 C 527.189 866.714 555.351 848.452 566.632 842.893 C 577.933 837.373 589.331 832.056 600.823 826.944 C 605.122 842.554 610.257 871.29 613.027 887.293 C 609.73 888.076 606.481 889.05 603.296 890.211 C 586.855 896.24 550.349 910.458 539.866 925.181 C 535.529 931.272 545.87 941.849 552.798 939.241 C 574.996 930.883 596.46 919.853 618.345 910.289 C 622.314 921.654 625.683 941.836 628.997 954.861 C 621.654 956.541 612.814 959.335 604.864 963.03 C 570.164 979.156 532.822 995.852 500.701 1016.54 C 493.873 1020.93 501.437 1038.18 512.149 1033.88 C 524.922 1028.76 538.037 1021.94 551.014 1015.96 L 633.458 978.534 C 638.251 999.57 642.738 1020.68 646.92 1041.84 C 627.203 1050.96 597.113 1062.91 580.87 1077.1 C 573.248 1083.76 584.284 1096.3 591.798 1093.62 C 612.903 1086.07 631.508 1074.89 652.989 1067.38 C 656.961 1080.7 661.271 1104.6 664.309 1118.9 C 648.935 1124.16 578.269 1156.44 570.286 1166.93 C 567.531 1176.87 574.257 1185.41 584.005 1181.36 C 612.887 1169.36 640.212 1153.29 669.548 1142.23 C 674.694 1159.59 680.734 1191.17 683.539 1209.15 C 681.197 1209.79 678.882 1210.51 676.598 1211.33 C 663.189 1216.19 564.726 1252.27 608.299 1268.42 C 617.039 1265.94 631.65 1258.73 640.292 1254.79 C 656.778 1247.29 672.092 1240.39 689.204 1234.33 C 694.362 1254.92 699.997 1281.07 703.644 1301.8 C 693.413 1305.37 637.718 1327.6 633.688 1334.55 C 632.048 1337.38 631.688 1342.05 632.299 1345.21 C 632.859 1348.1 634.87 1350.71 637.46 1352.11 C 645.679 1356.55 697.18 1331.02 708.654 1326.79 C 715.159 1350.31 719.766 1379.32 724.283 1403.59 C 709.985 1409.24 696.731 1415.49 682.791 1421.98 C 670.999 1427.47 609.477 1451.98 605.446 1460.21 C 603.638 1463.91 603.628 1468.63 605.322 1472.38 C 606.426 1474.82 607.936 1476.26 610.483 1477.15 C 622.614 1481.36 711.95 1435.26 730.032 1427.12 C 733.7 1444.79 739.463 1467.31 741.701 1484.85 C 729.969 1490.17 674.632 1510.05 670.452 1518.05 C 668.88 1521.06 668.447 1525.31 669.898 1528.46 C 671.075 1531.01 672.68 1532.38 675.263 1533.46 C 686.597 1538.19 734.451 1513.16 747.234 1507.74 C 751.895 1531.74 758.048 1556.85 763.044 1581.13 C 750.658 1585.73 738.478 1591.65 726.319 1596.89 C 715.606 1601.5 703.647 1605.68 693.63 1611.61 C 689.987 1613.77 686.531 1615.93 684.614 1619.84 C 683.179 1622.77 683.424 1627.16 684.92 1630.02 C 686.064 1632.2 688.929 1634.36 691.277 1635.09 C 699.021 1637.5 756.585 1610.53 767.267 1605.96 C 770.404 1617.6 772.883 1630.8 775.38 1642.71 C 762.461 1649.84 712.836 1668.29 710.99 1674.1 C 698.083 1714.74 771.907 1671.23 780.024 1667.22 C 783.354 1681.99 786.272 1696.86 788.775 1711.8 C 774.345 1718.02 711.379 1742.38 706.081 1752.05 C 704.667 1754.63 704.303 1757.41 705.394 1760.18 C 706.763 1763.67 709.166 1766.15 712.374 1767.92 C 722.532 1768.2 780.864 1741.55 793.331 1736 C 801.795 1772.43 810.346 1814.38 817.182 1851.04 C 794.869 1860.66 774.507 1868.23 752.131 1877.17 C 716.172 1891.9 680.045 1906.22 643.757 1920.13 L 355.585 755.929 L 282.204 461.112 L 256.231 356.924 C 248.828 327.616 240.909 298.627 235.082 268.962 C 263.171 260.303 292.052 246.137 319.952 236.271 C 366.525 219.8 412.74 200.404 459.23 183.982 z" fill="rgb(245,244,233)" transform="translate(0,0)"></path>
<path d="M 431.043 244.233 L 434.52 245.712 C 439.363 252.766 447.846 334.019 449.724 348.966 C 440.257 354.073 418.276 361.429 407.248 365.429 C 381.027 374.717 354.933 384.359 328.973 394.352 C 323.174 384.037 308.213 340.389 303.436 327.261 C 301.473 321.936 292.854 301.679 296.113 297.933 C 303.845 300.523 343.123 329.446 352.073 335.753 C 356.413 315.134 359.099 293.936 362.016 273.094 C 362.336 270.807 363.104 269.117 364.899 267.621 C 373.046 267.918 395.955 296.381 403.906 304.529 C 412.076 287.869 420.992 255.824 431.043 244.233 z" fill="rgb(144,49,46)" transform="translate(0,0)"></path>
<path d="M 453.637 382.004 C 457.739 381.691 457.048 381.109 460.027 382.794 C 462.587 390.492 464.549 407.649 465.846 416.529 C 468.243 433.415 470.887 450.265 473.778 467.073 C 461.646 473.027 441.106 478.799 427.522 484.416 C 408.222 492.398 387.938 500.515 368.369 507.877 C 364.909 509.179 364.139 508.877 361.609 507.604 C 356.096 493.53 351.682 477.922 347.271 463.421 C 343.813 452.051 339.25 439.015 336.925 427.496 C 349.475 421.939 366.061 416.249 379.085 411.339 C 404.114 402.021 428.969 392.241 453.637 382.004 z" fill="rgb(144,49,46)" transform="translate(0,0)"></path>
<path d="M 650.385 1646.01 C 676.733 1646.57 680.51 1672.3 666.182 1691.18 C 673.691 1695.44 678.585 1698.12 682.423 1706.53 C 689.689 1722.47 685.628 1739.73 669.404 1747.48 C 649.756 1750.58 639.709 1725.95 642.377 1710.09 C 643.327 1704.45 645.382 1700.11 647.634 1694.94 C 624.315 1682.17 628.522 1656.6 650.385 1646.01 z" fill="rgb(144,49,46)" transform="translate(0,0)"></path>
<path d="M 660.913 1702.58 C 675.226 1707.75 677.156 1722.83 666.94 1733.4 C 664.097 1732.45 662.022 1731.6 659.76 1729.5 C 656.048 1725.99 653.98 1721.09 654.059 1715.99 C 654.196 1709.46 656.48 1706.79 660.913 1702.58 z" fill="rgb(245,244,233)" transform="translate(0,0)"></path>
<path d="M 649.777 1661.63 C 662.805 1662.99 665.793 1674.22 656.364 1682.76 C 643.179 1682.33 641.687 1670.29 649.777 1661.63 z" fill="rgb(245,244,233)" transform="translate(0,0)"></path>
<path d="M 552.116 1207.22 C 594.663 1208.95 561.563 1266.01 553.79 1284.66 C 562.042 1281.04 586.798 1267.33 592.989 1277.75 C 594.389 1280.11 593.697 1281.06 592.777 1283.13 C 586.382 1288.67 564.216 1295.43 554.229 1299.26 C 548.566 1301.26 543.054 1303.62 537.814 1299.41 C 528.952 1283.56 563.824 1247.91 559.501 1231.03 C 551.743 1204.83 533.602 1237.21 528.958 1235.48 C 511.15 1228.87 535.505 1210.36 552.116 1207.22 z" fill="rgb(144,49,46)" transform="translate(0,0)"></path>
<path d="M 713.22 1809.19 C 717.89 1808.83 722.355 1808.36 726.856 1809.9 C 734.087 1812.43 739.906 1817.91 742.868 1824.97 C 750.389 1842.5 741.329 1858.47 724.086 1864.76 C 691.975 1871.11 679.074 1822.32 713.22 1809.19 z" fill="rgb(144,49,46)" transform="translate(0,0)"></path>
<path d="M 610.83 1659.53 C 613.738 1660.29 616.712 1660.79 618.607 1663.34 C 621.26 1666.9 640.045 1748.89 638.851 1753.98 C 638.123 1757.08 636.034 1758.48 633.618 1760.22 C 629.967 1759.64 628.193 1759.72 625.306 1757.41 C 622.949 1753.51 615.446 1710.9 613.096 1702.89 C 611.011 1695.79 606.593 1677.37 605.083 1669.56 C 604.406 1666.05 608.32 1662.12 610.83 1659.53 z" fill="rgb(144,49,46)" transform="translate(0,0)"></path>
<path d="M 512.828 1251.03 C 516.75 1251.51 517.734 1252.01 520.697 1254.22 C 524.719 1262.27 516.236 1267.66 509.956 1270.77 C 505.711 1270.68 503.81 1269.24 501.409 1265.96 C 498.997 1256.97 505.415 1253.06 512.828 1251.03 z" fill="rgb(144,49,46)" transform="translate(0,0)"></path>
<path d="M 228.261 366.616 C 230.581 368.745 230.709 370.283 231.516 373.486 L 611.919 1910.77 C 590.553 1903.17 537.131 1875.27 515.74 1863.75 C 424.743 1814.72 314.06 1750.99 234.861 1685.51 C 233.624 1667.24 233.828 1646.27 233.646 1627.7 L 233.265 1522.28 L 233.151 1207.97 L 230.171 586.999 C 229.956 513.543 227.335 439.974 228.261 366.616 z" fill="rgb(245,244,233)" transform="translate(0,0)"></path>
<path d="M 1184.32 631.396 C 1186.6 631.052 1189.96 630.599 1192.08 631.378 C 1207.41 636.997 1223.21 645.026 1238.1 651.765 L 1328.68 692.449 L 1724.48 875.644 C 1752.89 888.926 1781.49 901.792 1810.27 914.238 C 1824.86 920.697 1841.03 926.538 1854.85 934.439 C 1857.03 935.685 1858.77 936.925 1859.96 939.195 C 1862.08 943.247 1839.33 1082.46 1836.46 1102.19 C 1817.82 1235.78 1798.39 1369.27 1778.17 1502.64 L 1756.47 1649.74 C 1753.48 1669.66 1747.28 1715.62 1742.66 1733.21 C 1735.89 1735.64 1720.81 1738.97 1713.27 1740.87 C 1722.98 1749.69 1764.37 1771.8 1768.09 1782.95 C 1768.42 1783.95 1769.05 1817.04 1768.87 1818.05 C 1759.74 1822.81 1731.99 1828.2 1720.37 1830.79 L 1651.72 1846.15 C 1582 1861.75 1512.41 1877.95 1442.97 1894.76 L 1427.17 1899.61 C 1413.29 1891.71 1399.49 1880.57 1385.99 1871.84 C 1363.62 1857.36 1341.38 1842.73 1319.16 1828 L 1103.36 1684.49 C 1074.89 1665.26 1046 1646.95 1017.28 1628.12 C 1010.41 1623.61 1001.67 1618.25 995.794 1612.73 C 995.406 1603.8 995.691 1573.03 1000.51 1566.28 C 1008.47 1563.2 1052.44 1564.96 1064.29 1564.88 C 1142.29 1564.03 1220.29 1564.08 1298.28 1565.04 C 1298.8 1547.4 1298.89 1529.76 1298.56 1512.12 C 1264.01 1491.68 1231.24 1470.57 1197.35 1449.26 L 1087.9 1380.33 C 1074.53 1371.75 1027.19 1343.49 1018.16 1335.08 C 1018.35 1324.36 1024.91 1286.58 1026.88 1273.13 L 1049.04 1124.34 L 1095.51 806.438 L 1110.27 706.39 C 1113.1 686.733 1116.01 661.22 1120.22 642.602 C 1126.22 637.064 1173.6 632.734 1184.32 631.396 z" fill="rgb(144,49,46)" transform="translate(0,0)"></path>
<path d="M 1132.48 661.234 C 1164.5 672.895 1209.86 696.618 1241.64 711.281 L 1457.58 810.285 L 1675.97 909.63 L 1745.15 940.486 C 1760.7 947.366 1777.47 954.317 1792.46 962.201 C 1785.21 1025.14 1772.85 1092.64 1763.76 1155.57 L 1723.77 1442.15 L 1696.15 1631 C 1692.08 1658.9 1687.42 1686.2 1683.84 1714.23 C 1683.09 1718.8 1682.25 1723.37 1681.33 1727.91 C 1628.32 1695.97 1575.68 1660.78 1522.3 1629.11 C 1475.61 1601.41 1428.08 1573.9 1381.63 1545.82 C 1265.28 1474.44 1149.64 1401.91 1034.73 1328.23 C 1042.05 1269.06 1052.13 1207.43 1060.79 1148.17 L 1132.48 661.234 z" fill="rgb(245,244,233)" transform="translate(0,0)"></path>
<path d="M 1154.91 717.723 C 1170.29 718.955 1264.09 766.376 1284.96 776.371 L 1375.39 818.869 L 1605.3 925.123 C 1621.26 932.379 1746.76 988.758 1750.61 993.598 C 1753.23 996.889 1751.72 1002.9 1751.26 1006.88 C 1747.81 1036.86 1742.09 1066.82 1737.52 1096.66 L 1718.19 1230.46 L 1678.86 1494.31 C 1671.74 1542.14 1665.87 1589.94 1657.88 1637.8 C 1657.29 1641.85 1656.77 1645.7 1651.95 1646.8 C 1651.49 1646.92 1647.45 1647.07 1647.21 1646.93 C 1610.07 1625.31 1573.99 1601.82 1537.26 1579.54 L 1264.18 1412.73 C 1223.33 1388.11 1182.76 1363.05 1142.47 1337.53 C 1122.64 1325.21 1102.8 1312.87 1082.93 1300.6 C 1068.59 1291.75 1070.41 1289.92 1072.57 1274.18 C 1075.32 1254.1 1078.39 1234.03 1081.26 1213.97 C 1089.63 1152.58 1098.43 1091.25 1107.68 1029.99 L 1133.45 847.476 C 1137.23 819.263 1141.27 791.086 1145.59 762.95 C 1147.25 751.412 1148.53 725.733 1154.91 717.723 z" fill="rgb(144,49,46)" transform="translate(0,0)"></path>
<path d="M 1164.31 738.453 C 1177.27 741.465 1201.1 753.815 1213.94 759.804 C 1241.25 772.538 1268.49 786.197 1295.88 798.805 L 1736.45 1003.49 L 1684.45 1356.12 C 1672.26 1441.56 1659.62 1526.93 1646.52 1612.23 L 1644.57 1628.47 C 1616.1 1612.02 1585.54 1591.39 1557.08 1573.89 L 1331.71 1435.71 L 1186.25 1346.41 C 1165 1333.64 1143.93 1320.58 1123.05 1307.22 C 1111.69 1300 1098.23 1291.89 1087.88 1283.72 C 1110.41 1102.56 1140.72 919.839 1164.31 738.453 z" fill="rgb(245,244,233)" transform="translate(0,0)"></path>
<path d="M 1361.63 919.411 C 1368.22 918.459 1379.89 919.015 1386.57 919.775 C 1493.9 931.971 1560.6 1040.1 1586.8 1135.58 C 1589.83 1146.6 1602.5 1182.59 1596.18 1191.41 C 1592.95 1193.01 1593.21 1193 1589.65 1192.54 C 1581.57 1188.13 1580.17 1170.86 1577.96 1161.95 C 1565.72 1112.7 1549.12 1074.49 1522.74 1031.2 C 1518.13 1024.11 1513.19 1017.24 1507.94 1010.61 C 1437.15 921.726 1340.34 911.563 1252.28 985.215 C 1240.11 995.395 1228.73 1012.56 1217.82 1021.25 C 1203.75 1024.52 1205.26 1010.71 1212.59 1002.45 C 1251.55 958.578 1302.2 925.282 1361.63 919.411 z" fill="rgb(144,49,46)" transform="translate(0,0)"></path>
<path d="M 1358.61 993.424 C 1459.42 993.658 1520.63 1089.74 1545.19 1176.97 C 1548.05 1187.16 1557.96 1212.42 1549.75 1220.27 C 1539.23 1223.68 1537.67 1210.08 1535.84 1202.48 C 1525.98 1161.37 1510.78 1124.88 1488.17 1089.15 C 1431 1004.28 1345.47 980.504 1264.85 1050.93 C 1255.93 1058.72 1241.36 1080.32 1230.38 1075.28 C 1225.57 1068.19 1229.55 1063.69 1234.61 1058.02 C 1267.15 1021.55 1309.16 996.338 1358.61 993.424 z" fill="rgb(144,49,46)" transform="translate(0,0)"></path>
<path d="M 1366.4 1232.31 C 1412.59 1233.85 1402.05 1340.27 1356.26 1353.13 C 1313.31 1351.43 1318.76 1241.34 1366.4 1232.31 z" fill="rgb(144,49,46)" transform="translate(0,0)"></path>
<path d="M 1346.7 1068.36 C 1431.35 1059.71 1498.21 1166.69 1507.26 1240.67 C 1507.58 1243.29 1505.79 1246.13 1503.85 1247.76 C 1492.04 1248.07 1488.79 1223.74 1485.65 1214.15 C 1479.03 1193.32 1469.79 1173.41 1458.17 1154.9 C 1415.68 1088.6 1351.3 1057.02 1285.08 1112.89 C 1278.05 1118.82 1268.97 1129.75 1261.56 1134.03 C 1257.55 1134.11 1253.73 1131.71 1253.01 1127.65 C 1251.34 1118.21 1263.46 1109.54 1269.5 1104.21 C 1290.95 1085.3 1318.26 1072.04 1346.7 1068.36 z" fill="rgb(144,49,46)" transform="translate(0,0)"></path>
<path d="M 1342.59 1143.3 C 1408.09 1135.34 1447.54 1205.57 1459.6 1262.14 C 1460.24 1265.16 1459.36 1268.33 1457.42 1270.76 C 1454.34 1272.43 1454.04 1272.06 1450.58 1271.6 C 1448.16 1269.97 1447.31 1269.57 1446.28 1266.66 C 1439.45 1247.3 1433.73 1228.67 1423.48 1210.63 C 1397.43 1166.32 1356.85 1138.89 1308.99 1174.92 C 1302.59 1179.74 1285.49 1203.41 1279.02 1187.3 C 1279.61 1182.18 1282.08 1179.04 1285.69 1175.43 C 1302.7 1158.43 1318.74 1146.92 1342.59 1143.3 z" fill="rgb(144,49,46)" transform="translate(0,0)"></path>
<path d="M 1310.15 1463.56 C 1317.97 1464.2 1346.23 1481.55 1351.98 1488.62 C 1353.94 1491.04 1351.16 1496.73 1349.95 1499.14 C 1341.6 1501.17 1312.21 1483.08 1308.49 1474.41 C 1306.96 1470.85 1308.78 1466.76 1310.15 1463.56 z" fill="rgb(144,49,46)" transform="translate(0,0)"></path>
<path d="M 1031.48 1580.34 C 1055.99 1579.41 1083.58 1580.16 1108.45 1580.07 L 1298.12 1579.86 L 1298.02 1611.85 C 1322.19 1628.26 1358.1 1647.99 1384.29 1663.98 C 1405.16 1677 1426.18 1689.76 1447.36 1702.27 C 1455.5 1707.03 1468.93 1715.3 1476.99 1718.45 L 1478.1 1718.27 C 1487.52 1716.68 1523.64 1710.7 1528.49 1703.92 C 1528.17 1694.08 1501.19 1645.11 1495.22 1631.22 C 1520.01 1645.25 1547.15 1662.56 1571.58 1677.72 C 1604.94 1697.98 1638.12 1718.52 1671.14 1739.34 C 1673.54 1740.83 1681.58 1745.93 1683.82 1746.16 C 1695.13 1747.32 1697.55 1749.45 1707.05 1755.95 C 1715.35 1761.09 1732.36 1771.22 1738.64 1777.37 L 1544.04 1819.23 C 1526.34 1823.07 1508.74 1827.2 1491.04 1831 C 1470.97 1835.32 1451.43 1838.74 1431.78 1844.94 C 1423.79 1838.65 1411.79 1831.31 1403.14 1825.24 C 1378.69 1808.08 1353.11 1792.3 1328.2 1775.8 L 1125.47 1641.8 C 1106.65 1629.49 1087.72 1617.36 1068.69 1605.39 C 1058.68 1599.08 1039.64 1587.75 1031.48 1580.34 z" fill="rgb(245,244,233)" transform="translate(0,0)"></path>
<path d="M 1841.26 955.172 L 1842.43 955.359 C 1843.87 959.103 1828.08 1056.81 1825.88 1071.29 L 1763.76 1498.7 L 1742.96 1636.38 C 1738.89 1663.12 1734.95 1694.04 1729.68 1720.34 C 1720.6 1723.04 1709.35 1725.52 1700.02 1727.83 C 1699.52 1727.52 1698.53 1726.44 1698.06 1725.97 C 1696.9 1718.41 1707.65 1657.86 1709.41 1646.4 L 1721.48 1562.65 L 1773.82 1195.46 C 1782.34 1139.77 1790.55 1084.03 1798.43 1028.24 C 1801.36 1007.29 1805.16 984.541 1807.37 963.707 L 1841.26 955.172 z" fill="rgb(245,244,233)" transform="translate(0,0)"></path>
<path d="M 1183.73 647.424 C 1191.54 646.035 1239.68 669.864 1249.84 674.397 C 1275.52 685.853 1301.8 697.8 1327.39 709.493 L 1595.04 833.073 L 1751.85 904.919 C 1775.2 915.719 1807.36 929.518 1829.27 941.627 C 1818.51 944.337 1808.48 947.042 1797.49 948.702 C 1793.09 945.018 1764.34 932.491 1757.2 929.112 C 1707.87 905.778 1657.29 884.533 1607.71 861.826 L 1275.38 708.887 C 1235.71 691.04 1190.56 667.785 1150.76 652.565 C 1161.19 650.146 1173.05 648.725 1183.73 647.424 z" fill="rgb(245,244,233)" transform="translate(0,0)"></path>
<path d="M 1013.14 1587.54 L 1304.26 1779.08 L 1383.15 1830.77 C 1395.5 1838.99 1410.81 1848.58 1422 1857.71 C 1422.01 1864.74 1422.16 1870.43 1422.63 1877.45 C 1414.04 1873.4 1387.15 1854.21 1377.03 1847.5 L 1266.35 1773.84 C 1206.97 1735.3 1147.92 1696.26 1089.2 1656.71 L 1044.94 1627.55 C 1034.53 1620.73 1021.16 1612.47 1012.05 1604.41 L 1013.14 1587.54 z" fill="rgb(245,244,233)" transform="translate(0,0)"></path>
<path d="M 1750.45 1791.35 C 1751.69 1791.29 1750.92 1791.22 1752.66 1792.03 C 1754.03 1796.78 1753.84 1802.26 1753.98 1807.28 C 1649.98 1829.49 1544.06 1855.38 1440.2 1879.45 L 1438.28 1879.47 C 1436.15 1875.64 1437.61 1864.8 1437.99 1859.86 C 1448.22 1856.22 1468.66 1851.96 1479.67 1849.38 C 1508.6 1842.61 1537.6 1836.18 1566.68 1830.09 L 1674.74 1806.65 C 1699.83 1801.23 1725.13 1795.34 1750.45 1791.35 z" fill="rgb(245,244,233)" transform="translate(0,0)"></path>
<path d="M 1669.09 124.664 C 1676.38 125.192 1678.44 129.216 1678.02 136.001 C 1677.06 151.682 1672.46 169.369 1669.25 184.712 C 1697.5 207.792 1693.2 236.086 1673.42 262.848 C 1681 264.898 1690.78 268.723 1698.35 271.442 C 1758.21 255.285 1855.31 302.549 1885.02 356.196 C 1905.04 392.345 1912.57 424.053 1902.6 464.552 C 1888.51 521.774 1850.25 550.7 1802.12 579.288 C 1806.73 591.263 1808.87 601.584 1801.55 613.21 C 1796.81 620.693 1789.28 625.976 1780.63 627.886 C 1771.66 629.876 1761.98 628.306 1754.29 623.206 C 1746.68 630.017 1744.23 636.945 1737.31 641.947 C 1735.66 647.468 1733.76 654.553 1732.62 659.956 C 1730.8 668.479 1726.64 678.669 1728.86 687.031 C 1730.16 691.953 1730.57 692.195 1726.51 696.184 C 1718.83 699.022 1707.67 695.948 1698.73 695.405 C 1643.67 692.064 1587.23 682.85 1533.86 668.63 C 1516.98 664.465 1500.34 659.953 1483.81 654.518 C 1465.24 648.414 1353.53 607.856 1345.23 596.339 C 1340.9 590.328 1355.26 523.387 1357.25 512.18 C 1343.39 507.751 1328.05 498.288 1328.25 481.553 C 1328.38 470.866 1334.23 465.117 1341.31 458.107 C 1333.11 437.65 1323.81 424.974 1314.04 406.246 C 1299.8 378.945 1289.8 339.875 1298.3 309.166 C 1328.6 199.729 1459.54 180.343 1550.66 223.591 C 1555.38 225.826 1562.02 232.776 1566.76 234.056 C 1575.69 236.463 1584.78 237.753 1593.87 240.003 C 1583.91 205.081 1604.42 186.18 1634.35 175.172 C 1643.81 157.093 1653.6 138.166 1669.09 124.664 z" fill="rgb(144,49,46)" transform="translate(0,0)"></path>
<path d="M 1613.04 270.251 C 1613.41 270.121 1613.78 269.991 1614.16 269.861 C 1647.12 266.07 1690.09 299.866 1707.37 320.635 C 1750.59 372.577 1768.85 442.952 1741.45 505.9 C 1733.76 523.55 1718.46 540.099 1706.22 554.518 C 1701.73 551.739 1694.08 548.065 1689.2 545.561 C 1729.64 506.205 1740.49 460.096 1728.84 405.693 C 1717.1 350.846 1692.65 314.379 1640.59 293.112 C 1637 307.723 1634.67 326.516 1632.8 341.487 C 1629.88 364.255 1627.41 387.08 1625.39 409.947 C 1623.7 430.385 1620.92 500.202 1606.74 511.464 C 1581.15 501.747 1561.45 498.232 1534.81 492.29 C 1537 476.833 1536.68 472.596 1532.21 457.894 C 1550.46 411.6 1565.67 363.842 1585.32 318.007 C 1589.73 307.726 1595.34 296.336 1598.83 285.963 C 1596.95 283.779 1595.13 283.208 1591.94 283.144 C 1555.08 282.397 1521.22 292.231 1493.13 316.179 C 1454.03 349.516 1441.68 395.636 1438.98 445.031 C 1438.33 457.031 1440.11 469.121 1439.18 480.768 C 1436.67 482.82 1433.24 482.641 1430.32 481.697 C 1427.43 475.735 1427.11 464.641 1426.61 457.777 C 1420.19 367.681 1471.24 280.229 1567.94 274.107 C 1578.36 273.447 1604.4 272.938 1613.04 270.251 z" fill="rgb(245,244,233)" transform="translate(0,0)"></path>
<path d="M 1579.6 433.392 C 1602.1 434.611 1609.21 448.453 1613.57 468.081 C 1607.79 488.342 1601.26 495.056 1580.44 498.126 C 1536.1 494.695 1532.15 438.882 1579.6 433.392 z" fill="rgb(144,49,46)" transform="translate(0,0)"></path>
<path d="M 1573.52 450.238 C 1579.42 448.114 1586.01 449.35 1590.75 453.469 C 1595.48 457.588 1597.62 463.946 1596.33 470.088 C 1595.04 476.23 1590.54 481.196 1584.55 483.068 C 1575.55 485.88 1565.96 480.985 1562.96 472.053 C 1559.96 463.12 1564.65 453.427 1573.52 450.238 z" fill="rgb(245,244,233)" transform="translate(0,0)"></path>
<path d="M 1723.32 284.264 C 1772.98 281.215 1846.31 321.485 1871.35 365.048 C 1917.83 445.908 1877.77 515.943 1804.09 559.877 L 1791.2 567.128 C 1786.07 565.4 1779.8 563.73 1774.53 562.175 C 1771.07 563.32 1766.66 565.317 1763.22 566.752 C 1771.57 554.686 1778.43 552.055 1790.39 544.257 C 1849.62 505.658 1861.19 405.726 1816.97 352.071 C 1792.7 322.616 1756.63 301.731 1723.32 284.264 z" fill="rgb(245,244,233)" transform="translate(0,0)"></path>
<path d="M 1442.14 217.392 C 1471.56 212.862 1515.68 226.105 1543.83 235.763 C 1507.75 236.259 1480.03 236.712 1444.68 247.886 C 1410.16 258.8 1376.58 289.09 1360.56 321.218 C 1344.67 353.113 1346.91 377.771 1357.63 410.243 C 1362.76 425.264 1370.78 439.081 1377.94 453.275 C 1368.73 450.508 1365.56 449.324 1355.86 450.758 C 1339.8 414.95 1315.33 391.701 1311.94 348.473 C 1305.58 267.298 1370.28 226.083 1442.14 217.392 z" fill="rgb(245,244,233)" transform="translate(0,0)"></path>
<path d="M 1425.7 533.458 C 1512.36 531.333 1598.37 556.822 1675.62 595.14 C 1690.22 602.379 1713.72 615.203 1725.05 625.847 C 1722.46 634.908 1720.4 644.07 1718.25 653.244 C 1705.7 643.9 1694.87 637.462 1681.47 629.739 C 1663.61 620.304 1645.03 610.698 1626.33 602.989 C 1557.9 574.789 1436.92 548.038 1364.55 564.793 C 1364.76 556.649 1365.82 548.059 1366.67 539.917 C 1386.82 536.099 1405.3 534.438 1425.7 533.458 z" fill="rgb(245,244,233)" transform="translate(0,0)"></path>
<path d="M 1437.6 497.438 C 1536.2 491.881 1659.15 541.734 1741.82 592.285 C 1742.07 599.008 1744.18 610.136 1740.63 615.366 C 1739.98 615.416 1739.33 615.465 1738.68 615.515 C 1726.55 606.641 1710.41 596.215 1698.04 589.23 C 1621.49 548.408 1526.96 518.034 1439.49 517.174 C 1416.02 516.944 1393.54 519.932 1370.47 523.856 C 1371.18 517.487 1372.05 513.808 1373.52 507.599 C 1400.52 499.388 1410.11 498.603 1437.6 497.438 z" fill="rgb(245,244,233)" transform="translate(0,0)"></path>
<path d="M 1555.34 249.404 C 1572.45 247.271 1589.14 251.86 1604.39 259.225 C 1549.06 255.785 1492.63 269.154 1455.85 314.024 C 1422.51 354.687 1408 410.97 1412.65 463.046 C 1412.9 469.554 1414.31 476.248 1415.46 482.684 C 1409.29 484.074 1400.69 485.236 1394.28 486.286 C 1394.06 479.018 1391.68 467.047 1388.14 460.629 C 1390.63 460.221 1396.6 461.055 1396.45 457.59 C 1394.04 403.718 1398.22 352.855 1434.24 309.834 C 1463.86 274.452 1509.75 254.015 1555.34 249.404 z" fill="rgb(245,244,233)" transform="translate(0,0)"></path>
<path d="M 1394.94 576.423 C 1406.23 575.408 1421.82 575.972 1433.31 576.469 C 1507.39 580.381 1580.05 598.301 1647.46 629.282 C 1672.92 641.218 1690.46 652.501 1713.94 667.305 C 1713.26 670.831 1712.75 675.292 1712.23 678.921 L 1690.14 665.778 C 1614.77 620.869 1515.97 591.715 1428.5 587.298 C 1414.08 586.57 1399.31 586.763 1384.88 587.611 C 1377.26 588.059 1368.63 590.227 1361.29 589.579 C 1355.82 576.017 1387.46 576.901 1394.94 576.423 z" fill="rgb(245,244,233)" transform="translate(0,0)"></path>
<path d="M 1684.57 281.878 C 1686.03 282.235 1687.46 282.669 1688.88 283.177 C 1756.42 306.96 1790.68 405.379 1777.21 470.756 C 1769.88 506.301 1755.95 541.592 1744.21 575.974 L 1736.61 571.657 L 1720.58 561.795 C 1722.28 559.747 1723.97 557.69 1725.64 555.624 C 1740.69 537.128 1750.78 522.286 1759.28 500.019 C 1784.69 433.389 1761.71 358.342 1714.05 307.823 C 1705.16 298.398 1694.7 290.091 1684.57 281.878 z" fill="rgb(245,244,233)" transform="translate(0,0)"></path>
<path d="M 1636.66 191.492 C 1654.9 189.556 1671.25 202.803 1673.14 221.052 C 1675.03 239.301 1661.74 255.616 1643.48 257.458 C 1625.3 259.293 1609.05 246.063 1607.17 227.88 C 1605.29 209.697 1618.48 193.421 1636.66 191.492 z" fill="rgb(245,244,233)" transform="translate(0,0)"></path>
<path d="M 1481.01 448.119 C 1489.78 447.587 1497.87 448.839 1505.42 453.582 C 1512.9 458.285 1518.05 465.933 1519.59 474.637 C 1520.36 478.935 1520.85 484.852 1518.26 488.498 C 1513.71 488.977 1500.27 485.859 1493.86 485.061 C 1478.93 482.786 1462.84 482.07 1447.74 481.659 C 1453.24 462.558 1461.51 453.027 1481.01 448.119 z" fill="rgb(245,244,233)" transform="translate(0,0)"></path>
<path d="M 1643.42 495.12 C 1674.64 492.18 1684.33 512.425 1677.74 540.243 L 1665.57 534.094 C 1652.2 527.542 1634.34 521.28 1620.04 515.905 C 1626.8 504.755 1631.16 499.454 1643.42 495.12 z" fill="rgb(245,244,233)" transform="translate(0,0)"></path>
<path d="M 1768.62 579.726 C 1774.53 577.673 1781.09 579.011 1785.73 583.215 C 1790.37 587.419 1792.34 593.819 1790.88 599.905 C 1789.41 605.991 1784.74 610.791 1778.7 612.424 C 1769.8 614.829 1760.59 609.753 1757.87 600.942 C 1755.16 592.131 1759.91 582.751 1768.62 579.726 z" fill="rgb(245,244,233)" transform="translate(0,0)"></path>
<path d="M 1356.03 464.024 C 1365.04 463.606 1371.82 465.192 1375.92 474.267 C 1377.83 478.475 1377.92 483.288 1376.16 487.564 C 1373.75 493.287 1370.77 494.944 1365.37 497.185 C 1341.82 496.517 1336.18 476.06 1356.03 464.024 z" fill="rgb(245,244,233)" transform="translate(0,0)"></path>
<metadata><recraft-signature>{"signed_by": "recraft", "signature_b64": "PZ3045nGEX+KsF34ufELUrEOoyQaBZ28ps8yRKEvvafmN18Ulq9gKLI+p0raes98P6c8q0gMiuxRXK7V9Y6wBg==", "signing_algo": "Ed25519", "generation_timestamp": 1781711294, "identifier": "22ed02dc-0b3c-41f7-b745-5ece8faebb28"}</recraft-signature></metadata></svg>