<svg xmlns="http://www.w3.org/2000/svg" height="1024" preserveAspectRatio="none" style="display: block;" version="1.1" viewBox="0 0 2048 2048" width="1024">
<path d="M 0 0 L 2048 0 L 2048 2048 L 0 2048 L 0 0 z" fill="rgb(236,237,228)" transform="translate(0,0)"></path>
<path d="M 1482.19 836.442 C 1495.97 836.768 1561.78 834.002 1569.9 839.037 C 1573.17 848.356 1572.3 910.939 1572.08 924.869 L 1542.88 925.128 C 1543.94 931.992 1544.41 934.659 1546.53 941.262 C 1551.91 944.782 1554.58 946.484 1559.4 950.781 C 1561.74 957.239 1561.8 962.563 1562.01 969.248 C 1569.17 969.113 1575.75 969.524 1582.89 969.914 C 1594.33 954.52 1622.33 954.094 1636.88 964.92 C 1642.48 969.08 1644.71 971.886 1648.73 977.321 C 1677.98 963.529 1696.58 969.699 1713.72 996.503 C 1742.31 990.197 1757.06 995.381 1768.15 1023.28 C 1798.02 1019.5 1815.47 1030.52 1819.28 1061.46 C 1844.43 1066.87 1853.34 1079.66 1850.34 1103.95 C 1850.1 1105.88 1866.15 1114.91 1869.2 1121.74 C 1873.48 1131.32 1872.43 1140.74 1872.52 1151.27 C 1881 1160.46 1902.19 1175.19 1893.63 1194.02 C 1877.38 1226.49 1868.34 1271.19 1852.52 1303.34 C 1830.31 1348.48 1813.77 1378.12 1813.8 1430.47 C 1813.8 1435.18 1799.93 1474.07 1797.34 1481.7 C 1822.73 1476.97 1849.4 1472.3 1874.99 1468.56 C 1877.92 1468.13 1880.26 1471.02 1881.87 1472.93 C 1882.56 1478.59 1880.46 1481.27 1874.67 1482.47 C 1846.48 1488.3 1815.69 1492 1787.98 1499.62 C 1787.83 1504 1788.18 1509.24 1788.36 1513.68 C 1768.06 1539.28 1706.33 1539.07 1675.33 1541.21 C 1667.03 1541.78 1651.21 1539.44 1643.94 1541.14 C 1602.39 1550.84 1562.47 1567.45 1521.9 1580.57 C 1454.03 1603.15 1385.03 1624.57 1317.88 1648.9 C 1299.3 1655.67 1280.79 1662.63 1262.35 1669.77 C 1251.9 1673.82 1236.63 1683.9 1227.16 1675.72 C 1225.4 1670.99 1227.61 1668.74 1232.09 1666.61 C 1241.22 1662.3 1251.12 1658.86 1260.58 1655.27 C 1282.44 1646.92 1304.45 1638.96 1326.59 1631.38 C 1377.6 1613.65 1428.79 1596.42 1480.15 1579.7 C 1516.85 1567.87 1567.53 1552.56 1602.68 1538.74 C 1579.88 1536.76 1546.63 1533.99 1523.99 1536.24 C 1516.57 1536.97 1491.15 1546.76 1480.44 1549.67 C 1401.71 1570.8 1323.86 1595.07 1247.08 1622.42 C 1214.69 1633.53 1182.6 1645.49 1150.84 1658.29 C 1137.06 1663.95 1123.37 1669.91 1109.52 1675.39 C 1102.08 1678.34 1095.01 1684.41 1086.96 1683.18 C 1084.87 1681.67 1083.5 1680.74 1082.85 1678.02 C 1082.57 1676.81 1082.71 1674.98 1083.44 1673.94 C 1093.94 1658.82 1299.16 1589.57 1327.62 1580.43 C 1350.74 1573 1374.15 1566.64 1397.39 1559.59 C 1424.6 1551.33 1451.56 1542.57 1479.08 1535.32 C 1456.83 1535.12 1406.34 1531.09 1386.93 1536 C 1350.14 1545.29 1311.31 1560.65 1274.43 1571.24 C 1233.47 1583 1192.41 1599.02 1152.53 1613.96 C 1147.29 1615.98 1136.29 1617.45 1132.81 1611.84 C 1133.13 1610.62 1133.1 1610.44 1133.82 1609.21 C 1141.29 1596.48 1331.23 1538.23 1358.27 1530.45 C 1340.28 1527.12 1321.03 1526.5 1301.84 1522.85 C 1286.94 1533.77 1201.17 1556.79 1179.34 1565.07 C 1173 1567.47 1161.37 1571.63 1154.94 1568.39 C 1152.3 1565.02 1153.21 1566.9 1152.5 1562.36 C 1154.43 1559.23 1160.66 1556.33 1164.13 1555.18 C 1205.51 1541.49 1248.53 1530.02 1289.37 1514.84 C 1280.46 1512.4 1273.01 1510.27 1264.26 1507.27 C 1261.82 1472.08 1255.36 1436.58 1248.85 1401.93 C 1246.36 1388.69 1244.53 1374.6 1240.41 1361.8 C 1231.04 1332.72 1163.87 1195.71 1165.61 1181.75 C 1166.6 1173.87 1185.43 1162.89 1191.52 1157.58 C 1185.08 1138.31 1190.08 1123.26 1208.55 1113.67 C 1203.49 1087.18 1212.51 1069.91 1239.9 1065.13 C 1239.42 1060.62 1239.37 1056.82 1240.29 1052.31 C 1242.16 1042.77 1247.85 1034.42 1256.04 1029.2 C 1268.56 1021.13 1277.51 1023.01 1290.71 1025.72 C 1300.9 1000.91 1320.19 991.741 1345.27 1001.44 C 1360.92 973.039 1381.51 968.035 1411.29 979.129 C 1428.2 953.827 1457.98 950.023 1479.9 971.393 L 1494.51 968.446 C 1494.79 952.348 1501.03 948.105 1511.78 936.888 L 1511.9 924.897 L 1483.53 925.067 C 1481.09 905.671 1482.19 858.196 1482.19 836.442 z" fill="rgb(184,47,42)" transform="translate(0,0)"></path>
<path d="M 1586.19 1032.7 C 1594.91 1036.23 1607.93 1039.97 1617.23 1043.21 L 1692.48 1069.41 C 1706.51 1074.22 1735.57 1081.01 1745.71 1090.73 C 1769.73 1113.73 1809.29 1151.52 1815.23 1185.2 C 1818.32 1202.73 1784.79 1193.97 1778.21 1204.96 C 1773.79 1212.35 1783.38 1223.13 1785.06 1234.99 C 1787.37 1251.42 1787.11 1253.28 1786.08 1270.68 C 1785.18 1285.95 1775.86 1303.94 1777.96 1317.81 C 1778.32 1320.18 1780.7 1321.14 1782.39 1321.89 C 1789.81 1320 1824.61 1291.54 1834.31 1284.82 C 1825.51 1309.07 1816.89 1334.19 1796.31 1351.04 C 1782.82 1362.09 1766.06 1368.62 1748.47 1366.64 C 1733.14 1364.84 1719.13 1357.07 1709.48 1345.02 C 1699.15 1332.09 1694.31 1313.46 1696.04 1297.05 C 1697.25 1285.56 1707.09 1269.26 1720.41 1271.04 C 1730.38 1277.51 1718.65 1290.64 1715.89 1298.04 C 1714.36 1302.1 1714.77 1306.64 1717.01 1310.36 C 1723.25 1320.67 1736.29 1319.18 1741.92 1308.79 C 1750.29 1292.89 1753.86 1273.02 1757.59 1255.39 C 1760.52 1241.49 1750.87 1237.8 1739.78 1236.87 C 1738.34 1237.15 1738.06 1236.91 1736.5 1236.67 C 1732.66 1230.98 1721.89 1196.58 1719.19 1188.46 C 1714.1 1173.19 1708.72 1158.01 1703.06 1142.94 C 1688.6 1156.41 1661.09 1198.51 1649.88 1215.44 C 1647.97 1214.48 1646.03 1213.57 1644.07 1212.71 C 1613.39 1199.5 1619.99 1243.71 1619.04 1260.95 C 1618.54 1270.08 1619.33 1294.22 1631.54 1295.23 C 1665.32 1298.03 1630.91 1262.35 1642.96 1253.23 C 1657.36 1250.93 1663.99 1263.95 1666.66 1276.31 C 1676.92 1323.82 1617.1 1354.19 1580.36 1327.15 C 1556.32 1309.45 1550.48 1287.96 1545.48 1259.85 C 1560.17 1258.66 1568.67 1257.89 1580.07 1247.8 C 1578.94 1268.12 1576.29 1266.01 1566.07 1283.46 C 1565.12 1284.95 1564.73 1288.38 1566.06 1289.75 C 1578.51 1304.23 1593.39 1283.72 1594.74 1271.46 C 1599.03 1232.45 1599.35 1193.04 1606.17 1154.13 C 1609.72 1133.88 1590.89 1137.15 1576.86 1136.99 C 1577.05 1122.84 1579.65 1103.47 1581.14 1089 C 1582.98 1070.25 1584.66 1051.48 1586.19 1032.7 z" fill="rgb(236,237,228)" transform="translate(0,0)"></path>
<path d="M 1469.85 1035.04 L 1471.69 1035.62 C 1473.09 1040.48 1473.85 1058.38 1474.41 1064.17 C 1476.72 1088.15 1477.65 1112.91 1480.08 1136.79 C 1473.11 1137.12 1447.33 1136.93 1448.07 1147.51 C 1449.05 1161.46 1452.79 1176.68 1455.08 1190.66 C 1457.52 1205.67 1459.7 1220.73 1461.61 1235.82 C 1463.7 1253.49 1463.8 1276.59 1475.69 1290.95 C 1482.25 1298.87 1488.15 1297.79 1494.6 1290.69 C 1496.95 1282.53 1485.02 1273.05 1482.31 1263.81 C 1481.08 1259.59 1480.68 1254.13 1480.23 1249.76 C 1490.85 1257.63 1497.27 1258.75 1509.79 1261.27 C 1507.51 1290.59 1499.95 1317.79 1472.42 1333.56 C 1438.21 1353.14 1400.74 1327.14 1392.14 1292.63 C 1388.98 1279.92 1399.27 1253.46 1415.76 1259.78 C 1418.79 1264.67 1416.44 1273.99 1414.72 1280.74 C 1408.59 1296.9 1428.29 1301.95 1434.3 1292.56 C 1444.15 1277.17 1442.07 1229.56 1429.86 1215.92 C 1425.63 1211.19 1411.87 1214.73 1407.12 1215.81 C 1390.95 1193.55 1370.3 1161.74 1353.38 1141.34 C 1342.26 1171.23 1333.72 1202.16 1323.7 1232.4 C 1322.65 1235.56 1322.38 1235.19 1319.78 1236.11 C 1314.68 1237.09 1304.15 1238.64 1302.83 1244.78 C 1299.76 1260.63 1307.36 1278.23 1313.35 1292.9 C 1316.23 1299.96 1327.66 1318.11 1337.91 1310.06 C 1351.51 1299.35 1329.97 1283.48 1331.13 1274.72 C 1339.69 1268.8 1344.43 1272.77 1351.14 1278.98 C 1372.03 1298.3 1367.38 1333.38 1346.62 1350.5 C 1315.87 1375.86 1272.72 1362.85 1250.9 1332.62 C 1244.33 1323.73 1225.6 1295.24 1226.72 1284.9 C 1228.25 1281.81 1227.98 1281.62 1230.93 1280.03 C 1242.55 1279.96 1255.17 1314.59 1268.45 1318.44 C 1289.75 1324.61 1283.95 1305.43 1282.46 1292.62 C 1280.55 1276.23 1276.69 1259.13 1278.24 1242.61 C 1278.97 1234.83 1287.69 1219.75 1284.45 1213.08 C 1278.55 1206.96 1255.56 1200.45 1246.06 1197.2 C 1248.04 1188.22 1252.59 1173.08 1255.93 1164.34 C 1262.57 1147.03 1263.84 1118.72 1281.25 1109.85 C 1298.18 1101.22 1315.71 1094.77 1332.95 1087.68 C 1378.05 1068.76 1423.7 1051.2 1469.85 1035.04 z" fill="rgb(236,237,228)" transform="translate(0,0)"></path>
<path d="M 1509.7 1385.44 C 1531.72 1384.8 1559.69 1384.79 1581.39 1385.9 C 1632.34 1388.51 1754.57 1405.12 1794.29 1437.15 C 1790.1 1452.89 1780.18 1475.53 1774.16 1491.9 C 1715.4 1462.47 1620.41 1454.53 1554.82 1453.96 C 1452.75 1453.93 1375.82 1463.53 1277.14 1492.74 C 1274.82 1471.98 1272.9 1450.7 1270.03 1430.07 C 1347.74 1405.22 1428.26 1390.23 1509.7 1385.44 z" fill="rgb(236,237,228)" transform="translate(0,0)"></path>
<path d="M 1451.72 1399.01 C 1475.21 1398.65 1484.69 1430.08 1454.19 1438.96 C 1450.78 1439.09 1447.39 1438.45 1444.26 1437.1 C 1424.29 1428.39 1431.03 1405.83 1451.72 1399.01 z" fill="rgb(184,47,42)" transform="translate(0,0)"></path>
<path d="M 1525.94 1395.49 C 1536.49 1392.91 1547.14 1399.38 1549.72 1409.94 C 1552.29 1420.5 1545.81 1431.15 1535.25 1433.71 C 1524.69 1436.28 1514.06 1429.8 1511.49 1419.25 C 1508.92 1408.7 1515.39 1398.06 1525.94 1395.49 z" fill="rgb(184,47,42)" transform="translate(0,0)"></path>
<path d="M 1363.35 1417.4 C 1373.65 1414.61 1384.26 1420.67 1387.1 1430.95 C 1389.93 1441.23 1383.93 1451.87 1373.66 1454.76 C 1363.32 1457.66 1352.6 1451.6 1349.74 1441.25 C 1346.89 1430.91 1352.99 1420.21 1363.35 1417.4 z" fill="rgb(184,47,42)" transform="translate(0,0)"></path>
<path d="M 1303.27 1431.74 C 1313.41 1429.51 1323.48 1435.76 1325.98 1445.83 C 1328.49 1455.9 1322.51 1466.14 1312.51 1468.91 C 1305.8 1470.77 1298.6 1468.84 1293.72 1463.87 C 1288.85 1458.89 1287.05 1451.67 1289.03 1444.99 C 1291.02 1438.31 1296.47 1433.24 1303.27 1431.74 z" fill="rgb(184,47,42)" transform="translate(0,0)"></path>
<path d="M 1605.33 1399.72 C 1615.52 1399.4 1624.11 1407.25 1624.7 1417.42 C 1625.29 1427.6 1617.67 1436.39 1607.51 1437.25 C 1597.12 1438.14 1588 1430.39 1587.18 1420 C 1586.77 1414.87 1588.48 1409.8 1591.91 1405.97 C 1595.34 1402.14 1600.19 1399.88 1605.33 1399.72 z" fill="rgb(184,47,42)" transform="translate(0,0)"></path>
<path d="M 1689.15 1408.08 C 1713.14 1407.12 1720.97 1434.35 1695.75 1445.9 C 1671.79 1447.82 1665.35 1418.87 1689.15 1408.08 z" fill="rgb(184,47,42)" transform="translate(0,0)"></path>
<path d="M 1746.18 1427.13 C 1754.31 1426.37 1760.89 1428.75 1765.14 1436.2 C 1767.79 1440.84 1768.4 1446.36 1766.84 1451.47 C 1764.88 1458.1 1760.89 1460.43 1755.16 1463.38 C 1731.85 1466.37 1726.66 1439.24 1746.18 1427.13 z" fill="rgb(184,47,42)" transform="translate(0,0)"></path>
<path d="M 1500.57 1351.43 C 1588.89 1345.95 1714.74 1371.71 1799.08 1398.58 C 1799.02 1407.53 1798.78 1413.13 1797.79 1421.98 C 1740.48 1385.49 1636.71 1376.88 1569.68 1371.22 C 1493.47 1368.49 1419.1 1378.31 1344.91 1395.09 C 1318.57 1401.04 1293.13 1409.11 1267.28 1416.81 C 1266.92 1410.35 1265.71 1403.93 1264.69 1397.52 C 1340.81 1371.34 1420.19 1355.83 1500.57 1351.43 z" fill="rgb(236,237,228)" transform="translate(0,0)"></path>
<path d="M 1589.2 1001.65 C 1640.22 1018.38 1707.86 1039.56 1756.19 1064.49 C 1770.62 1071.94 1797.09 1103.13 1807.56 1116.02 C 1817.43 1128.16 1828.03 1150.74 1835.22 1165.46 C 1838.35 1171.88 1841.15 1180.22 1845.99 1185.3 L 1844.78 1185.89 L 1833.46 1188.23 C 1818.12 1145.12 1787.16 1104.55 1751.14 1075.93 C 1743.98 1070.24 1712.4 1061.38 1701.42 1057.61 L 1587.95 1018.69 L 1589.2 1001.65 z" fill="rgb(236,237,228)" transform="translate(0,0)"></path>
<path d="M 1468.03 1004.01 L 1469.74 1004.66 C 1471.13 1009.43 1470.88 1015 1470.97 1020.07 C 1437.83 1034.46 1403.71 1043.58 1370.08 1056.07 C 1344.03 1066.78 1317.17 1079.09 1291.13 1089.5 C 1261.41 1101.38 1257.76 1107.13 1248.51 1136.97 C 1243.68 1152.52 1237.09 1174.76 1230.6 1189.2 L 1230.03 1190.46 L 1228.66 1190.8 C 1226.95 1184.98 1252.95 1103.92 1256.57 1094.19 C 1314.03 1056.88 1403.07 1027.07 1468.03 1004.01 z" fill="rgb(236,237,228)" transform="translate(0,0)"></path>
<path d="M 1514.37 988.895 L 1542.98 988.761 C 1539.27 1037.1 1539.43 1086.81 1535.84 1135.06 L 1534.94 1136.69 C 1527.32 1137.38 1524.73 1137.77 1517.36 1139.74 C 1518.05 1090.63 1516.25 1037.87 1514.37 988.895 z" fill="rgb(236,237,228)" transform="translate(0,0)"></path>
<path d="M 1198.49 1198.6 C 1210.6 1200.53 1256.68 1215.58 1270.02 1219.89 C 1260.83 1243.35 1262.57 1254.22 1265.48 1279.36 C 1266.01 1284.01 1267.2 1291.85 1266.52 1296.28 C 1256.89 1284.3 1254.12 1277.38 1241.72 1265.51 C 1243.41 1254.31 1246.22 1242.43 1247.18 1231.23 C 1247.49 1227.68 1246.03 1226.28 1243.89 1224.26 C 1235.78 1221.82 1218.29 1225.63 1209.19 1227.01 C 1205.47 1217.94 1201.93 1207.84 1198.49 1198.6 z" fill="rgb(236,237,228)" transform="translate(0,0)"></path>
<path d="M 1479.94 1148.42 C 1482.38 1151.69 1481.17 1164.93 1484.58 1167.7 C 1492.46 1174.13 1501.61 1179.57 1510.02 1185.69 L 1510.06 1212.76 C 1501.91 1216.14 1495.64 1218.64 1487.94 1223.08 C 1484.4 1225.73 1481.72 1228.54 1478.57 1231.63 C 1473.71 1207.4 1468.76 1175.95 1465.34 1151.42 C 1470.5 1150.04 1474.72 1149.32 1479.94 1148.42 z" fill="rgb(236,237,228)" transform="translate(0,0)"></path>
<path d="M 1850.41 1199.2 L 1851.34 1199.32 L 1852.26 1200.94 C 1852.06 1206.72 1850.89 1209.49 1849.2 1214.97 C 1843.47 1217.1 1834.27 1218.72 1827.44 1220.86 C 1818.44 1240.03 1815.4 1261.4 1813.26 1282.35 C 1809.54 1284.87 1802.51 1291.32 1798.95 1291.32 L 1798.58 1289.21 C 1803.18 1255.07 1802.81 1245.31 1792.95 1213.99 C 1812.13 1209.23 1831.31 1203.44 1850.41 1199.2 z" fill="rgb(236,237,228)" transform="translate(0,0)"></path>
<path d="M 1575.79 1149.97 C 1580.77 1149.96 1584.91 1150.48 1589.83 1151 C 1587.09 1175.89 1583.26 1204.26 1579.84 1229.21 C 1575.4 1225.76 1572.82 1224.37 1568.01 1221.69 C 1560.19 1218.79 1555.08 1218.1 1546.93 1216.82 L 1546.79 1185.46 C 1551.82 1182 1556.66 1178.28 1561.54 1174.6 L 1574.48 1176.51 C 1575.3 1168.98 1575.45 1157.79 1575.79 1149.97 z" fill="rgb(236,237,228)" transform="translate(0,0)"></path>
<path d="M 1562.93 979.866 C 1566.29 979.869 1566.36 979.816 1569.59 980.649 C 1570.29 986.847 1568.05 1021.62 1567.49 1029.51 C 1564.6 1069.54 1563.52 1114.24 1558.68 1153.86 C 1557.12 1153.3 1552.9 1151.89 1552.84 1151.06 C 1550.39 1116.07 1562.33 1008.84 1562.93 979.866 z" fill="rgb(236,237,228)" transform="translate(0,0)"></path>
<path d="M 1487.52 978.93 L 1492.51 979.899 C 1494.23 981.717 1495.44 1014.25 1495.59 1018.94 C 1496.89 1062.1 1503.1 1105.87 1504.67 1148.89 C 1501.95 1149.87 1501.45 1150.3 1498.55 1150.13 C 1496.91 1146.51 1495.85 1124.59 1495.46 1119.05 C 1493.32 1090.62 1491.48 1062.18 1489.93 1033.72 C 1489.08 1015.46 1489.26 997.053 1487.52 978.93 z" fill="rgb(236,237,228)" transform="translate(0,0)"></path>
<path d="M 1524.81 1188.97 C 1527.93 1188.96 1529.21 1188.73 1532.1 1189.98 C 1535.27 1196.78 1532.1 1260.42 1532.32 1272.26 C 1532.35 1274.07 1530.41 1278.04 1529.41 1279.79 C 1524.12 1273.4 1522.17 1265.52 1522.15 1255.14 C 1522.11 1235.18 1521.13 1211.31 1522.74 1191.27 C 1523.43 1190.5 1524.12 1189.73 1524.81 1188.97 z" fill="rgb(236,237,228)" transform="translate(0,0)"></path>
<path d="M 1495.52 853.427 L 1495.45 849.026 L 1496.63 848.328 C 1502.43 852.187 1500.07 851.527 1507.86 850.584 C 1509.4 850.398 1510.87 849.572 1511.45 851.01 C 1514.66 858.93 1518.51 870.137 1522.32 877.596 L 1496.78 877.98 L 1498.02 892.329 L 1494.99 891.61 L 1495.52 853.427 z" fill="rgb(236,237,228)" transform="translate(0,0)"></path>
<path d="M 1495.52 853.427 C 1497.26 861.344 1495.51 873.484 1496.78 877.98 L 1498.02 892.329 L 1494.99 891.61 L 1495.52 853.427 z" fill="rgb(242,240,235)" transform="translate(0,0)"></path>
<path d="M 1441.93 970.174 C 1448.25 969.813 1464.14 969.395 1464.32 978.129 C 1460.88 983.75 1454.27 984.859 1447.9 986.926 C 1441.01 988.811 1430.66 990.057 1425.63 984.007 C 1424.24 974.595 1434.55 971.965 1441.93 970.174 z" fill="rgb(236,237,228)" transform="translate(0,0)"></path>
<path d="M 1667.37 983.194 C 1670.44 983.088 1674.25 982.912 1677.27 983.315 C 1683.41 984.134 1701.54 991.036 1698.83 999.306 C 1695.89 1001.82 1694.97 1001.74 1691.23 1002.48 C 1683.55 1002.05 1659.44 997.09 1659.21 987.232 C 1661.42 984.446 1663.87 984.22 1667.37 983.194 z" fill="rgb(236,237,228)" transform="translate(0,0)"></path>
<path d="M 1386.29 986.36 C 1391.33 986.804 1399.03 986.573 1400.54 992.052 C 1397.31 998.292 1381.84 1003.14 1375.1 1005.65 C 1369.48 1006.86 1364.19 1008.66 1360.47 1003.54 C 1360.38 992.747 1377.65 987.511 1386.29 986.36 z" fill="rgb(236,237,228)" transform="translate(0,0)"></path>
<path d="M 1606.55 970.196 C 1614.88 969.633 1639.72 972.413 1635.74 984.548 C 1632.99 987.218 1630.33 987.268 1626.5 988.045 C 1625.38 988.014 1624.25 987.949 1623.13 987.849 C 1616.88 987.279 1596.05 982.485 1597.44 974.606 C 1600.26 971.628 1602.45 971.441 1606.55 970.196 z" fill="rgb(236,237,228)" transform="translate(0,0)"></path>
<path d="M 1233.02 1078.99 C 1236.33 1078.85 1240.17 1078.64 1242.77 1080.65 C 1242.21 1083.34 1228.81 1106.21 1226.32 1111.6 C 1225.84 1112.15 1226.27 1111.77 1224.33 1112.83 C 1218.23 1108.66 1218.21 1097.99 1220.34 1091.52 C 1222.55 1084.81 1227 1082.03 1233.02 1078.99 z" fill="rgb(236,237,228)" transform="translate(0,0)"></path>
<path d="M 1837.11 1114.54 C 1851.24 1115.67 1865.36 1131.67 1859.05 1145.24 C 1857.81 1145.52 1856.34 1145.58 1855.04 1145.71 C 1843.19 1140.85 1837.17 1126.69 1837.11 1114.54 z" fill="rgb(236,237,228)" transform="translate(0,0)"></path>
<path d="M 1271.36 1035.08 C 1276.34 1034.77 1280.65 1034.2 1284.48 1037.65 L 1284.41 1039.8 C 1280.12 1046.62 1270.93 1051.61 1263.96 1056.09 C 1260.13 1059.16 1259.03 1061.46 1254.73 1059 C 1249.86 1047.67 1262.62 1038.97 1271.36 1035.08 z" fill="rgb(236,237,228)" transform="translate(0,0)"></path>
<path d="M 1522.05 1157.1 C 1525.43 1159.07 1541.69 1165.3 1546.29 1167.21 C 1540.91 1170.18 1535.34 1174.58 1530.34 1178.29 C 1525.2 1180.55 1511.01 1168.25 1506.34 1164.83 C 1513.44 1162.73 1516.36 1161.8 1522.05 1157.1 z" fill="rgb(236,237,228)" transform="translate(0,0)"></path>
<path d="M 1325.63 1008.12 C 1331.88 1008.58 1335.09 1010.39 1340.41 1013.24 C 1331.53 1022.07 1327.82 1022.76 1316.14 1027.21 C 1311.71 1028.78 1306.73 1030.18 1302.2 1031.57 C 1306.83 1018.09 1311.52 1012.12 1325.63 1008.12 z" fill="rgb(236,237,228)" transform="translate(0,0)"></path>
<path d="M 1775.97 1034.88 C 1783.19 1034.65 1785.31 1034.69 1791.79 1038.03 C 1798.15 1041.3 1808.8 1049.31 1802.76 1057.37 C 1790.22 1058.91 1773.46 1048.16 1775.97 1034.88 z" fill="rgb(236,237,228)" transform="translate(0,0)"></path>
<path d="M 1213.62 1125.73 C 1217.06 1125.8 1216.88 1125.66 1219.89 1127.25 C 1223.47 1133.02 1216.15 1152.65 1211.82 1156.29 C 1196.44 1146.07 1199.18 1134.85 1213.62 1125.73 z" fill="rgb(236,237,228)" transform="translate(0,0)"></path>
<path d="M 1815.22 1074.57 C 1829.84 1074.25 1842.28 1087.16 1836.69 1101.49 C 1824.8 1100.95 1812.09 1085.7 1815.22 1074.57 z" fill="rgb(236,237,228)" transform="translate(0,0)"></path>
<path d="M 1557.46 849.611 C 1560.17 852.705 1559.88 871.913 1560.05 877.339 L 1536.89 877.289 L 1535.61 876.68 C 1536.32 874.078 1554.25 853.509 1557.46 849.611 z" fill="rgb(236,237,228)" transform="translate(0,0)"></path>
<path d="M 1727.24 1006.02 C 1735.97 1006 1750.98 1010.77 1753.4 1020.08 C 1752.64 1023.72 1753.5 1022.28 1751.08 1024.71 C 1742.62 1024.21 1725.44 1021.88 1723.45 1011.86 C 1724.62 1007.42 1723.54 1009.39 1727.24 1006.02 z" fill="rgb(236,237,228)" transform="translate(0,0)"></path>
<path d="M 1197.12 1166.65 C 1203.14 1168.07 1206.24 1168.64 1212.37 1169.36 C 1211.45 1175.02 1212.64 1182.84 1208.49 1186.52 L 1204.9 1185.67 C 1197.66 1182.59 1193.92 1181.14 1186.39 1179.02 C 1189.67 1175.71 1194 1170.31 1197.12 1166.65 z" fill="rgb(236,237,228)" transform="translate(0,0)"></path>
<path d="M 1526.28 892.989 C 1530.27 900.084 1533.96 906.701 1538.44 913.526 L 1534.08 914.972 L 1510.78 914.871 L 1511.4 914.194 C 1516.99 908.123 1521.77 900.022 1526.28 892.989 z" fill="rgb(236,237,228)" transform="translate(0,0)"></path>
<path d="M 1559.32 888.343 C 1559.73 897.013 1560.04 905.717 1560.97 914.344 C 1553.27 915.365 1542.1 914.996 1534.08 914.972 L 1538.44 913.526 C 1541.15 912.758 1544.33 912.959 1547.2 912.943 C 1549.73 902.079 1551.67 897.058 1559.32 888.343 z" fill="rgb(236,237,228)" transform="translate(0,0)"></path>
<path d="M 1538.44 913.526 C 1541.15 912.758 1544.33 912.959 1547.2 912.943 C 1551.88 914.63 1555.85 913.762 1560.97 914.344 C 1553.27 915.365 1542.1 914.996 1534.08 914.972 L 1538.44 913.526 z" fill="rgb(240,214,211)" transform="translate(0,0)"></path>
<path d="M 1864.48 1164.38 C 1878.83 1167.78 1878.29 1176.83 1873.43 1188.36 L 1871.05 1188.55 C 1863.73 1182.61 1861.24 1173.23 1864.48 1164.38 z" fill="rgb(236,237,228)" transform="translate(0,0)"></path>
<path d="M 1536.89 950.496 C 1546.51 953.969 1555.14 964.467 1543.12 972.213 C 1540.14 973.402 1540.16 973.941 1537.36 973.603 C 1538.45 961.215 1539.34 962.945 1536.89 950.496 z" fill="rgb(236,237,228)" transform="translate(0,0)"></path>
<path d="M 1514.42 951.585 C 1518.39 955.155 1519.47 969.616 1516.82 973.575 L 1513.84 973.188 C 1502.72 966.332 1507.33 959.418 1514.42 951.585 z" fill="rgb(236,237,228)" transform="translate(0,0)"></path>
<path d="M 1865.57 1202.77 C 1865.61 1208.79 1845.31 1258.3 1841.07 1266.27 L 1840.56 1264.78 C 1841.71 1257.7 1861.59 1207.59 1865.57 1202.77 z" fill="rgb(242,240,235)" transform="translate(0,0)"></path>
<path d="M 1494.99 891.61 L 1498.02 892.329 C 1499.03 902.711 1499.58 904.682 1504.03 914.119 C 1501.2 915.369 1498.88 914.755 1495.49 914.59 C 1495.24 907.112 1494.8 899.031 1494.99 891.61 z" fill="rgb(236,237,228)" transform="translate(0,0)"></path>
<path d="M 1527.13 925.219 C 1529.72 925.939 1528.64 925.208 1530.58 927.116 C 1531.91 932.238 1531.18 937.438 1530.85 942.804 C 1528.53 941.998 1529.35 942.444 1527.54 940.679 C 1525.89 935.333 1526.71 930.857 1527.13 925.219 z" fill="rgb(236,237,228)" transform="translate(0,0)"></path>
<path d="M 270.828 239.426 L 611.799 239.807 L 707.881 239.947 C 719.511 239.941 731.133 239.444 742.746 239.468 C 750.455 239.484 754.264 239.51 756.965 247.173 C 755.949 255.259 745.799 254.91 739.239 254.909 C 730.21 254.908 721.043 254.564 712.006 254.336 C 714.013 356.759 711.801 462.761 712.101 565.608 C 703.712 574.384 685.899 586.512 675.741 594.784 C 652.69 613.402 629.487 631.83 606.133 650.067 C 580.083 670.024 550.399 691.865 526.65 714.538 C 533.989 716.588 538.131 718.746 543.82 724.239 C 551.516 731.651 555.898 741.853 555.975 752.538 C 556.057 767.255 548.44 776.791 538.949 786.627 C 558.898 789.988 578.169 796.569 596.007 806.112 C 658.15 839.427 695.943 905.253 692.054 975.712 C 690.414 1005.41 682.06 1028.94 667.893 1055.04 C 664.939 1060.15 661.765 1065.12 658.381 1069.95 C 631.564 1108.64 588.164 1134.7 541.961 1142.71 C 492.108 1151.14 440.95 1139.37 399.794 1110 C 362.938 1083.37 338.124 1043.22 330.776 998.347 C 314.499 900.385 381.045 803.405 479.569 787.107 C 457.122 760.27 460.817 732.809 489.25 713.01 C 472.486 700.358 453.364 683.365 436.717 669.63 C 408.946 646.84 380.976 624.293 352.812 601.99 C 339.322 591.217 322.343 576.873 308.635 567.404 C 309.629 462.915 309.735 358.418 308.953 253.927 C 298.052 253.865 273.413 256.529 265.949 250.021 C 263.758 244.426 265.219 241.637 270.828 239.426 z" fill="rgb(184,47,42)" transform="translate(0,0)"></path>
<path d="M 493.586 796.361 C 587.76 787.054 671.575 856.031 680.562 950.236 C 689.549 1044.44 620.288 1128.02 526.053 1136.69 C 432.269 1145.32 349.175 1076.46 340.231 982.704 C 331.287 888.949 399.862 805.623 493.586 796.361 z" fill="rgb(236,237,228)" transform="translate(0,0)"></path>
<path d="M 504.932 809.809 C 591.668 806.845 664.376 874.775 667.304 961.512 C 670.233 1048.25 602.273 1120.93 515.535 1123.82 C 428.847 1126.71 356.219 1058.8 353.292 972.115 C 350.365 885.428 418.247 812.772 504.932 809.809 z" fill="rgb(184,47,42)" transform="translate(0,0)"></path>
<path d="M 426.729 1088.53 C 359.509 1042.48 342.269 950.693 388.195 883.386 C 434.121 816.078 525.871 798.662 593.266 844.459 C 660.662 890.256 678.253 981.972 632.585 1049.46 C 586.918 1116.94 495.235 1134.71 427.665 1089.17 C 427.352 1088.96 427.04 1088.74 426.729 1088.53 z" fill="rgb(236,237,228)" transform="translate(0,0)"></path>
<path d="M 466.369 913.906 C 479.317 887.817 493.487 856.465 508.54 832.362 C 525.622 858.078 539.014 887.752 555.369 913.438 C 569.293 916.602 586.121 918.387 600.424 920.583 C 611.54 922.289 625.995 924.865 636.96 925.626 C 624.731 938.604 612.607 951.682 600.589 964.856 C 593.173 972.93 583.95 982.248 577.759 991.085 C 581.524 1018.68 589.833 1063.64 589.701 1090.21 C 563.649 1073.99 535.45 1056.75 508.451 1042.24 C 495.043 1050.62 481.454 1058.72 467.696 1066.53 C 453.457 1074.44 441.323 1080.16 427.665 1089.17 C 427.352 1088.96 427.04 1088.74 426.729 1088.53 C 427.198 1079.99 429.935 1070.5 431.105 1061.88 C 434.286 1038.44 439.155 1014.54 442.432 991.216 C 424.906 972.588 407.499 953.845 389.44 935.731 C 386.22 932.5 382.908 929.365 379.914 925.92 C 407.994 923.272 438.238 918.148 466.369 913.906 z" fill="rgb(184,47,42)" transform="translate(0,0)"></path>
<path d="M 507.445 914.891 C 513.108 918.331 520.866 930.622 524.94 936.583 C 533.309 939.649 546.649 940.175 551.406 948.682 C 552.114 955.785 540.188 970.846 536.816 979.272 C 538.843 986.911 543.25 996.26 536.295 1001.89 C 528.659 1003.45 519.486 997.762 511.339 994.758 C 502.614 995.104 488.138 1005.43 481.361 1001.21 C 478.027 994.737 480.653 980.446 481.155 972.189 C 476.686 965.881 466.193 957.6 468.273 949.462 C 472.877 943.016 481.14 941.994 489.269 939.167 C 495.35 932.708 500.083 922.95 507.445 914.891 z" fill="rgb(236,237,228)" transform="translate(0,0)"></path>
<path d="M 468.57 254.043 L 484.005 254.005 L 484.059 488.641 C 484.345 554.927 484.101 621.215 483.326 687.498 C 477.735 684.084 473.47 679.911 468.763 675.444 C 466.854 592.674 468.757 502.633 468.834 419.575 C 468.893 387.09 468.745 354.604 468.391 322.121 C 468.2 300.713 467.572 275.318 468.57 254.043 z" fill="rgb(236,237,228)" transform="translate(0,0)"></path>
<path d="M 533.786 255.029 L 548.966 254.956 L 549.503 672.366 L 544.452 677.864 L 533.75 687.926 L 533.786 255.029 z" fill="rgb(236,237,228)" transform="translate(0,0)"></path>
<path d="M 648.496 255.342 L 662.957 254.915 L 662.051 585.222 L 656.127 589.755 L 648.098 597.182 L 647.667 388.053 C 647.579 374.836 646.301 258.616 648.496 255.342 z" fill="rgb(236,237,228)" transform="translate(0,0)"></path>
<path d="M 356.993 254.987 L 370.974 254.964 C 371.774 367.257 372.38 484.279 370.986 596.545 C 365.327 593.898 361.238 589.857 356.857 585.594 L 356.993 254.987 z" fill="rgb(236,237,228)" transform="translate(0,0)"></path>
<path d="M 500.599 722.002 C 517.828 717.413 535.496 727.742 539.948 745.007 C 544.4 762.272 533.931 779.858 516.631 784.173 C 499.524 788.44 482.177 778.113 477.775 761.04 C 473.372 743.968 483.562 726.539 500.599 722.002 z" fill="rgb(236,237,228)" transform="translate(0,0)"></path>
<path d="M 1020.73 93.8348 C 1025.64 93.6003 1032.65 94.1406 1032.67 101.008 C 1032.71 113.098 1032.46 125.219 1032.46 137.331 L 1032.74 222.783 L 1032.83 530.965 L 1032.17 1582.52 L 1032.51 1836.35 C 1032.67 1863.03 1032.66 1889.7 1032.48 1916.38 C 1032.38 1925.54 1032.28 1935.76 1031.94 1945 C 1031.87 1946.72 1029.34 1949.57 1028.13 1950.99 C 1023.72 1951.72 1023.35 1951.8 1019.49 1950.07 C 1015.85 1946.42 1015.97 1940.47 1015.97 1935.24 C 1015.98 1893.99 1016.36 1852.61 1016.42 1811.37 L 1016.08 1583.56 L 1016.25 885.568 L 1016.33 412.756 L 1016.04 210.377 C 1016.03 174.463 1015.88 138.299 1016.23 102.377 C 1016.27 98.2084 1017.95 96.7922 1020.73 93.8348 z" fill="rgb(184,47,42)" transform="translate(0,0)"></path>
<path d="M 1811.58 766.812 C 1812.72 766.335 1812.75 766.672 1814.42 767.003 C 1819 770.578 1821.46 774.165 1817.76 780.36 C 1816.73 782.08 1813.09 783.638 1811 783.488 C 1799.73 782.681 1788.56 782.767 1777.27 782.806 L 1650.14 782.89 L 1254.16 782.93 L 1243.26 782.938 L 1243.84 768.651 L 1601.12 768.555 C 1625 768.543 1804.15 770.471 1811.58 766.812 z" fill="rgb(184,47,42)" transform="translate(0,0)"></path>
<path d="M 2009.43 1527.26 C 2012.15 1527.69 2012.84 1528.39 2015.35 1529.71 C 2017.31 1532.75 2016.9 1531.14 2016.71 1534.68 C 2011.67 1544.11 1997.2 1544.11 1986.87 1546.08 C 1819.38 1578.61 1655.31 1626.8 1496.82 1690 C 1493.42 1689.56 1491.17 1688.57 1488.91 1685.97 C 1487.7 1675.39 1507.11 1670.73 1515.02 1667.42 C 1523.01 1664.07 1531.53 1661.06 1539.65 1657.94 C 1692.02 1600.42 1849.25 1556.68 2009.43 1527.26 z" fill="rgb(184,47,42)" transform="translate(0,0)"></path>
<path d="M 1934.3 1501.3 C 1939.72 1500.55 1940.41 1500.54 1943.83 1504.93 C 1944.48 1509.68 1942.53 1514.47 1937.31 1515.19 C 1877.56 1523.47 1818.53 1538.24 1760.09 1553.06 C 1690.81 1570.82 1621.97 1590.28 1553.65 1611.43 C 1512.27 1624.41 1470.73 1639.53 1429.08 1651.87 C 1424.93 1652.48 1423.01 1651.91 1420.1 1649 C 1418.41 1636.88 1439.06 1633.9 1447.9 1631.21 C 1461.01 1627.14 1474.1 1623.01 1487.17 1618.81 C 1507.1 1612.41 1526.98 1604.89 1546.78 1598.72 C 1673.71 1557.9 1803.15 1525.36 1934.3 1501.3 z" fill="rgb(184,47,42)" transform="translate(0,0)"></path>
<path d="M 1950.59 1600.3 L 1955.01 1599.95 C 1958.17 1601.55 1957.94 1601.44 1959.76 1604.51 C 1960.56 1614.05 1952.54 1614.35 1944.95 1615.79 C 1827.63 1637.25 1712.31 1668.5 1600.2 1709.19 L 1597 1709.92 C 1593.09 1708.77 1594.64 1709.8 1592.05 1706.91 C 1590.78 1699.61 1595.02 1695.91 1601.56 1693.56 C 1654.72 1674.46 1711.93 1655.81 1766.34 1640.98 C 1827.17 1624.88 1888.64 1611.31 1950.59 1600.3 z" fill="rgb(184,47,42)" transform="translate(0,0)"></path>
<path d="M 178.002 1402 C 181.723 1401.85 184.829 1401.16 187.766 1403.13 C 191.48 1408.76 189.347 1422.72 189.598 1431.61 C 222.672 1413.3 234.664 1452.25 219.305 1474.04 C 203.265 1486.81 201.768 1479.24 187.57 1475.94 C 184.776 1478.34 183.474 1480.11 179.905 1479.46 C 176.76 1475.1 177.748 1467.31 177.813 1461.9 C 178.052 1441.93 178.023 1421.97 178.002 1402 z" fill="rgb(184,47,42)" transform="translate(0,0)"></path>
<path d="M 196.671 1436.12 C 218.621 1434.9 219.247 1461.91 205.492 1470.52 C 183.535 1474.68 183.802 1444.35 196.671 1436.12 z" fill="rgb(242,240,235)" transform="translate(0,0)"></path>
<path d="M 364.32 1731.29 C 405.215 1729.59 390.74 1804.14 353.728 1780.23 L 352.742 1779.58 C 351.48 1782.8 351.927 1788.03 351.921 1791.79 C 351.845 1796.02 352.439 1802.31 350.191 1805.49 C 346.553 1806.51 346.452 1806.5 342.659 1806.62 C 341.096 1804.68 342.036 1741.46 342.291 1733.54 L 343.777 1732.18 C 346.74 1731.78 346.985 1732.06 349.571 1733.33 L 353.992 1735.47 C 358.305 1733.23 359.668 1732.67 364.32 1731.29 z" fill="rgb(184,47,42)" transform="translate(0,0)"></path>
<path d="M 361.061 1740.91 C 366.853 1740.97 371.679 1742.46 375.031 1747.48 C 378.006 1751.9 379.097 1757.33 378.061 1762.55 C 376.757 1769.17 374.828 1771.93 369.396 1775.39 C 348.497 1776.46 347.933 1750.38 361.061 1740.91 z" fill="rgb(236,237,228)" transform="translate(0,0)"></path>
<path d="M 610.076 1302.27 C 613.33 1302 615.821 1301.4 618.723 1302.72 C 623.008 1307.81 620.801 1318.79 620.828 1327.2 C 623.685 1326.26 627.603 1324.87 630.526 1324.54 C 636.521 1323.93 642.51 1325.75 647.152 1329.6 C 659.321 1339.87 657.85 1360.84 647.955 1372.31 C 631.127 1383.17 629.189 1373.37 619.091 1373.7 C 618.024 1375.91 618.15 1375.86 616.377 1377.52 C 612.076 1377.86 613.894 1378.35 610.486 1376.82 C 609.395 1369.42 609.821 1356.37 609.827 1348.57 C 609.774 1333.14 609.858 1317.7 610.076 1302.27 z" fill="rgb(184,47,42)" transform="translate(0,0)"></path>
<path d="M 627.202 1334.03 C 641.015 1334.41 645.085 1342.35 643.641 1356.17 C 643.053 1361.8 641.009 1364.96 636.315 1368.14 C 617.694 1367.99 618.062 1352.82 621.261 1338.15 C 621.815 1335.61 625.048 1334.9 627.202 1334.03 z" fill="rgb(242,240,235)" transform="translate(0,0)"></path>
<path d="M 202.991 1202.99 C 204.427 1202.95 212.19 1202.7 213.152 1203.65 C 227.095 1217.46 234.362 1238.8 247.068 1253.78 C 247.008 1245.13 246.192 1211.34 247.593 1204.19 C 250.317 1202.82 254.74 1203.17 257.998 1203.15 C 257.86 1224.27 258.793 1255.05 258.107 1277.04 C 257.617 1277.72 257.127 1278.39 256.636 1279.07 C 255.256 1278.95 253.763 1278.82 252.415 1278.53 C 245.339 1277 220.71 1233.83 214.881 1225.5 C 213.45 1242.69 215.354 1261.57 213.813 1277.87 C 211.278 1279.34 206.225 1278.84 203.05 1278.81 L 202.991 1202.99 z" fill="rgb(184,47,42)" transform="translate(0,0)"></path>
<path d="M 1648.66 470.709 C 1658.24 468.62 1668.21 471.855 1674.74 479.174 C 1681.27 486.493 1683.35 496.761 1680.18 506.045 C 1677.02 515.329 1669.1 522.189 1659.46 523.997 C 1644.85 526.737 1630.75 517.241 1627.8 502.675 C 1624.85 488.11 1634.14 473.873 1648.66 470.709 z" fill="rgb(184,47,42)" transform="translate(0,0)"></path>
<path d="M 1649.83 480.055 C 1673.16 477.952 1675.75 505.516 1658.38 515.274 C 1637.39 517.957 1634.33 492.168 1649.83 480.055 z" fill="rgb(236,237,228)" transform="translate(0,0)"></path>
<path d="M 1498.44 372.632 C 1512.8 369.186 1527.25 377.956 1530.82 392.281 C 1534.39 406.607 1525.75 421.134 1511.46 424.831 C 1496.99 428.575 1482.24 419.801 1478.62 405.296 C 1475.01 390.791 1483.91 376.12 1498.44 372.632 z" fill="rgb(184,47,42)" transform="translate(0,0)"></path>
<path d="M 1501.12 381.018 C 1523.98 380.965 1525.91 406.867 1508.18 416.28 C 1487.8 418.694 1483.56 391.656 1501.12 381.018 z" fill="rgb(236,237,228)" transform="translate(0,0)"></path>
<path d="M 204.278 1633.17 C 241.48 1630.5 245.966 1676.77 215.687 1687.79 C 210.092 1688.25 205.031 1688.43 199.722 1686.26 C 193.888 1683.84 189.265 1679.18 186.885 1673.33 C 179.78 1656.24 187.526 1640.08 204.278 1633.17 z" fill="rgb(184,47,42)" transform="translate(0,0)"></path>
<path d="M 206.998 1643.08 C 208.961 1643 214.131 1642.68 215.663 1643.61 C 229.198 1651.75 226.669 1672.83 212.02 1678.37 C 192.986 1677.27 188.491 1651.98 206.998 1643.08 z" fill="rgb(236,237,228)" transform="translate(0,0)"></path>
<path d="M 1514.69 272.12 C 1549.52 269.448 1555.46 318.967 1522.25 326.833 C 1486.89 328.601 1481.69 282.209 1514.69 272.12 z" fill="rgb(184,47,42)" transform="translate(0,0)"></path>
<path d="M 1514.05 282.022 C 1536.58 280.658 1538.61 307.584 1523.08 317.014 C 1500.13 318.436 1498.09 292.673 1514.05 282.022 z" fill="rgb(236,237,228)" transform="translate(0,0)"></path>
<path d="M 1398.94 272.172 C 1403.48 271.789 1408.05 272.642 1412.14 274.642 C 1433.4 285 1432.09 318.827 1405 327.172 C 1368.36 327.512 1364.15 279.701 1398.94 272.172 z" fill="rgb(184,47,42)" transform="translate(0,0)"></path>
<path d="M 1397.12 282.057 C 1419.04 280.829 1420.46 307.344 1405.03 317.783 C 1383.7 319.314 1380.61 293.128 1397.12 282.057 z" fill="rgb(236,237,228)" transform="translate(0,0)"></path>
<path d="M 1548.85 675.268 C 1583.58 675.673 1588.12 719.159 1556.86 729.089 C 1518.38 730.446 1516.49 681.614 1548.85 675.268 z" fill="rgb(184,47,42)" transform="translate(0,0)"></path>
<path d="M 1545.89 685.108 C 1570.45 683.659 1572.75 709.11 1556.64 719.786 C 1535.07 722.233 1530.82 696.727 1545.89 685.108 z" fill="rgb(236,237,228)" transform="translate(0,0)"></path>
<path d="M 1646.81 576.002 C 1661.1 573.036 1675.08 582.233 1678.01 596.527 C 1680.95 610.82 1671.72 624.781 1657.42 627.685 C 1643.17 630.581 1629.26 621.388 1626.33 607.138 C 1623.4 592.887 1632.57 578.958 1646.81 576.002 z" fill="rgb(184,47,42)" transform="translate(0,0)"></path>
<path d="M 1648.76 584.079 C 1669.9 584.129 1672.95 609.092 1656.19 619.14 C 1634.24 620.372 1632.15 593.776 1648.76 584.079 z" fill="rgb(236,237,228)" transform="translate(0,0)"></path>
<path d="M 290.136 1225.2 C 295.324 1224.64 300.678 1224.15 305.632 1226.08 C 312.069 1228.63 317.128 1233.78 319.558 1240.26 C 325.925 1256.76 319.024 1273.55 301.891 1279.14 C 297.499 1279.36 294.351 1279.47 290.124 1278.04 C 282.736 1275.55 276.768 1270.02 273.732 1262.84 C 266.7 1246.33 273.98 1231.71 290.136 1225.2 z" fill="rgb(184,47,42)" transform="translate(0,0)"></path>
<path d="M 293.026 1234.05 C 314.279 1232.9 314.501 1259.54 300.327 1269.33 C 279.79 1268 278.01 1244.97 293.026 1234.05 z" fill="rgb(236,237,228)" transform="translate(0,0)"></path>
<path d="M 714.044 1532.27 C 741.718 1530.93 754.085 1579.27 716.32 1586.66 C 702.562 1586.23 692.083 1579.7 690.121 1565.62 C 687.486 1546.72 696.114 1535.14 714.044 1532.27 z" fill="rgb(184,47,42)" transform="translate(0,0)"></path>
<path d="M 710.871 1542.02 C 730.7 1539.46 735.877 1566.41 718.922 1577.06 C 697.705 1577.94 696.081 1553.67 710.871 1542.02 z" fill="rgb(242,240,235)" transform="translate(0,0)"></path>
<path d="M 627.977 1428.21 C 662.909 1422.93 672.549 1466.49 641.009 1480.44 C 636.099 1481.28 630.66 1481.24 625.896 1479.68 C 619.443 1477.58 614.205 1472.8 611.521 1466.57 C 604.544 1450.59 612.221 1434.72 627.977 1428.21 z" fill="rgb(184,47,42)" transform="translate(0,0)"></path>
<path d="M 631.033 1437.01 C 652.805 1435.3 653.915 1462.9 638.054 1471.98 C 615.808 1472.94 615.657 1447.53 631.033 1437.01 z" fill="rgb(242,240,235)" transform="translate(0,0)"></path>
<path d="M 757.567 1635.09 C 795.698 1633.08 797.334 1680.48 767.718 1687.69 C 730.822 1690.1 726.777 1645.12 757.567 1635.09 z" fill="rgb(184,47,42)" transform="translate(0,0)"></path>
<path d="M 758.976 1644.96 C 781.063 1643.32 782.689 1669.13 766.705 1678.77 C 746.289 1680.47 742.742 1655.42 758.976 1644.96 z" fill="rgb(236,237,228)" transform="translate(0,0)"></path>
<path d="M 768.727 1427.1 C 801.351 1426.56 808.416 1472.25 777.656 1481.03 C 772.334 1481.31 766.629 1481.69 761.614 1479.25 C 747.22 1472.27 744.122 1451.59 751.927 1438.68 C 756.222 1431.58 760.866 1429.23 768.727 1427.1 z" fill="rgb(184,47,42)" transform="translate(0,0)"></path>
<path d="M 768.984 1436.94 C 790.129 1436.32 791.151 1465.09 775.032 1472.2 C 755.989 1471.93 752.723 1447.2 768.984 1436.94 z" fill="rgb(236,237,228)" transform="translate(0,0)"></path>
<path d="M 723.164 1224.26 C 728.184 1224.16 733.105 1225.67 737.205 1228.57 C 755.23 1241.28 751.732 1274.16 725.25 1278.84 C 693.091 1277.49 688.405 1229.74 723.164 1224.26 z" fill="rgb(184,47,42)" transform="translate(0,0)"></path>
<path d="M 719.942 1233.94 L 721.254 1233.98 C 740.686 1234.71 741.513 1258.49 728.056 1269.05 C 706.844 1269.82 706.062 1243.88 719.942 1233.94 z" fill="rgb(242,240,235)" transform="translate(0,0)"></path>
<path d="M 495.992 1634.3 C 527.4 1635.18 531.756 1680.93 498.314 1688.11 C 465.501 1687.38 461.093 1639.35 495.992 1634.3 z" fill="rgb(184,47,42)" transform="translate(0,0)"></path>
<path d="M 493.124 1642.98 C 513.565 1643.62 516.105 1670.51 499.33 1678.62 C 480.166 1678.99 477.689 1652.91 493.124 1642.98 z" fill="rgb(236,237,228)" transform="translate(0,0)"></path>
<path d="M 396.059 1540.32 C 397.788 1538.88 399.562 1537.49 401.378 1536.16 C 421.195 1521.93 434.9 1540.89 432.396 1560.41 C 431.385 1568.29 436.885 1591.13 422.996 1584.43 C 415.051 1573.02 432.117 1537.8 405.823 1542.41 L 404.676 1542.62 C 390.76 1554.19 403.068 1571.18 397.037 1584.6 C 378.651 1593.52 392.07 1553.46 385.598 1546.24 C 382.341 1539.08 371.407 1541.59 368.516 1548.15 C 364.478 1557.31 368.206 1573.53 366.08 1584.29 L 364.712 1585 C 361.006 1584.9 359.353 1585.37 356.304 1583.81 C 354.75 1574.06 356.083 1544.85 355.261 1531.98 L 361.766 1532.04 C 365.216 1534.1 364.679 1534.18 366.569 1537.99 C 374.439 1537.34 383.574 1522.1 396.059 1540.32 z" fill="rgb(184,47,42)" transform="translate(0,0)"></path>
<path d="M 417.568 1731.09 C 452.838 1729.97 454.171 1776.08 426.39 1785.07 C 421.091 1785.2 416.357 1785.14 411.51 1782.74 C 405.163 1779.6 400.375 1774 398.256 1767.24 C 392.826 1750.45 401.251 1736.43 417.568 1731.09 z" fill="rgb(184,47,42)" transform="translate(0,0)"></path>
<path d="M 418.003 1739.98 C 437.773 1740.09 441.061 1766.16 425.453 1775.04 C 405.391 1778.57 402.911 1751.13 418.003 1739.98 z" fill="rgb(236,237,228)" transform="translate(0,0)"></path>
<path d="M 1351.52 285.033 C 1351.55 279.752 1350.9 255.41 1352.93 253.275 C 1356.3 253.053 1359.48 252.449 1362.52 253.665 C 1363.42 260.798 1363.02 273.876 1363.02 281.464 C 1362.96 296.611 1363.03 311.759 1363.23 326.905 L 1351.54 326.789 C 1351.7 316.482 1351.7 306.173 1351.54 295.867 C 1340.39 295.246 1330.03 295.369 1318.91 295.585 L 1318.86 326.966 L 1306.93 326.785 L 1306.99 252.956 C 1311.42 252.777 1314.07 252.382 1318.34 253.555 C 1319.67 257.117 1318.92 279.656 1318.83 285.061 L 1351.52 285.033 z" fill="rgb(184,47,42)" transform="translate(0,0)"></path>
<path d="M 777.891 1532.06 C 786.177 1532.18 788.773 1539.16 790.337 1538.88 C 799.429 1537.28 806.814 1525.03 817.106 1537.76 C 823.456 1545.62 821.976 1575.76 820.709 1584.66 C 817.282 1586.56 814.941 1586.33 811.197 1585.17 C 805.128 1575.77 818.129 1547.45 802.808 1541.94 C 787.233 1542.41 792.131 1570.97 792.276 1582.25 C 792.135 1585.05 792.7 1583.87 790.93 1586 C 788.751 1586.59 787.315 1586.75 785.113 1586.37 C 777.413 1585.03 786.35 1552.11 779.506 1544.68 C 777.71 1542.74 774.331 1541.56 771.737 1541.39 C 769.37 1541.24 767.175 1542.11 765.723 1544.03 C 760.675 1550.7 762.4 1563.72 762.484 1571.6 C 762.539 1576.75 762.941 1581.93 759.16 1585.82 C 755.757 1586.33 755.972 1586.4 752.677 1585.51 C 751.506 1575.95 751.269 1544.71 751.772 1534.88 C 754.357 1532.48 752.888 1533.15 756.269 1532.67 C 759.859 1533.92 760.069 1534.42 762.872 1537.25 L 763.663 1538.07 C 768.841 1535.37 772.121 1533.38 777.891 1532.06 z" fill="rgb(184,47,42)" transform="translate(0,0)"></path>
<path d="M 390.738 1226.22 L 402.208 1226.52 L 398.391 1238.24 C 395.259 1247.79 388.826 1272.15 382.87 1277.62 C 381.026 1278.1 380.427 1278.7 379.059 1277.88 C 372.366 1273.9 366.335 1251.16 363.792 1243.54 C 360.96 1251.6 355.904 1274.08 350.607 1278.5 C 341.381 1280.06 330.176 1236.57 327.305 1227.54 L 328.481 1226.49 C 332.09 1226.31 333.59 1226.3 337.188 1226.53 C 341.013 1229.38 347.03 1256.31 348.817 1263.17 C 351.186 1255.43 356.501 1226.19 365.336 1227.41 C 371.65 1232.65 377.973 1255.15 381.137 1264.31 L 390.738 1226.22 z" fill="rgb(184,47,42)" transform="translate(0,0)"></path>
<path d="M 1384.06 470.273 C 1398.23 469.438 1406.23 475.303 1407.86 489.618 C 1408.81 497.962 1409.21 515.611 1407.42 523.397 C 1404.87 525.069 1405.18 524.61 1401.8 524.917 C 1398.07 523.393 1399.36 524.274 1397.01 520.143 C 1385.98 520.999 1387.89 533.563 1369.31 521.359 C 1350.66 496.351 1378.8 491.754 1397.45 491.035 C 1390.49 469.291 1382.88 486.368 1371.56 481.948 C 1369.57 478.697 1369.27 479.281 1369.12 475.968 C 1372.59 471.919 1378.86 471.254 1384.06 470.273 z" fill="rgb(184,47,42)" transform="translate(0,0)"></path>
<path d="M 1387.5 499.415 C 1390.66 499.263 1391.78 499.038 1394.89 499.89 C 1402.41 507.738 1393.53 515.906 1385.26 517.858 C 1371.51 512.929 1371.96 501.137 1387.5 499.415 z" fill="rgb(236,237,228)" transform="translate(0,0)"></path>
<path d="M 483.478 1730.68 C 485.095 1730.84 486.792 1731.1 488.412 1731.32 C 493.219 1736.51 499.124 1759.18 501.946 1767.41 C 505.721 1755.54 508.346 1743.32 511.058 1731.17 L 521.807 1732.19 C 519.454 1741.51 510.491 1785.13 500.242 1783.68 C 494.72 1778.15 488.355 1757.84 485.349 1749.63 C 480.541 1754.11 479.099 1775.53 471.359 1784.08 C 465.797 1785.64 463.929 1779.65 462.351 1775.09 C 457.554 1761.22 452.936 1746.86 449.188 1732.7 C 453.501 1732.42 458 1731.7 461.999 1732.98 C 464.695 1744.69 467.161 1756.87 470.82 1768.27 C 474.744 1755.32 478.929 1743.43 483.478 1730.68 z" fill="rgb(184,47,42)" transform="translate(0,0)"></path>
<path d="M 1633.53 272.017 C 1647.81 271.245 1663.19 282.108 1663.24 297.455 C 1663.27 307.919 1634.66 298.928 1626.17 303.233 C 1624.18 307.591 1624.43 305.437 1624.95 309.864 C 1631.08 319.141 1642.78 319.192 1651.61 313.688 L 1653.48 312.943 C 1657.49 314.874 1657.97 315.98 1657.82 320.087 C 1652.57 329.027 1636.61 328.497 1628.29 325.202 C 1622.07 322.745 1617.19 317.739 1614.9 311.45 C 1608.66 294.853 1616.87 277.973 1633.53 272.017 z" fill="rgb(184,47,42)" transform="translate(0,0)"></path>
<path d="M 1636.19 280.92 C 1642.64 281.316 1652.52 285.142 1649.68 293.093 C 1645.8 295.283 1645.65 294.489 1640.5 294.554 C 1634.93 294.817 1627.15 296.522 1625.2 290.109 C 1626.87 285.83 1632.17 282.721 1636.19 280.92 z" fill="rgb(242,240,235)" transform="translate(0,0)"></path>
<path d="M 1522.14 573.11 C 1546.88 571.91 1550.75 584.59 1550.4 607.133 C 1550.3 613.017 1551.38 623.961 1548.2 628.544 L 1545.7 628.911 C 1542.59 627.374 1542.3 626.574 1540.31 623.783 L 1539.69 622.896 C 1529.13 624.915 1533.02 633.581 1515.59 626.698 C 1510.12 621.158 1503.04 609.525 1509.41 602.388 C 1516.79 594.116 1526.94 593.383 1537.17 592.097 L 1537.99 590.621 C 1535.75 577.765 1521.52 586.598 1511.82 583.084 L 1511.13 581.543 C 1513.51 576.143 1516.89 575.263 1522.14 573.11 z" fill="rgb(184,47,42)" transform="translate(0,0)"></path>
<path d="M 1531.42 600.173 C 1546.2 599.459 1541.48 616.772 1527.09 620.892 C 1513.2 613.741 1518.77 603.6 1531.42 600.173 z" fill="rgb(236,237,228)" transform="translate(0,0)"></path>
<path d="M 1531.54 470.406 C 1556.55 472.195 1552.18 490.703 1552.69 510.154 C 1552.81 514.901 1552.65 519.755 1552.63 524.512 C 1548.3 524.628 1546.81 524.795 1542.63 523.997 C 1542.31 522.593 1541.94 521.199 1541.54 519.818 C 1528.17 521.751 1528.91 533.52 1511.51 518.328 C 1495.75 490.609 1537.35 493.686 1540.81 489.232 C 1539.19 470.785 1528.34 484.045 1517.28 482.297 C 1514.59 480.595 1514.37 478.59 1513.24 475.448 L 1512.76 474.098 C 1520.62 471.931 1523.51 471.151 1531.54 470.406 z" fill="rgb(184,47,42)" transform="translate(0,0)"></path>
<path d="M 1531.14 499.152 C 1533.89 498.993 1535.95 499.059 1538.67 499.145 C 1542.09 501.388 1540.77 499.941 1542.59 503.816 C 1542.16 511.951 1537.31 514.462 1530.5 517.175 C 1524.77 516.783 1522.91 516.261 1520.51 511.073 C 1520.74 503.451 1524.7 501.354 1531.14 499.152 z" fill="rgb(236,237,228)" transform="translate(0,0)"></path>
<path d="M 1389.46 573.171 C 1394.83 572.861 1398.84 572.976 1403.55 576.08 C 1409.83 580.221 1421.14 594.487 1415.26 601.899 C 1409.89 605.383 1386.98 604.178 1378.57 604.352 C 1385.13 621.321 1395.11 624.557 1410.64 614.052 C 1412.14 614.003 1412.41 614.741 1414.21 616.027 C 1414.85 618.427 1414.68 618.341 1414.06 620.796 C 1394.03 644.6 1355.55 617.086 1371.37 587.784 C 1376.4 578.455 1379.84 576.689 1389.46 573.171 z" fill="rgb(184,47,42)" transform="translate(0,0)"></path>
<path d="M 1392 582.229 C 1397.96 583.082 1400.61 583.834 1403.94 589.128 C 1404.06 592.935 1404.53 591.198 1402.28 594.464 C 1398.83 596.844 1395.18 596.078 1390.75 595.937 C 1387.4 596.063 1384.12 596.714 1381.51 594.987 C 1377.64 587.761 1386.15 583.608 1392 582.229 z" fill="rgb(242,240,235)" transform="translate(0,0)"></path>
<path d="M 221.82 1506.1 C 224.843 1505.92 226.962 1505.36 229.399 1506.97 C 232.806 1513.25 230.99 1527.8 230.917 1536.08 C 256.343 1524.66 265.799 1538.9 264.965 1563.1 C 264.715 1570.34 265.845 1576.93 264.763 1584.34 C 261.681 1585.52 257.563 1585.62 254.527 1584.23 C 253.339 1578.38 253.91 1561.22 253.899 1553.98 C 251.884 1543.4 240.78 1538.32 234.756 1545.27 C 228.705 1552.26 230.839 1575.35 230.934 1585.75 L 219.068 1585.18 C 219.045 1565 218.457 1530.06 219.66 1508.38 C 220.38 1507.62 221.1 1506.86 221.82 1506.1 z" fill="rgb(184,47,42)" transform="translate(0,0)"></path>
<path d="M 1450.13 673.12 C 1471.27 670.41 1476.9 684.196 1477.64 702.237 C 1464.14 704.132 1454.41 704.459 1440.82 704.955 C 1445.72 723.129 1454.92 723.453 1470.61 717.027 C 1472.53 716.429 1472.21 716.652 1474.34 716.719 L 1475.64 718.582 C 1474.86 729.421 1455.36 732.794 1446.84 728.612 C 1422.06 716.444 1426.61 684.447 1450.13 673.12 z" fill="rgb(184,47,42)" transform="translate(0,0)"></path>
<path d="M 1451.7 682.061 C 1458.93 682.596 1467.84 685.937 1465.72 694.774 C 1462.36 697.296 1463.13 696.488 1458.17 696.852 L 1440.92 696.978 L 1441.83 694.729 C 1444.72 687.372 1444.75 685.745 1451.7 682.061 z" fill="rgb(236,237,228)" transform="translate(0,0)"></path>
<path d="M 409.805 1323.15 C 430.055 1323.23 434.023 1337.4 434.047 1354.72 C 425.952 1354.4 405.895 1352.97 399.038 1354.98 C 398.665 1357.27 398.296 1356.89 399.247 1359.18 C 404.37 1371.52 416.689 1368.76 425.806 1365.72 C 426.357 1365.87 427.539 1366.64 428.101 1366.97 C 430.178 1370.57 429.924 1368.75 429.305 1372.54 C 427.132 1375.18 426.519 1375.13 423.49 1376.3 C 396.242 1386.8 378.051 1359.19 391.233 1335.62 C 395.499 1327.99 401.34 1325.39 409.805 1323.15 z" fill="rgb(184,47,42)" transform="translate(0,0)"></path>
<path d="M 406.738 1333.01 C 414.72 1332.08 424.629 1335.25 423.512 1344.9 C 421.297 1347.35 421.829 1346.54 417.25 1346.77 L 397.944 1346.73 C 399.922 1339.54 401.113 1337.86 406.738 1333.01 z" fill="rgb(236,237,228)" transform="translate(0,0)"></path>
<path d="M 1315.4 545.637 C 1317.56 546.056 1317.04 545.939 1319.06 546.853 C 1322.09 554.219 1321.11 573.443 1321.18 582.654 C 1359.53 554.284 1359.58 602.614 1355.76 627.162 C 1352.68 628.367 1348.46 628.091 1344.95 628.199 L 1344.99 595.75 C 1344.26 579.226 1327.03 582.38 1322.85 593.857 C 1318.94 604.602 1327.24 616.179 1321.21 626.53 C 1317.4 628.763 1315.77 628.026 1310.92 628.113 C 1310.91 619.308 1309.78 550.582 1311.01 547.322 L 1315.4 545.637 z" fill="rgb(184,47,42)" transform="translate(0,0)"></path>
<path d="M 1382.17 651.198 L 1383.78 651.41 C 1386.45 654.776 1385.52 675.828 1385.7 682.105 C 1396.8 673.776 1409.61 669.753 1416.59 685.064 C 1419.93 692.396 1420.48 721.442 1417.35 728.733 L 1414.55 729.681 C 1411.17 729.288 1411.38 729.412 1408.76 727.25 C 1406.77 723.854 1407.75 701.678 1407.76 695.792 C 1406.66 687.496 1400.98 682.074 1392.7 686.306 C 1378.37 693.622 1389.34 713.358 1385.54 725.183 C 1384.19 729.377 1377.86 729.97 1374.49 727.526 C 1373.39 718.361 1373.65 662.557 1374.27 652.841 C 1377.1 651.104 1378.56 651.495 1382.17 651.198 z" fill="rgb(184,47,42)" transform="translate(0,0)"></path>
<path d="M 428.589 1225.18 C 448.933 1223.62 453.768 1237.79 454.053 1255.03 C 444.583 1255.92 427.902 1254.57 420.455 1256.52 C 420.218 1257.24 419.947 1257.84 420.091 1258.66 C 422.7 1273.41 436.024 1270.8 446.551 1267.54 L 447.301 1267.46 C 449.3 1270.28 448.557 1268.69 448.88 1272.68 C 445.242 1282.23 429.102 1281.06 421.548 1277.76 C 407.238 1271.52 404.638 1251.92 410.806 1239.08 C 414.966 1230.42 420.039 1228.09 428.589 1225.18 z" fill="rgb(184,47,42)" transform="translate(0,0)"></path>
<path d="M 430.165 1234.09 C 436.402 1235.07 445.341 1238.46 441.469 1246.29 C 438.414 1248.36 435.692 1247.75 431.868 1247.62 C 426.016 1247.82 423.352 1249.09 419.396 1244.28 C 419.314 1238.15 424.91 1235.52 430.165 1234.09 z" fill="rgb(242,240,235)" transform="translate(0,0)"></path>
<path d="M 329.966 1301.23 C 333.61 1300.96 336.306 1300.29 339.416 1301.99 C 342.985 1307.03 340.937 1321.51 340.988 1329.67 C 381.127 1308.7 375.608 1354.05 375.286 1377.98 L 363.888 1377.77 C 364.167 1367.89 364.349 1358 364.434 1348.12 C 364.229 1346.01 363.825 1339.62 361.914 1338.08 C 354.461 1331.55 342.35 1333.56 341.504 1344.94 C 340.71 1355.64 341.345 1367.14 341.362 1377.96 L 329.768 1377.95 C 330.252 1352.41 329.395 1326.86 329.966 1301.23 z" fill="rgb(184,47,42)" transform="translate(0,0)"></path>
<path d="M 560.213 1532.4 C 562.341 1532.44 564.468 1532.53 566.592 1532.67 C 587.438 1534.28 584.204 1570.25 582.523 1585.05 C 580.35 1586.69 581.279 1585.98 577.931 1586.35 C 574.168 1584.58 575.338 1585.14 572.679 1581.22 C 559.978 1582.65 560.2 1593.02 545.457 1581.67 C 533.69 1562.48 549.931 1554.52 566.139 1552.73 C 569.139 1552.4 570.978 1551.32 572.541 1548.84 C 570.701 1536.36 547.469 1547.35 543.361 1539.51 C 545.7 1532.92 554.467 1532.85 560.213 1532.4 z" fill="rgb(184,47,42)" transform="translate(0,0)"></path>
<path d="M 557.906 1562.22 C 562.589 1561.56 566.208 1560.79 570.343 1563.13 C 574.535 1568.92 570.64 1572.29 566.257 1576.51 C 554.418 1578.57 548.482 1571.6 557.906 1562.22 z" fill="rgb(242,240,235)" transform="translate(0,0)"></path>
<path d="M 544.004 1731.26 C 565.177 1728.81 573.21 1740.05 573.054 1760.16 C 565.982 1760.39 542.374 1758.92 538.404 1761.75 C 537.822 1776.21 556.072 1776.46 566.096 1773.23 L 567.981 1772.19 C 570.547 1774.26 571.501 1777.37 573.005 1780.56 C 525.201 1797.09 511.598 1749.23 544.004 1731.26 z" fill="rgb(184,47,42)" transform="translate(0,0)"></path>
<path d="M 548.071 1738.8 C 554.629 1739.28 562.782 1742.74 561.251 1750.61 C 558.09 1752.95 558.626 1752.15 553.757 1752.21 C 549.215 1752.37 544.257 1753.15 540.479 1751.12 C 537.039 1745.9 544.014 1741.68 548.071 1738.8 z" fill="rgb(242,240,235)" transform="translate(0,0)"></path>
<path d="M 314.688 1634.13 C 341.52 1631.58 341.884 1647.69 341.036 1669.25 C 340.85 1673.97 342.249 1683.25 341.466 1686.89 C 339.425 1687.09 332.408 1687.62 332.277 1687.09 C 330.536 1679.9 321.029 1688.16 315.471 1687.72 C 312.187 1687.46 309.492 1686.62 305.313 1684.97 C 301.889 1681.23 299.907 1676.81 299.289 1671.73 C 298.934 1668.98 299.735 1666.21 301.501 1664.07 C 308.201 1655.89 319.655 1655.2 329.268 1654.49 C 330.285 1651.72 330.134 1651.91 329.032 1648.44 C 325.162 1636.27 312.071 1648.23 303.447 1643.8 C 302.903 1640.29 302.711 1641.95 304.082 1638.64 C 307.647 1635.95 310.454 1635.43 314.688 1634.13 z" fill="rgb(184,47,42)" transform="translate(0,0)"></path>
<path d="M 328.015 1662.48 C 329.617 1662.33 328.762 1662.2 330.486 1663.27 C 332.83 1675.6 326.598 1679.37 315.145 1678.45 C 310.828 1674.98 309.429 1672.49 311.327 1667.43 C 317.165 1662.33 320.304 1662.86 328.015 1662.48 z" fill="rgb(236,237,228)" transform="translate(0,0)"></path>
<path d="M 599.186 1634.21 C 613.95 1632.57 622.182 1639.82 626.823 1654.55 C 627.593 1656.99 626.712 1659.17 625.342 1661.26 C 620.887 1664.82 596.857 1663.19 589.887 1663.07 C 593.07 1680.15 601.382 1681.93 616.77 1676.41 L 618.073 1676.01 C 621.176 1678 620.035 1676.68 621.447 1680.26 C 620.606 1683.02 619.32 1685.2 616.348 1686.24 C 578.332 1699.59 562.674 1648.76 599.186 1634.21 z" fill="rgb(184,47,42)" transform="translate(0,0)"></path>
<path d="M 602.24 1641.84 C 609.037 1642.6 616.507 1646.81 614.084 1654.66 C 610.407 1657.08 610.497 1656.24 605.25 1656.38 L 590.345 1656.66 C 593.43 1648.05 594.302 1645.85 602.24 1641.84 z" fill="rgb(242,240,235)" transform="translate(0,0)"></path>
<path d="M 602.117 1225.17 C 615.256 1224.18 619.781 1225.25 626.868 1236.73 C 627.002 1243.28 628.03 1274.04 625.241 1277.56 L 618.601 1277.54 L 616.547 1274.48 C 606.17 1279.66 602.056 1280.47 591.386 1275.26 C 571.543 1254.76 597.184 1248.67 612.31 1245.16 C 614.522 1244.65 615.035 1242.67 615.484 1240.8 C 610.27 1228.84 598.672 1238.76 590.991 1235.31 C 587.942 1227.44 596.734 1226.78 602.117 1225.17 z" fill="rgb(184,47,42)" transform="translate(0,0)"></path>
<path d="M 603.668 1254.18 C 620.44 1252.95 618.243 1265.24 608.286 1270.36 C 595.567 1269.97 592.735 1261.06 603.668 1254.18 z" fill="rgb(236,237,228)" transform="translate(0,0)"></path>
<path d="M 1603.47 677.11 C 1625.51 675.551 1630.75 687.106 1631.6 706.657 C 1623.61 706.768 1604.96 705.559 1598.23 707.347 L 1597.74 708.666 C 1602.17 720.224 1611.68 722.208 1622.74 718.152 L 1624.11 717.187 C 1627.55 718.719 1628.34 720.229 1627.92 723.602 C 1622.61 730.403 1609.6 729.835 1602.29 727.207 C 1595.89 724.92 1590.73 720.066 1588.06 713.813 C 1581.45 698.438 1587.4 682.761 1603.47 677.11 z" fill="rgb(184,47,42)" transform="translate(0,0)"></path>
<path d="M 1604.96 685.885 C 1606.82 685.725 1610.86 685.348 1612.37 686.17 C 1616.72 688.536 1622.67 693.649 1619.54 698.815 L 1616.25 699.063 C 1613.09 699.144 1609.92 699.191 1606.75 699.203 C 1602.33 699.197 1601.15 699.269 1598.18 696.276 C 1598.45 691.334 1601.3 689.174 1604.96 685.885 z" fill="rgb(242,240,235)" transform="translate(0,0)"></path>
<path d="M 297.671 1532.16 C 300.639 1532.1 302.953 1532.13 305.814 1533.03 C 314.43 1535.76 324.419 1550.42 321.247 1559.14 C 316.076 1563.32 294.322 1561.88 285.787 1561.94 L 286.237 1563.04 L 286.985 1564.79 C 293.523 1580.39 301.967 1578.04 315.878 1573.87 C 317.907 1576.63 318.592 1577.7 318.162 1580.91 C 312.475 1588.77 297.016 1587.32 289.356 1583.46 C 283.301 1580.46 278.813 1575.03 277.018 1568.51 C 271.98 1550.75 280.123 1536.82 297.671 1532.16 z" fill="rgb(184,47,42)" transform="translate(0,0)"></path>
<path d="M 297.232 1539.89 C 303.918 1540.84 311.653 1544.59 308.706 1552.58 C 304.913 1554.96 304.871 1554.08 299.491 1554.06 L 286.567 1554.05 C 289.674 1545.73 289.745 1544.44 297.232 1539.89 z" fill="rgb(242,240,235)" transform="translate(0,0)"></path>
<path d="M 445.796 1428.13 C 471.301 1426.46 471.854 1431.58 472.887 1456.3 C 473.19 1463.54 473.781 1471.43 472.698 1478.59 C 470.483 1480.85 471.784 1480.1 468.593 1480.8 C 464.909 1479.76 464.301 1478.9 461.733 1476.3 L 460.309 1476.36 C 459.014 1477.25 457.697 1478.11 456.36 1478.94 C 450.135 1482.74 446.112 1481.28 439.056 1479.53 C 430.97 1472.98 429.909 1463.82 435.68 1454.66 C 440.461 1447.07 452.228 1451.11 460.407 1449.57 C 464.694 1446.24 460.563 1441.29 457.928 1437.93 C 452.196 1435.22 441.985 1440.82 437.537 1435.88 C 438.784 1431.09 441.628 1430.17 445.796 1428.13 z" fill="rgb(184,47,42)" transform="translate(0,0)"></path>
<path d="M 448.415 1457.07 C 452.625 1456.72 458.696 1455.42 461.511 1459.48 C 465.292 1464.94 459.941 1470.12 455.399 1472.68 C 444.277 1473.99 438.349 1466.29 448.415 1457.07 z" fill="rgb(242,240,235)" transform="translate(0,0)"></path>
<path d="M 1555.18 272.819 C 1558.72 272.703 1563.52 272.137 1566.02 274.028 C 1568.05 285.767 1561.95 310.191 1571.67 317.881 C 1575.64 319.13 1577.7 318.064 1581.07 316.381 C 1595.26 309.312 1585.87 288.792 1589.24 276.886 C 1590.5 272.468 1595.41 271.553 1599.32 274.213 C 1601.36 278.073 1600.64 284.073 1600.57 288.75 C 1600.51 297.681 1601.11 306.482 1601.36 315.39 C 1601.5 320.338 1602.85 325.438 1597.61 327.186 C 1593.54 326.045 1591.32 323.375 1588.11 320.458 C 1580.73 325.686 1566.71 331.449 1559.97 323.5 C 1551.95 314.034 1554.99 284.625 1555.18 272.819 z" fill="rgb(184,47,42)" transform="translate(0,0)"></path>
<path d="M 757.061 1225.27 C 765.242 1225.23 767.231 1223.16 769.267 1230.8 L 770.519 1231.45 L 775.077 1228.37 C 795.872 1214.16 806.863 1236.94 803.457 1254.87 C 802.624 1259.25 803.289 1272.43 803.256 1277.66 L 791.781 1277.81 L 791.868 1248.92 C 791.487 1239.94 787.034 1228.48 775.971 1235.53 C 762.128 1244.34 775.642 1272.31 765.259 1279.36 C 762.28 1279.45 761.362 1278.43 758.872 1276.75 C 755.884 1262.37 759.568 1241.12 757.061 1225.27 z" fill="rgb(184,47,42)" transform="translate(0,0)"></path>
<path d="M 1451.55 575.102 C 1459.44 574.468 1458.2 574.606 1463.33 580.335 C 1478.75 578.325 1474.28 567.931 1493.88 579.631 C 1496.38 587.814 1499.8 621.369 1495.12 626.656 C 1486.39 627.746 1485.1 625.828 1485.13 616.864 C 1485.14 611.284 1485.42 605.611 1485.54 600.028 C 1485.4 578.674 1473.12 582.065 1461.33 594.08 C 1461.29 599.677 1461.95 623.729 1460.64 627.226 C 1457.84 628.316 1453.24 628.189 1450.71 626.457 C 1449.83 620.632 1449.56 578.128 1451.55 575.102 z" fill="rgb(184,47,42)" transform="translate(0,0)"></path>
<path d="M 1717.36 470.199 C 1719.53 470.161 1721.69 470.382 1723.8 470.858 C 1739.31 474.392 1737.97 509.597 1735.53 521.432 C 1733.37 523.492 1730.37 522.767 1726.62 522.824 C 1719.71 518.494 1735.78 464.193 1706.13 484.52 C 1700.3 492.432 1702.61 512.848 1702.97 523.532 L 1690.96 523.715 C 1691 520.392 1690.51 471.039 1690.2 472.182 C 1695.98 469.614 1699.35 471.761 1702.31 476.665 C 1704.02 477.254 1710.86 471.557 1717.36 470.199 z" fill="rgb(184,47,42)" transform="translate(0,0)"></path>
<path d="M 1464.29 272.284 C 1490.82 272.993 1483.09 306.169 1483 326.429 L 1472.04 326.476 C 1472 311.908 1479.03 272.306 1454.36 286.101 C 1443.02 298.384 1452.95 320.042 1447.92 326.017 C 1444.1 326.836 1443.4 326.606 1439.63 326.169 C 1437.09 322.631 1437.89 280.021 1438.49 274.407 C 1444.98 270.344 1447.07 274.662 1449.74 279.376 C 1452.6 279.157 1457.16 273.715 1464.29 272.284 z" fill="rgb(184,47,42)" transform="translate(0,0)"></path>
<path d="M 488.247 1322.98 C 517.75 1320.45 511.352 1356.97 511.167 1376.58 L 499.827 1376.61 C 499.734 1362.75 506.564 1326.74 483.699 1335.1 C 472.209 1345.48 477.976 1357.13 477.347 1370.86 C 477.123 1375.76 475.506 1379.44 469.915 1378.66 C 465.931 1375.72 465.27 1367.55 465.649 1363.16 C 466.133 1357.57 464.941 1327.92 466.985 1324.41 C 474.052 1324.16 474.171 1323.88 477.654 1329.47 C 480.89 1329.11 485.383 1325.12 488.247 1322.98 z" fill="rgb(184,47,42)" transform="translate(0,0)"></path>
<path d="M 1447.5 371.082 C 1452.76 371.058 1458.63 371.402 1461.79 376.255 C 1468.76 386.986 1466.95 411.741 1465.3 424.016 C 1461.91 426.305 1460.78 426.837 1457.18 425.355 C 1450.29 415.297 1461.24 389.767 1450.62 381.901 C 1445.39 380.455 1442.8 382.078 1438.12 384.697 L 1437.06 385.303 C 1431.7 390.798 1433.6 416.156 1433.62 425.362 C 1430.07 425.565 1426.05 425.435 1422.46 425.413 C 1422.5 419.097 1422.23 376.535 1423.21 372.803 C 1429.21 370.377 1431.24 373.858 1433.5 378.738 C 1438.5 375.395 1441.68 372.905 1447.5 371.082 z" fill="rgb(184,47,42)" transform="translate(0,0)"></path>
<path d="M 549.986 1225.13 C 573.115 1222.77 575.853 1238.37 576.294 1258.23 C 576.411 1263.51 576.871 1271.56 574.999 1276.46 C 548.357 1282.16 581.138 1235.66 550.826 1234.39 C 531.159 1243.06 544.951 1269.43 539.356 1276.58 C 534.734 1277.01 533.872 1277.27 529.442 1276.34 C 528.491 1267.05 529.053 1236.76 529.687 1227.32 C 531.675 1224.97 530.454 1225.82 533.636 1224.95 C 536.884 1225.84 537.74 1227.37 540.032 1229.92 L 540.935 1230.94 C 544.026 1229.07 546.965 1227.12 549.986 1225.13 z" fill="rgb(184,47,42)" transform="translate(0,0)"></path>
<path d="M 1567.37 371.134 C 1573.03 370.928 1578.27 370.993 1581.93 375.997 C 1589.39 386.179 1587.99 411.181 1586.4 423.329 C 1583.08 425.232 1580.99 425.153 1577.73 423.475 C 1570.16 411.45 1587.52 376.299 1559.89 383.504 L 1558.64 383.842 C 1551.05 391.662 1554.03 410.352 1554.35 421.083 C 1552.16 424.94 1547.23 425.437 1543.73 423.251 C 1542.91 419.969 1542.31 375.544 1543.41 372.928 C 1544.44 372.344 1544.75 372.096 1545.99 371.742 C 1548.13 371.149 1550.42 371.484 1552.31 372.665 C 1552.66 375.111 1552.68 376.064 1553.53 378.363 C 1559.09 374.962 1561.28 373.61 1567.37 371.134 z" fill="rgb(184,47,42)" transform="translate(0,0)"></path>
<path d="M 1331.07 471.18 C 1336.35 470.464 1346.76 470.486 1349.39 475.46 C 1353.91 484.025 1354.35 515.352 1352.15 523.878 C 1348.76 525.893 1347.49 526.025 1344.18 524.369 C 1336.46 512.476 1353.39 478.095 1328.71 481.531 L 1327.49 481.711 C 1313.96 490.245 1323.99 513.678 1319.47 523.666 C 1316.44 524.944 1316.2 525.395 1312.99 524.653 C 1307.42 519.755 1308.2 476.262 1310.12 472.275 C 1313.61 470.355 1311.87 470.54 1315.44 471.263 C 1318.36 473.861 1318.75 474.699 1320.94 478.041 C 1324.64 475.185 1327.07 473.615 1331.07 471.18 z" fill="rgb(184,47,42)" transform="translate(0,0)"></path>
<path d="M 239.814 1427.12 L 246.772 1426.97 C 257.324 1432.94 245.813 1458.43 252.99 1467.54 C 257.638 1473.44 267.581 1472.09 272.725 1467.64 C 276.123 1461.47 274.986 1436.36 275.04 1427.34 C 278.416 1427.53 280.385 1427.38 283.484 1428.8 C 285.704 1432.59 284.939 1434.19 284.974 1439.03 C 285.082 1450.68 285.337 1462.87 284.954 1474.53 C 284.839 1478.02 283.894 1478.31 281.817 1479.86 C 278.463 1480.04 272.402 1477.48 272.786 1477.23 C 266.066 1481.71 251.578 1483.6 244.752 1476.04 C 236.233 1466.6 239.3 1441.06 239.814 1427.12 z" fill="rgb(184,47,42)" transform="translate(0,0)"></path>
<path d="M 550.215 1324.96 C 554.433 1324.87 555.691 1324.88 559.832 1325.49 C 566.438 1333.71 549.963 1379.27 580.041 1365.25 C 589.272 1360.95 583.038 1339.31 584.437 1331.27 C 585.44 1325.52 589.875 1323.19 594.823 1325.48 C 596.451 1329.09 595.806 1334.95 595.699 1339.14 C 595.675 1349.72 596.049 1360.61 595.822 1371.18 C 595.729 1375.47 595.571 1375.33 593.142 1377.5 C 589.467 1377.79 586.199 1374.88 582.978 1372.72 C 581.079 1373.19 581.26 1373 579.657 1373.88 C 544.449 1393.17 550.289 1342.82 550.215 1324.96 z" fill="rgb(184,47,42)" transform="translate(0,0)"></path>
<path d="M 1479.96 470.211 C 1502.42 469.09 1500.52 487.559 1501.26 505.01 C 1501.51 510.904 1501.44 517.646 1500.17 523.402 C 1496.49 524.481 1495.07 524.122 1491.3 523.82 C 1483.47 515.254 1502.25 473.47 1474.16 482.238 C 1462.24 494.913 1472.01 517.753 1467.42 524.04 C 1463.54 524.879 1463.66 524.938 1459.76 524.5 C 1457.15 519.871 1458.36 506.24 1458.49 500.403 C 1458.69 491.682 1454.45 477.46 1461.88 471.803 C 1464.92 471.426 1465.06 471.067 1467.65 472.475 C 1467.82 475.439 1467.53 474.54 1468.56 477.209 C 1473.3 473.346 1474.38 472.789 1479.96 470.211 z" fill="rgb(184,47,42)" transform="translate(0,0)"></path>
<path d="M 1713.1 574.115 C 1730.98 574.15 1732.92 587.281 1731.95 602.138 C 1731.42 610.2 1735.84 632.004 1722.52 627.583 C 1714.98 618.558 1733.26 576.719 1706.2 585.731 L 1705.02 586.133 C 1697.39 593.299 1700.07 616.964 1700.14 627.822 L 1688.1 627.834 C 1689.01 613.24 1687.99 588.666 1689.36 576.533 C 1694.97 573.61 1697.32 575.788 1700.53 580.176 C 1702.05 580.337 1708.97 575.636 1713.1 574.115 z" fill="rgb(184,47,42)" transform="translate(0,0)"></path>
<path d="M 820.883 1609.25 C 827.192 1609.52 831.011 1611.65 836.355 1614.52 C 834.517 1618.53 834.1 1620.05 831.206 1623.24 C 825.88 1622 821.009 1620.81 815.757 1622.43 C 811.183 1626.63 812.678 1630.61 815.58 1635.4 C 819.491 1637.35 820.657 1636.37 825.514 1635.45 L 826.928 1636.46 C 827.816 1639.96 826.756 1641.89 825.63 1645.32 L 825.144 1646.77 C 821.571 1646.12 816.729 1646.02 813.015 1645.83 L 813.149 1669.4 C 813.414 1674.66 814.153 1680.19 812.704 1685.13 C 797.341 1701.88 804.85 1653.52 799.525 1645.93 C 796.946 1644.68 796.505 1644.64 794.416 1642.76 C 794.062 1638.99 793.487 1640.16 794.814 1637.43 L 799.927 1636.57 C 807.263 1622.04 798.453 1613.51 820.883 1609.25 z" fill="rgb(184,47,42)" transform="translate(0,0)"></path>
<path d="M 695.539 1428.18 C 715.747 1427.64 713.236 1450.4 714.251 1464.74 C 714.559 1469.08 714.292 1474.61 713.513 1478.86 C 711.231 1480.42 706.154 1479.93 703.055 1479.92 C 702.897 1464.73 710.006 1432.11 686.006 1439.4 C 677.338 1449.85 684.309 1470.32 681.438 1479.14 C 678.685 1480.77 676.406 1480.1 673.115 1479.79 C 670.833 1477.31 668.494 1429.6 673.901 1428.43 C 677.391 1429.5 679.515 1431.68 682.381 1434.01 C 687.504 1431.15 689.731 1429.68 695.539 1428.18 z" fill="rgb(184,47,42)" transform="translate(0,0)"></path>
<path d="M 825.316 1402.15 C 834.359 1402.22 836.04 1403.03 843.741 1407.89 C 833.936 1423.08 826.704 1407.75 823.036 1415.21 C 813.16 1435.32 830.772 1424.17 834.234 1431.75 C 833.575 1436.42 834.502 1434.52 831.935 1437.91 C 828.624 1439.41 824.748 1438.67 821 1438.38 L 820.954 1461.14 C 821.095 1467.03 822.807 1476.35 818.092 1480.04 C 814.26 1480.1 813.394 1480.76 810.481 1479.18 C 807.757 1468.43 811.155 1445.51 809.337 1438.93 C 806.301 1437.69 806.137 1437.9 803.982 1435.53 C 803.51 1432.26 803.35 1432.44 804.563 1429.42 L 807.676 1428.87 C 814.243 1421.98 803.929 1408.75 825.316 1402.15 z" fill="rgb(184,47,42)" transform="translate(0,0)"></path>
<path d="M 701.834 1324.29 C 710.945 1323.03 722.314 1322.02 725.934 1332.1 C 720.43 1340.26 712.276 1329.03 701.615 1335.44 C 698.265 1341.91 710.252 1345.55 715.126 1348.16 C 737.116 1359.91 730.846 1374.38 708.358 1377.86 C 700.967 1377.72 686.926 1375.54 688.901 1365.09 L 691.43 1363.51 C 695.872 1364.24 696.22 1365.56 700.026 1368.74 C 706.173 1369.45 713.342 1371.5 716.371 1364.87 C 713.621 1355.28 666.818 1341.93 701.834 1324.29 z" fill="rgb(184,47,42)" transform="translate(0,0)"></path>
<path d="M 1755.91 574.195 C 1762.48 573.246 1774.66 573.842 1778.8 579.473 L 1778.32 581.97 C 1771.76 587.904 1761.35 581.21 1754.02 584.868 L 1753.74 587.567 C 1759.19 597.17 1764.14 595.818 1773.36 601.061 C 1776.26 602.715 1778.34 605.513 1779.08 608.772 C 1782.31 622.373 1773.39 626.418 1762.24 628.891 C 1755.23 628.693 1746.86 629.271 1742.84 622.942 C 1743.28 618.661 1743.65 619.463 1746.67 615.412 C 1753.32 618.567 1762.76 623.647 1768.05 615.977 C 1766.7 606.426 1748.52 603.802 1744.07 593.662 C 1739.7 583.721 1747.38 577.936 1755.91 574.195 z" fill="rgb(184,47,42)" transform="translate(0,0)"></path>
<path d="M 645.842 1729.23 C 652.768 1729.5 657.426 1731.32 663.557 1734.03 C 661.592 1737.54 659.607 1741.04 657.603 1744.53 C 652.861 1740.95 651.222 1739.36 644.983 1738.86 C 638.86 1738.37 635.742 1746.21 638.004 1747.6 C 647.607 1753.46 659.534 1757.85 663.71 1769.45 C 666.703 1777.76 652.778 1783.58 646.576 1784.65 C 640.46 1784.99 632.605 1784.21 627.412 1780.72 C 626.714 1776.65 626.239 1777.58 627.71 1774.5 C 635.19 1771.34 643.881 1780.04 650.605 1770.71 C 647.9 1761.73 596.572 1741.12 645.842 1729.23 z" fill="rgb(184,47,42)" transform="translate(0,0)"></path>
<path d="M 1722.13 271.132 C 1728.4 270.686 1737.17 271.246 1742.7 274.499 C 1744.65 277.795 1744.2 276.072 1744.18 279.835 C 1738.92 285.928 1726.36 276.395 1721.26 283.807 C 1722.49 289.694 1731.75 294.068 1736.4 297.778 C 1752.84 310.926 1747.63 322.608 1727.97 327.478 C 1718.99 327.348 1716.46 325.846 1708.58 322.035 L 1711.42 313.381 C 1717.18 316.275 1730.82 322.978 1734.35 313.353 C 1730.91 302.798 1687.13 286.624 1722.13 271.132 z" fill="rgb(184,47,42)" transform="translate(0,0)"></path>
<path d="M 644.207 1211.04 C 648.978 1210.64 652.114 1209.65 654.71 1214.08 C 651.528 1231.49 660.288 1220.45 668.607 1228.35 C 669.142 1232.25 669.479 1230.5 667.866 1233.83 C 664.904 1235.76 657.88 1234.98 653.921 1234.89 C 653.72 1243.08 652.371 1259.69 655.705 1266.47 C 661.172 1270.16 663.628 1265.34 668.122 1270.35 C 667.67 1271.97 666.289 1276.77 665.101 1277 C 632.872 1283.44 644.945 1254.4 641.17 1235.82 C 641.365 1236.78 636.898 1233.44 635.613 1231.25 C 635.435 1228.5 634.998 1226.75 636.309 1224.36 C 638.929 1224.4 639.038 1224.51 641.522 1223.82 C 642.284 1218.93 642.698 1215.84 644.207 1211.04 z" fill="rgb(184,47,42)" transform="translate(0,0)"></path>
<path d="M 1285.42 558.072 L 1285.94 558.174 C 1287.27 560.276 1287 571.508 1287.07 574.881 L 1291.52 574.936 C 1296.92 574.968 1298.42 574.503 1301.72 579.449 C 1300.46 586.271 1292.05 584.574 1286.91 584.224 C 1286.87 593.151 1284.28 614.399 1290.8 620.223 C 1294.89 620.708 1295.5 619.329 1300.09 617.418 L 1301.27 618.571 C 1301.91 621.85 1301.41 624.145 1301.04 627.445 C 1268.36 634.05 1275.92 609.451 1275.35 586.157 C 1269.66 584.174 1264.72 580.151 1269.85 574.061 C 1274.51 573.729 1274.6 574.339 1276.72 570.59 C 1276.03 567.461 1275.93 567.319 1276.01 564.151 C 1277.99 560.81 1281.75 559.721 1285.42 558.072 z" fill="rgb(184,47,42)" transform="translate(0,0)"></path>
<path d="M 597.359 1730.24 C 604.142 1729.85 611.964 1729.3 615.426 1736 C 615.034 1745.47 614.927 1742.71 607.171 1740.28 C 601.934 1738.65 595.765 1737.57 593.636 1743.88 C 595.578 1750.17 603.719 1753.16 608.942 1756.85 C 626.372 1769.16 620.677 1780.1 601.5 1785.17 C 591.246 1785.46 588.985 1784.34 579.684 1780.68 L 585.587 1771.56 C 592.041 1773.97 603.205 1778.65 607.488 1770.53 C 605.843 1762.01 585.304 1758.23 581.619 1747.94 C 578.131 1738.2 589.415 1732.48 597.359 1730.24 z" fill="rgb(184,47,42)" transform="translate(0,0)"></path>
<path d="M 186.277 1516.86 C 189.655 1517.03 190.251 1516.8 193.277 1518.36 C 195.982 1522.02 194.91 1528.48 194.706 1533.34 L 197.96 1533.28 C 203.995 1533.12 206.375 1532.08 210.273 1537.28 C 209.491 1544.87 200.219 1543.37 194.75 1543.19 C 194.704 1551.85 192.361 1570.85 200.457 1575.37 C 203.539 1575.12 204.173 1574.99 207.322 1575.35 C 209.787 1578.37 208.991 1578.08 209.424 1582.81 L 207.864 1584.4 C 173.383 1596.17 187.33 1551.08 181.588 1544.17 C 178.573 1543.52 179.527 1544.13 177.348 1542.31 C 176.996 1539.23 176.504 1537.3 177.401 1534.32 C 179.638 1533.82 180.372 1533.5 182.516 1532.63 C 186.086 1527.56 182.11 1523.84 186.277 1516.86 z" fill="rgb(184,47,42)" transform="translate(0,0)"></path>
<path d="M 1655.51 676.216 C 1664.83 675.972 1668.99 677.008 1677.25 680.665 C 1675.35 683.913 1674.33 686.306 1671.36 688.602 C 1665.15 687.031 1659.32 682.581 1653.55 685.899 C 1651.54 688.796 1651.46 688.559 1651.17 692.02 C 1654.71 701.583 1675.04 698.845 1676.62 710.168 C 1678.38 722.904 1671.06 727.576 1660.56 730.089 C 1653.31 729.24 1643.14 729.41 1639.8 721.934 C 1640.65 718.293 1639.74 719.718 1642.38 717.374 C 1650.97 716.41 1656.8 725.147 1665.5 718.514 C 1666.83 715.353 1666.76 716.891 1666.02 713.769 C 1659.58 706.258 1643.86 706.184 1640.86 694.832 C 1637.79 683.232 1645.9 678.776 1655.51 676.216 z" fill="rgb(184,47,42)" transform="translate(0,0)"></path>
<path d="M 515.259 1514.71 C 520.196 1514.99 520.52 1514.85 523.554 1517.71 C 525.336 1522.06 524.422 1527.91 524.143 1532.84 C 528.88 1532.76 532.088 1532.02 535.774 1534.66 C 538.405 1542.02 527.172 1540.13 524.13 1544.38 C 523.903 1552.27 523.203 1564.07 524.462 1571.75 C 525.69 1579.25 532.882 1575.58 536.617 1577.96 C 537.621 1580.69 536.808 1582.23 536.002 1585.07 C 502.686 1597.02 517.075 1553.13 511.97 1542.84 C 507.793 1542.32 506.933 1542.86 504.819 1539.49 C 504.567 1536.54 504.201 1535.79 505.421 1533.12 C 507.355 1532.85 509.293 1532.59 511.233 1532.36 C 514.629 1527.02 508.985 1523.11 515.259 1514.71 z" fill="rgb(184,47,42)" transform="translate(0,0)"></path>
<path d="M 1613.59 372.13 C 1619.58 371.716 1626.42 372.689 1631.88 375.207 C 1633.74 378.065 1633.15 376.39 1632.34 380.854 C 1626.93 387.045 1622.33 378.027 1613.39 381.549 C 1610.86 384.057 1611.08 383.917 1610.23 387.419 C 1613.54 396.231 1633.74 396.721 1634.72 407.228 C 1636.02 421.22 1625.92 424.711 1615.62 426.367 C 1609.51 425.588 1603.9 424.905 1599.56 420.472 C 1598.31 416.681 1598.38 418.306 1599.26 414.367 C 1601.09 406.145 1610.86 421.017 1618.99 416.698 C 1622.09 415.052 1621.56 415.442 1623.16 412.269 C 1620.17 403.031 1602.33 402.068 1599.47 390.742 C 1596.69 379.72 1604.39 374.51 1613.59 372.13 z" fill="rgb(184,47,42)" transform="translate(0,0)"></path>
<path d="M 601.014 1517.08 C 604.292 1516.93 606.838 1516.42 609.712 1517.84 C 612.394 1522 611.341 1527.39 611.143 1532.79 C 615.389 1532.64 619.169 1532 622.901 1533.73 C 625.496 1536.53 624.976 1534.99 625.231 1538.21 C 621.477 1543.53 616.994 1542.11 610.967 1541.95 C 610.958 1550.44 608.025 1571.09 614.698 1576.03 C 617.769 1575.94 618.807 1575.9 621.937 1576.26 C 624.653 1578.6 623.766 1578.06 624.199 1582.97 C 620.885 1585.33 612.685 1588.23 609.1 1587.06 C 597.24 1583.21 599.853 1559.54 599.975 1550.48 C 600.169 1536.06 596.92 1545.59 591.684 1540.37 C 591.063 1536.77 590.962 1536.99 591.838 1533.48 C 596.699 1532.17 595.501 1534.28 599.55 1530.93 C 601.73 1526.65 601.086 1522.06 601.014 1517.08 z" fill="rgb(184,47,42)" transform="translate(0,0)"></path>
<path d="M 358.045 1619.06 C 361.829 1618.92 363.767 1618.6 367.425 1619.73 C 370.314 1623.52 368.985 1628.91 368.586 1634.16 C 372.657 1634 375.749 1633.46 379.417 1635.07 C 381.984 1637.9 381.472 1636.35 381.692 1639.61 C 378 1644.97 374.315 1643.64 368.365 1643.44 C 368.223 1652.81 366.599 1669.21 372.036 1676.06 C 377.347 1679.71 377.072 1674.87 382.159 1679.29 C 381.777 1681.06 380.877 1685.48 379.442 1686.23 C 376.644 1687.68 370.514 1689.69 367.454 1688.42 C 352.536 1682.24 359.248 1650.71 356.504 1644.3 L 351.053 1643.8 L 350.096 1642.55 C 350.052 1639.72 349.786 1637.83 350.794 1635.18 C 354.035 1634.37 354.441 1634.55 356.866 1632.2 C 358.875 1628.22 358.168 1623.71 358.045 1619.06 z" fill="rgb(184,47,42)" transform="translate(0,0)"></path>
<path d="M 403.799 1618.09 L 404.702 1618.75 C 406.009 1622.21 405.436 1630.06 405.365 1634.13 C 410.601 1634.06 416.129 1632.93 417.795 1638.91 C 415.206 1644.13 410.891 1643.33 405.623 1643.73 C 405.209 1652.35 402.581 1671.68 409.972 1676.71 C 415.187 1676.77 416.15 1676.06 419.443 1680.19 C 419.92 1685.08 419.138 1685.78 415.055 1687.36 C 379.38 1689.06 401.581 1650.82 392.451 1642.97 C 388.21 1643.09 386.123 1644.06 384.019 1640.31 C 384.234 1637.01 383.676 1636.84 385.354 1634.67 C 388.896 1634.33 389.283 1634.38 392.8 1633.26 C 394.986 1631.04 395.292 1625.29 396.247 1621.81 C 399.486 1618.53 398.725 1619.52 403.799 1618.09 z" fill="rgb(184,47,42)" transform="translate(0,0)"></path>
<path d="M 307.342 1411.76 C 309.457 1412.06 309.072 1412 311.075 1412.71 C 312.63 1416.96 311.715 1423.04 311.476 1427.9 C 316.477 1427.69 324.163 1426.32 324.923 1432.89 C 320.969 1437.73 317.327 1437.07 311.472 1437.42 C 311.822 1444.4 310.364 1466.56 313.516 1470.44 C 316.91 1471.23 318.611 1471.15 322.031 1471.23 C 326.144 1475.25 323.092 1478.79 319.337 1481.13 C 293.235 1481.78 300.863 1456.91 300.914 1437.44 C 297.807 1437.64 296.189 1437.59 293.136 1437.47 C 290.587 1435.75 290.806 1435.79 289.454 1432.98 L 290.329 1430.6 C 293.328 1428.27 296.362 1428.07 300.148 1427.29 L 301.137 1424.62 C 300.479 1421.31 299.746 1419.28 300.593 1416.02 C 302.723 1412.92 303.761 1412.93 307.342 1411.76 z" fill="rgb(184,47,42)" transform="translate(0,0)"></path>
<path d="M 1570.2 558.653 C 1574.9 558.68 1574.44 557.993 1578.04 559.976 C 1580.11 564.125 1579.18 570.895 1579.08 576.044 C 1584.32 575.844 1591.21 574.297 1593.06 580.3 L 1591.33 582.627 C 1587.72 584.78 1583.54 584.146 1579.12 584.112 C 1578.96 592.423 1576.23 615.904 1584.09 619.307 C 1587.06 618.552 1588.98 617.667 1591.81 618.649 C 1593.79 622.053 1593.09 621.782 1593.14 626.358 C 1553.59 637.434 1574.98 592.439 1566.92 584.763 C 1563.65 584.868 1563.63 584.985 1560.52 584.151 L 1559.33 581.766 C 1559.59 577.969 1558.93 578.2 1560.94 575.854 C 1563.21 575.854 1564.59 575.79 1566.84 575.583 C 1568.6 573.135 1568.39 564.345 1570.2 558.653 z" fill="rgb(184,47,42)" transform="translate(0,0)"></path>
<path d="M 299.73 1307.5 C 302.289 1308.11 301.617 1307.88 303.925 1309.02 C 306.022 1313.65 305.264 1320.25 305.181 1325.64 C 311.718 1325.56 315.444 1323.76 319.54 1329.59 C 318.352 1336.14 310.889 1334.98 305.772 1334.86 C 305.868 1342.14 303.539 1364.42 309.352 1367.82 C 313.142 1367.5 314.958 1366.98 318.424 1368.54 C 320.904 1371.88 320.082 1371.78 320.411 1376.78 C 316.747 1378.18 308.934 1378.82 306.342 1378.41 C 289.049 1375.67 296.762 1346.88 294.336 1335.05 C 294.29 1334.82 291.618 1334.98 289.049 1331.97 C 288.54 1328.77 288.379 1328.92 289.346 1325.88 C 290.95 1325.44 292.544 1324.97 294.125 1324.45 C 298.274 1317.08 290.5 1314.66 299.73 1307.5 z" fill="rgb(184,47,42)" transform="translate(0,0)"></path>
<path d="M 640.312 1517.31 L 642.332 1517.93 C 643.818 1521.63 643.246 1528.15 643.173 1532.4 C 649.119 1532.21 655.402 1530.76 657.052 1537.84 L 655.311 1540.33 C 651.745 1542.59 647.849 1541.79 643.393 1541.61 C 643.236 1549.78 641.751 1566.18 645.03 1573.57 C 646.69 1577.31 654.282 1575.73 657.993 1578.27 L 656.893 1582.96 C 642.536 1592.01 632.544 1584.82 632.289 1569.29 C 632.143 1560.4 632.447 1551.41 632.315 1542.5 C 629.684 1540.95 629.741 1541.1 627.812 1538.77 C 627.214 1535.98 626.681 1535.47 627.849 1533.03 L 631.355 1532.16 C 632.733 1528.9 630.915 1524.21 631.992 1518.6 C 634.72 1517.13 636.955 1517.49 640.312 1517.31 z" fill="rgb(184,47,42)" transform="translate(0,0)"></path>
<path d="M 559.906 1410.43 C 561.762 1411.29 561.283 1411.14 562.842 1412.63 C 564.413 1417.25 563.894 1422.78 563.831 1427.81 C 568.108 1427.76 570.632 1427.37 574.559 1428.8 C 577.397 1431.58 576.821 1430.01 577.155 1433.29 C 573.573 1438.69 569.484 1437.55 563.494 1437.69 C 563.374 1445.56 562.235 1462.1 565.282 1468.59 C 569.984 1471.66 569.063 1468.79 575.627 1470.57 C 577.704 1473.93 576.881 1473.86 576.608 1478.74 C 537.393 1483.96 559.74 1450.27 551.89 1438.06 C 548.75 1437.77 548.357 1437.74 545.36 1436.84 L 544.128 1434.53 C 544.121 1431.85 543.806 1430.82 545.155 1428.56 C 547.248 1428.09 549.308 1427.82 551.445 1427.63 C 556.312 1420.87 548.935 1415.61 559.906 1410.43 z" fill="rgb(184,47,42)" transform="translate(0,0)"></path>
<path d="M 691.714 1634.22 C 698.402 1634.07 705.834 1633.71 708.293 1640.88 C 707.506 1644.14 707.113 1644.09 704.591 1646.25 C 698.751 1643.9 686.358 1638.65 686.494 1650.2 C 692.295 1657.95 707.15 1660.32 708.292 1669.68 C 709.754 1681.66 700.725 1686.43 691.133 1687.45 C 685.693 1687.29 668.73 1686.59 672.512 1676.57 C 679.666 1672.57 688.125 1685.28 696.654 1674.54 C 695.209 1664.99 677.425 1661.22 674.608 1650.16 C 672.128 1640.43 684.132 1635.9 691.714 1634.22 z" fill="rgb(184,47,42)" transform="translate(0,0)"></path>
<path d="M 370.201 1427.23 C 376.654 1426.91 394.514 1427.14 390.626 1438.21 C 387.424 1439.6 352.524 1428.46 364.008 1463.31 C 367.445 1473.75 379.489 1471.93 388.319 1467.49 L 389.209 1468.12 C 389.862 1472.75 390.207 1474.46 387.187 1478.23 C 380.671 1481.33 373.195 1481.73 366.388 1479.33 C 359.859 1476.98 354.874 1471.9 352.126 1465.58 C 348.937 1458.42 348.894 1450.25 352.008 1443.06 C 355.827 1434.25 361.614 1430.4 370.201 1427.23 z" fill="rgb(184,47,42)" transform="translate(0,0)"></path>
<path d="M 479.804 1532.13 C 485.404 1531.32 496.91 1530.64 498.243 1537.45 C 497.114 1540.89 497.302 1540.86 494.446 1543.37 L 491.531 1542.06 C 488.176 1540.53 487.661 1539.79 483.877 1540.11 C 480.721 1541.79 480.359 1541.67 478.478 1544.79 C 480.074 1555.47 509.163 1559.5 498.261 1578.4 C 494.705 1584.57 491.464 1585.1 484.82 1587.15 C 478.474 1587.18 471.706 1586.8 467.365 1581.78 C 466.112 1578.17 466.416 1578.1 467.333 1574.5 C 470.882 1572.32 484.368 1583.96 489.94 1573.18 C 489.168 1568.08 483.161 1564.75 478.942 1562.3 C 463.421 1553.28 461.328 1540.84 479.804 1532.13 z" fill="rgb(184,47,42)" transform="translate(0,0)"></path>
<path d="M 1655.67 356.642 L 1657.36 358.006 C 1658.91 362.195 1658.77 367.391 1658.98 371.975 C 1661.95 372.311 1664.13 372.696 1667.07 373.269 C 1670.11 375.877 1669.19 374.318 1670.22 377.934 C 1667.79 383.111 1664.03 382.295 1658.8 382.567 C 1658.91 390.512 1656.13 413.823 1662.12 417.811 C 1667.18 418.078 1669.53 417.036 1670.85 422.013 C 1669.87 425.226 1669.95 424.315 1666.34 426.72 C 1634.37 429.753 1653.95 392.224 1646.47 382.037 C 1643.14 381.792 1643.17 381.923 1640.14 380.663 C 1638.6 377.861 1638.22 374.54 1640.47 372.12 L 1645.29 372.27 C 1650.11 368.699 1645.04 361.872 1655.67 356.642 z" fill="rgb(184,47,42)" transform="translate(0,0)"></path>
<path d="M 497.317 1410.78 C 498.331 1411.03 499.859 1411.59 500.891 1411.94 C 503.023 1415.53 502.168 1422.73 501.998 1427.21 L 503.34 1427.26 C 509.424 1427.51 510.401 1426.95 514.112 1430.99 C 514.913 1438.62 506.734 1437.45 501.384 1437.45 C 501.156 1446.79 499.754 1460.64 503.455 1468.74 C 506.999 1471.63 507.736 1470.59 513.187 1471.56 C 515.219 1474.26 514.473 1474.01 514.323 1478.39 C 483.084 1490.71 493.959 1451.62 490.394 1438.52 C 488.459 1437.91 486.728 1437.43 484.766 1436.91 C 482.821 1433.64 483.531 1435.44 483.557 1430.93 C 486.849 1426.24 486.62 1431.19 490.854 1427.35 C 492.574 1422.52 490.797 1420.61 491.223 1415.58 C 493.661 1411.85 492.83 1413.03 497.317 1410.78 z" fill="rgb(184,47,42)" transform="translate(0,0)"></path>
<path d="M 1574.74 454.546 C 1577.12 455.678 1576.75 455.534 1578.88 457.142 C 1580.87 461.523 1580.22 466.031 1580.1 470.981 C 1584.31 470.849 1586.66 470.448 1590.59 471.715 C 1593.35 474.282 1592.69 472.784 1593.1 476.126 C 1589.9 480.858 1585.43 479.802 1580.28 479.71 C 1580.21 487.815 1579.36 503.841 1581.1 511.555 C 1582.53 517.879 1589.79 514.065 1594.1 515.759 C 1596.14 519.553 1595.46 518.639 1595.33 523.567 C 1555.76 531.23 1576.45 492.902 1568.75 480.51 C 1564.84 479.921 1563.09 480.567 1560.99 477.476 C 1561.08 474.568 1560.82 473.84 1562.28 471.34 C 1565.04 471.078 1565.45 471.082 1568.07 470.271 C 1572.33 465.847 1569.4 460.884 1574.74 454.546 z" fill="rgb(184,47,42)" transform="translate(0,0)"></path>
<path d="M 565.517 1634.66 C 568.573 1634.79 571.436 1635.01 574.485 1635.25 L 575.066 1636.51 C 570.303 1649.75 564.043 1663.04 558.515 1676.02 C 556.473 1680.81 554.186 1685.16 548.731 1685.89 C 543.807 1682.61 536.472 1662.68 533.774 1656.27 C 531.177 1649.76 529.039 1643.13 526.811 1636.49 L 539 1636.27 C 542.448 1648.85 546.042 1657.98 551.562 1669.77 C 556.985 1658.02 561.015 1646.78 565.517 1634.66 z" fill="rgb(184,47,42)" transform="translate(0,0)"></path>
<path d="M 665.133 1303.3 C 669.508 1303.06 671.495 1302.67 675.653 1303.75 C 677.84 1311.6 676.562 1365.78 676.61 1376.95 C 673.057 1376.96 668.813 1377.4 665.846 1375.79 C 664.919 1368.41 665.329 1355.66 665.35 1347.8 C 665.42 1332.96 665.348 1318.13 665.133 1303.3 z" fill="rgb(184,47,42)" transform="translate(0,0)"></path>
<path d="M 1672.99 271.789 C 1686.9 271.801 1680.19 275.171 1683.38 280.721 C 1685.06 278.894 1688.91 273.813 1690.76 273.162 C 1696.17 271.258 1703.75 272.216 1706.16 277.671 C 1704.99 281.852 1700.99 283.286 1697.04 283.431 L 1693.62 283.564 L 1691.89 283.62 C 1687.13 286.184 1686.31 289.067 1684.36 294.098 L 1683.91 295.272 C 1683.52 304.607 1685.74 318.68 1683.23 324.31 C 1679.4 326.743 1678.02 325.923 1672.95 325.982 L 1672.99 271.789 z" fill="rgb(184,47,42)" transform="translate(0,0)"></path>
<path d="M 1500.03 687.463 C 1504.26 682.973 1511.03 674.52 1517.32 675.062 C 1519.67 677.836 1519.26 685.858 1517.1 688.85 C 1508.65 688.655 1505.82 692.609 1501.22 699.376 L 1500.57 700.35 C 1500.42 708.051 1502.43 723.21 1499.32 729.042 C 1496.62 730.364 1493.13 729.999 1490.87 728.037 C 1489.4 721.516 1490.4 684.692 1490.5 675.407 C 1493.71 675.279 1495.89 674.835 1498.74 676.263 C 1500.73 679.116 1500.08 683.746 1500.03 687.463 z" fill="rgb(184,47,42)" transform="translate(0,0)"></path>
<path d="M 245.575 1633.74 C 256.753 1633.68 250.048 1635.3 256.523 1638.16 L 261.067 1636.08 C 265.814 1633.85 271.755 1632.06 274.848 1637.28 C 275.7 1648.65 269.005 1643.75 261.368 1646.6 C 257.395 1650.25 257.299 1654.64 257.165 1659.75 C 257.325 1666.63 258.354 1680.83 255.699 1686.41 C 252.302 1687.23 249.264 1686.95 246.515 1684.81 C 245.052 1675.74 245.676 1644.53 245.575 1633.74 z" fill="rgb(184,47,42)" transform="translate(0,0)"></path>
<path d="M 1398.98 371.149 C 1403.24 370.997 1407.81 369.914 1409.88 374.118 C 1407.96 379.066 1394.25 382.988 1388.29 388.64 C 1387.89 398.906 1389.6 414.218 1387.03 424.038 C 1386.7 425.31 1383.98 425.807 1382.31 426.389 C 1380.49 425.74 1379.98 425.456 1378.26 424.6 C 1376.69 420.697 1376.85 378.53 1377.45 373.441 C 1378.55 372.317 1379.68 371.108 1382.04 371.512 C 1388.65 372.646 1386.47 375.653 1388.09 377.904 C 1392.64 374.356 1393.74 373.427 1398.98 371.149 z" fill="rgb(184,47,42)" transform="translate(0,0)"></path>
<path d="M 488.409 1225.07 C 493.353 1224.89 494.042 1224.49 496.858 1228.66 C 496.035 1236.23 489.804 1235.6 484.09 1236.17 C 481.307 1238.31 478.163 1241.26 475.481 1243.63 C 474.862 1254.07 476.235 1268.31 474.824 1278.22 C 472.248 1279.57 468.23 1279.28 465.143 1279.33 C 464.512 1273.79 464.341 1229.35 465.467 1226.42 C 468.893 1226.25 471.542 1225.7 474.528 1227.21 L 475.473 1231.35 L 476.678 1231.64 C 481.417 1228.12 482.698 1226.93 488.409 1225.07 z" fill="rgb(184,47,42)" transform="translate(0,0)"></path>
<path d="M 662.943 1632.71 C 665.261 1633 665.095 1632.97 666.862 1634.52 C 667.221 1638.34 667.405 1638.33 666.149 1642.14 C 661.064 1646.51 655.863 1644.07 652.486 1646.73 C 640.857 1655.88 652.011 1673.43 646.442 1685.3 C 643.034 1687.68 641.713 1686.86 636.944 1686.9 C 636.963 1679.96 635.739 1638.6 637.372 1635.33 C 640.455 1634.47 640.413 1634.67 643.65 1635.11 C 647.009 1637.55 645.922 1636.55 647.647 1640.92 C 651.312 1640.57 657.601 1634.82 662.943 1632.71 z" fill="rgb(184,47,42)" transform="translate(0,0)"></path>
<path d="M 446.729 1634.11 C 450.97 1633.91 452.917 1633.46 456.001 1635.59 C 456.896 1638.5 456.613 1638.51 455.931 1641.56 C 452.381 1646.1 446.372 1645.09 444.299 1647.02 C 434.736 1655.95 443.295 1672.21 439.006 1685.93 C 436.286 1688.86 436.987 1687.95 432.256 1688.97 C 431.049 1688.22 430.45 1687.95 430.29 1687.25 C 428.339 1678.69 428.591 1643.72 429.487 1636.58 C 431.634 1633.63 430.28 1634.33 433.342 1633.81 C 436.234 1636.31 437.798 1637.91 441.563 1638.31 L 446.729 1634.11 z" fill="rgb(184,47,42)" transform="translate(0,0)"></path>
<path d="M 422.138 1428.01 C 425.319 1427.9 425.851 1427.54 428.494 1429.27 C 434.08 1441.86 421.548 1438.83 418.191 1440.88 C 405.605 1448.55 418.545 1465.67 411.999 1478.51 C 408.449 1480.84 407.113 1480.06 402.327 1480.13 C 401.601 1472.9 401.776 1435.08 403.053 1429.11 C 406.349 1427.94 406.128 1428.05 409.629 1428.51 C 412.92 1431.06 411.857 1429.97 413.437 1434.36 C 414.819 1434.5 420.486 1429.35 422.138 1428.01 z" fill="rgb(184,47,42)" transform="translate(0,0)"></path>
<path d="M 1444.83 470.676 L 1447.93 471.436 C 1450.5 475.224 1449.95 477.297 1448.47 481.238 C 1433.68 483.394 1433.37 488.003 1433.81 501.653 C 1434.05 509.128 1434.01 517.318 1434.06 524.849 C 1430.6 524.912 1425.44 525.597 1422.88 523.729 C 1422.92 516.529 1421.96 476.156 1424.03 472.708 C 1428 472.029 1428.07 472.004 1432.07 472.324 C 1434.65 476.37 1431.69 476.906 1433.87 480.14 C 1438.22 475.016 1438.28 473.151 1444.83 470.676 z" fill="rgb(184,47,42)" transform="translate(0,0)"></path>
<path d="M 666.673 1533.98 C 670.427 1533.94 673.68 1533.56 677.127 1534.97 C 678.538 1540.26 677.929 1577.67 677.907 1585.83 C 674.532 1585.93 669.317 1586.55 666.767 1584.72 C 665.532 1575.7 666.548 1544.64 666.673 1533.98 z" fill="rgb(184,47,42)" transform="translate(0,0)"></path>
<path d="M 522.896 1325.02 L 535.242 1325.09 C 535.305 1342.34 535.222 1359.6 534.993 1376.85 C 531.296 1376.91 527.789 1377.4 524.606 1375.68 C 522.705 1367.56 524.427 1338.59 523.07 1326.49 L 522.896 1325.02 z" fill="rgb(184,47,42)" transform="translate(0,0)"></path>
<path d="M 678.97 1226.3 C 682.413 1226.4 685.726 1225.95 688.263 1228.01 C 689.041 1234.41 688.741 1270.41 687.925 1277.24 C 684.505 1277.34 680.376 1277.9 677.552 1276.34 C 676.616 1269.64 675.945 1230.18 678.97 1226.3 z" fill="rgb(184,47,42)" transform="translate(0,0)"></path>
<path d="M 1606.23 575.228 C 1608.92 575.08 1610.4 575.192 1613.06 575.348 C 1615.13 578.561 1613.89 618.336 1613.67 624.992 C 1613.61 626.934 1613.91 626.326 1611.83 627.904 C 1608.79 627.896 1605.79 628.374 1603.51 626.69 C 1601.83 615.303 1603.55 593.292 1603.39 580.938 C 1603.35 577.629 1604.32 576.917 1606.23 575.228 z" fill="rgb(184,47,42)" transform="translate(0,0)"></path>
<path d="M 1605.13 471.382 C 1608.27 471.292 1613.12 470.703 1615.49 472.453 C 1616.62 481.332 1615.81 513.636 1615.47 523.571 L 1604.04 523.509 C 1605.38 506.843 1605.07 488.256 1605.13 471.382 z" fill="rgb(184,47,42)" transform="translate(0,0)"></path>
<path d="M 585.995 1428.96 L 597.009 1428.87 L 596.913 1479.59 L 584.948 1479.69 C 586.183 1462.42 586.004 1446.22 585.995 1428.96 z" fill="rgb(184,47,42)" transform="translate(0,0)"></path>
<path d="M 445.71 1532.63 C 449.278 1532.54 452.6 1531.95 455.515 1533.69 C 456.886 1541.36 456.243 1575.36 456.224 1585.52 L 445.691 1585.46 L 445.71 1532.63 z" fill="rgb(184,47,42)" transform="translate(0,0)"></path>
<path d="M 524.077 1428.69 C 527.244 1428.6 532.126 1428.17 534.553 1429.96 C 535.77 1437.67 535.187 1468.35 535.531 1479.3 C 532.497 1479.65 527.536 1479.41 524.322 1479.37 L 524.077 1428.69 z" fill="rgb(184,47,42)" transform="translate(0,0)"></path>
<path d="M 667.65 1512.07 C 673.425 1511.72 677.837 1511.29 679.469 1517.77 C 678.669 1521.61 677.763 1522.22 675.231 1525.16 C 664.365 1526.86 661.338 1520.68 667.65 1512.07 z" fill="rgb(184,47,42)" transform="translate(0,0)"></path>
<path d="M 526.848 1407.52 C 530.356 1406.02 534.424 1407.52 536.128 1410.93 C 537.831 1414.34 536.58 1418.49 533.273 1420.39 C 530.953 1421.73 528.086 1421.67 525.825 1420.23 C 523.564 1418.8 522.283 1416.24 522.498 1413.57 C 522.713 1410.9 524.388 1408.57 526.848 1407.52 z" fill="rgb(184,47,42)" transform="translate(0,0)"></path>
<path d="M 526.265 1306.56 C 529.596 1304.73 533.778 1305.87 535.716 1309.14 C 537.653 1312.41 536.647 1316.63 533.443 1318.67 C 531.275 1320.05 528.526 1320.14 526.271 1318.91 C 524.016 1317.67 522.613 1315.31 522.612 1312.73 C 522.611 1310.16 524.011 1307.8 526.265 1306.56 z" fill="rgb(184,47,42)" transform="translate(0,0)"></path>
<path d="M 588.533 1407.69 C 590.725 1406.39 593.446 1406.39 595.641 1407.68 C 597.837 1408.96 599.163 1411.34 599.107 1413.88 C 599.05 1416.43 597.62 1418.74 595.369 1419.93 C 592 1421.71 587.828 1420.47 585.971 1417.15 C 584.114 1413.82 585.252 1409.62 588.533 1407.69 z" fill="rgb(184,47,42)" transform="translate(0,0)"></path>
<path d="M 682.12 1205.48 C 685.757 1205.12 689.058 1207.62 689.696 1211.22 C 690.334 1214.82 688.092 1218.3 684.552 1219.21 C 682.011 1219.86 679.317 1219.04 677.578 1217.07 C 675.839 1215.11 675.348 1212.33 676.306 1209.89 C 677.263 1207.44 679.509 1205.74 682.12 1205.48 z" fill="rgb(184,47,42)" transform="translate(0,0)"></path>
<path d="M 446.604 1508.82 C 452.027 1509.1 455.702 1509.58 458.374 1514.86 C 458.461 1519.37 458.819 1517.62 456.203 1521.7 C 445.415 1522.81 440.707 1519.3 446.604 1508.82 z" fill="rgb(184,47,42)" transform="translate(0,0)"></path>
<path d="M 1608.26 450.786 C 1611.38 449.516 1614.96 450.923 1616.38 453.983 C 1617.8 457.043 1616.57 460.68 1613.58 462.25 C 1611.51 463.335 1609.02 463.195 1607.09 461.884 C 1605.15 460.574 1604.1 458.305 1604.35 455.984 C 1604.59 453.662 1606.09 451.664 1608.26 450.786 z" fill="rgb(184,47,42)" transform="translate(0,0)"></path>
<path d="M 1607.79 555.153 C 1610.03 554.782 1612.3 555.653 1613.72 557.43 C 1615.14 559.207 1615.48 561.613 1614.62 563.719 C 1613.76 565.824 1611.83 567.3 1609.57 567.577 C 1606.18 567.993 1603.08 565.622 1602.6 562.241 C 1602.11 558.861 1604.42 555.711 1607.79 555.153 z" fill="rgb(184,47,42)" transform="translate(0,0)"></path>
<metadata><recraft-signature>{"signed_by": "recraft", "signature_b64": "L579G+7CjigCvIgSM9etPUtz3ppiWj0avAh9jwizLpATp61peTCMWJ6UG4yVCXHV9N1YRRPU8GvFz2LjyfTxAw==", "signing_algo": "Ed25519", "generation_timestamp": 1781711278, "identifier": "5e959915-bae4-42a6-8342-8aeab1ecd8dc"}</recraft-signature></metadata></svg>