<svg xmlns="http://www.w3.org/2000/svg" height="1024" preserveAspectRatio="none" style="display: block;" version="1.1" viewBox="0 0 2048 2048" width="1024">
<path d="M 0 0 L 1015.9 0 L 1028 0 L 2048 0 L 2048 2048 L 1028.17 2048 L 1015.75 2048 L 0 2048 L 0 0 z" fill="rgb(246,245,231)" transform="translate(0,0)"></path>
<path d="M 1028 0 L 2048 0 L 2048 2048 L 1028.17 2048 L 1028 0 z" fill="rgb(246,245,231)" transform="translate(0,0)"></path>
<path d="M 1868.62 506.713 C 1872.25 506.929 1873.8 506.963 1876.19 509.486 C 1879.44 519.91 1847.36 621.882 1842.36 640.838 C 1839.67 651.026 1834.03 665.435 1832.04 677.453 C 1812.54 691.459 1783.84 704.568 1764.83 720.205 C 1776.6 729.51 1780.15 738.137 1783.43 752.045 C 1780.27 757.067 1778.47 760.241 1775.79 765.539 C 1779.78 767.453 1784.18 769.949 1788.03 772.184 C 1818.13 789.672 1846.86 809.097 1877.39 825.925 C 1880.8 835.923 1890.85 855.556 1895.8 865.918 C 1905.97 887.173 1915.93 908.525 1925.69 929.973 C 1929.62 938.571 1941.07 959.308 1938.95 967.97 C 1934.39 972.509 1926.67 965.423 1923.29 961.929 C 1910.3 948.482 1898.78 933.502 1886.31 919.545 C 1862.23 892.603 1838.09 865.69 1814.33 838.473 C 1796.14 817.488 1779.27 794.183 1759.85 774.285 C 1759.82 792.051 1761.8 812.521 1762.62 830.557 L 1766.67 936.167 C 1769.57 1016.09 1771.73 1096.04 1773.16 1176 C 1774.38 1222.04 1777.07 1270.45 1777.27 1316.18 C 1784.15 1327.28 1791.1 1338.36 1798.02 1349.43 C 1800.82 1353.92 1806.62 1362.99 1807.48 1368.13 C 1812.19 1396.17 1811.09 1421.43 1779.78 1392.13 C 1779.29 1423.05 1780.92 1455.93 1780.97 1487.36 C 1797.37 1492.29 1822 1503.38 1838.62 1510.12 C 1875.3 1524.75 1911.84 1539.72 1948.23 1555.03 C 1923.94 1566.67 1893.47 1577.91 1868.16 1588.59 C 1809.51 1613.93 1750.67 1638.84 1691.66 1663.33 L 1587.71 1708.58 C 1572.6 1715.25 1556.98 1722.49 1541.77 1729.04 C 1538.6 1730.41 1533.83 1728.04 1530.34 1726.56 C 1449.72 1692.56 1370.07 1656.87 1289.77 1622.06 C 1242.75 1601.68 1194.05 1582.36 1147.48 1560.74 C 1144.1 1559.17 1141.78 1556.88 1140.81 1553.3 C 1149.65 1546.81 1186.02 1534.1 1198.07 1529.49 C 1217.26 1521.96 1236.4 1514.3 1255.5 1506.51 C 1269.93 1500.68 1285.16 1495.02 1299.07 1488.15 L 1299.05 1409.76 C 1280.9 1405.44 1281.64 1408.44 1279.63 1390.6 C 1274.95 1363.98 1297.9 1345.54 1301.33 1322.51 C 1303.43 1308.34 1302.73 1286.15 1303.26 1271.01 L 1307.51 1163.04 C 1310.35 1081.26 1316.52 994.761 1317.06 913.75 C 1316.98 900.928 1322.49 857.666 1311.58 852.125 C 1300.34 857.08 1278.11 892.345 1264.96 901.936 C 1262.44 903.776 1259.05 904.676 1256.06 905.419 C 1240.27 909.347 1117.06 935.324 1111.22 934.033 C 1108.67 933.468 1107.87 932.764 1106.44 930.652 C 1105.65 918.23 1128.33 912.684 1137.92 907.949 L 1239.89 857.39 C 1258.77 848.068 1278.27 839.652 1296.45 829.023 C 1299.43 827.28 1302.21 825.733 1303.87 822.664 C 1308.15 814.769 1309.91 812.82 1317.83 809.047 C 1318.72 763.608 1319.85 718.175 1321.24 672.75 C 1321.88 650.5 1322.07 627.632 1323.34 605.347 C 1323.49 602.661 1324.55 600.856 1325.96 598.65 C 1329.26 596.684 1327.55 596.976 1331.24 597.616 C 1333.36 599.007 1335 600.794 1335.7 603.255 C 1348.61 648.805 1360.37 697.058 1370.86 743.141 C 1360.79 765.953 1345.46 790.579 1337.85 812.152 C 1345.79 818.17 1348.83 821.421 1351.11 830.982 C 1380.13 838.296 1410.38 843.51 1440.02 850.857 C 1466.4 879.711 1497.08 905.529 1522.96 934.984 C 1524.68 936.937 1525.05 938.757 1525.16 941.322 C 1523.53 945.33 1524.78 943.74 1521.29 946.281 C 1518.93 946.688 1517.5 946.93 1515.23 945.789 C 1483.82 929.976 1452.94 913.075 1421.51 897.284 C 1393.77 883.345 1366.31 869.119 1338.98 854.385 C 1341.09 865.576 1341.59 883.09 1342.2 895.113 C 1343.16 918.308 1344.24 941.497 1345.44 964.681 C 1349.83 1049.51 1353.43 1134.37 1356.24 1219.26 C 1367.95 1203.85 1383.92 1166.95 1391.18 1160.13 C 1399.54 1158.31 1442.53 1164.99 1454.24 1166.39 C 1512.42 1173.36 1570.48 1181.32 1628.38 1190.28 C 1642.63 1192.45 1688.24 1197.81 1699.04 1201.65 C 1706.48 1210.79 1714.29 1223.25 1720.93 1233.24 C 1720.63 1191.94 1723.17 1149.99 1724.66 1108.68 C 1726.1 1058.98 1727.85 1009.29 1729.91 959.604 C 1732.48 899.324 1735.95 835.696 1736.63 775.354 C 1726.24 768.923 1724.14 767.444 1719.87 756.205 C 1708.87 766.041 1696.76 775.769 1685.58 785.548 C 1678.52 791.717 1670.07 799.523 1662.82 804.984 C 1656.76 804.125 1650.99 803.969 1644.88 803.952 C 1589.69 803.799 1534.45 804.72 1479.28 803.046 C 1474.17 802.891 1469.43 802.477 1465.89 798.572 C 1465.65 792.788 1473.09 788.241 1478 786.889 C 1556.53 765.255 1637.49 753.293 1716.38 733.168 C 1721.99 725.004 1731.92 713.222 1743.11 713.7 C 1743.42 713.713 1747.04 713.199 1747.03 713.21 C 1782.38 654.439 1814.19 593.474 1850.15 535.037 C 1857.95 522.373 1862.94 512.765 1868.62 506.713 z" fill="rgb(192,43,41)" transform="translate(0,0)"></path>
<path d="M 1398.64 1172.02 C 1423.51 1176.04 1454.99 1178.87 1480.61 1182.19 C 1523.05 1187.85 1565.44 1193.9 1607.76 1200.34 C 1630.4 1203.63 1669.83 1208.17 1690.5 1213.86 C 1684.02 1221.56 1676.77 1236.61 1671.86 1246.03 C 1661.78 1265.39 1651.94 1284.87 1642.35 1304.47 C 1622.35 1344.45 1601.64 1383.84 1581.9 1424.04 L 1580.07 1427.11 C 1577.55 1427.87 1531.23 1417.03 1524.19 1415.64 L 1372.02 1385.57 C 1344.9 1380.36 1321.45 1375.15 1293.84 1371.32 C 1296.42 1365.05 1299.2 1359.72 1302.18 1353.71 C 1328.51 1300.57 1357.51 1248.92 1384.37 1196.07 C 1388.77 1187.42 1392.89 1179.86 1398.64 1172.02 z" fill="rgb(246,245,231)" transform="translate(0,0)"></path>
<path d="M 1490.97 1301.66 C 1506.78 1304.12 1522.62 1306.46 1538.46 1308.69 C 1529.39 1328 1506.96 1371.82 1501.15 1389.73 C 1485.03 1386.22 1468.81 1383.2 1452.51 1380.69 C 1465.58 1355.54 1478.19 1327.45 1490.97 1301.66 z" fill="rgb(192,43,41)" transform="translate(0,0)"></path>
<path d="M 1380.49 1284.39 C 1395.54 1285.35 1413.24 1288.82 1428.38 1291.41 C 1415.79 1316.71 1403.29 1344.02 1390.97 1369.62 C 1385.99 1370.62 1350.99 1363.03 1344.02 1361.38 C 1348.3 1348.33 1355.18 1336.03 1361.34 1323.76 C 1367.8 1310.67 1374.18 1297.55 1380.49 1284.39 z" fill="rgb(192,43,41)" transform="translate(0,0)"></path>
<path d="M 1547.47 1310.27 C 1561.74 1312.03 1578.32 1315.35 1592.85 1317.66 C 1580.88 1344.48 1567.15 1374.33 1554.15 1400.43 C 1544.33 1399.33 1522.42 1393.43 1509.88 1391.27 C 1512.12 1383.8 1518.91 1370.13 1522.44 1362.57 C 1530.56 1345.04 1538.91 1327.6 1547.47 1310.27 z" fill="rgb(192,43,41)" transform="translate(0,0)"></path>
<path d="M 1529.74 1216.65 C 1539.61 1217.04 1565.61 1221.83 1576.5 1223.51 C 1565.35 1249.63 1553.56 1275.48 1541.16 1301.03 C 1533.64 1299.08 1503.99 1295.81 1494.76 1294.56 C 1506.7 1268.83 1516.94 1242.47 1529.74 1216.65 z" fill="rgb(192,43,41)" transform="translate(0,0)"></path>
<path d="M 1586.24 1225.6 C 1600.6 1228.1 1620.03 1231.18 1633.75 1234.8 C 1621.18 1257.28 1609.38 1284.9 1596.89 1308.72 C 1590.25 1309.38 1558.29 1303.14 1550.21 1301.58 C 1560.21 1279.6 1574.63 1246.14 1586.24 1225.6 z" fill="rgb(192,43,41)" transform="translate(0,0)"></path>
<path d="M 1437.58 1292.85 C 1451.69 1295.93 1467.49 1297.99 1481.89 1300.12 C 1469.35 1324.57 1456.3 1354.12 1445.14 1379.36 C 1430.54 1377.75 1414.06 1374.69 1399.42 1372.29 C 1404.86 1357.48 1430.04 1305.89 1437.58 1292.85 z" fill="rgb(192,43,41)" transform="translate(0,0)"></path>
<path d="M 1474.93 1207.72 L 1522.67 1215.59 C 1512.28 1232.37 1495.09 1272.39 1486.25 1291.57 C 1483.27 1292.57 1447.24 1285.52 1440.94 1284.37 C 1447.23 1265.8 1466.21 1228.27 1474.93 1207.72 z" fill="rgb(192,43,41)" transform="translate(0,0)"></path>
<path d="M 1423.01 1200.63 C 1433.53 1200.85 1455.46 1205.17 1466.25 1207.17 C 1457.47 1228.3 1441.91 1262.35 1431.73 1282.9 C 1416.73 1280.02 1402.16 1277.81 1387.06 1275.53 C 1398.92 1248.88 1408.93 1226.32 1423.01 1200.63 z" fill="rgb(192,43,41)" transform="translate(0,0)"></path>
<path d="M 1698.24 1273.65 C 1700.4 1275.9 1712.13 1295.78 1715 1300.04 C 1732.07 1325.38 1748.83 1355.56 1767.16 1379.81 L 1766.87 1568.28 C 1753.26 1575.28 1731.97 1581.43 1717.05 1585.72 C 1717.37 1551.64 1717.48 1517.56 1717.39 1483.48 C 1717.36 1471.07 1717.99 1444.01 1716.04 1432.97 C 1709.1 1425.09 1688.37 1436.05 1679.39 1438.65 C 1665.99 1442.55 1650.62 1444.5 1638.63 1451.34 C 1636.6 1452.5 1636.98 1454.72 1636.82 1456.75 C 1638.11 1474.05 1637.54 1496.76 1637.56 1514.44 L 1637.53 1614.27 C 1622.93 1620.47 1604.97 1626.34 1589.75 1632 C 1590.15 1577.55 1590.18 1523.09 1589.84 1468.64 C 1601.4 1456.53 1610.1 1437.35 1618.66 1422.54 C 1632.24 1399.08 1645.13 1374.8 1657.71 1350.78 C 1670.46 1326.45 1688.2 1298.97 1698.24 1273.65 z" fill="rgb(246,245,231)" transform="translate(0,0)"></path>
<path d="M 1311.62 1411.09 C 1331.16 1416.37 1353.59 1420.04 1373.63 1424.25 C 1441.91 1438.59 1509.03 1447.25 1576.39 1465.7 L 1576.17 1630.2 C 1562.77 1626.69 1549.07 1622.67 1535.7 1618.92 L 1535.1 1538.5 C 1535.13 1527.76 1535.93 1491.21 1533.8 1482.92 C 1528.79 1477.85 1381.47 1451.32 1368.48 1450.8 C 1359.53 1456.55 1370.57 1569.64 1361.56 1581.47 C 1356.17 1583.09 1320 1573.3 1311.93 1571.32 C 1309.76 1521.15 1311.37 1461.67 1311.62 1411.09 z" fill="rgb(246,245,231)" transform="translate(0,0)"></path>
<path d="M 1377.84 1465.87 C 1398.99 1468.53 1424.58 1474.39 1445.82 1478.54 C 1447.11 1498.43 1446.54 1519.66 1446.34 1539.68 C 1446.17 1558.22 1446.51 1580.07 1444.39 1598.35 C 1443.05 1598.92 1440.78 1599.85 1439.42 1599.52 C 1423.24 1595.56 1391.37 1589.83 1376.77 1584.38 L 1376.97 1509.78 C 1377.01 1497.2 1376.49 1477.65 1377.84 1465.87 z" fill="rgb(246,245,231)" transform="translate(0,0)"></path>
<path d="M 1408.07 1528.79 C 1410.51 1527.2 1413.64 1527.09 1416.19 1528.51 C 1418.74 1529.92 1420.31 1532.62 1420.26 1535.54 C 1420.22 1538.46 1418.57 1541.11 1415.98 1542.45 C 1412.23 1544.37 1407.64 1543.02 1405.53 1539.38 C 1403.42 1535.74 1404.53 1531.08 1408.07 1528.79 z" fill="rgb(192,43,41)" transform="translate(0,0)"></path>
<path d="M 1459.32 1480.76 C 1469.97 1481.63 1512.35 1490.26 1523.1 1493.25 C 1524.17 1509.04 1525.18 1605.75 1521.82 1616.46 C 1507.82 1614.8 1472.21 1605.86 1457.36 1602.14 C 1456.88 1596.24 1456.86 1588.82 1457 1582.84 C 1457.79 1549.47 1456.22 1513.88 1459.32 1480.76 z" fill="rgb(246,245,231)" transform="translate(0,0)"></path>
<path d="M 1482.36 1542.9 C 1488.75 1542.55 1496.08 1542.89 1497.57 1550.44 C 1496.4 1553.77 1496.14 1553.67 1493.5 1555.86 C 1487.28 1556.85 1482.38 1557.57 1479.3 1551.14 C 1479.41 1546.98 1480 1546.58 1482.36 1542.9 z" fill="rgb(192,43,41)" transform="translate(0,0)"></path>
<path d="M 1698.79 1225.62 C 1701.85 1227.94 1714.79 1248.05 1717.96 1252.83 C 1732.67 1274.97 1747.2 1297.23 1761.54 1319.61 C 1772.33 1336.63 1783.95 1356.36 1796.12 1372.2 L 1796.14 1391.12 C 1792.92 1387.24 1790.18 1383.32 1787.29 1379.21 C 1761.63 1342.79 1738.08 1305.17 1714.24 1267.57 C 1709.65 1260.33 1704.62 1252.9 1699.28 1246.2 C 1692.09 1260.54 1682.39 1277.23 1674.64 1291.61 C 1664.74 1311.55 1653.32 1330.85 1643.31 1350.73 C 1626.49 1384.13 1608.58 1416.32 1590.04 1448.79 C 1590.03 1446.95 1590.16 1443.04 1590.06 1441.49 C 1589.79 1437.78 1589.83 1436.34 1591.51 1432.87 C 1606.07 1402.73 1622.66 1373.26 1637.77 1343.44 L 1675.59 1269.49 C 1682.81 1255.41 1690.54 1238.81 1698.79 1225.62 z" fill="rgb(246,245,231)" transform="translate(0,0)"></path>
<path d="M 1292.97 1385.69 C 1351.15 1396.1 1412.35 1409.01 1470.86 1420.24 L 1535.37 1432.47 C 1547.89 1434.85 1560.1 1437.76 1572.57 1440.3 C 1578.42 1441.5 1577.9 1445.87 1577.89 1450.14 C 1572.51 1450.25 1555.09 1446.31 1549.03 1445.07 L 1497.02 1434.61 L 1364.1 1408.83 C 1340.75 1404.36 1317.06 1400.44 1293.83 1395.55 C 1292.34 1393.13 1292.89 1388.79 1292.97 1385.69 z" fill="rgb(246,245,231)" transform="translate(0,0)"></path>
<path d="M 1694.58 754.249 L 1697.28 754.138 C 1696.94 755.189 1662.47 785.951 1657.94 790.159 C 1615.94 790.169 1570.5 789.453 1528.75 790.85 C 1527.18 790.707 1527.22 790.62 1525.7 790.138 C 1531 787.12 1579.7 778.093 1587.73 776.445 C 1623.3 768.844 1658.92 761.445 1694.58 754.249 z" fill="rgb(246,245,231)" transform="translate(0,0)"></path>
<path d="M 1847.85 572.916 C 1850.38 578.28 1824.68 660.341 1821.56 670.436 C 1810.8 678.013 1790.32 688.336 1778.07 694.894 C 1777.86 694.273 1777.66 693.652 1777.45 693.031 C 1788.87 669.059 1800.88 650.528 1814.68 628.04 C 1825.87 609.812 1835.93 590.826 1847.85 572.916 z" fill="rgb(246,245,231)" transform="translate(0,0)"></path>
<path d="M 1801.89 797.957 C 1815.42 803.349 1856.15 827.19 1867.07 836.378 C 1873.83 842.069 1900.76 904.047 1905.09 914.386 C 1900.61 912.193 1813.8 810.275 1801.89 797.957 z" fill="rgb(246,245,231)" transform="translate(0,0)"></path>
<path d="M 1702.13 1444.28 C 1703.96 1446.32 1703.24 1468.14 1703.23 1472.41 C 1686.97 1476.79 1669.07 1483.62 1652.29 1488.63 C 1651.2 1481.9 1651.55 1467.12 1651.7 1460.02 C 1668.33 1453.45 1684.88 1448.87 1702.13 1444.28 z" fill="rgb(246,245,231)" transform="translate(0,0)"></path>
<path d="M 1702.17 1526.29 L 1702.6 1526.69 C 1704 1530.13 1703.54 1547.19 1703.62 1552.29 C 1687.41 1557.94 1671.17 1563.5 1654.89 1568.97 L 1653.3 1569.1 C 1650.73 1565.58 1652.11 1545.42 1652.25 1539.77 C 1666.85 1535.62 1687.78 1529.13 1702.17 1526.29 z" fill="rgb(246,245,231)" transform="translate(0,0)"></path>
<path d="M 1699.65 1486.1 L 1702.1 1486.07 C 1703.91 1489.88 1703.25 1507.44 1703.2 1512.25 L 1655.35 1527.76 L 1653.69 1527.64 C 1651.23 1523.38 1652.13 1506.74 1652.2 1500.87 C 1667.23 1495.36 1684.25 1490.39 1699.65 1486.1 z" fill="rgb(246,245,231)" transform="translate(0,0)"></path>
<path d="M 1701.5 1566.09 L 1703.25 1566.68 C 1704.33 1571.71 1703.94 1585 1703.93 1590.75 L 1654.22 1608.11 L 1653.21 1608.39 L 1651.97 1607.49 C 1651.04 1600.7 1651.59 1588.12 1651.69 1580.84 C 1666.45 1577.45 1685.96 1570.49 1701.5 1566.09 z" fill="rgb(246,245,231)" transform="translate(0,0)"></path>
<path d="M 1369.67 851.01 C 1376.69 850.774 1420.2 860.298 1431.72 862.175 C 1447.44 877.45 1463.07 892.821 1478.6 908.289 C 1473.98 907.403 1445.81 891.072 1439.58 887.844 C 1416.21 875.732 1393.44 862.521 1369.67 851.01 z" fill="rgb(246,245,231)" transform="translate(0,0)"></path>
<path d="M 1285.17 857.092 L 1285.65 857.62 C 1284 863.355 1258.76 889.851 1252.71 894.412 C 1238.89 895.591 1201.83 903.407 1186.25 905.996 C 1185.41 905.289 1185.77 905.789 1185.56 904.264 C 1193.72 899.984 1209.6 893.669 1219.12 889.247 C 1241.32 878.915 1263.34 868.195 1285.17 857.092 z" fill="rgb(246,245,231)" transform="translate(0,0)"></path>
<path d="M 1339.44 669.819 C 1342.58 674.094 1355.5 731.865 1357.6 740.763 C 1353.47 750.083 1349.6 758.969 1344.9 768.037 L 1337.95 779.949 C 1337.99 744.175 1339.07 705.911 1339.44 669.819 z" fill="rgb(246,245,231)" transform="translate(0,0)"></path>
<path d="M 1743.4 728.784 C 1749.77 726.991 1756.62 728.79 1761.28 733.485 C 1765.95 738.18 1767.71 745.034 1765.88 751.397 C 1764.05 757.76 1758.92 762.633 1752.47 764.132 C 1742.81 766.377 1733.13 760.497 1730.66 750.892 C 1728.2 741.286 1733.85 731.469 1743.4 728.784 z" fill="rgb(246,245,231)" transform="translate(0,0)"></path>
<path d="M 1323.15 820.338 C 1329.7 818.67 1336.39 822.454 1338.34 828.92 C 1340.29 835.387 1336.8 842.24 1330.42 844.465 C 1326.05 845.992 1321.18 844.995 1317.76 841.869 C 1314.34 838.742 1312.91 833.991 1314.03 829.495 C 1315.16 824.999 1318.66 821.482 1323.15 820.338 z" fill="rgb(246,245,231)" transform="translate(0,0)"></path>
<path d="M 1520.65 499.422 C 1525.98 498.743 1539.66 498.891 1545.47 498.863 C 1582.85 498.684 1621.17 502.995 1657.11 513.434 C 1689.94 522.959 1722.71 534.967 1752.4 552.076 C 1759.24 556.022 1768.31 557.917 1765.22 567.734 C 1758.82 574.371 1740.01 559.997 1731.99 555.812 C 1569.9 471.257 1351.26 510.393 1235.16 653.674 C 1192.56 708.186 1166.7 768.122 1158.44 836.745 C 1157.21 846.956 1158.31 863.673 1150.96 870.962 C 1147.63 871.753 1149.23 871.936 1146.06 870.075 C 1142.48 864.333 1143.56 860.071 1143.9 853.638 C 1153.1 679.711 1290.56 541.024 1457.6 507.117 C 1478.72 502.831 1498.88 501.057 1520.65 499.422 z" fill="rgb(192,43,41)" transform="translate(0,0)"></path>
<path d="M 1109.97 1884.22 C 1141.97 1883.61 1176.55 1884.49 1208.78 1884.56 C 1264.94 1884.29 1321.09 1884.32 1377.24 1884.65 L 1713.67 1884.16 L 1893.49 1884.44 C 1909.13 1884.51 1924.64 1884.04 1940.26 1883.83 C 1946.07 1883.75 1950.84 1884.28 1953.99 1889.35 C 1954.11 1892.92 1953.73 1893.07 1952.11 1896.19 C 1944.69 1897.75 1907.96 1896.94 1897.77 1896.93 L 1770.85 1896.84 L 1309.41 1897 C 1246.36 1897.03 1182.95 1896.86 1119.88 1897.3 C 1114.34 1897.34 1108.57 1896.94 1106.65 1891.21 C 1107.34 1887.35 1107.7 1887.3 1109.97 1884.22 z" fill="rgb(192,43,41)" transform="translate(0,0)"></path>
<path d="M 1810.65 154.076 C 1847.36 152.852 1849.43 216.917 1818.7 226.023 C 1803.77 226.292 1795.09 220.045 1791.04 205.412 C 1785.78 186.436 1788.72 160.028 1810.65 154.076 z" fill="rgb(192,43,41)" transform="translate(0,0)"></path>
<path d="M 1809.83 165.027 C 1834.89 163.758 1830.91 203.003 1819.46 215.405 C 1813.52 215.468 1809.74 215.343 1806.18 210.221 C 1797.73 198.07 1798.52 174.625 1809.83 165.027 z" fill="rgb(246,245,231)" transform="translate(0,0)"></path>
<path d="M 1750.01 154.252 C 1762.67 153.216 1772.83 158.008 1777.28 170.261 C 1784.41 189.912 1783.46 217.375 1761.42 226.154 C 1747.74 228.321 1738.17 221.252 1734.04 208.446 C 1727.91 189.41 1728.72 162.5 1750.01 154.252 z" fill="rgb(192,43,41)" transform="translate(0,0)"></path>
<path d="M 1752.06 164.944 C 1775.68 164.377 1772.47 204.144 1759.54 215.615 C 1743.66 218.318 1741.99 193.781 1743 182.816 C 1743.79 174.279 1745.57 170.275 1752.06 164.944 z" fill="rgb(246,245,231)" transform="translate(0,0)"></path>
<path d="M 1295.13 155.106 C 1326.07 152.821 1330.55 185.247 1323.38 208.326 C 1320.43 217.825 1315.59 222.478 1306.79 226.454 C 1271.04 231.072 1264.95 169.939 1295.13 155.106 z" fill="rgb(192,43,41)" transform="translate(0,0)"></path>
<path d="M 1297.77 165.972 C 1322.44 167.889 1317.27 203.252 1306.46 216.739 C 1282.14 213.522 1281.93 174.401 1297.77 165.972 z" fill="rgb(246,245,231)" transform="translate(0,0)"></path>
<path d="M 1238.13 155.093 C 1267.36 151.544 1273.07 186.785 1265.89 208.068 C 1262.61 217.782 1258.3 222.156 1249.24 226.479 C 1213.19 232.03 1208.21 168.862 1238.13 155.093 z" fill="rgb(192,43,41)" transform="translate(0,0)"></path>
<path d="M 1241.39 164.718 C 1262.01 167.558 1260.68 204.824 1246.43 216.786 C 1230.1 218.389 1229.35 188.745 1232.33 177.988 C 1234.44 170.352 1234.86 168.852 1241.39 164.718 z" fill="rgb(246,245,231)" transform="translate(0,0)"></path>
<path d="M 1872.69 665.527 C 1899.76 670.257 1950.43 844.426 1933.31 866.486 C 1929.79 866.538 1928.84 866.782 1925.58 865.325 C 1921.73 860.663 1922.37 838.977 1921.63 831.977 C 1920.62 822.557 1919.26 813.785 1917.42 804.47 C 1910.88 770.565 1900.46 737.525 1886.36 706.004 C 1881.71 695.525 1871.51 681.168 1868.96 672.475 C 1869.68 668.018 1869.4 669.449 1872.69 665.527 z" fill="rgb(192,43,41)" transform="translate(0,0)"></path>
<path d="M 1525.07 276.309 C 1536.05 275.273 1546.7 274.717 1555.61 282.43 C 1572.92 297.418 1570.52 323.884 1557.05 340.255 C 1546.73 348.737 1537.33 348.316 1524.66 348.379 C 1524.14 338.67 1523.87 283.756 1525.07 276.309 z" fill="rgb(192,43,41)" transform="translate(0,0)"></path>
<path d="M 1535.84 284.778 C 1538.12 285.16 1543.07 286.033 1544.95 287.137 C 1559.38 295.612 1557.85 320.067 1550.45 332.628 C 1547.34 335.471 1541.34 339.023 1537.03 337.892 C 1534.35 333.246 1535.76 293.144 1535.84 284.778 z" fill="rgb(246,245,231)" transform="translate(0,0)"></path>
<path d="M 1156.18 950.499 C 1166.25 951.906 1166.9 966.546 1169.79 975.784 C 1186.7 1029.84 1215.97 1078.31 1254.12 1120.06 C 1255.38 1121.44 1255.72 1122.69 1256.06 1124.45 C 1255.67 1127.92 1254.61 1128.65 1252.36 1131.32 C 1242.63 1129.86 1233.08 1114.84 1226.66 1107.22 C 1191.17 1065.09 1164.41 1013.5 1152.55 959.595 C 1151.61 955.314 1153.8 953.501 1156.18 950.499 z" fill="rgb(192,43,41)" transform="translate(0,0)"></path>
<path d="M 1206.65 275.009 C 1209.65 274.917 1211.21 275.05 1214.16 275.281 C 1218.1 278.515 1224.88 317.571 1227.05 326.952 C 1229.01 317.69 1235.15 274.089 1244.79 274.397 C 1253.02 280.54 1258.77 314.763 1261.49 326.617 C 1264.24 316.061 1268.27 280.803 1271.38 276.572 C 1275.44 275.627 1275.71 275.758 1279.92 276.365 C 1282.31 280.909 1278.99 291.604 1277.75 297.252 C 1276.08 306.526 1270.47 339.745 1264.35 346.653 C 1263.38 347.742 1262.62 347.174 1260.93 346.865 C 1253.98 340.318 1246.56 307.393 1243.45 295.943 C 1240.13 309.457 1237.86 323.321 1234.12 336.712 C 1232.58 342.218 1230.95 346.094 1225.3 347.659 L 1223.7 346.591 C 1219.99 335.761 1204.99 283.277 1206.65 275.009 z" fill="rgb(192,43,41)" transform="translate(0,0)"></path>
<path d="M 1397.05 1067.21 C 1425.19 1065.25 1446.53 1074.9 1464.73 1096.38 C 1483.78 1062.07 1537.96 1061.68 1533.55 1076.15 C 1527.51 1081.43 1522.25 1080.19 1514.03 1080.11 C 1471 1085.19 1472.92 1116.91 1461.64 1120.26 C 1453.43 1117.68 1455.85 1100.68 1438.61 1089 C 1418.87 1075.63 1396.07 1083.81 1386.88 1076.08 C 1385.75 1069.52 1392.01 1068.01 1397.05 1067.21 z" fill="rgb(192,43,41)" transform="translate(0,0)"></path>
<path d="M 1853.85 154.438 C 1885.7 154.082 1900.99 164.351 1882.35 195.957 C 1880.31 199.433 1895.33 217.62 1889.1 225.304 C 1885.76 226.28 1885.92 226.48 1882.62 225.621 C 1879.98 223.619 1879.67 221.497 1878.49 218.277 L 1877.98 216.86 C 1875.92 211.157 1872.56 200.363 1867.52 197.926 C 1863.44 198.494 1864.95 197.572 1862.48 200.081 C 1859.9 209.301 1867.06 218.42 1859.89 225.608 C 1855.83 226.809 1855.94 226.63 1851.65 225.909 C 1848.59 221.578 1851.95 168.392 1851 158.552 C 1850.78 156.285 1852.33 155.536 1853.85 154.438 z" fill="rgb(192,43,41)" transform="translate(0,0)"></path>
<path d="M 1862.69 164.82 C 1879.09 164.732 1882.78 172.463 1874.62 186.026 C 1870.91 188.579 1869.32 189.826 1864.86 188.295 C 1860.94 183.548 1862.45 171.481 1862.69 164.82 z" fill="rgb(246,245,231)" transform="translate(0,0)"></path>
<path d="M 1901.83 985.466 C 1905.86 985.94 1906.24 985.826 1909.53 987.978 C 1912.11 992.093 1910.29 997.758 1908.53 1001.96 C 1889.57 1047.28 1859.84 1100.01 1825.14 1135.05 C 1821.19 1135.15 1820.2 1134.83 1817.85 1131.95 C 1816.56 1123.84 1831.04 1109.54 1836.69 1102.33 C 1856.14 1077.3 1872.69 1050.15 1886.03 1021.4 C 1891.31 1010.18 1896.39 995.635 1901.83 985.466 z" fill="rgb(192,43,41)" transform="translate(0,0)"></path>
<path d="M 1625.37 1020.08 C 1631.9 1011.64 1636.25 1006.8 1645.76 1001.47 C 1656.11 995.661 1687.14 986.453 1694.05 999.563 C 1692.91 1007.17 1684.23 1005.71 1678.41 1005.45 C 1635.49 1007.5 1636.15 1039.07 1627.58 1042.83 C 1624.1 1042.21 1621.84 1039.07 1620.19 1036.45 C 1609.52 1019.62 1598.53 1008.86 1577.88 1007.32 C 1571.82 1006.87 1558.71 1006.3 1554.13 1002.28 C 1553.36 999.545 1553.63 999.559 1554.39 996.74 C 1557.19 994.136 1558.6 994.134 1562.3 993.248 C 1589.46 992.06 1607.3 1000.11 1625.37 1020.08 z" fill="rgb(192,43,41)" transform="translate(0,0)"></path>
<path d="M 1617.04 154.452 C 1632.25 153.72 1650.83 156.694 1650.68 177.576 C 1650.62 184.364 1644.77 190.596 1639.63 194.631 C 1643.17 202.496 1654.72 218.739 1650.16 225.915 C 1647.14 227.192 1647.36 227.111 1644.11 226.587 C 1640.76 223.656 1639.44 220.289 1637.34 216.308 C 1634.9 211.144 1630.47 201.327 1626.99 197.195 C 1622.5 199.625 1626.71 221.346 1622.1 225.8 C 1619.18 228.624 1616.08 227.124 1613.72 224.437 C 1612.01 213.393 1613.32 170.433 1613.57 156.249 C 1613.59 155.264 1615.58 154.965 1617.04 154.452 z" fill="rgb(192,43,41)" transform="translate(0,0)"></path>
<path d="M 1624.46 163.163 C 1637.77 164.797 1643.4 172.343 1636.67 185.014 C 1632.7 187.01 1630.3 187.99 1626.08 186.51 C 1622.24 181.179 1624.05 170.239 1624.46 163.163 z" fill="rgb(246,245,231)" transform="translate(0,0)"></path>
<path d="M 1337.83 155.044 C 1342.6 154.832 1350.76 154.218 1355.33 155.042 C 1378.51 159.229 1381.94 181.555 1363.69 194.907 C 1367.87 201.025 1378.66 217.93 1376.92 225.203 C 1372.42 228.667 1368.43 226.307 1365.38 222.398 C 1362.34 213.808 1359.74 204.131 1351.72 199.111 L 1350.14 199.637 C 1346.94 208.655 1353.34 222.049 1343.88 226.502 C 1339.63 226.052 1341.13 226.994 1338.69 224.588 C 1336.93 213.203 1337.82 168.554 1337.83 155.044 z" fill="rgb(192,43,41)" transform="translate(0,0)"></path>
<path d="M 1348.95 164.799 C 1351.55 164.755 1355.04 164.68 1357.43 165.611 C 1359.89 166.546 1361.87 168.44 1362.92 170.862 C 1364.91 175.552 1362.99 181.43 1361.21 185.833 C 1357.1 188.403 1353.41 190.42 1349.67 186.783 C 1347.83 181.514 1348.82 170.91 1348.95 164.799 z" fill="rgb(246,245,231)" transform="translate(0,0)"></path>
<path d="M 1553.2 597.443 C 1579.85 596.39 1596.46 601.811 1613.86 622.501 C 1625.16 610.519 1634.8 604.19 1651.09 600.142 C 1656.79 598.725 1682.04 594.37 1678.39 605.888 C 1671.98 611.528 1667.12 610.666 1658.21 611.326 C 1619.67 619.356 1625.75 643.052 1616.78 646.496 C 1609.83 644.81 1600.45 623.461 1590.39 617.575 C 1577.71 610.165 1569.18 610.318 1554.69 608.961 C 1549.74 608.496 1549.6 609.586 1546.32 606.061 C 1544.81 599.542 1547.77 598.637 1553.2 597.443 z" fill="rgb(192,43,41)" transform="translate(0,0)"></path>
<path d="M 1321.71 274.99 C 1323.87 275.046 1325.32 275.196 1327.48 275.447 C 1334.52 280.567 1349.18 311.108 1353.84 320.268 C 1353.6 313.278 1352.34 281.084 1354.62 276.688 C 1357.07 275.175 1359.32 275.731 1362.3 275.916 C 1365.62 283.688 1365.33 333.712 1363.67 345.154 C 1363.3 347.722 1361.95 347.774 1360.03 348.68 C 1356.72 347.718 1358.25 348.51 1355.58 345.672 C 1347.6 328.187 1338.3 311.51 1329.12 294.621 C 1329.13 309.51 1329.34 324.312 1329.76 339.195 C 1329.9 344.012 1328.33 347.12 1323.92 349.077 C 1323.46 348.929 1321.76 348.704 1321.48 347.801 C 1318.39 337.965 1317.05 278.747 1321.71 274.99 z" fill="rgb(192,43,41)" transform="translate(0,0)"></path>
<path d="M 1185.17 154.426 C 1201.58 155.024 1208.8 157.412 1212.59 175.397 C 1216.35 193.267 1200.43 196.356 1186.83 198.471 C 1185.42 200.844 1185.9 205.46 1185.94 208.5 C 1186.16 213.339 1186.75 218.275 1185.56 222.882 C 1182.46 226.6 1179.38 227.502 1175.52 223.901 C 1174.55 217.151 1174.46 162.061 1175.85 156.37 C 1178.3 154.302 1181.73 154.641 1185.17 154.426 z" fill="rgb(192,43,41)" transform="translate(0,0)"></path>
<path d="M 1186.04 164.609 C 1200.92 164.488 1206.04 172.446 1198.67 185.668 C 1195.62 188.153 1192.56 190.279 1188.52 189.683 C 1184.08 185.039 1185.91 171.85 1186.04 164.609 z" fill="rgb(246,245,231)" transform="translate(0,0)"></path>
<path d="M 1430.61 154.475 C 1431.2 154.752 1432.91 155.483 1433.33 155.933 C 1439.73 162.933 1456.24 217.186 1456.52 224 C 1453.93 226.237 1453.95 226.607 1450.49 226.965 C 1444.46 224.806 1444.06 217.389 1440.62 213.012 C 1439.7 211.835 1437.13 212.187 1435.14 212.091 L 1422.12 212.422 C 1421.24 215.624 1420.3 219.616 1419.05 222.623 C 1417.35 226.71 1410.13 227.044 1407.24 224.165 C 1407.74 219.019 1428.19 158.543 1430.61 154.475 z" fill="rgb(192,43,41)" transform="translate(0,0)"></path>
<path d="M 1432.15 180.654 C 1435.5 185.419 1437.83 194.067 1437.31 200.213 C 1435.48 202.828 1435.9 201.995 1431.63 202.849 C 1429.26 202.9 1429.22 202.869 1426.9 202.323 C 1425.01 197.569 1430.16 186.075 1432.15 180.654 z" fill="rgb(246,245,231)" transform="translate(0,0)"></path>
<path d="M 1576.02 154.186 C 1577.37 154.495 1579.18 154.598 1579.7 155.509 C 1585.04 164.948 1602.98 217.21 1602.51 224.539 C 1598.83 227.592 1600.8 226.964 1596.72 227.368 C 1592.15 225.5 1589.4 217.643 1587.31 213.062 C 1584.69 211.571 1580.73 212.15 1577.26 212.154 L 1568.52 212.4 C 1566.91 217.183 1565.3 224.544 1560.99 226.76 C 1557.45 226.455 1556.21 226.574 1552.97 224.979 C 1553.88 215.513 1571.97 165.585 1576.02 154.186 z" fill="rgb(192,43,41)" transform="translate(0,0)"></path>
<path d="M 1578.19 179.661 C 1579.81 184.747 1584.78 197.282 1582.51 201.888 L 1579.38 202.925 C 1574.79 202.321 1575 203.17 1572.91 200.545 C 1572.37 193.469 1575.74 186.67 1578.19 179.661 z" fill="rgb(246,245,231)" transform="translate(0,0)"></path>
<path d="M 1688.11 155.35 C 1697.03 154.4 1709.47 153.518 1716.97 159.007 C 1731.55 169.684 1724.28 196.313 1705.86 197.256 C 1703.85 197.359 1702.25 197.649 1700.36 198.311 L 1699.84 200.75 C 1699.9 208.633 1702.46 220.822 1696.54 226.22 C 1693.25 226.912 1693.04 226.521 1689.94 225.341 C 1686.74 221.393 1687.61 164.533 1688.11 155.35 z" fill="rgb(192,43,41)" transform="translate(0,0)"></path>
<path d="M 1699.5 163.901 C 1714.26 165.871 1717.55 172.311 1711.03 185.752 C 1707.2 187.743 1705.2 188.229 1701.51 187.092 C 1697.52 182.274 1699.2 170.681 1699.5 163.901 z" fill="rgb(246,245,231)" transform="translate(0,0)"></path>
<path d="M 1490.59 679.112 C 1502.32 667.197 1518.97 657.551 1536.6 661.834 C 1539.35 662.502 1540 663.555 1541.2 665.787 C 1539.35 673.904 1527.28 672.463 1519.9 674.241 L 1518.58 674.572 C 1494.46 685.885 1499.6 700.152 1489.03 704.847 C 1482.78 703.202 1484.26 689.358 1473.15 680.796 C 1459.43 670.216 1443.95 678.362 1437.05 671.658 C 1436.32 664.41 1441.16 662.841 1447.13 661.36 C 1449.28 661.287 1451.43 661.254 1453.57 661.26 C 1469.79 661.357 1479.82 668.281 1490.59 679.112 z" fill="rgb(192,43,41)" transform="translate(0,0)"></path>
<path d="M 1480.02 276.157 C 1486.93 276.099 1508.02 274.573 1512.7 277.466 C 1513.57 281.62 1513.43 282.976 1510.74 285.926 C 1506.24 287.703 1497.4 286.771 1491.85 286.708 L 1491.85 305.802 C 1498.56 305.648 1505.62 304.185 1509.73 310.493 L 1509.25 312.672 C 1503.74 317.823 1499.94 316.515 1491.98 316.323 L 1492.05 334.25 C 1492.26 342.365 1506.14 334.854 1512.19 339.041 C 1513.48 342.117 1513.82 342.077 1513.16 345.242 C 1508.64 349.385 1485.84 349.092 1481.67 345.696 C 1479.79 336.092 1481.24 291.384 1480.02 276.157 z" fill="rgb(192,43,41)" transform="translate(0,0)"></path>
<path d="M 1843.84 275.164 C 1848.75 275.419 1857.98 277.778 1856.21 284.381 C 1852.72 287.201 1843.48 286.763 1838.67 286.925 C 1835.97 288.506 1836.2 288.455 1834.8 291.301 C 1834.46 300.902 1842.86 305.672 1849.14 311.731 C 1865.94 327.926 1864.07 343.792 1839.79 349.467 C 1834.5 349.149 1828.09 347.806 1825 343.154 C 1824.8 338.936 1824.41 340.922 1826.48 337.028 C 1832.36 334.485 1838.93 341.031 1847.27 333.484 C 1850.13 321.899 1827.15 313.862 1824.87 300.095 C 1822.41 285.309 1829.93 278.287 1843.84 275.164 z" fill="rgb(192,43,41)" transform="translate(0,0)"></path>
<path d="M 1714.55 276.962 C 1722.44 276.989 1734.29 273.977 1739.2 280.3 C 1739.8 284.54 1740.26 282.746 1738.58 286.012 C 1735 287.896 1729.52 287.158 1725.25 287.018 L 1725.18 307.275 C 1731.36 307.001 1735.55 305.467 1739.68 310.474 C 1739.48 318.323 1730.97 318.185 1725.06 318.765 L 1725.1 337.131 C 1731.34 337.038 1749.31 336.7 1739.63 348.212 C 1732.79 349.052 1721.65 347.833 1714.44 347.306 C 1714.23 323.859 1714.26 300.409 1714.55 276.962 z" fill="rgb(192,43,41)" transform="translate(0,0)"></path>
<path d="M 1619.42 275.19 C 1625.16 274.9 1631.3 274.14 1634.77 279.034 C 1634.99 282.668 1634.95 285.237 1631.44 286.685 C 1625.27 285.125 1621.08 283.75 1615.61 288.19 C 1603.97 297.642 1604.74 322.036 1612.47 333.51 C 1616.38 339.319 1626.19 338.024 1632.4 338.671 L 1634.85 341.786 C 1634.09 344.809 1632.45 347.81 1629.15 348.393 C 1597.14 354.055 1587.92 312.848 1600.06 290.527 C 1604.77 281.855 1610.48 277.812 1619.42 275.19 z" fill="rgb(192,43,41)" transform="translate(0,0)"></path>
<path d="M 1760.98 276.183 C 1765.72 275.861 1767.46 275.381 1771.83 276.859 C 1774.04 278.81 1773.87 279.26 1774.96 282.108 C 1772.19 290.401 1766.26 281.901 1758.89 290.536 C 1755.96 301.704 1772.55 310.026 1776.57 320.388 C 1782.14 334.723 1774.91 342.492 1761.93 348.237 C 1756.44 349.129 1747.43 348.547 1746.54 341.697 C 1750.6 335.252 1757.33 340.717 1763.39 336.586 C 1776.27 327.809 1755.14 314.973 1750.43 306.778 C 1742.59 293.148 1747.68 283.077 1760.98 276.183 z" fill="rgb(192,43,41)" transform="translate(0,0)"></path>
<path d="M 1430.16 275.977 C 1438.45 276.126 1475.62 271.4 1472.68 283.309 C 1468.8 286.751 1461.57 285.968 1456.46 285.876 L 1456.06 332.5 C 1456.19 337.54 1457.14 343.657 1454.02 347.222 C 1450.35 347.388 1450.39 347.53 1446.73 346.289 C 1443.99 341.643 1445.05 295.414 1444.98 286.817 L 1441.5 286.592 C 1437.02 286.317 1434.62 286.82 1431.24 284.246 C 1429.28 281.416 1429.89 279.482 1430.16 275.977 z" fill="rgb(192,43,41)" transform="translate(0,0)"></path>
<path d="M 1511.96 154.064 C 1515.84 154.297 1515.85 154.242 1519.48 155.511 C 1522.16 160.459 1520.79 206.799 1520.76 215.199 L 1545.33 215.035 C 1545.64 219.427 1546.36 222.645 1543.8 225.86 L 1509.16 225.719 C 1508.62 204.782 1509.23 182.682 1509.13 161.652 C 1509.11 157.302 1509.38 156.495 1511.96 154.064 z" fill="rgb(192,43,41)" transform="translate(0,0)"></path>
<path d="M 1781.54 276.2 C 1789.86 276.366 1812.57 274.116 1817.5 280.032 C 1817.87 283.604 1818.14 281.896 1816.37 285.281 C 1813.14 287.396 1809.32 286.973 1805.35 287.052 C 1805.08 304.297 1805.27 321.97 1805.25 339.25 C 1805.55 341.542 1805.49 342.639 1805.44 344.966 C 1803.58 347.296 1803.45 347.049 1800.56 348.045 C 1796.67 347.371 1798.23 348.228 1795.55 345.71 C 1792.16 336.475 1793.6 298.499 1793.66 287.054 C 1789.91 287.383 1786.17 288.226 1783.02 286.448 C 1780.94 283.488 1781.5 279.947 1781.54 276.2 z" fill="rgb(192,43,41)" transform="translate(0,0)"></path>
<path d="M 1467.53 152.223 C 1470.95 152.372 1473.72 152.053 1476.5 153.878 C 1477.84 161.406 1477.11 205.073 1477.08 215.197 C 1484.08 214.975 1497.51 212.743 1501.44 219.06 C 1501.2 222.463 1501.33 223.247 1499.75 226.36 L 1465.91 225.985 C 1465.82 215.433 1464.12 156.71 1467.53 152.223 z" fill="rgb(192,43,41)" transform="translate(0,0)"></path>
<path d="M 1645.9 275.136 C 1650.43 275.051 1652.42 274.502 1655.43 277.021 C 1656.79 285.57 1655.99 327.147 1655.96 338.192 C 1662.43 338.061 1673.65 336.093 1677.8 340.802 C 1678.07 344.417 1677.81 344.539 1676.67 347.872 C 1666.21 347.69 1655.47 347.744 1644.98 347.691 C 1644.38 333.654 1643.41 287.014 1645.9 275.136 z" fill="rgb(192,43,41)" transform="translate(0,0)"></path>
<path d="M 1379.26 276.143 C 1383.07 275.907 1386.15 275.23 1389.45 276.893 C 1392.13 282.371 1390.99 337.912 1390.75 347.805 C 1386.57 348.207 1382.52 349.36 1379.47 346.238 C 1377.97 334.066 1378.78 290.014 1379.26 276.143 z" fill="rgb(192,43,41)" transform="translate(0,0)"></path>
<path d="M 1294.21 276.003 C 1297.8 275.924 1302.52 275.305 1305.43 276.942 C 1306.68 290.081 1306.17 333.753 1305.47 347.804 C 1301.72 347.981 1297.48 348.279 1294.54 345.908 C 1293.58 339.488 1294.07 326.519 1294.1 319.645 L 1294.21 276.003 z" fill="rgb(192,43,41)" transform="translate(0,0)"></path>
<path d="M 1407.13 275.669 C 1410.81 275.565 1414.82 275.149 1417.69 277.255 C 1418.55 286.004 1418.68 339.215 1417.59 347.323 C 1413.98 347.828 1412.9 348.214 1409.32 347.272 C 1408.69 346.573 1408.06 345.875 1407.44 345.176 C 1406.25 330.239 1407 287.733 1407.13 275.669 z" fill="rgb(192,43,41)" transform="translate(0,0)"></path>
<path d="M 1692.59 275.071 C 1694.19 275.343 1695.87 275.768 1697.47 276.131 C 1701.35 281.055 1698.63 334.481 1699 344.465 C 1699.09 346.822 1696.17 347.979 1694.45 349.011 C 1692.61 348.839 1690.99 348.602 1689.16 348.343 C 1686.6 344.824 1688.34 287.532 1688.83 279.099 C 1688.99 276.451 1690.69 276.139 1692.59 275.071 z" fill="rgb(192,43,41)" transform="translate(0,0)"></path>
<path d="M 1015.9 0 L 1028 0 L 1028.17 2048 L 1015.75 2048 C 1014.88 1919.51 1014.87 1791.01 1015.72 1662.52 L 1015.75 1023.54 L 1015.2 386.164 L 1015.39 125.761 C 1015.15 83.8403 1015.32 41.9179 1015.9 0 z" fill="rgb(192,43,41)" transform="translate(0,0)"></path>
<path d="M 791.459 960.472 C 797.685 964.851 852.257 1072.42 852.607 1079.5 C 848.173 1083.64 833.628 1082.47 826.997 1082.42 C 835.301 1095.42 888.958 1183.08 884.571 1191.71 C 878.12 1195.07 859.983 1194.13 851.591 1194.43 C 855.675 1202.72 867.6 1222.07 870.504 1228.37 C 877.26 1243 913.77 1311.98 914.519 1321.91 L 913.062 1323.47 C 904.26 1326.89 880.176 1326.03 870.255 1325.25 C 877.053 1342.45 884.023 1359.49 891.274 1376.51 C 893.295 1381.25 895.231 1385 890.67 1388.11 C 881.571 1388.19 825.36 1366.75 811.823 1362.09 C 812.26 1392.04 810.153 1422.35 810.982 1452.4 C 811.485 1470.61 810.382 1488.55 812.165 1506.82 C 848.898 1508.68 894.097 1525.34 929.984 1535.09 C 934.404 1536.29 933.237 1543.15 930.588 1546.38 C 921.984 1547.26 878.241 1531.78 862.702 1529.23 L 861.155 1528.98 C 863.241 1533.54 865.176 1538.19 865.155 1543.28 C 865.061 1550.08 862.145 1556.53 857.106 1561.09 C 851.999 1565.79 845.191 1568.21 838.262 1567.77 C 818.427 1566.4 807.292 1539.43 819.573 1529.17 C 824.058 1528.02 821.87 1528.01 826.391 1529.27 C 833.03 1535.81 825.173 1536.7 826.201 1546.07 C 833.436 1560 852.105 1558.51 852.873 1543.17 C 853.975 1521.13 824.306 1518.58 809.783 1522.85 C 735.037 1544.8 666.302 1585.17 595.55 1617.36 C 656.169 1648.93 710.229 1661.24 777.662 1669.9 C 791.996 1608.89 856.805 1607.73 872.666 1669.19 C 889.094 1668.03 904.657 1665.54 920.918 1663.46 C 925.1 1662.92 929.551 1663.69 932.795 1666.66 C 933.596 1669.68 933.742 1668.28 932.526 1671.01 C 923.89 1676.75 880.407 1680.44 867.907 1681.57 C 759.882 1691.34 642.024 1666.52 550.761 1606.59 C 425.067 1524.05 281.841 1491.85 147.735 1578.82 C 128.17 1591.57 110.538 1605.32 93.0116 1620.91 C 90.3816 1623.25 87.9595 1623.83 85.2945 1621.39 C 81.7307 1601.57 152.765 1560.55 169.278 1550.75 C 169.026 1545.68 169.453 1540.6 169.446 1535.52 C 169.393 1495.74 170.391 1455.56 168.989 1415.83 C 150.234 1424.17 130.646 1431.43 111.614 1439.18 C 106.026 1441.45 96.5199 1446.02 91.6693 1441.41 C 90.188 1433.14 115.652 1387.96 120.38 1372.87 L 120.789 1371.53 C 111.95 1373.7 84.9394 1382.35 77.8023 1381.42 L 76.5676 1379.4 C 77.9002 1371.12 84.1701 1358.66 87.8122 1350.64 C 94.5366 1335.44 101.386 1320.29 108.36 1305.2 C 113.455 1294.43 123.423 1275.22 126.509 1264.38 L 126.875 1263.06 C 120.853 1265.27 113.107 1270.56 107.13 1269.66 C 102.284 1265.16 104.307 1260.2 106.803 1254.81 C 122.443 1221.08 139.667 1189.56 153.407 1154.79 C 148.68 1155.82 135.218 1159.31 131.175 1158.17 C 127.097 1146.71 169.237 1077.38 174.956 1061.89 C 176.018 1059.01 180.631 1052.35 182.903 1050.06 C 185.769 1049.15 185.562 1049.09 188.439 1049.88 C 194.71 1056.59 238.15 1141.3 241.486 1151.61 L 240.313 1153.05 C 234.264 1154.98 228.138 1154.12 221.611 1153.93 C 225.373 1165.62 235.945 1185.33 241.642 1196.63 C 250.019 1213.03 257.934 1229.66 265.377 1246.5 C 258.183 1247.08 249.201 1247.18 241.844 1247.49 C 244.28 1258.04 255.887 1277.32 260.895 1288.32 C 274.249 1317.64 291.889 1349.15 303.111 1379.15 L 301.83 1380.88 C 297.16 1380.92 257.819 1373.48 251.397 1372.38 C 257.158 1387.27 266.197 1402.01 272.662 1416.69 C 274.941 1421.87 278.992 1428.07 276.335 1433.59 C 274.29 1434.6 272.374 1434.95 270.121 1434.5 C 247.829 1430.09 225.968 1424.78 203.275 1422.57 C 203.564 1460.35 202.474 1496.84 203.809 1534.91 C 255.126 1519.54 278.607 1513.99 332.755 1514.06 L 335.063 1367.82 C 326.891 1368.26 320.88 1369.59 313.073 1371.67 C 308.49 1359.83 303.082 1350.26 297.048 1339.1 C 299.717 1335.12 301.317 1333.52 304.636 1329.97 C 308.179 1327.28 311.603 1325.61 311.827 1321.02 L 309.901 1319.46 C 303.061 1317.88 295.527 1319.06 288.621 1320.08 C 284.257 1313.22 279.438 1302.7 275.043 1294.94 C 283.578 1283.02 291.72 1271.93 298.482 1258.84 C 291.901 1259.45 267.175 1264.19 264.316 1262.55 C 260.39 1251.29 275.591 1224.62 280.72 1213.86 C 287.211 1200.12 293.475 1186.28 299.509 1172.33 C 293.56 1174.53 278.534 1181.8 273.538 1177.6 C 272.604 1170.94 310.823 1095.57 316.426 1083.55 C 311.364 1085.32 296.965 1092.82 293.059 1090.04 C 291.432 1080.94 338.951 985.088 347.192 978.103 C 359.741 976.829 365.566 1003.83 372.177 1012.99 C 373.1 1014.26 380.175 1028.88 380.639 1030.3 C 384.026 1040.63 402.828 1072.94 403.744 1081.42 C 399.36 1084.49 386.204 1082.25 379.997 1081.71 C 388.694 1100.05 396.804 1114.17 407.245 1131.6 C 405.051 1140.82 403.735 1148.64 403.014 1158.14 C 402.571 1163.99 405.435 1170.87 403.791 1174.77 C 400.587 1176.19 396.415 1175.24 392.75 1174.81 C 402.28 1194.36 459.156 1309.57 458.654 1322.51 C 458.564 1324.81 458.234 1324.95 456.583 1326.36 C 446.633 1328.19 429.43 1323.99 418.944 1322.06 C 423.474 1334.41 441.377 1370.62 441.38 1380.17 L 439.652 1381.88 C 427.659 1385.05 379.127 1367.64 363.657 1363.17 C 363.028 1381.31 364.589 1400.17 364.641 1418.26 C 364.736 1451.55 365.813 1483.88 367.44 1517.12 C 411.177 1524.63 453.494 1538.85 492.896 1559.27 C 510.897 1568.55 527.828 1579.39 546.501 1587.27 C 548.708 1540.06 547.178 1481.35 547.401 1433.2 C 547.614 1387.04 549.909 1325.08 547.338 1280.31 C 545.913 1280.21 544.489 1280.09 543.066 1279.96 C 524.553 1278.37 511.915 1276.47 495.138 1268.87 C 412.761 1231.53 381.824 1133.56 457.167 1071.03 C 505.277 1031.09 531.645 1065.77 562.552 1103.68 C 561.843 1130.84 562.376 1159.66 562.827 1186.82 C 549.584 1167.74 515.715 1130.12 489.153 1142.64 C 474.882 1149.36 464.92 1173.62 469.832 1188.63 C 470.269 1189.96 472.394 1190.07 473.413 1190.51 C 482.861 1191.02 479.381 1174.03 481.519 1168.26 C 502.424 1119.47 549.221 1185.54 562.839 1203.72 C 562.621 1213.48 560.966 1230.42 567.403 1237.62 L 569.082 1237.63 C 575.182 1231.19 573.435 1213.15 573.164 1204.39 C 591.327 1187.95 606.831 1155.18 631.926 1148.46 C 650.74 1143.42 649.953 1171.87 650.183 1182.74 C 650.242 1185.56 651.926 1186.87 653.979 1188.4 C 655.331 1188.34 656.478 1188.69 656.998 1187.47 C 664.768 1168.77 657.897 1135.25 631.606 1138.49 C 608.333 1141.35 587.165 1171.86 573.182 1188.61 L 573.006 1106.27 C 585.758 1090.34 611.314 1058.34 631.181 1052.95 C 641.14 1050.25 663.374 1059.92 672.539 1065.83 C 694.714 1080.32 710.296 1102.95 715.917 1128.84 C 728.725 1189.77 682.766 1251.75 626.288 1270.65 C 612.362 1275.3 598.242 1278.1 583.912 1281.16 C 585.826 1336.02 584.351 1390.99 585.372 1445.84 C 586.363 1499.07 584.254 1553.19 587.1 1606.25 C 621.728 1592.35 660.463 1572.09 694.435 1555.93 C 721.996 1542.82 750.824 1530.59 777.918 1517.32 C 780.121 1469.61 778.796 1411.7 778.777 1363.21 C 765.693 1366.71 714.511 1385.17 708.504 1385.02 C 698.632 1379.67 720.793 1332.4 724.802 1321.91 C 718.203 1323.39 686.661 1332.03 682.54 1330.79 C 681.523 1329.64 680.051 1328.21 679.704 1326.66 C 677.838 1318.31 728.293 1207.98 735.238 1190.6 L 720.411 1192.44 C 727.035 1172.7 731.111 1154.62 727.855 1133.56 C 738.933 1119.6 750.538 1094.79 759.144 1078.08 C 752.04 1078.14 739.986 1079.24 734.597 1075.29 C 733.601 1069.24 785.067 974.482 791.459 960.472 z" fill="rgb(192,43,41)" transform="translate(0,0)"></path>
<path d="M 794.648 1096.83 C 797.841 1097.06 798.071 1096.94 801.027 1098.01 C 803.283 1101.43 802.084 1131.55 801.981 1138 C 806.477 1134.19 817.279 1121.91 823.392 1122.91 L 823.532 1125.1 C 819.519 1134.45 809.453 1143.99 802.302 1151.6 C 802.626 1181.44 802.281 1211.9 802.288 1241.81 C 809.286 1235.36 827.055 1213.38 832.821 1212.44 C 839.893 1218.04 809.465 1247.38 804.146 1254.51 L 803.016 1256.03 C 802.894 1274.73 802.927 1293.43 803.114 1312.12 C 812.083 1305.74 845.514 1272.37 854.372 1274.85 L 855.106 1277.12 C 854.287 1280.17 803.124 1328.59 797.094 1332.31 C 783.653 1320.54 765.44 1299.25 753.376 1285.51 L 766.696 1287.33 C 775.034 1295.39 785.92 1307.66 793.074 1316.64 C 793.273 1299.65 793.111 1282.37 793.116 1265.35 C 786.195 1260.23 753.899 1223.48 753.849 1216.32 C 756.146 1213.51 754.743 1214.4 758.131 1213.46 C 766.701 1219.68 785.263 1244.29 792.914 1253.88 L 793.024 1152.27 C 786.637 1145.29 764.987 1125.67 764.874 1118.39 L 767.708 1116.47 C 772.715 1117.28 787.076 1132.38 793.118 1137.33 C 793.11 1129.95 791.868 1101.31 794.648 1096.83 z" fill="rgb(246,245,231)" transform="translate(0,0)"></path>
<path d="M 163.686 1264.68 C 170.854 1266.87 173.308 1272.85 179.46 1278.52 C 183.352 1278.59 179.899 1272.8 184.88 1269.55 L 187.799 1270.68 C 190.199 1276.22 189.141 1320.51 189.094 1329.44 C 196.388 1321.88 216.397 1298.34 225.675 1299.21 L 226.756 1301.09 C 225.358 1309.9 196.925 1337.01 188.919 1345.35 L 189.041 1378.93 C 199.91 1369.37 209.632 1358.14 220.132 1348.17 C 222.96 1345.48 223.374 1345.47 226.238 1345.66 C 229.048 1347.75 229.162 1348.52 230.613 1351.64 C 226.273 1358.43 188.26 1397.58 181.487 1396.66 C 177.423 1391.7 178.462 1380.66 178.474 1373.81 C 168.982 1362.39 156.889 1352.21 147.198 1340.87 C 144.117 1337.26 140.421 1333.35 142.921 1328.79 L 145.625 1328.15 C 152.828 1330.55 171.471 1351.69 177.925 1358.63 C 178.176 1335.49 177.944 1312.34 177.229 1289.21 C 171.03 1281.03 159.367 1275 163.686 1264.68 z" fill="rgb(246,245,231)" transform="translate(0,0)"></path>
<path d="M 348.581 1199.38 C 351.264 1199.64 351.077 1199.6 353.348 1201.06 C 356.593 1207.07 355.165 1226.29 355.073 1234.66 C 360.762 1229.33 369.349 1217.39 376.755 1216.45 L 377.803 1217.89 C 375.996 1227.36 363.222 1241.48 356.721 1249.64 C 357.294 1270.1 357.127 1291.11 357.529 1311.68 C 365.796 1303.81 383.994 1281.09 391.883 1277.02 C 394.701 1277.86 393.428 1277.19 395.439 1279.58 C 395.008 1289.02 361.09 1323.55 352.796 1331.5 C 345.384 1328.5 320.018 1301.01 313.701 1293.31 C 312.469 1291.81 313.142 1291.48 313.812 1289.19 C 321.344 1283.09 341.3 1306.97 347.027 1312.65 C 346.45 1292.07 346.243 1271.48 346.407 1250.89 C 341.16 1245.95 314.713 1220.02 319.114 1213.39 C 327.368 1214.58 341.09 1231.99 346.984 1238.71 C 346.991 1229.79 345.414 1206.17 348.581 1199.38 z" fill="rgb(246,245,231)" transform="translate(0,0)"></path>
<path d="M 818.674 1637.13 C 844.71 1635.01 852.283 1648.33 862.122 1669.47 C 854.418 1670.26 844.73 1670.5 836.864 1670.92 C 822.09 1671.22 806.367 1671.65 791.724 1669.88 C 794.569 1651.16 800.403 1642.69 818.674 1637.13 z" fill="rgb(246,245,231)" transform="translate(0,0)"></path>
<path d="M 181.311 1177.49 C 184.6 1178.15 184.664 1177.89 187.184 1179.98 C 190.909 1187.74 189.349 1207.54 189.177 1217.39 C 194.129 1210.12 200.046 1199.98 207.365 1195.7 C 211.083 1195.34 209.406 1194.94 212.565 1196.97 C 212.414 1203.9 195.353 1223.28 190.225 1229.62 C 190.06 1234.81 190.923 1237.53 186.271 1240.32 C 181.364 1238.98 164.63 1213.03 163.985 1208.1 C 165.562 1204.38 164.316 1205.65 167.438 1203.8 C 170.278 1204.87 177.544 1215.03 180.951 1218.8 C 179.782 1202.05 180.125 1194.03 181.311 1177.49 z" fill="rgb(246,245,231)" transform="translate(0,0)"></path>
<path d="M 347.295 1105.43 C 351.268 1106.03 350.756 1105.34 353.316 1107.57 C 356.364 1114.75 354.729 1135.91 354.792 1145.01 C 362.138 1136.96 363.339 1132.48 373.612 1126.96 L 375.008 1127.66 C 373.842 1138.06 360.922 1148.86 356.495 1158.01 C 354.995 1161.11 354.835 1161.45 352.826 1164.42 C 348.694 1163.14 323.811 1132.12 327.712 1126.41 L 330.243 1126.04 C 333.614 1127.16 342.393 1139.3 346.201 1143.52 C 346.36 1131.3 346.214 1117.48 347.295 1105.43 z" fill="rgb(246,245,231)" transform="translate(0,0)"></path>
<path d="M 351.226 1031.77 C 357.154 1037.75 367.227 1060.79 370.616 1069.06 C 365.868 1065.85 360.838 1062.09 356.142 1058.73 C 355.31 1067.4 357.839 1073.4 349.466 1077.93 C 346.202 1072.79 346.611 1065.61 346.268 1059.37 C 343.066 1063.23 341.083 1066.42 336.576 1068.2 L 335.128 1067.36 C 335.409 1059.22 346.899 1039.48 351.226 1031.77 z" fill="rgb(246,245,231)" transform="translate(0,0)"></path>
<path d="M 185.459 1103.91 C 189.133 1108.04 203.153 1133.65 201.52 1138.77 L 199.444 1139.04 C 194.777 1136.98 192.302 1133.5 188.818 1129.66 C 188.846 1135.34 189.241 1140.46 187.311 1145.82 C 179.248 1144.51 180.258 1137.07 179.66 1130.21 C 177.721 1133.82 175.772 1138.22 172.826 1140.91 L 170.285 1140.57 L 169.116 1138.42 C 169.672 1129.78 180.677 1112.63 185.459 1103.91 z" fill="rgb(246,245,231)" transform="translate(0,0)"></path>
<path d="M 793.393 1034.42 C 806.435 1036.37 797.671 1045.42 802.669 1051.76 C 806.217 1050.98 805.038 1048.43 809.717 1044.45 C 812.821 1045.5 811.72 1044.56 813.365 1047.05 C 813.081 1052.84 801.253 1067.12 797.107 1073.25 C 791.818 1067.21 777.58 1054.97 776.983 1048.11 C 778.912 1045.48 777.64 1046.4 781.181 1045.64 C 785.569 1046.96 788.929 1051.51 792.616 1054.69 C 792.652 1047.39 792.692 1041.68 793.393 1034.42 z" fill="rgb(246,245,231)" transform="translate(0,0)"></path>
<path d="M 571.101 891.407 C 637.214 887.574 702.879 938.804 715.404 1003.64 C 720.49 1029.97 715.082 1059.96 705.395 1084.58 C 700.494 1078.53 695.407 1071.48 689.602 1066.42 C 635.631 1019.42 608.755 1049.11 572.899 1088.9 C 572.507 1073.98 573.827 1027.51 571.947 1016.26 C 577.929 1007.26 606.127 978.08 601.391 969.576 L 598.839 968.907 C 592.646 970.659 576.726 993.822 572.034 1000.27 C 572.371 987.662 572.228 974.412 572.27 961.75 C 571.852 957.497 571.351 957.654 568.113 955.466 C 560.476 955.049 561.938 969.175 562.033 974.711 C 562.212 985.215 562.523 995.733 562.736 1006.24 C 553.706 999.05 547.331 989.263 538.174 982.725 C 536.209 981.321 534.477 982.565 532.557 983.401 L 532.053 985.094 C 533.913 992.799 556.002 1015.63 562.762 1023.31 L 562.951 1086.52 C 545.956 1068.06 520.967 1040.09 493.389 1042.43 C 467.325 1044.65 444 1066.94 428.219 1085.74 C 427.001 1078.06 426.051 1070.34 425.37 1062.59 C 419.697 995.566 450.176 935.468 511.283 905.606 C 531.696 895.63 548.724 893.081 571.101 891.407 z" fill="rgb(192,43,41)" transform="translate(0,0)"></path>
<path d="M 263.986 617.261 C 302.684 612.993 328.94 632.859 346.448 665.808 C 392.328 653.065 428.733 677.886 428.641 727.321 C 428.628 734.276 426.212 742.326 424.32 749.026 C 386.803 748.204 349.275 747.926 311.75 748.192 C 258.218 748.145 203.069 749.065 149.77 748.536 C 130.169 710.74 159.701 653.208 204.977 663.243 C 219.473 636.474 233.832 623.486 263.986 617.261 z" fill="rgb(192,43,41)" transform="translate(0,0)"></path>
<path d="M 569.591 792.426 C 609.923 790.04 647.335 808.591 670.12 841.539 C 689.276 869.239 692.349 893.536 681.128 924.775 C 651.49 894.069 615.65 882.536 574.087 881.553 C 527.29 882.735 493.969 898.495 460.06 930.256 C 459.466 925.847 458.971 921.426 458.576 916.996 C 453.064 850.146 503.995 797.171 569.591 792.426 z" fill="rgb(192,43,41)" transform="translate(0,0)"></path>
<path d="M 648.426 506.528 C 686.998 501.284 722.469 528.439 727.471 567.044 C 732.474 605.648 705.097 640.948 666.462 645.708 C 628.167 650.427 593.247 623.344 588.288 585.08 C 583.33 546.816 610.194 511.726 648.426 506.528 z" fill="rgb(192,43,41)" transform="translate(0,0)"></path>
<path d="M 652.64 520.292 C 683.559 517.317 710.983 540.097 713.729 571.037 C 716.476 601.977 693.493 629.231 662.533 631.748 C 631.897 634.239 604.988 611.547 602.271 580.93 C 599.553 550.313 622.044 523.237 652.64 520.292 z" fill="rgb(246,245,231)" transform="translate(0,0)"></path>
<path d="M 652.572 532.518 C 676.495 529.785 698.106 546.955 700.85 570.876 C 703.595 594.796 686.435 616.416 662.516 619.172 C 638.58 621.93 616.943 604.756 614.197 580.819 C 611.45 556.882 628.634 535.253 652.572 532.518 z" fill="rgb(192,43,41)" transform="translate(0,0)"></path>
<path d="M 83.6747 1884.4 C 110.639 1883.72 140.565 1884.37 167.856 1884.33 L 350.854 1884.33 L 783.599 1884.52 L 885.505 1884.67 C 897.817 1884.64 909.9 1884.42 922.196 1884 C 928.756 1883.77 937.522 1883.17 941.092 1889.33 C 940.849 1893.12 940.222 1893.5 937.879 1896.43 C 928.383 1897.1 913.225 1896.69 903.387 1896.74 L 834.077 1896.82 L 642.554 1896.99 L 97.9511 1897.42 C 91.3432 1897.39 82.2649 1897.94 80.2392 1890.66 C 81.2452 1887.12 81.4544 1887.16 83.6747 1884.4 z" fill="rgb(192,43,41)" transform="translate(0,0)"></path>
<path d="M 775.735 704.175 C 803.471 700.498 817.037 716.611 828.401 738.574 C 832.156 736.952 835.786 735.293 839.866 734.727 C 848.185 733.492 856.632 735.89 863.06 741.313 C 871.166 748.131 875.33 758.806 875.91 769.206 C 876.214 774.645 875.657 781.892 871.196 785.746 C 863.849 792.094 814.379 789.218 802.355 789.201 L 746.976 789.022 C 728.308 788.999 693.705 794.513 698.337 765.25 C 699.611 757.374 703.962 750.327 710.434 745.66 C 719.027 739.495 727.774 739.493 737.675 741.143 C 739.005 737.5 740.592 733.956 742.423 730.537 C 750.699 714.836 759.596 709.201 775.735 704.175 z" fill="rgb(192,43,41)" transform="translate(0,0)"></path>
<path d="M 280.622 1567.42 C 382.619 1561.92 441.145 1605.79 524.759 1651.98 C 611.772 1700.04 719.173 1722.14 817.703 1709.66 C 823.98 1708.87 829.069 1709.78 830.677 1716.54 C 830.003 1718.16 829.049 1720.37 826.947 1720.71 C 746.983 1733.95 665.907 1722.11 590.191 1695.07 C 559.965 1683.81 530.658 1670.22 502.536 1654.42 C 457.887 1629.55 417.367 1601.8 368.02 1589.53 C 283.376 1568.48 188.5 1581.39 119.742 1637.07 C 111.258 1643.95 99.8107 1655.64 91.0338 1660.77 C 85.3539 1658.2 83.0173 1653.64 87.8998 1648.61 C 140.025 1594.87 207.458 1571.61 280.622 1567.42 z" fill="rgb(192,43,41)" transform="translate(0,0)"></path>
<path d="M 248.686 1619.4 C 265.573 1617.22 288.719 1619.8 305.662 1620.81 C 403.156 1626.59 459.68 1686.77 538.97 1725.97 C 550.849 1731.84 563.265 1736.55 576.045 1740.04 C 583.597 1742.15 604.359 1746.24 609.725 1749.47 C 611.498 1752.28 611.466 1752.04 611.45 1755.35 C 606.747 1762.85 591.916 1757.56 584.741 1755.65 C 535.874 1742.61 491.867 1714.17 449.492 1687.35 C 388.537 1645.93 315.143 1626.85 241.734 1633.33 C 188.339 1638.29 128.387 1666.41 93.9904 1707.74 C 90.2151 1705.56 87.6384 1704.56 85.2821 1700.99 C 84.6668 1692.1 106.074 1678.64 113.407 1672.75 C 155.702 1638.78 195.267 1625.14 248.686 1619.4 z" fill="rgb(192,43,41)" transform="translate(0,0)"></path>
<path d="M 249.725 1680.45 C 313.254 1676.44 375.705 1704.59 432.493 1729.7 C 439.505 1732.8 454.859 1738.78 456.098 1746.97 C 452.77 1755.98 441.531 1748.52 435.296 1745.66 C 392.012 1725.86 342.298 1701.07 294.356 1695.34 L 293.049 1695.19 C 223.264 1682.92 151.99 1708.58 100.865 1753.04 C 97.7745 1755.73 92.006 1757.25 89.3881 1752.81 C 89.0138 1742.26 101.918 1736.07 109.157 1730.44 C 150.968 1697.96 197.216 1682.62 249.725 1680.45 z" fill="rgb(192,43,41)" transform="translate(0,0)"></path>
<path d="M 901.299 1571.73 C 918.083 1568.66 934.174 1579.79 937.238 1596.57 C 940.301 1613.35 929.176 1629.44 912.392 1632.5 C 895.61 1635.56 879.525 1624.44 876.462 1607.66 C 873.399 1590.88 884.519 1574.79 901.299 1571.73 z" fill="rgb(192,43,41)" transform="translate(0,0)"></path>
<path d="M 903.352 1583.71 C 910.095 1582.48 916.976 1584.99 921.348 1590.27 C 925.72 1595.55 926.901 1602.77 924.437 1609.17 C 921.973 1615.57 916.248 1620.13 909.465 1621.11 C 899.24 1622.59 889.714 1615.61 888.048 1605.41 C 886.381 1595.22 893.188 1585.56 903.352 1583.71 z" fill="rgb(246,245,231)" transform="translate(0,0)"></path>
<path d="M 518.064 274.159 C 530.155 273.485 538.204 281.038 541.763 292.101 C 548.366 312.629 547.1 339.973 523.992 348.464 C 494.539 352.049 489.907 302.724 501.836 284.594 C 506.585 277.377 509.948 275.808 518.064 274.159 z" fill="rgb(192,43,41)" transform="translate(0,0)"></path>
<path d="M 516.814 284.856 C 536.212 284.783 533.872 312.06 531.61 325.554 C 530.568 331.768 528.092 334.838 522.836 337.989 C 501.933 335.01 503.443 296.236 516.814 284.856 z" fill="rgb(246,245,231)" transform="translate(0,0)"></path>
<path d="M 695.778 154.338 C 707.6 154.647 717.416 161.109 720.564 172.554 C 726.093 192.657 722.684 219.728 700.466 227.02 C 684.668 226.396 676.16 217.556 673.68 202.15 C 670.806 184.291 673.759 157.037 695.778 154.338 z" fill="rgb(192,43,41)" transform="translate(0,0)"></path>
<path d="M 693.581 164.891 C 719.014 164.542 713.579 203.679 701.287 215.792 C 681.125 219.098 679.243 175.767 693.581 164.891 z" fill="rgb(246,245,231)" transform="translate(0,0)"></path>
<path d="M 394.058 154.161 C 408.405 153.131 417.016 159.667 420.688 173.593 C 425.676 192.509 424.987 220.726 402.436 226.86 C 368.657 227.073 362.543 168.146 394.058 154.161 z" fill="rgb(192,43,41)" transform="translate(0,0)"></path>
<path d="M 397 163.742 C 413.795 164.515 412.784 190.333 410.139 202.274 C 408.448 209.909 406.011 213.227 399.536 217.23 C 380.055 210.82 380.792 174.579 397 163.742 z" fill="rgb(246,245,231)" transform="translate(0,0)"></path>
<path d="M 555.168 154.296 C 565.633 153.648 577.29 152.453 586.315 158.704 C 605.985 172.328 601.406 200.416 589.461 217.276 C 582.396 224.145 564.197 230.843 556.203 224.161 C 552.952 218.254 553.99 162.726 555.168 154.296 z" fill="rgb(192,43,41)" transform="translate(0,0)"></path>
<path d="M 565.538 163.765 C 569.168 164.155 575.393 164.891 578.413 166.828 C 592.87 176.101 589.594 197.789 581.745 210.133 C 577.523 213.325 572.285 216.321 566.835 215.568 C 563.984 212.067 565.436 170.959 565.538 163.765 z" fill="rgb(246,245,231)" transform="translate(0,0)"></path>
<path d="M 711.46 1581.4 C 727.781 1578.97 742.995 1590.19 745.487 1606.51 C 747.978 1622.82 736.81 1638.07 720.507 1640.63 C 704.118 1643.19 688.763 1631.95 686.258 1615.55 C 683.753 1599.15 695.051 1583.84 711.46 1581.4 z" fill="rgb(192,43,41)" transform="translate(0,0)"></path>
<path d="M 709.549 1595.2 C 715.52 1592.78 722.334 1593.82 727.316 1597.9 C 732.299 1601.98 734.656 1608.46 733.462 1614.79 C 732.268 1621.12 727.714 1626.29 721.587 1628.28 C 712.566 1631.2 702.848 1626.46 699.605 1617.55 C 696.362 1608.64 700.758 1598.76 709.549 1595.2 z" fill="rgb(246,245,231)" transform="translate(0,0)"></path>
<path d="M 733.026 155.169 C 749.752 154.516 774.215 151.355 774.584 176.642 C 774.696 184.322 770.759 189.719 765.494 194.954 C 769.487 203.404 776.72 218.52 769.135 226.244 C 762.928 226.176 762.599 221.545 761.488 216.376 C 759.585 209.858 755.704 197.067 747.029 197.541 C 740.76 204.912 749.556 221.382 739.398 226.447 C 735.277 225.968 736.666 226.915 734.206 224.647 C 732.263 219.064 732.644 164.173 733.026 155.169 z" fill="rgb(192,43,41)" transform="translate(0,0)"></path>
<path d="M 744.612 164.182 C 761.27 164.11 766.698 168.977 760.04 185.578 C 756.256 188.694 751.935 190.859 747.192 188.892 C 743.134 183.72 744.486 171.335 744.612 164.182 z" fill="rgb(246,245,231)" transform="translate(0,0)"></path>
<path d="M 384.706 274.214 C 401.9 273.673 426.694 278.406 420.793 303.821 C 419.571 309.084 414.25 314.294 410.146 317.753 C 413.673 324.709 422.777 339.348 421.77 346.227 C 416.457 350.557 413.646 346.662 410.611 342.667 C 408.077 337.813 400.308 320.293 395.654 319.464 C 391.764 323.846 392.542 339.146 392.489 345.688 L 390.544 346.792 C 386.062 346.628 385.187 347.422 382.432 345.217 C 380.338 330.993 382.663 295.437 382.429 279.698 C 382.401 277.808 383.663 275.764 384.706 274.214 z" fill="rgb(192,43,41)" transform="translate(0,0)"></path>
<path d="M 393.188 284.914 C 409.894 285.226 413.585 293.309 406.971 308.446 C 388.168 319.079 392.883 296.296 393.188 284.914 z" fill="rgb(246,245,231)" transform="translate(0,0)"></path>
<path d="M 555.138 275.049 C 559.125 274.877 564.125 274.414 568.022 274.743 C 594.485 276.978 602.438 301.665 580.447 317.05 C 585.158 326.071 593.495 336.157 596.95 345.332 C 597.376 346.463 596.495 346.888 595.478 348.005 C 589.761 348.408 588.408 347.949 584.605 344.013 C 581.402 338.882 572.376 320.165 567.421 318.753 C 564.849 325.798 566.209 338.836 564.124 346.187 C 563.852 347.142 562.106 347.473 560.818 347.973 C 556.958 347.449 555.152 346.728 554.946 342.068 C 554.659 335.534 555.09 328.817 555.117 322.233 L 555.138 275.049 z" fill="rgb(192,43,41)" transform="translate(0,0)"></path>
<path d="M 565.983 284.712 C 581.997 284.632 584.213 295.738 577.555 308.194 C 574.848 310.039 571.469 311.99 568.153 311.19 C 563.774 306.065 565.821 292.569 565.983 284.712 z" fill="rgb(246,245,231)" transform="translate(0,0)"></path>
<path d="M 247.98 203.644 C 247.981 197.028 247.178 157.126 249.181 154.432 C 252.275 153.697 253.417 154.107 256.512 154.616 C 259.584 158.056 258.388 216.694 258.373 225.873 C 250.023 226.95 249.007 227.431 244.997 219.487 C 238.431 206.479 232.296 193.148 226.091 179.971 C 225.911 192.566 226.713 210.55 225.621 223.333 C 225.516 224.567 224.063 224.966 222.661 225.768 C 219.762 225.937 218.4 226.323 215.884 224.901 C 214.258 219.558 214.134 158.012 216.055 153.932 C 217.403 153.964 220.677 153.987 221.657 154.729 C 230.626 161.513 243.296 193.503 247.98 203.644 z" fill="rgb(192,43,41)" transform="translate(0,0)"></path>
<path d="M 319.798 154.069 C 323.408 153.898 326.346 153.206 329.157 155.16 C 333.062 161.237 330.952 174.35 330.925 183.133 L 351.789 182.995 C 351.747 177.853 351.175 160.03 352.359 156.154 C 355.439 153.681 353.694 154.503 357.955 154.02 C 359.859 154.822 362.178 155.403 362.419 157.736 C 363.294 166.201 363.872 220.586 362.04 224.792 L 357.759 226.442 L 353.671 224.98 C 350.616 220.144 351.889 200.363 351.983 193.199 L 330.393 193.135 C 330.368 201.314 333.591 224.422 325.232 226.672 C 321.143 225.264 322.725 226.42 320.053 223.456 C 318.374 215.24 318.748 163.114 319.798 154.069 z" fill="rgb(192,43,41)" transform="translate(0,0)"></path>
<path d="M 156.549 154.044 C 160.501 153.414 160.837 153.288 164.72 153.887 C 174.908 162.75 163.234 200.22 170.605 211.639 C 172.248 214.228 174.951 215.958 177.989 216.366 C 180.681 216.742 183.408 215.979 185.514 214.261 C 191.906 208.952 190.039 165.775 190.073 154.904 C 194.003 154.486 195.153 154.248 199.006 154.724 C 201.575 157.164 200.796 156.11 201.026 160.75 C 201.286 185.88 208.806 246.947 163.564 221.012 C 153.348 215.156 156.998 166.307 156.549 154.044 z" fill="rgb(192,43,41)" transform="translate(0,0)"></path>
<path d="M 275.734 272.232 C 277.625 273.027 277.76 273.233 279.494 274.371 C 282.449 280.674 296.691 336.575 297.791 345.173 C 295.41 347.815 293.959 348.937 290.484 348.498 C 286.219 345.64 285.226 338.674 283.934 333.651 C 280.887 332.222 277.364 332.732 273.75 332.768 L 268.903 332.912 C 263.083 337.469 265.918 345.883 257.842 347.619 C 253.697 346.236 255.004 347.492 252.974 344.621 C 253.717 335.781 270.07 277.33 275.734 272.232 z" fill="rgb(192,43,41)" transform="translate(0,0)"></path>
<path d="M 275.442 301.777 C 278.192 305.119 280.774 319.434 280.003 323.817 L 276.511 325.168 C 272.311 324.36 271.937 325.107 270.122 322.553 C 269.719 315.644 273.082 308.654 275.442 301.777 z" fill="rgb(246,245,231)" transform="translate(0,0)"></path>
<path d="M 326.065 273.758 C 328.905 273.993 329.293 273.691 331.492 275.327 C 334.031 281.389 348.905 341.675 347.419 345.63 C 344.875 348.013 346.33 347.401 342.964 347.66 C 334.323 343.512 339.095 340.621 334.121 331.874 C 331.61 330.41 325.944 330.938 322.75 330.966 C 321.704 330.983 320.213 331.295 319.129 331.471 C 315.152 336.069 314 356.041 303.079 345.36 C 302.844 341.91 323.04 279.373 326.065 273.758 z" fill="rgb(192,43,41)" transform="translate(0,0)"></path>
<path d="M 326.214 301.621 C 328.319 306.193 332.441 317.778 330.717 322.488 L 327.384 323.721 L 322.272 322.856 L 321.15 321.186 C 321.107 314.712 324.222 307.928 326.214 301.621 z" fill="rgb(246,245,231)" transform="translate(0,0)"></path>
<path d="M 616.046 275.535 C 625.103 275.126 634.655 273.637 642.076 279.56 L 642.121 282.023 C 636.077 287.401 625.921 286.077 618.14 285.905 L 618.098 305.113 C 624.992 304.947 632.641 303.626 636.621 310.464 C 634.532 317.925 625.118 316.106 618.95 315.879 C 618.91 320.249 618.182 334.442 620.197 336.888 C 626.054 336.809 636.376 334.899 640.292 339.384 C 641.046 342.849 641.29 342.918 640.332 346.449 C 636.781 349.44 612.75 347.852 606.838 347.71 C 606.774 336.25 605.461 285.54 608.255 277.595 C 611.622 275.073 611.039 275.891 616.046 275.535 z" fill="rgb(192,43,41)" transform="translate(0,0)"></path>
<path d="M 210.178 890.569 L 211.541 891.125 C 226.247 907.771 224.574 943.673 197.832 949.502 C 166.757 939.026 196.904 903.51 210.178 890.569 z" fill="rgb(192,43,41)" transform="translate(0,0)"></path>
<path d="M 509.101 154.359 C 516.759 154.176 539.838 151.157 543.083 158.952 C 539.77 167.645 528.576 164.269 520.038 164.256 L 519.925 183.311 C 526.71 183.072 533.701 181.422 538.315 187.181 L 537.962 189.153 C 532.46 194.533 527.893 193.4 519.963 193.46 L 519.719 207.982 C 519.691 210.113 519.866 211.311 520.121 213.436 C 527.44 219.923 537.027 208.608 542.194 218.564 C 541.891 229.827 517.884 225.85 508.956 225.778 C 508.855 204.339 507.838 174.904 509.101 154.359 z" fill="rgb(192,43,41)" transform="translate(0,0)"></path>
<path d="M 287.064 888.93 C 300.902 904.277 302.291 946.457 273.222 948.046 C 243.881 936.298 275.135 901.583 287.064 888.93 z" fill="rgb(192,43,41)" transform="translate(0,0)"></path>
<path d="M 199.329 794.616 C 211.731 803.662 216.455 855.452 185.753 854.575 C 176.772 850.555 177.085 849.871 173.133 840.957 C 175.936 822.211 187.942 809.295 199.329 794.616 z" fill="rgb(192,43,41)" transform="translate(0,0)"></path>
<path d="M 274.852 795.718 C 282.954 802.112 287.973 834.754 280.278 843.865 C 273.716 851.635 271.732 855.307 261.03 854.678 C 232.639 843.13 262.79 808.611 274.852 795.718 z" fill="rgb(192,43,41)" transform="translate(0,0)"></path>
<path d="M 345.541 795.748 C 350.179 800.549 354.767 818.6 354.821 825.293 C 354.952 841.341 347.698 854.803 330.164 855.056 C 321.976 851.518 321.752 849.673 318.406 841.417 C 323.324 820.302 331.88 812.452 345.541 795.748 z" fill="rgb(192,43,41)" transform="translate(0,0)"></path>
<path d="M 475.568 154.175 C 482.553 153.613 491.499 153.185 494.715 160.556 C 494.399 164.987 495.224 163.265 493.087 166.359 C 487.744 168.208 476.48 160.425 472.629 166.561 C 462.056 183.407 496.524 185.967 496.797 203.922 C 497.06 221.252 491.414 224.373 476.318 226.674 C 468.505 226.158 459.707 225.407 457.867 216.221 C 458.942 212.795 457.944 214.149 461.145 212.159 C 464.67 212.315 480.692 224.147 484.041 212.538 C 490.857 188.907 445.287 193.466 461.134 163.837 C 464.416 157.701 469.304 155.938 475.568 154.175 z" fill="rgb(192,43,41)" transform="translate(0,0)"></path>
<path d="M 753.899 274.174 C 760.337 273.571 770.127 275.402 772.116 282.43 L 771.062 283.86 C 763.92 287.553 750.107 281.653 746.862 289.039 C 741.821 300.514 771.856 310.856 772.167 325.162 C 772.51 341.01 764.226 346.975 750.747 348.822 C 743.14 348.143 736.105 347.152 730.549 341.284 L 730.997 339.342 C 740.73 334.712 747.093 341.749 753.179 338.39 C 778.845 324.057 738.867 313.413 736.482 300.197 C 733.615 284.304 739.294 277.612 753.899 274.174 z" fill="rgb(192,43,41)" transform="translate(0,0)"></path>
<path d="M 664.292 275.143 C 670.503 274.835 679.475 273.817 683.242 279.513 C 682.826 282.889 682.998 282.728 681.093 285.5 C 674.971 287.878 666.019 281.089 659.755 289.781 C 658.53 303.323 681.796 309.244 684.704 324.08 C 687.785 339.792 679.146 345.33 665.339 348.693 C 657.889 349.204 646.65 348.631 648.878 337.956 C 655.919 332.511 667.792 345.687 673.761 332.503 C 674.547 318.712 654.257 313.344 649.735 299.719 C 645.317 286.41 651.727 279.677 664.292 275.143 z" fill="rgb(192,43,41)" transform="translate(0,0)"></path>
<path d="M 287.17 154.172 C 295.932 153.53 308.727 156.772 310.04 166.77 C 308.357 170.657 309.631 169.343 306.748 171.525 C 305.085 171.052 304.869 171.33 303.677 169.948 C 280.549 143.146 272.123 213.434 292.77 215.556 C 297.482 216.04 300.958 212.684 304.387 210.023 L 305.451 209.149 L 307.534 209.357 C 312.607 218.885 300.983 231.496 288.481 226.39 C 266.536 217.428 266.936 187.91 273.062 168.847 C 275.592 160.975 280.196 157.333 287.17 154.172 z" fill="rgb(192,43,41)" transform="translate(0,0)"></path>
<path d="M 865.04 154.228 C 872.284 153.872 880.2 152.799 884.703 159.47 C 884.899 163.077 884.878 162.817 883.122 166.005 C 877.128 168.015 870.244 159.631 861.512 168.745 C 859.112 180.872 883.137 187.434 886.474 200.974 C 889.518 213.324 886.75 220.811 873.787 225.11 C 867.587 226.086 852.928 227.434 851.093 218.229 C 850.71 216.307 850.609 217.139 851.704 215.305 C 859.1 212.329 868.128 219.416 875.706 212.266 C 881.158 194.789 855.545 192.601 852.027 180.222 C 848.881 169.152 854.003 157.849 865.04 154.228 z" fill="rgb(192,43,41)" transform="translate(0,0)"></path>
<path d="M 631.479 155.154 C 642.777 154.433 655.521 152.916 665.307 159.048 L 664.614 162.63 C 658.103 166.051 650.481 165.199 643.151 165.067 C 642.961 170.728 643.156 177.288 643.212 183.015 C 644.984 182.984 646.757 182.97 648.529 182.973 C 653.647 182.933 660.278 183.2 660.83 189.748 L 659.059 191.825 C 655.195 193.807 651.261 193.075 646.75 192.886 L 644.525 193.13 C 639.744 198.748 646.249 217.574 640.468 225.128 C 636.521 227.407 638.416 227.234 634.732 226.892 C 630.414 222.491 631.812 206.891 631.775 200.342 L 631.479 155.154 z" fill="rgb(192,43,41)" transform="translate(0,0)"></path>
<path d="M 456.796 276.386 C 462.888 276.171 484.514 274.415 488.456 277.492 C 490.186 281.321 490.155 279.504 489.209 283.081 C 483.674 287.312 473.448 285.946 466.228 285.765 L 466.168 305.077 C 468.12 305.072 470.072 305.086 472.023 305.121 C 478.511 305.18 480.228 305.943 485.338 310.245 L 484.796 313.748 C 480.409 316.882 476.957 315.429 471.377 314.665 L 467.616 315.311 C 461.723 322.283 472.339 346.551 460.863 348.7 C 458.476 347.138 456.517 344.803 456.227 341.914 C 455.275 332.423 453.31 281.863 456.796 276.386 z" fill="rgb(192,43,41)" transform="translate(0,0)"></path>
<path d="M 803.954 154.93 C 810.403 154.335 837.584 153.595 842.658 155.828 C 843.454 159.95 843.643 161.802 840.629 164.697 C 836.705 165.199 833.523 164.967 829.578 164.845 C 829.2 180.595 829.479 197.417 829.465 213.25 C 829.567 217.417 830.269 222.317 827.852 225.452 C 824.299 226.251 824.535 226.143 821 225.109 C 817.368 221.161 818.558 213.444 818.634 207.971 C 818.833 193.668 818.752 179.412 818.67 165.11 C 814.409 165.263 809.257 165.947 805.545 164.242 C 803.119 160.297 803.991 160.417 803.954 154.93 z" fill="rgb(192,43,41)" transform="translate(0,0)"></path>
<path d="M 691.153 276.02 C 699.758 275.913 719.501 275.074 726.748 276.558 L 727.798 278.206 C 727.855 281.167 728.231 282.29 726.735 284.773 C 723.619 286.83 719.004 286.126 715.055 286.036 L 715.018 335.5 C 715.214 340.364 715.999 343.756 713.087 347.294 C 709.792 348.143 709.989 347.998 706.663 347.07 C 702.609 341.928 704.074 295.732 704.057 286.031 C 700.271 286.154 695.219 286.855 692.096 285.137 C 690.157 281.313 690.958 281.006 691.153 276.02 z" fill="rgb(192,43,41)" transform="translate(0,0)"></path>
<path d="M 741.331 889.575 C 751.34 899.366 757.38 941.304 729.455 942.345 C 708.488 933.601 732.98 900.867 741.331 889.575 z" fill="rgb(192,43,41)" transform="translate(0,0)"></path>
<path d="M 844.36 815.668 C 848.552 820.223 852.564 835.141 853.173 841.31 C 854.501 854.748 848.792 865.267 834.352 866.159 C 808.848 858.866 835.912 827.839 844.36 815.668 z" fill="rgb(192,43,41)" transform="translate(0,0)"></path>
<path d="M 796.81 889.671 C 800.667 893.347 805.026 909.482 805.18 914.803 C 805.603 929.373 801.428 941.404 785.045 941.431 C 764.822 931.314 788.639 901.366 796.81 889.671 z" fill="rgb(192,43,41)" transform="translate(0,0)"></path>
<path d="M 790.78 814.795 C 801.417 826.984 806.095 863.452 783.446 867.431 C 758.379 859.023 781.89 828.245 790.78 814.795 z" fill="rgb(192,43,41)" transform="translate(0,0)"></path>
<path d="M 730.902 816.46 C 742.6 824.362 747.499 859.892 722.358 866.974 C 718.27 865.291 713.42 863.638 712.085 859.013 C 708.814 847.677 724.782 827.225 730.902 816.46 z" fill="rgb(192,43,41)" transform="translate(0,0)"></path>
<path d="M 437.786 153.88 C 440.232 154.031 442.176 154.368 444.573 154.753 C 446.758 156.739 447.194 157.03 447.138 162.248 C 446.918 182.808 448.044 204.515 446.661 224.981 C 446.051 225.65 445.442 226.32 444.833 226.99 C 441.242 226.541 441.001 226.68 437.62 225.09 C 435.936 221.889 435.732 215.597 435.725 211.91 C 435.691 193.457 434.416 174.684 435.775 156.285 C 436.445 155.483 437.116 154.681 437.786 153.88 z" fill="rgb(192,43,41)" transform="translate(0,0)"></path>
<path d="M 358.558 274.035 C 362.847 274.232 364.537 273.812 367.669 275.967 C 368.479 282.969 369.055 344.04 367.612 346.818 C 364.192 346.905 359.889 347.473 357.316 345.461 C 356.339 337.33 356.142 279.195 358.558 274.035 z" fill="rgb(192,43,41)" transform="translate(0,0)"></path>
<path d="M 785.33 1577.94 C 794.701 1578.93 806.232 1592.01 806.626 1600.74 C 803.384 1607.22 796.59 1604.91 790.804 1603.44 C 786.828 1606.2 776.093 1613.21 774.637 1604.17 C 777.845 1595.96 782.03 1597.66 784.252 1593.73 C 782.817 1586.54 781.912 1584.17 785.33 1577.94 z" fill="rgb(192,43,41)" transform="translate(0,0)"></path>
<path d="M 752.02 1556.65 C 771.057 1562.89 767.739 1585.9 757.156 1583.51 C 753.743 1579.31 756.121 1576.97 752.503 1571.3 C 751.205 1570.15 748.942 1568.65 747.465 1567.59 C 748.853 1563.95 750.19 1560.07 752.02 1556.65 z" fill="rgb(192,43,41)" transform="translate(0,0)"></path>
<path d="M 549.269 568.06 L 569.72 568 C 569.51 572.781 569.875 577.534 570.124 582.318 C 563.287 582.523 556.061 582.241 549.188 582.086 C 548.964 577.371 549.154 572.776 549.269 568.06 z" fill="rgb(192,43,41)" transform="translate(0,0)"></path>
<path d="M 649.056 467.119 L 663.624 467.646 L 663.923 487.114 L 649.623 486.932 C 649.019 480.872 649.124 473.325 649.056 467.119 z" fill="rgb(192,43,41)" transform="translate(0,0)"></path>
<path d="M 742.028 568.01 L 760.949 568.019 L 760.968 582.103 C 754.882 582.309 748.273 582.227 742.139 582.27 L 742.028 568.01 z" fill="rgb(192,43,41)" transform="translate(0,0)"></path>
<path d="M 649.794 661.031 L 663.155 661.14 L 662.916 680.964 L 649.009 681 C 649.595 674.982 649.618 667.197 649.794 661.031 z" fill="rgb(192,43,41)" transform="translate(0,0)"></path>
<path d="M 589.855 632.55 C 592.711 633.653 597.489 639.851 599.801 642.5 C 595.265 648.434 593.201 650.441 587.749 655.581 C 583.735 652.042 581.224 649.315 577.657 645.426 C 581.607 641.861 586.177 636.557 589.855 632.55 z" fill="rgb(192,43,41)" transform="translate(0,0)"></path>
<path d="M 723.879 633.805 C 724.588 634.319 735.793 646.146 737.25 647.647 C 734.617 650.841 731.625 653.708 728.704 656.648 C 726.188 654.93 716.669 645.406 714.012 642.834 C 716.996 639.826 720.69 636.668 723.879 633.805 z" fill="rgb(192,43,41)" transform="translate(0,0)"></path>
<path d="M 730.548 496.607 C 734.244 499.667 736.698 502.833 739.804 506.468 C 735.188 510.317 730.27 515.361 725.897 519.63 C 721.832 515.86 720.535 514.508 717.202 510.098 L 730.548 496.607 z" fill="rgb(192,43,41)" transform="translate(0,0)"></path>
<path d="M 583.507 497.665 C 586.598 499.006 594.965 507.487 597.986 510.344 L 589.087 519.206 C 584.176 515.57 576.637 510.828 576.719 504.402 C 578.188 500.815 580.289 499.898 583.507 497.665 z" fill="rgb(192,43,41)" transform="translate(0,0)"></path>
<path d="M 778.729 180.939 C 783.536 180.537 784.811 180.019 788.436 183.423 C 790.008 189.305 784.381 195.536 781.323 202.645 L 780.046 204.384 L 777.942 204.248 C 773.379 199.368 775.039 186.323 778.729 180.939 z" fill="rgb(192,43,41)" transform="translate(0,0)"></path>
<path d="M 223.406 1552.57 C 234.489 1554.9 232.196 1563.58 226.448 1570.15 L 225.248 1569.39 C 220.281 1566.27 218.585 1565.67 217.856 1559.62 C 219.063 1555.64 219.991 1555.34 223.406 1552.57 z" fill="rgb(192,43,41)" transform="translate(0,0)"></path>
<path d="M 786.688 154.077 C 791.832 154.903 797.125 155.521 796.244 161.989 C 792.994 165.653 793.567 164.604 788.254 166.433 C 784.912 167.485 783.809 166.845 781.319 165.087 C 779.08 158.948 781.027 156.428 786.688 154.077 z" fill="rgb(192,43,41)" transform="translate(0,0)"></path>
<path d="M 781.073 214.106 C 786.803 214.967 793.635 215.17 797.634 219.113 C 799.101 222.248 798.658 223.054 798.027 226.443 C 786.173 228.454 783.671 225.038 781.073 214.106 z" fill="rgb(192,43,41)" transform="translate(0,0)"></path>
<path d="M 747.465 1567.59 C 748.942 1568.65 751.205 1570.15 752.503 1571.3 C 752.367 1576.76 751.319 1588.98 742.488 1583.52 C 738.318 1576.64 743.111 1572.51 747.465 1567.59 z" fill="rgb(192,43,41)" transform="translate(0,0)"></path>
<path d="M 252.027 1593.33 C 254.023 1591.92 256.622 1591.69 258.833 1592.73 C 261.043 1593.77 262.524 1595.92 262.709 1598.36 C 262.894 1600.79 261.756 1603.14 259.728 1604.5 C 256.643 1606.58 252.464 1605.78 250.355 1602.72 C 248.246 1599.66 248.991 1595.47 252.027 1593.33 z" fill="rgb(192,43,41)" transform="translate(0,0)"></path>
<path d="M 335.794 1599.64 C 339.408 1598.91 342.931 1601.24 343.663 1604.86 C 344.395 1608.47 342.058 1612 338.444 1612.73 C 334.829 1613.46 331.305 1611.12 330.574 1607.51 C 329.842 1603.89 332.179 1600.37 335.794 1599.64 z" fill="rgb(192,43,41)" transform="translate(0,0)"></path>
<path d="M 181.095 1655.12 C 183.356 1654.82 185.602 1655.76 186.97 1657.59 C 188.338 1659.41 188.617 1661.83 187.698 1663.92 C 186.779 1666.01 184.807 1667.43 182.538 1667.66 C 179.108 1667.99 176.042 1665.52 175.648 1662.1 C 175.255 1658.67 177.679 1655.57 181.095 1655.12 z" fill="rgb(192,43,41)" transform="translate(0,0)"></path>
<path d="M 267.142 1650.55 C 269.344 1650.01 271.666 1650.71 273.201 1652.38 C 274.736 1654.05 275.242 1656.42 274.521 1658.57 C 273.8 1660.72 271.968 1662.31 269.737 1662.71 C 266.427 1663.32 263.237 1661.18 262.535 1657.89 C 261.833 1654.6 263.874 1651.35 267.142 1650.55 z" fill="rgb(192,43,41)" transform="translate(0,0)"></path>
<path d="M 180.763 1606.49 L 185.413 1607.34 C 188.753 1610.13 187.62 1608.47 189.122 1612.38 C 188.838 1616.58 188.678 1616.69 185.987 1620.12 C 181.295 1620.03 180.43 1619.96 178.255 1616.07 C 177.998 1612.07 179.161 1610.33 180.763 1606.49 z" fill="rgb(192,43,41)" transform="translate(0,0)"></path>
<metadata><recraft-signature>{"signed_by": "recraft", "signature_b64": "irxt712Bw8OVSkKHtGxs8tWS6MAGjFa1PLLjsaTjMUNBlbEhYrwCaMPlv/qIvr7CWD0jiJKBfsws4HwA5Rq5Ag==", "signing_algo": "Ed25519", "generation_timestamp": 1781711283, "identifier": "2b2fb68e-5e96-47bb-86c0-9d6755eae30b"}</recraft-signature></metadata></svg>