<svg xmlns="http://www.w3.org/2000/svg" height="1024" preserveAspectRatio="none" style="display: block;" version="1.1" viewBox="0 0 2048 2048" width="1024">
<path d="M 0 0 L 2048 0 L 2048 2048 L 0 2048 L 0 0 z" fill="rgb(245,243,232)" transform="translate(0,0)"></path>
<path d="M 620.292 134.147 C 629.622 133.748 638.591 135.732 641.279 146.363 C 648.234 173.871 638.57 208.163 629.064 234.006 C 625.819 242.825 618.602 253.144 614.624 262.279 L 614.154 263.382 C 642.273 270.596 670.051 276.395 697.867 283.437 C 743.875 295.115 789.306 308.957 834.009 324.918 C 886.811 344.125 945.303 372.739 983.492 414.521 C 999.841 432.409 1026.29 471.875 1036.1 493.191 C 1063.91 553.661 1064.2 629.071 1056.88 694.213 C 1054.38 716.511 1043.39 747.106 1036.23 768.98 L 1008.91 852.245 L 918.963 1135.96 L 784.57 1568.85 L 749.757 1679.99 C 742.714 1702.64 735.984 1725.57 727.997 1747.87 C 722.766 1762.47 703.341 1774.76 689.624 1780.56 C 592.978 1821.37 438.37 1769.63 346.73 1733.7 C 280.629 1708.13 228.58 1681.64 165.184 1650.19 C 161.973 1682.79 155.676 1707.78 138.564 1736.97 C 126.898 1760.03 94.5881 1770.85 89.7518 1736.92 C 84.3436 1698.97 102.918 1659.7 123.461 1629.76 C 107.81 1621.5 92.6458 1612.44 76.5627 1604.96 C 72.5048 1603.07 68.9214 1601.16 65.2407 1598.6 C 60.3662 1587.75 87.1622 1528.99 95.7531 1518.51 C 98.2563 1515.46 133.146 1530.74 138.793 1533.03 L 388.857 765.157 L 466.438 526.921 C 480.321 482.043 494.887 437.38 510.13 392.945 C 518.902 366.913 524.796 347.721 535.003 321.987 C 521.414 316.764 507.128 312.957 493.262 308.665 C 483.568 305.664 468.466 302.846 460.117 297.733 C 456.07 289.126 470.1 263.721 471.297 252.525 C 474.37 223.776 498.367 236.401 516.493 240.429 C 533.073 244.018 549.682 247.47 566.319 250.786 C 568.129 218.148 585.356 146.661 620.292 134.147 z" fill="rgb(82,26,26)" transform="translate(0,0)"></path>
<path d="M 549.644 327.201 C 569.534 331.228 619.262 350.209 639.715 357.293 C 695.669 376.674 752.715 398.916 807.908 420.796 C 863.877 442.984 935.926 467.547 985.831 499.954 C 956.959 594.631 918.148 696.355 885.728 790.809 C 827.77 965.132 766.884 1138.47 703.095 1310.74 C 671.844 1394.53 635.828 1477.77 604.182 1562.23 L 586.342 1609.97 C 582.648 1619.82 576.982 1633.41 575.002 1643.23 C 581.705 1645.17 589.376 1646.54 596.281 1647.83 C 622.195 1652.7 674.908 1671.08 688.784 1696.03 L 687.91 1697.96 C 649.593 1715.5 619.004 1721 576.68 1713.41 C 524.178 1703.99 474.631 1682.57 425.867 1661.63 C 378.335 1641.45 331.252 1620.22 284.655 1597.97 C 242.034 1578.13 198.567 1559.98 155.844 1540.32 C 289.726 1136.8 420.995 732.418 549.644 327.201 z" fill="rgb(245,243,232)" transform="translate(0,0)"></path>
<path d="M 474.586 754.896 C 481.27 755.233 528.229 772.908 540.983 776.273 C 565.78 782.816 588.951 782.274 611.875 790.432 C 623.794 794.673 636.553 808.244 647.856 814.741 C 658.138 820.65 673.923 821.694 684.433 825.531 C 699.349 831.979 711.057 846.329 724.493 855.381 C 751.333 873.464 781.687 880.785 811.306 892.224 C 811.809 893.189 812.312 894.153 812.815 895.118 C 811.573 895.294 810.325 895.422 809.074 895.502 C 781.871 897.394 734.29 885.849 711.659 869.397 C 701.541 862.041 689.507 851.504 678.476 846.035 C 666.7 840.196 652.027 843.758 639.865 836.455 C 627.4 828.969 618.38 817.774 604.84 812.195 C 591.33 806.629 575.446 804.537 561.397 801.886 C 537.96 797.462 492.232 770.811 474.586 754.896 z" fill="rgb(82,26,26)" transform="translate(0,0)"></path>
<path d="M 394.256 1236.67 C 397.983 1238.83 402.396 1240.95 406.284 1242.91 C 425.857 1252.81 444.455 1264.25 463.357 1275.38 C 460.674 1283.58 455.519 1294.14 451.522 1301.8 C 443.724 1304.73 441.629 1305.53 434.599 1309.93 C 426.34 1314.71 407.982 1325.63 399.303 1322.76 C 381.4 1316.85 396.79 1270.41 399.847 1259.64 L 388.239 1254.21 C 390.355 1248.77 392.37 1242.27 394.256 1236.67 z" fill="rgb(82,26,26)" transform="translate(0,0)"></path>
<path d="M 417.732 1270.87 C 424.142 1274.27 433.859 1280.88 440.242 1284.94 C 434.499 1289.46 429.424 1292.59 423.224 1296.5 C 417.547 1299.88 413.979 1301.58 407.951 1304.32 C 410.293 1293.92 414.918 1281.91 417.732 1270.87 z" fill="rgb(245,243,232)" transform="translate(0,0)"></path>
<path d="M 429.972 1107.29 L 440.972 1111.13 C 442.361 1124.18 437.917 1137.1 436.161 1151.04 C 441.616 1140.89 444.108 1135.92 446.798 1124.78 L 479.041 1141.65 L 484.124 1130.78 L 498.86 1138.67 C 496.903 1144.76 492.497 1154.47 489.918 1160.64 C 482.721 1179.47 477.79 1187.29 458.08 1193.74 C 445.229 1188.66 446.587 1187.48 438.433 1177.13 C 434.611 1172.28 435.872 1174.09 430.174 1173.34 C 426.056 1172.81 420.568 1173.22 417.719 1169.86 C 416.158 1160.13 425.85 1117.39 429.972 1107.29 z" fill="rgb(82,26,26)" transform="translate(0,0)"></path>
<path d="M 454.618 1150.59 C 463.831 1151.58 467.824 1153.9 473.999 1160.15 C 470.726 1164.41 468.617 1166.39 464.823 1170.04 C 460.357 1173.26 459.368 1174.41 453.959 1172.8 C 447.495 1166.65 450.537 1157.12 454.618 1150.59 z" fill="rgb(245,243,232)" transform="translate(0,0)"></path>
<path d="M 641.982 1066.2 C 656.356 1070.88 687.379 1086.73 701.091 1094.15 C 692.259 1112.95 683.642 1119.46 667.536 1132.57 C 657.134 1140.45 652.209 1143.06 640.11 1148.01 C 616.423 1138 623.758 1120.35 630.165 1100.62 C 633.92 1089.06 638.489 1077.88 641.982 1066.2 z" fill="rgb(82,26,26)" transform="translate(0,0)"></path>
<path d="M 656.543 1090.58 C 662.278 1094.42 668.383 1097.72 674.396 1101.11 C 668.839 1107.57 660.071 1115.35 653.542 1120.81 C 650.489 1123.35 646.408 1125.89 643.048 1128.14 C 645.214 1112.76 649.763 1104.27 656.543 1090.58 z" fill="rgb(245,243,232)" transform="translate(0,0)"></path>
<path d="M 325.473 1392.63 C 328.153 1392.57 335.085 1394.49 338.452 1395.1 C 346.486 1396.58 357.948 1397.52 365.187 1400.67 C 375.4 1405.12 385.658 1413.77 396.638 1416.62 C 419.304 1422.49 439.881 1420.42 460.949 1433.21 C 477.648 1443.35 480.717 1453.21 491.659 1468.02 C 495.848 1473.69 508.358 1477.51 510.526 1486.35 C 488.062 1488.72 466.247 1462.52 450.294 1451.18 C 430.507 1437.11 406.033 1441.68 383.981 1434.38 C 371.207 1430.16 363.964 1421.35 353.173 1414.04 C 343.782 1407.8 327.024 1405.57 325.473 1392.63 z" fill="rgb(82,26,26)" transform="translate(0,0)"></path>
<path d="M 822.047 580.385 C 841.178 587.652 868.192 593.632 885.283 604.199 C 884.346 608.64 884.186 609.874 882.355 613.933 C 878.935 617.127 877.866 616.612 873.512 617.658 C 865.828 638.81 856.632 666.219 847.805 686.309 C 842.816 684.192 839.032 682.102 834.312 679.533 C 838.739 665.706 843.364 653.344 848.535 639.757 L 858.827 611.494 C 851.992 608.552 843.703 605.925 836.563 603.476 C 831.045 623.31 820.892 647.63 813.499 667.397 C 806.944 664.678 804.362 663.283 798.267 659.599 C 806.13 642.51 812.638 618.848 819.268 600.871 C 822.225 592.854 816.083 593.772 822.047 580.385 z" fill="rgb(82,26,26)" transform="translate(0,0)"></path>
<path d="M 498.197 1005.16 C 514.858 1011.4 544.043 1028.21 558.779 1037.89 L 554.475 1051.2 C 544.538 1056.51 535.743 1062.81 526.461 1069.17 C 518.333 1074.13 511.757 1077.31 502.952 1080.73 C 465.006 1076.72 488.243 1051.84 495.126 1031.25 C 495.789 1029.26 491.977 1026.12 490.617 1024.65 C 493.612 1017.81 495.709 1012.22 498.197 1005.16 z" fill="rgb(82,26,26)" transform="translate(0,0)"></path>
<path d="M 512.639 1033.89 C 518.961 1036.94 524.585 1041.16 530.359 1045.17 C 524.071 1049.81 517.724 1053.53 511.058 1057.56 C 506.834 1059.65 502.223 1061.69 497.917 1063.68 C 502.644 1053.66 507.552 1043.73 512.639 1033.89 z" fill="rgb(245,243,232)" transform="translate(0,0)"></path>
<path d="M 594.882 487.598 C 605.356 491.842 653.337 513.935 657.248 522.252 C 657.051 525.504 656.623 525.644 654.814 528.314 C 652.371 529.94 650.915 529.423 647.898 529.162 L 646.712 529.05 C 645.941 529.431 645.169 529.811 644.398 530.192 C 636.417 545.055 626.151 574.932 620.569 589.542 C 613.955 586.218 611.139 584.449 605.037 580.214 C 609.033 571.32 612.276 561.931 615.617 552.756 C 620.035 541.637 623.242 533.371 626.659 521.875 C 620.258 518.988 612.916 516.445 606.273 513.99 C 598.675 532.224 591.416 554.895 583.163 572.009 L 570.158 564.55 C 578.573 539.568 586.351 513.113 594.882 487.598 z" fill="rgb(82,26,26)" transform="translate(0,0)"></path>
<path d="M 738.292 694.34 C 747.258 696.643 777.367 711.652 786.401 716.455 C 784.957 721.951 785.341 723.343 781.892 728.358 C 771.336 743.705 765.53 768.296 758.175 785.508 C 751.849 783.262 749.206 781.867 743.323 778.746 L 754.565 745.758 C 756.727 739.244 759.425 732.836 761.989 726.463 L 748.528 719.287 C 741.692 736.022 735.655 756.037 730.093 773.424 C 724.125 771.02 719.349 768.734 713.563 765.907 C 720.009 743.05 729.847 716.324 738.292 694.34 z" fill="rgb(82,26,26)" transform="translate(0,0)"></path>
<path d="M 695.421 945.254 C 703.487 948.569 745.442 967.601 750.063 970.896 C 750.923 974.859 750.948 979.378 748.778 982.938 C 746.845 983.24 745.8 983.451 743.91 983.951 C 737.462 996.828 730.965 1023.08 723.774 1038.9 L 707.069 1032.69 C 710.399 1023.5 714.777 1013.38 718.488 1004.24 C 722.003 995.617 724.586 987.519 727.459 978.691 C 722.731 977.047 716.677 975.595 711.755 974.271 C 706.061 989.397 700.243 1009.09 695.118 1024.76 C 688.654 1022.22 685.988 1020.77 679.953 1017.31 C 683.64 1003.27 688.634 989.416 692.619 975.63 C 694.837 967.96 697.468 961.622 693.118 954.833 C 691.683 952.593 694.32 947.729 695.421 945.254 z" fill="rgb(82,26,26)" transform="translate(0,0)"></path>
<path d="M 431.003 962.896 C 452.501 978.151 447.932 983.482 478.757 996.082 C 472.942 1017.76 466.955 1039.4 460.796 1060.98 C 450.387 1055.01 438.82 1050.23 427.745 1045.62 C 422.018 1043.49 416.551 1040.79 411.011 1038.2 C 413.251 1032.28 414.359 1030.38 417.491 1025.13 C 428.686 1029.17 437.454 1033.86 449.748 1037.89 C 452.563 1029.83 455.273 1018.87 457.607 1010.46 C 447.357 1005.82 429.366 991.869 420.243 984.342 C 424.15 978.152 427.828 969.679 431.003 962.896 z" fill="rgb(82,26,26)" transform="translate(0,0)"></path>
<path d="M 454.657 834.567 C 463.292 838.204 494.034 856.006 501.928 861.457 C 493.716 882.756 486.653 904.339 478.363 925.604 C 473.937 923.665 470.113 921.309 465.937 918.893 C 469.93 906.099 474.167 893.383 478.648 880.752 L 484.262 867.58 C 479.358 864.905 473.218 862.052 468.132 859.521 C 459.104 877.589 452.798 893.244 445.295 911.937 C 440.441 909.425 436.464 906.828 431.875 903.91 C 435.554 893.292 451.631 858.387 452.516 850.54 C 450.871 847.516 450.74 847.396 449.789 843.902 C 450.379 839.833 452.19 838.062 454.657 834.567 z" fill="rgb(82,26,26)" transform="translate(0,0)"></path>
<path d="M 576.244 1038.14 C 582.461 1039.8 586.993 1043.34 592.01 1047.09 C 588.46 1063.83 581.894 1079.83 580.11 1097.01 C 605.196 1090.2 604.488 1077.63 611.102 1054.73 C 616.894 1057.8 620.735 1060.56 626.095 1064.31 C 625.042 1068 623.647 1072.06 622.473 1075.75 C 611.691 1104.34 613.572 1103.19 586.942 1117.15 C 578.005 1114.38 571.16 1112.32 562.9 1107.92 C 562.286 1080.29 568.195 1064.48 576.244 1038.14 z" fill="rgb(82,26,26)" transform="translate(0,0)"></path>
<path d="M 806.934 722.895 L 823.651 731.097 C 819.653 741.791 815.739 752.516 811.909 763.272 L 817.017 762.345 C 827.247 760.482 836.515 757.372 846.449 754.333 C 849.742 757.28 852.09 760.078 854.996 763.372 C 851.323 778.681 847.237 790.87 842.221 805.732 C 838.19 804.771 831.83 802.129 827.764 800.584 L 832.816 777.751 C 818.94 780.878 799.985 786.871 787.999 777.229 C 792.246 760.744 800.816 739.225 806.934 722.895 z" fill="rgb(82,26,26)" transform="translate(0,0)"></path>
<path d="M 707.392 539.619 C 721.573 541.96 766.624 557.81 778.786 565.387 L 773.428 579.259 L 747.607 570.859 L 735.574 601.258 C 732.215 610.861 728.324 620.269 723.919 629.44 C 717.99 626.081 716.172 624.927 710.902 620.572 C 715.473 605.851 725.542 580.438 731.621 566.359 C 721.669 561.861 711.094 557.584 701.911 551.775 C 703.589 547.764 705.58 543.597 707.392 539.619 z" fill="rgb(82,26,26)" transform="translate(0,0)"></path>
<path d="M 317.896 1209.82 C 327.057 1213.63 340.708 1218.98 348.75 1224.14 C 346.115 1239.81 342.249 1251.95 337.619 1267.09 C 346.289 1272.02 357.164 1279.6 365.712 1285.22 C 363.494 1291.16 361.613 1295.36 358.906 1301.1 L 347.968 1295.07 C 334.197 1287.91 316.74 1280.84 302.404 1274.93 L 307.278 1260.38 C 311.406 1262.44 314.557 1263.09 318.975 1264.28 L 329.917 1232.26 C 324.162 1230.09 317.311 1228.02 311.39 1226.08 C 313.387 1220.63 315.69 1215.2 317.896 1209.82 z" fill="rgb(82,26,26)" transform="translate(0,0)"></path>
<path d="M 606.782 1330.31 C 613.351 1333 617.38 1334.87 623.64 1338.21 C 618.894 1352.22 615.126 1364.23 609.905 1378.3 C 613.172 1380.2 618.301 1383.44 621.851 1383.7 C 624.288 1377.63 615.577 1373.09 621.637 1366.5 C 623.294 1366.01 623.903 1365.84 625.657 1366.13 C 642.543 1368.93 640.931 1387.93 638.428 1400.74 C 636.508 1408.19 634.831 1410.26 629.649 1415.96 C 624.265 1413.19 618.845 1408.28 613.385 1404.99 C 604.359 1399.54 595.778 1394.61 587.094 1388.56 C 593.734 1370.24 602.068 1348.87 606.782 1330.31 z" fill="rgb(82,26,26)" transform="translate(0,0)"></path>
<path d="M 635.943 1209.16 C 639.834 1210.51 648.288 1214.93 652.387 1216.96 C 649.701 1224.55 636.423 1260.06 640.909 1264.71 L 643.546 1264.12 C 652.113 1256.71 657.885 1234.13 664.412 1222.42 L 665.11 1221.18 C 671.626 1223.61 674.063 1225.15 680.02 1228.68 L 676.428 1237.25 C 671.005 1249.3 645.347 1307.9 627.372 1279.29 C 619.613 1266.95 631.095 1222.96 635.943 1209.16 z" fill="rgb(82,26,26)" transform="translate(0,0)"></path>
<path d="M 624.514 912.061 C 644.076 920.707 659.64 932.322 678.052 940.001 C 673.244 955.926 660.73 987.156 653.976 1002.31 C 652.893 1004.16 653.639 1003.37 651.628 1004.58 C 647.117 1002.97 642.335 1001.47 639.671 997.361 C 639.89 993.595 650.949 961.516 653.036 952.697 C 641.508 944.58 630.23 934.947 618.371 926.587 C 620.477 922.425 622.701 916.492 624.514 912.061 z" fill="rgb(82,26,26)" transform="translate(0,0)"></path>
<path d="M 558.915 882.796 C 563.456 885.215 571.19 890.447 575.795 893.357 C 571.453 901.71 559.872 926.542 571.159 932.571 C 583.578 931.814 590.845 907.622 594.053 897.597 C 599.21 900.462 603.555 903.333 608.479 906.563 L 604.365 916.725 C 595.858 939.574 588.065 946.344 566.246 956.137 C 539.557 933.88 551.274 911.383 558.915 882.796 z" fill="rgb(82,26,26)" transform="translate(0,0)"></path>
<path d="M 660.77 661.635 C 672.127 663.789 701.167 678.241 713.865 683.802 C 707.995 700.897 698.306 736.004 691.165 750.095 L 689.007 750.803 C 683.765 749.615 679.988 747.029 675.292 744.355 C 678.754 730.032 686.068 709.492 690.671 694.811 C 678.053 686.748 666.813 682.228 654.17 674.828 C 656.438 670.631 658.639 665.942 660.77 661.635 z" fill="rgb(82,26,26)" transform="translate(0,0)"></path>
<path d="M 515.237 614.137 C 526.088 616.71 569.963 631.79 576.522 638.754 C 577.822 643.117 559.128 688.645 556.166 694.74 C 551.682 692.27 547.221 689.76 542.781 687.212 C 546.799 674.539 552.121 660.383 557.045 648.074 L 555.236 647.162 C 541.228 639.974 523.942 635.652 508.659 628.675 L 515.237 614.137 z" fill="rgb(82,26,26)" transform="translate(0,0)"></path>
<path d="M 538.838 1293.34 C 555.52 1302.86 572.72 1314.22 589.245 1324.38 C 581.185 1342.65 574.573 1362.81 568.091 1381.76 C 567.17 1382.61 566.968 1382.42 565.544 1382.81 C 561.017 1381.32 557.278 1378.34 553.293 1375.62 C 557.772 1362.55 562.867 1349.75 567.869 1336.87 C 558.235 1328.53 543.746 1317.84 532.969 1311.16 C 535.31 1305 536.943 1299.63 538.838 1293.34 z" fill="rgb(82,26,26)" transform="translate(0,0)"></path>
<path d="M 575.073 1174.32 C 586.183 1178.72 611.834 1195.51 622.319 1202.28 C 614.859 1217.85 606.854 1241.72 600.779 1258.42 C 594.686 1258.87 588.671 1254.74 584.285 1251.04 C 588.372 1238.28 594.596 1224.48 599.128 1210.98 C 589.044 1204.39 579.005 1197.73 569.013 1191 C 570.842 1184.34 572.406 1180.68 575.073 1174.32 z" fill="rgb(82,26,26)" transform="translate(0,0)"></path>
<path d="M 473.717 1267 C 484.791 1271.83 509.016 1289.37 519.538 1296.7 C 514.556 1311.83 507.412 1335.77 501.19 1350 C 495.377 1347.97 492.626 1346.17 487.414 1343.09 C 491.325 1331.67 495.843 1319.87 499.99 1308.48 C 489.132 1300.97 478.472 1293.18 468.018 1285.12 C 469.431 1279.6 471.905 1272.58 473.717 1267 z" fill="rgb(82,26,26)" transform="translate(0,0)"></path>
<path d="M 512.463 1143.54 L 525.187 1149.69 L 522.548 1159.17 C 536.285 1162.75 548.914 1167.37 562.049 1172.61 C 558.593 1182.33 551.4 1196.48 547.026 1207.97 L 535.455 1203.06 C 534.816 1202.82 534.14 1201.94 533.571 1201.36 C 534.108 1194.93 536.24 1187.44 537.823 1181.05 C 528.821 1179.07 524.492 1176.41 516.629 1171.93 L 511.899 1186.1 C 505.63 1183.51 504.256 1182.77 498.625 1178.98 C 503.087 1167.11 507.7 1155.29 512.463 1143.54 z" fill="rgb(82,26,26)" transform="translate(0,0)"></path>
<path d="M 521.034 868.351 C 527.268 871.287 533.029 875.047 538.896 878.669 C 532.49 899.158 522.154 924.786 512.373 943.562 C 507.83 944.736 499.826 938.126 496.17 935.419 C 504.487 915.244 515.591 888.787 521.034 868.351 z" fill="rgb(82,26,26)" transform="translate(0,0)"></path>
<path d="M 370.423 1080.48 C 379.252 1082.94 384.019 1084.88 391.963 1089.21 C 389.763 1093.99 388.439 1097.05 385.6 1101.55 L 383.035 1101.04 C 380.149 1104.34 367.152 1136.22 364.874 1141.69 C 363.733 1143.9 363.877 1143.79 361.787 1145.13 C 357.392 1144.79 351.693 1140.57 347.647 1138.06 C 355.649 1119.03 363.243 1099.83 370.423 1080.48 z" fill="rgb(82,26,26)" transform="translate(0,0)"></path>
<path d="M 621.607 646.157 C 627.158 647.756 630.833 650.537 635.62 653.664 C 631.025 669.352 618.987 701.79 612.277 716.876 L 596.705 711.145 C 604.467 689.28 612.771 667.611 621.607 646.157 z" fill="rgb(82,26,26)" transform="translate(0,0)"></path>
<path d="M 401.934 1092.09 C 407.311 1094.61 412.658 1097.2 417.975 1099.84 C 409.214 1119.46 402.658 1138.65 396.409 1159.19 C 391.159 1158.5 386.708 1157.63 382.863 1153.88 C 380.405 1146.89 398.226 1101.53 401.934 1092.09 z" fill="rgb(82,26,26)" transform="translate(0,0)"></path>
<path d="M 370.097 1212.44 C 376.451 1216.16 378.077 1217.22 383.597 1222.12 C 378.983 1234.81 374.377 1248.29 368.888 1260.55 C 363.656 1258.88 359.418 1256.9 354.437 1254.67 C 356.694 1239.33 362.142 1225.64 370.097 1212.44 z" fill="rgb(82,26,26)" transform="translate(0,0)"></path>
<path d="M 1010.27 482.682 C 1011.71 484.152 1011.73 484.689 1012.67 486.561 C 1038.1 536.516 1043.97 591.364 1041.76 646.612 C 1040.77 671.262 1041.11 692.78 1033.63 716.873 C 1026.04 741.289 1017.56 765.359 1009.89 789.744 C 981.729 879.322 952.078 968.393 923.645 1057.9 L 780.421 1519.22 C 760.812 1581.86 742.888 1645.95 721.134 1707.71 C 706.072 1684.22 700.181 1677.24 678.46 1660.58 C 652.548 1642.73 629.928 1633.85 598.696 1628.11 C 618.071 1571.51 643.619 1511.72 665.946 1455.86 C 694.508 1384.32 722.024 1312.36 748.483 1240.01 C 755.14 1221.86 762.525 1203.81 768.963 1185.61 L 947.21 670.615 L 992.339 537.837 C 997.837 521.471 1004.46 497.751 1010.27 482.682 z" fill="rgb(245,243,232)" transform="translate(0,0)"></path>
<path d="M 104.556 1537.64 C 109.439 1540.81 134.46 1551.06 141.643 1554.19 L 217.121 1587.65 L 391.947 1667.15 C 438.894 1688.09 485.583 1708.48 535 1723.14 C 592.57 1740.22 647.315 1742.63 701.682 1712.31 C 714.661 1733.35 717.829 1742.99 695.02 1756.9 C 638.698 1788.11 581.136 1778.32 521.569 1767.1 C 421.963 1748.32 328.973 1708.66 237.6 1666.04 C 185.231 1641.6 134.722 1612.64 82.235 1588.67 C 89.6166 1572.38 98.3178 1554.22 104.556 1537.64 z" fill="rgb(168,87,73)" transform="translate(0,0)"></path>
<path d="M 491.013 253.568 L 620.507 283.788 C 716.551 306.419 834.743 334.141 919.451 385.396 C 949.337 403.479 977.473 434.984 998.298 463.201 C 996.773 467.512 993.523 478.21 990.269 480.676 C 960.833 465.085 928.61 448.049 897.471 435.988 C 805.234 400.263 713.551 362.791 619.917 330.83 C 591.404 321.167 562.842 311.651 534.231 302.281 C 517.497 296.88 497.187 291.2 481.116 284.829 C 482.955 274.766 487.507 263.337 491.013 253.568 z" fill="rgb(168,87,73)" transform="translate(0,0)"></path>
<path d="M 622.213 151.625 C 637.357 158.621 611.198 251.597 590.725 258.507 C 588.566 257.615 587.615 257.044 585.584 255.862 C 580.712 248.365 587.215 224.332 589.448 216.03 C 595.627 193.058 605.302 168.855 622.213 151.625 z" fill="rgb(168,87,73)" transform="translate(0,0)"></path>
<path d="M 139.697 1637.41 L 144.111 1639.8 C 146.766 1643.09 146.81 1648.91 146.43 1652.92 C 143.909 1679.48 132.13 1722.23 111.832 1740.21 L 110.003 1740.8 C 103.475 1735.34 108.33 1707.84 110.274 1700.23 C 116.308 1676.6 125.099 1656.8 139.697 1637.41 z" fill="rgb(168,87,73)" transform="translate(0,0)"></path>
<path d="M 1474.22 1047.42 C 1527.55 1041.89 1611.68 1058.39 1660.93 1077.97 C 1701.56 1094.26 1739.37 1116.83 1773 1144.86 C 1859.6 1219.45 1913.05 1325.36 1921.63 1439.34 C 1931.95 1556.49 1894.7 1672.88 1818.27 1762.27 C 1745.87 1846.3 1642.89 1897.91 1532.24 1905.62 C 1424.67 1913.18 1308.28 1872.87 1227.82 1801.56 C 1139.67 1723.44 1092.66 1620.61 1084.79 1504.19 C 1076.3 1385.87 1115.36 1269.06 1193.32 1179.65 C 1245.56 1119.83 1314.97 1077.58 1392.1 1058.63 C 1420.49 1051.9 1445.35 1049.4 1474.22 1047.42 z" fill="rgb(82,26,26)" transform="translate(0,0)"></path>
<path d="M 1850.44 1270.74 L 1852.3 1271.21 C 1855.43 1275.01 1857.33 1279.29 1859.54 1283.71 C 1910.63 1387.3 1918.35 1506.98 1881 1616.28 C 1846.46 1605.39 1810.38 1589.75 1775.75 1577.42 C 1744.18 1565.65 1711.78 1550.17 1680.04 1539.2 C 1702.19 1455.85 1716.64 1396.88 1715.95 1310.12 C 1768.23 1304.16 1803.12 1293.69 1850.44 1270.74 z" fill="rgb(245,243,232)" transform="translate(0,0)"></path>
<path d="M 1674.04 1556.25 C 1691.06 1564.32 1712.53 1570.59 1730.32 1578.09 C 1777.03 1597.79 1826.46 1614.79 1872.79 1634.85 C 1845.71 1710.13 1788.16 1776.86 1722.68 1821.83 C 1693.61 1841.34 1662.04 1856.85 1628.84 1867.94 C 1616.46 1829.84 1592.8 1787.73 1568.08 1756.2 C 1619.91 1690.02 1645.33 1633.46 1674.04 1556.25 z" fill="rgb(245,243,232)" transform="translate(0,0)"></path>
<path d="M 1366.49 1084.84 C 1371.69 1084.93 1375.18 1097.92 1376.86 1102.49 C 1389.83 1137.72 1408.22 1166.84 1429.96 1197.11 C 1413.58 1219.67 1392.91 1247.66 1378.64 1271.29 C 1355.91 1308.95 1335.85 1352.29 1319.61 1393.17 C 1292.06 1383.45 1260.75 1369.92 1233.13 1359.01 C 1199.13 1345.72 1166.55 1330.86 1131.96 1318.05 C 1134.04 1310.43 1139.73 1295.28 1143.2 1288.04 C 1178.78 1213.91 1233.66 1153.24 1305 1112.11 C 1323.76 1101.29 1346.9 1092.36 1366.49 1084.84 z" fill="rgb(245,243,232)" transform="translate(0,0)"></path>
<path d="M 1125.2 1334.31 C 1187.3 1359.27 1251.6 1386.68 1313.73 1410.53 C 1289.26 1469.06 1275.69 1555.78 1271.61 1618.69 L 1260.43 1619.87 C 1220.92 1621.91 1173.42 1633.31 1136.95 1648.09 C 1131.61 1632.5 1125.13 1617.39 1120.3 1601.53 C 1094.25 1516.11 1095.17 1418.86 1125.2 1334.31 z" fill="rgb(245,243,232)" transform="translate(0,0)"></path>
<path d="M 1441.43 1211.02 C 1477.67 1246.8 1506.66 1266.72 1553.49 1286.01 L 1493.33 1465.31 L 1462.75 1452.48 C 1420.09 1434.01 1378.32 1418.87 1335.8 1399.54 C 1340.85 1384.05 1349.7 1366.93 1356.46 1351.95 C 1380.26 1299.15 1406.61 1257.26 1441.43 1211.02 z" fill="rgb(245,243,232)" transform="translate(0,0)"></path>
<path d="M 1569.85 1293.07 C 1611.34 1305.95 1654.71 1311.72 1698.13 1310.14 C 1700.28 1371.42 1683.81 1474.75 1663.2 1532.49 L 1646.64 1526.03 C 1601.8 1507.34 1555.62 1490.55 1510.33 1471.88 C 1514.58 1451.94 1530.54 1407.53 1537.54 1387.66 L 1569.85 1293.07 z" fill="rgb(245,243,232)" transform="translate(0,0)"></path>
<path d="M 1329.63 1416.96 C 1336.98 1419.7 1344.86 1423.18 1352.11 1426.26 C 1396.57 1445.1 1442.67 1462.2 1486.36 1482.68 C 1480.98 1503.93 1472.02 1526.44 1465.23 1547.43 C 1455.15 1578.59 1445.22 1609.78 1435.31 1641 L 1431.71 1651.84 C 1384.14 1631.53 1340.83 1620.79 1288.92 1619.9 C 1291.73 1571.04 1299.41 1522.57 1311.84 1475.22 C 1317.2 1455.37 1324.26 1436.53 1329.63 1416.96 z" fill="rgb(245,243,232)" transform="translate(0,0)"></path>
<path d="M 1504.1 1489.18 C 1514.06 1492.09 1537.84 1502 1548.6 1506.14 C 1585.23 1520.06 1621.57 1534.73 1657.6 1550.12 C 1651.46 1565.27 1646.53 1581.06 1640.04 1596.65 C 1622.23 1639.2 1600.37 1679.94 1574.74 1718.29 C 1568.8 1727.01 1562.23 1735.37 1555.81 1743.75 C 1541.58 1723.24 1505.53 1694.72 1484.1 1681.13 C 1472.2 1673.59 1458.85 1666.9 1446.78 1658.66 C 1458.77 1624.79 1469.46 1590.9 1480.78 1556.82 C 1488.3 1534.18 1496.74 1511.94 1504.1 1489.18 z" fill="rgb(245,243,232)" transform="translate(0,0)"></path>
<path d="M 1269.74 1637.42 C 1271.56 1638.93 1272.1 1656.93 1272.35 1660.29 C 1277.35 1729.52 1305.1 1795.96 1342.44 1853.03 C 1310.79 1836.95 1291.65 1827.61 1263.05 1806.97 C 1216.73 1771.03 1167.52 1717.2 1145.56 1662.18 C 1159.25 1658.64 1172.97 1653.85 1186.97 1650.22 C 1215.43 1642.84 1240.62 1639.76 1269.74 1637.42 z" fill="rgb(245,243,232)" transform="translate(0,0)"></path>
<path d="M 1289 1637.06 C 1334.31 1636.92 1383.73 1650.26 1425.25 1667.68 C 1410.65 1713.7 1395.54 1759.56 1379.91 1805.24 C 1375.08 1820.85 1369.87 1836.34 1364.27 1851.7 C 1317.36 1789.78 1291.04 1714.72 1289 1637.06 z" fill="rgb(245,243,232)" transform="translate(0,0)"></path>
<path d="M 1648.84 1094.66 C 1680.39 1097.31 1758.98 1154.53 1782.69 1177.34 C 1796.73 1190.84 1832.34 1237.17 1841.76 1254.59 C 1832.91 1259.3 1824.33 1263.21 1815.25 1267.38 C 1779.2 1282.72 1753.28 1287.27 1715.15 1292.3 C 1709.5 1220.52 1689.84 1154.77 1648.84 1094.66 z" fill="rgb(245,243,232)" transform="translate(0,0)"></path>
<path d="M 1441.65 1676.71 C 1480.39 1696.76 1515.13 1723.75 1544.14 1756.34 C 1517.69 1787.64 1490.54 1810.25 1455.46 1831.32 C 1430.71 1845.41 1409.04 1853.48 1381.49 1859.82 C 1384.51 1848.42 1387.95 1837.04 1391.88 1825.92 C 1409.33 1776.59 1423.4 1725.71 1441.65 1676.71 z" fill="rgb(245,243,232)" transform="translate(0,0)"></path>
<path d="M 1613.73 1093.04 L 1614.38 1093.45 C 1616.16 1097.46 1598.86 1144.42 1596.21 1152.68 C 1583.98 1191.82 1571.46 1230.88 1558.65 1269.84 C 1536.72 1260.93 1511.95 1245.38 1492.49 1231.85 C 1478.29 1221.78 1465.3 1210.14 1453.74 1197.13 C 1498.57 1147.87 1551.58 1115.44 1613.73 1093.04 z" fill="rgb(245,243,232)" transform="translate(0,0)"></path>
<path d="M 1631.94 1102.56 C 1639.38 1109.42 1648.35 1127.32 1653.23 1136.83 C 1680.37 1189.81 1692.67 1233.76 1696.58 1292.92 C 1677.43 1293.13 1663.79 1292.74 1644.77 1290.85 C 1616.62 1287.33 1602.7 1284.21 1576.09 1274.88 C 1579.45 1263.3 1583.7 1251.44 1587.4 1239.92 C 1602.07 1194.18 1615.5 1147.7 1631.94 1102.56 z" fill="rgb(245,243,232)" transform="translate(0,0)"></path>
<path d="M 1479.51 1065.42 C 1514.89 1063.88 1565.04 1067.65 1597.89 1079.82 C 1552.35 1096.55 1514.7 1119.46 1477.44 1150.34 C 1464.57 1160.66 1454.1 1171.36 1442.54 1183.04 C 1417.16 1149.24 1400.94 1119.61 1387.65 1079.33 C 1419.5 1069.37 1446.77 1067.27 1479.51 1065.42 z" fill="rgb(245,243,232)" transform="translate(0,0)"></path>
<path d="M 1555.5 1770.71 C 1577.88 1791.48 1600.74 1843.96 1612.48 1872.4 C 1599.19 1874.83 1583.73 1879.68 1569.63 1882.4 C 1531.47 1889.77 1501.98 1889.37 1463.65 1885.89 C 1442.07 1883.23 1420.74 1878.86 1399.86 1872.83 C 1412.78 1871.32 1419.79 1868.34 1431.8 1863 C 1480.14 1841.51 1520.26 1810.03 1555.5 1770.71 z" fill="rgb(245,243,232)" transform="translate(0,0)"></path>
<path d="M 1267.49 171.945 C 1280.72 171.982 1310.7 187.871 1322.63 195.768 C 1344.14 210.015 1378.74 223.387 1398.36 237.995 C 1416.06 251.176 1441.13 285.955 1456.29 302.854 C 1486.23 336.241 1514.29 371.878 1544.5 404.964 C 1556.7 394.875 1574.65 375.645 1585.93 364.128 C 1609.13 340.012 1632.54 316.101 1656.16 292.399 C 1661.81 286.625 1675.74 268.193 1681.61 265.473 C 1715.81 249.649 1751.48 235.045 1786.31 220.5 C 1793.05 217.685 1802.46 212.341 1809.35 215.019 C 1810.77 216.769 1812.58 218.568 1812.02 221.077 C 1809.46 232.52 1802.02 250.744 1798.03 261.431 C 1790.92 280.722 1783.6 299.931 1776.06 319.058 C 1773.88 324.554 1767.65 341.107 1765.07 345.126 C 1758.74 354.596 1751.12 363.68 1743.94 372.561 C 1714.79 408.594 1683.62 442.926 1654.62 479.076 C 1647.55 487.886 1640.24 496.914 1632.42 505.056 C 1648.31 526.179 1682.89 562.456 1701.62 582.309 C 1716.71 562.333 1731.09 543.787 1743.8 522.148 C 1747.1 516.531 1756.91 499.239 1761.29 496.744 C 1771.5 498.367 1805.31 522.96 1816.57 529.31 C 1818.52 530.607 1824.26 535.48 1823.31 538.263 C 1809.38 578.914 1763.17 632.942 1736.76 663.046 C 1769.32 700.225 1803.4 739.05 1836.75 775.198 C 1858.46 770.313 1875.7 782.63 1866.32 805.218 C 1878.01 824.479 1877.86 845.28 1863.07 863.054 C 1855.09 872.726 1843.47 878.669 1830.96 879.473 C 1820.31 880.097 1809.99 876.992 1801.97 869.884 C 1789.57 872.4 1776.93 872.453 1773.08 857.105 C 1771.65 851.41 1772.35 848.37 1774.52 842.975 C 1751.94 819.84 1728.36 791.219 1706.27 767.239 C 1693.73 753.627 1681.27 737.685 1667.73 725.176 C 1657.89 734.188 1642.11 745.229 1630.96 753.409 C 1611.47 767.927 1590.8 780.805 1569.17 791.911 C 1550.02 779.727 1527.36 756.95 1522.5 734.164 C 1529.34 715.92 1542.75 713.763 1558.16 704.933 C 1573.68 696.046 1594.13 686.301 1607.07 674.062 C 1595.99 656.84 1569.99 628.401 1556 609.774 C 1536.67 634.149 1516.82 657.094 1497.28 681.09 C 1479.85 702.746 1462.78 724.683 1446.06 746.89 C 1450.55 756.051 1454.94 765.281 1458.48 774.946 C 1468.96 803.561 1484.98 913.035 1431.96 835.29 C 1418.23 815.145 1401.16 795.114 1386.83 774.738 C 1381.69 779.167 1376.66 783.984 1372.04 788.95 C 1345.11 817.86 1319.9 847.888 1291.72 875.623 C 1293.04 882.838 1292.55 889.303 1289.65 895.957 C 1285.41 905.682 1269.95 901.751 1264.52 904.904 C 1261.36 908.22 1256 915.686 1251.22 916.615 C 1223.87 921.932 1197.15 909.802 1188.17 882.065 C 1182.55 864.719 1184.69 855.646 1192.4 839.919 C 1187.32 818.175 1195.48 808.244 1217.05 809.287 C 1250.16 776.211 1284.87 737.42 1316.8 702.756 C 1297.06 685.91 1276.02 670.644 1253.88 657.101 C 1246.44 652.595 1226.32 643.244 1222.17 638.164 C 1220.74 626.025 1242.46 626.342 1250.61 624.856 C 1281.61 619.206 1308.23 627.247 1336.64 638.624 C 1383.2 597.145 1428.53 554.31 1472.58 510.174 C 1439.59 475.564 1408.6 436.594 1376.73 400.375 C 1354.64 375.268 1327.06 346.275 1308.8 318.679 C 1301.78 308.06 1291.54 279.134 1286.88 266.534 C 1276.69 238.749 1267.35 210.659 1258.87 182.305 C 1262.24 177.054 1262.89 176.106 1267.49 171.945 z" fill="rgb(82,26,26)" transform="translate(0,0)"></path>
<path d="M 1281.1 193.739 C 1299.02 202.267 1320.31 215.501 1338.25 225.271 C 1349.25 231.258 1383.32 248.578 1391.99 255.03 C 1397.64 259.235 1421.79 290.272 1428.82 298.244 C 1447.49 319.408 1466.43 341.216 1484.72 362.697 C 1534.04 420.942 1584.34 478.338 1635.62 534.862 C 1654.01 555.196 1672.52 576.672 1691.36 596.423 C 1681.47 607.324 1671.35 618.021 1661.02 628.507 C 1600.09 561.158 1540.06 492.991 1480.97 424.024 C 1461.1 400.556 1379.09 294.405 1362.55 285.594 C 1346.34 295.051 1358.91 303.747 1367.9 313.88 C 1398.25 348.073 1425.65 384.89 1454.95 419.983 C 1499.41 472.965 1544.99 524.997 1591.66 576.045 C 1605.28 591.022 1636.6 628.922 1649.39 639.339 C 1642.06 646.343 1629.65 656.717 1621.64 662.74 C 1600.62 638.046 1580.76 612.567 1560.05 587.628 C 1549.95 575.468 1539.26 563.985 1529.09 551.947 L 1438.91 445.412 L 1369.91 366.219 C 1358.42 353.096 1333.37 325.739 1325.87 312.446 C 1306.6 278.265 1292.89 231.275 1281.1 193.739 z" fill="rgb(245,243,232)" transform="translate(0,0)"></path>
<path d="M 1787.06 238.302 L 1787.39 240.107 C 1779.18 261.005 1771.16 281.978 1763.33 303.025 C 1761.21 308.788 1753.3 333.453 1750.8 336.852 C 1739.13 352.703 1722.7 370.212 1709.73 385.649 C 1680.28 420.693 1651.29 458.077 1620.38 491.645 C 1610.81 480.154 1601.53 469.82 1591.45 458.761 C 1581.26 446.203 1567.62 431.532 1556.75 419.156 C 1580.34 394.198 1604.31 369.606 1628.66 345.39 C 1644.47 329.493 1677.08 296.556 1689.77 279.135 C 1699.33 276.302 1717.12 267.747 1726.99 263.495 L 1787.06 238.302 z" fill="rgb(245,243,232)" transform="translate(0,0)"></path>
<path d="M 1711.11 309.796 C 1715.84 310.226 1723.43 314.861 1721.16 318.573 C 1705.12 344.797 1678.49 370.16 1658.21 393.165 C 1648.96 403.666 1627.45 432.891 1619.61 438.295 C 1610.15 437.293 1604.67 432.226 1611.39 423.15 C 1636.59 389.11 1666.22 358.518 1694.42 326.993 C 1699.66 321.142 1705 314.722 1711.11 309.796 z" fill="rgb(82,26,26)" transform="translate(0,0)"></path>
<path d="M 1482.2 524.666 C 1486.94 526.935 1504.62 548.45 1508.8 553.481 C 1498.72 565.026 1430.18 636.201 1428.57 643.826 C 1428.05 646.321 1428.34 648.83 1430.11 650.823 C 1431.77 652.691 1434 653.465 1436.46 653.35 C 1438.67 653.247 1440.48 651.981 1442.1 650.6 C 1449.2 644.526 1455.65 636.679 1462.07 629.842 C 1481.26 609.425 1499.52 587.408 1519.77 568.078 C 1528.77 576.814 1536.95 587.866 1544.67 597.839 C 1532.65 610.031 1510.44 636.998 1499.78 650.671 C 1478.6 678.555 1457.35 703.885 1435.91 731.243 C 1409.67 691.117 1393.34 674.275 1351.78 648.608 C 1371.54 627.659 1403.82 600.361 1425.99 579.165 C 1437.78 567.752 1449.47 556.241 1461.06 544.632 C 1467.19 538.543 1475.47 529.664 1482.2 524.666 z" fill="rgb(245,243,232)" transform="translate(0,0)"></path>
<path d="M 1765.21 516.31 C 1777.64 524.064 1791.87 532.823 1803.55 541.42 C 1799.43 551.329 1788.32 569.038 1782.06 578.451 C 1729.69 657.239 1657.56 719.631 1577.01 767.878 C 1576.38 768.279 1573.36 770.158 1572.95 770.192 C 1559.43 771.291 1543.51 744.442 1539.63 735.104 C 1557.08 723.453 1579.87 714.534 1599.82 701.001 C 1651.68 665.101 1696.99 620.564 1733.78 569.331 C 1746.34 552.114 1757.55 536.378 1765.21 516.31 z" fill="rgb(168,87,73)" transform="translate(0,0)"></path>
<path d="M 1724.04 675.581 C 1729.6 677.766 1812.97 772.683 1825.13 785.694 C 1812.52 800.065 1798.67 816.727 1785.45 830.117 C 1751.66 790.96 1716.26 753.37 1682.01 714.423 C 1696.14 701.495 1710.45 689.077 1724.04 675.581 z" fill="rgb(168,87,73)" transform="translate(0,0)"></path>
<path d="M 1328.8 715.613 C 1340.41 722.983 1365.26 748.367 1375.54 758.641 C 1365.29 769.287 1287.4 856.904 1283.92 858.398 C 1266.23 840.862 1254.98 831.041 1234.33 816.463 C 1243 806.798 1251.97 796.421 1261.22 787.334 C 1284.73 764.232 1306.36 739.726 1328.8 715.613 z" fill="rgb(168,87,73)" transform="translate(0,0)"></path>
<path d="M 1271.07 641.469 C 1283.32 640.767 1299.58 643.939 1310.99 648.459 C 1378.98 675.4 1439.08 741.118 1449 815.117 C 1449.51 818.924 1450.96 826.91 1450.29 830.367 L 1448.35 828.473 C 1402.78 764.589 1379.04 729.688 1316.94 680.204 C 1306.18 671.516 1295.13 663.194 1283.8 655.252 C 1278.35 651.47 1270.02 646.844 1265.43 643.177 L 1265.75 642.228 L 1271.07 641.469 z" fill="rgb(168,87,73)" transform="translate(0,0)"></path>
<path d="M 1208.43 826.136 C 1216.92 827.532 1225.84 831.077 1232.46 836.572 C 1243.96 846.127 1279.48 871.844 1273.25 888.506 C 1272.58 888.523 1271.56 888.559 1270.98 888.507 C 1263.73 887.854 1218.67 844.079 1211.62 835.94 C 1208.59 832.45 1208.05 830.741 1208.43 826.136 z" fill="rgb(245,243,232)" transform="translate(0,0)"></path>
<path d="M 1204.1 855.112 C 1207.87 856.562 1247.18 893.268 1248.92 896.687 L 1247.7 898.466 C 1240.42 900.199 1234.47 901.172 1227.25 898.883 C 1218.01 895.88 1210.38 889.261 1206.1 880.537 C 1202.39 873.079 1201.37 863.06 1204.1 855.112 z" fill="rgb(245,243,232)" transform="translate(0,0)"></path>
<path d="M 1853.64 817.694 C 1864.37 828.045 1856.09 847.185 1846.36 855.121 C 1836.7 863 1833.27 863.27 1821.72 862.855 C 1818.53 862.231 1818.56 862.258 1815.66 860.819 L 1815.31 859.354 C 1819.5 853.266 1846.8 825.127 1853.64 817.694 z" fill="rgb(245,243,232)" transform="translate(0,0)"></path>
<path d="M 1846.2 788.583 C 1847.42 788.911 1849.57 789.806 1850.83 790.285 C 1856.24 798.593 1802.64 847.652 1794.33 854.421 C 1790.1 853.417 1791.46 854.556 1789.31 851.896 C 1791.41 842.786 1836.64 796.886 1846.2 788.583 z" fill="rgb(245,243,232)" transform="translate(0,0)"></path>
<path d="M 1600.32 115.646 C 1601.74 115.765 1604.5 115.679 1604.98 116.561 C 1614.93 134.591 1650.65 204.08 1653.43 219.15 C 1651.87 223.195 1651.58 222.435 1647.66 225.621 C 1645.41 225.717 1645.79 225.628 1643.52 225.139 C 1635.33 218.048 1597.41 135.914 1594.74 122.005 C 1596.08 118.241 1596.73 118.68 1600.32 115.646 z" fill="rgb(82,26,26)" transform="translate(0,0)"></path>
<path d="M 1689.26 97.9953 C 1692.99 97.6245 1693.69 97.331 1697.21 98.8039 C 1705.03 106.711 1703.48 175.421 1704.9 190.368 C 1705.24 193.911 1702.81 195.793 1700.33 198.194 C 1691.58 200.004 1687.6 196.143 1687.54 187.645 C 1687.32 160.072 1685.18 132.539 1685.07 104.989 C 1685.06 101.836 1687.3 100.223 1689.26 97.9953 z" fill="rgb(82,26,26)" transform="translate(0,0)"></path>
<path d="M 1824.12 368.799 C 1833.36 369.206 1886.73 393.989 1889.49 401.928 C 1889.02 405.495 1888.19 406.169 1886.09 409.038 C 1872.06 409.621 1841.62 392.23 1827.98 385.755 C 1823.42 383.59 1821.41 381.161 1820.28 376.45 C 1820.83 372.482 1821.51 372.086 1824.12 368.799 z" fill="rgb(82,26,26)" transform="translate(0,0)"></path>
<path d="M 1889.67 311.469 C 1895.96 311.452 1905.66 314.09 1901.86 322.262 C 1892.36 329.801 1867.11 329.252 1853.25 330.407 C 1846.05 330.482 1842.63 329.292 1839.22 322.565 C 1839.45 309.628 1880.21 311.772 1889.67 311.469 z" fill="rgb(82,26,26)" transform="translate(0,0)"></path>
<metadata><recraft-signature>{"signed_by": "recraft", "signature_b64": "hqIkulSUGRSotkT3DnqsQh15gmToqYSRtsvynaAswKI6pIvWsY3ajgVFklGH+bK8N4zMu4+Zi0qjjMHVufKUAQ==", "signing_algo": "Ed25519", "generation_timestamp": 1781711140, "identifier": "5a0103ec-742e-4ab5-9f1f-e5674faf1165"}</recraft-signature></metadata></svg>