<svg xmlns="http://www.w3.org/2000/svg" height="1024" preserveAspectRatio="none" style="display: block;" version="1.1" viewBox="0 0 2048 2048" width="1024">
<path d="M 0 0 L 2048 0 L 2048 2048 L 0 2048 L 0 0 z" fill="rgb(245,244,234)" transform="translate(0,0)"></path>
<path d="M 669.01 371.128 C 712.327 368.223 759.744 415.712 786.58 446.458 C 870.859 543.018 919.545 675.173 936.414 801.096 C 949.137 896.065 949.168 998.499 926.918 1091.82 C 918.541 1126.01 897.521 1189.48 850.615 1178.41 C 818.233 1170.76 785.634 1136.58 756.877 1119.89 C 725 1101.38 691.343 1084.5 657.685 1069.38 C 507.362 1004.66 308.199 998.037 146.966 1016.6 C 148.664 1024.38 150.05 1032.23 151.766 1040.01 C 169.378 1119.84 271.423 1101.94 330.799 1105.8 C 335.398 1095.86 341.486 1087.8 351.974 1083.51 C 360.721 1079.95 370.531 1080.05 379.198 1083.8 C 389.103 1088.23 396.848 1096.41 400.731 1106.54 C 404.326 1116.23 403.856 1126.96 399.427 1136.3 C 392.897 1150.22 381.408 1156.62 367.76 1161.32 L 375.978 1161.01 C 396.237 1160.05 413.835 1180.89 429.622 1187.87 C 462.842 1202.54 498.542 1212.56 531.778 1227.79 C 532.483 1271.78 535.463 1318.77 537.791 1362.75 L 544.08 1487.42 C 566.619 1512.56 588.833 1537.98 610.717 1563.69 C 619.635 1574.39 634.465 1590.29 641.404 1601.58 C 630.772 1604.68 613.194 1608.06 601.837 1610.58 C 575.602 1616.48 549.311 1622.12 522.969 1627.52 L 349.582 1664 C 322.368 1669.87 293.302 1675.66 266.391 1682.21 C 260.041 1678.63 245.233 1667.34 238.724 1662.59 C 218.008 1647.53 197.495 1632.19 177.189 1616.59 L 90.792 1551.62 C 79.6454 1543.13 68.088 1535.17 57.2741 1526.28 C 62.4199 1518.43 72.0203 1508.52 78.262 1501.23 C 97.099 1479.21 118.018 1459.27 136.756 1437.23 C 137.488 1356.8 145.015 1273.4 145.855 1193.18 C 166.979 1190.73 206.09 1190.21 227.701 1189.98 C 228.008 1181.89 228.656 1176.78 230.7 1169.09 C 243.828 1168.97 257.109 1168.64 270.247 1168.88 C 285.976 1169.17 286.307 1173.5 286.078 1187.13 L 302.23 1186.79 C 302.985 1178.29 302.797 1168.26 302.849 1159.62 C 249.548 1161.12 191.352 1164.94 145.513 1134.44 C 103.379 1106.4 97.9866 1070.63 88.7298 1023.83 C 83.8006 1024.59 72.7264 1027.05 68.4651 1023.75 C 63.5892 1019.97 50.4375 973.225 54.9231 970.443 C 78.6768 955.709 105.605 943.795 129.331 928.966 C 170.184 903.066 209.694 875.106 247.709 845.195 C 371.93 748.93 505.323 657.753 585.14 519.064 C 598.95 495.241 610.89 470.382 620.854 444.711 C 631.973 415.28 634.791 380.298 669.01 371.128 z" fill="rgb(165,61,36)" transform="translate(0,0)"></path>
<path d="M 512.515 1241.44 C 514.804 1240.91 513.913 1240.94 516.241 1241.58 C 517.191 1245.04 517.603 1260.19 517.818 1264.57 L 520.178 1311.59 C 523.046 1366.94 528.142 1431.41 528.984 1486.34 C 453.606 1496.04 379.005 1509.9 304.116 1521.13 C 300.851 1521.28 292.487 1522.53 288.93 1522.97 C 288.945 1510.96 290.647 1494.25 291.393 1481.96 C 292.593 1460.09 293.655 1438.21 294.577 1416.33 C 296.776 1367.09 297.27 1312.97 301.074 1264.47 C 370.85 1258.02 442.6 1248.71 512.515 1241.44 z" fill="rgb(245,244,234)" transform="translate(0,0)"></path>
<path d="M 533.995 1500.45 C 540.401 1502.19 606.591 1581.99 614.541 1592.62 C 591.01 1597.17 568.768 1602.71 545.49 1607.52 C 478.016 1621.24 410.618 1635.34 343.3 1649.81 C 321.185 1654.74 299.005 1659.37 276.766 1663.71 C 282.142 1623.25 282.578 1579.73 287.255 1538.47 C 306.11 1536.18 325.01 1532.32 343.857 1529.52 L 533.995 1500.45 z" fill="rgb(245,244,234)" transform="translate(0,0)"></path>
<path d="M 161.074 1213.35 C 171.497 1216.27 192.433 1226.12 203.344 1230.53 C 230.856 1241.67 258.303 1253.79 286.213 1264.01 L 274.6 1517.67 L 273.885 1518.57 C 268.546 1518.68 163.005 1444.62 152.001 1436.37 C 153.727 1414.59 153.563 1389.32 154.61 1367.23 C 157.036 1316.11 157.918 1264.41 161.074 1213.35 z" fill="rgb(245,244,234)" transform="translate(0,0)"></path>
<path d="M 753.142 437.45 C 756.573 439.381 765.584 450.381 768.691 453.781 C 796.813 484.549 823.369 522.138 842.013 559.561 C 825.052 623.855 783.98 678.364 733.564 720.66 C 725.206 727.718 720.707 730.587 711.042 735.494 C 691.663 720.262 683.916 715.277 662.343 704.998 C 661.111 697.674 660.343 691.456 659.577 684.059 C 720.899 624.297 751.308 521.286 753.142 437.45 z" fill="rgb(245,244,234)" transform="translate(0,0)"></path>
<path d="M 852.05 579.539 C 871.942 605.777 904.639 714.717 909.658 746.998 C 884.28 778.831 816.803 803.138 776.756 811.355 C 766.058 813.435 755.236 814.82 744.358 815.5 C 739.847 784.806 735.627 772.574 720.548 746.354 C 730.371 739.763 745.337 729.826 754.215 722.078 C 785.054 695.164 813.014 660.127 832.348 624.1 C 838.948 611.802 846.65 592.479 852.05 579.539 z" fill="rgb(245,244,234)" transform="translate(0,0)"></path>
<path d="M 628.442 710.88 C 631.106 712.825 637.528 749.373 639.006 755.408 C 642.467 769.542 646.211 784.12 649.835 798.22 C 593.514 816.934 538.218 836.794 482.07 856.025 C 388.043 888.803 293.243 919.324 197.754 947.561 C 191.62 949.913 187.035 952.58 180.702 950.897 L 180.418 949.308 C 183.032 946.27 186.927 943.513 190.563 941.844 C 247.815 915.555 306.45 890.174 362.586 861.57 C 423.48 830.65 483.462 797.97 542.46 763.569 C 564.835 750.419 587.524 737.265 609.219 723.027 C 615.609 718.832 621.886 714.815 628.442 710.88 z" fill="rgb(245,244,234)" transform="translate(0,0)"></path>
<path d="M 912.801 764.953 L 913.611 765.869 C 923.047 805.469 932.149 921.34 928.138 963.432 C 886.353 934.781 860.255 919.846 810.761 905.461 C 785.879 899.482 760.614 895.224 735.147 892.717 C 741.884 869.629 746.309 854.598 747.032 830.291 C 805.05 825.474 868.611 803.46 912.801 764.953 z" fill="rgb(245,244,234)" transform="translate(0,0)"></path>
<path d="M 652.159 813.003 C 653.582 813.14 652.706 812.955 654.653 813.999 C 660.396 842.828 667.501 867.323 675.52 895.694 C 633.851 898.434 587.527 906.558 546.154 912.306 C 462.547 923.91 379.125 936.815 295.92 951.016 C 265.002 956.32 234.286 962.622 203.217 967.929 C 197.826 969.011 187.25 971.878 182.91 967.757 C 188.001 962.851 273.984 941.444 288.724 936.736 C 371.354 910.344 453.775 882.195 535.717 853.748 C 574.556 840.264 613.041 825.662 652.159 813.003 z" fill="rgb(245,244,234)" transform="translate(0,0)"></path>
<path d="M 143.679 1450.59 C 153.492 1455.6 178.777 1474.46 189.687 1481.91 C 216.913 1500.52 244.422 1517.57 271.763 1535.7 C 269.424 1576.03 264.383 1621.4 262.943 1660.71 C 253.331 1653.41 241.462 1645.5 231.457 1638.47 L 135.397 1566.52 C 116.515 1552.13 98.2398 1537.38 78.8494 1523.66 C 99.7779 1499.55 124.399 1475.63 143.679 1450.59 z" fill="rgb(245,244,234)" transform="translate(0,0)"></path>
<path d="M 729.004 905.755 C 743.045 908.138 756.706 909.539 770.988 912.133 C 826.933 922.297 886.345 944.521 926.201 986.668 C 922.122 1032.47 914.633 1077.81 899.17 1121.25 C 896.087 1128.55 893.33 1134.26 889.722 1141.33 C 883.05 1126.56 878.089 1108.51 871.285 1093.16 C 841.957 1026.96 797.062 967.303 728.263 939.435 C 725.731 932.391 723.609 924.206 721.549 916.923 C 724.067 913.409 726.599 909.392 729.004 905.755 z" fill="rgb(245,244,234)" transform="translate(0,0)"></path>
<path d="M 227.792 978.257 C 267.64 970.458 314.224 963.414 354.369 956.904 C 432.757 943.707 511.338 931.678 590.085 920.822 C 619.822 916.568 650.384 913.083 679.887 908.51 C 688.644 939.928 700.667 970.709 710.701 1001.71 C 586.49 970.748 452.227 968.759 324.821 975.182 C 297.167 976.576 261.248 977.285 234.227 980.442 C 231.747 980.015 230.097 979.205 227.792 978.257 z" fill="rgb(245,244,234)" transform="translate(0,0)"></path>
<path d="M 674.051 391.208 C 695.83 389.676 722.44 409.896 738.015 423.51 C 739.079 505.951 722.174 566.063 680.001 636.576 C 673.178 647.424 665.601 657.779 657.325 667.563 C 652.571 640.413 649.92 607.182 647.589 579.466 C 646.849 570.671 653.891 547.492 655.499 536.893 C 659.715 509.104 661.35 481.499 660.865 453.357 C 660.776 438.547 657.684 412.593 663.229 398.744 C 664.833 394.739 670.164 392.477 674.051 391.208 z" fill="rgb(245,244,234)" transform="translate(0,0)"></path>
<path d="M 612.594 611.693 C 613.488 612.564 613.992 613.737 614.129 614.957 C 617.19 642.108 622.55 668.611 627.578 695.473 C 607.939 706.139 589.712 718.638 570.557 730.149 C 534.441 751.841 497.908 772.83 460.978 793.105 C 379.906 837.161 296.787 877.24 213.143 916.093 C 203.961 920.357 194.816 924.893 185.719 929.34 C 181.937 931.222 179.288 932.935 175.093 933.348 C 176.587 930.643 250.681 891.579 258.609 886.983 C 278.87 874.988 298.828 862.488 318.464 849.494 C 392.504 801.704 463.323 749.101 530.463 692.023 C 558.993 667.51 589.002 641.202 612.594 611.693 z" fill="rgb(245,244,234)" transform="translate(0,0)"></path>
<path d="M 122.746 1019.36 L 132.366 1018.47 C 136.144 1041.11 142.26 1071.3 159.792 1087.8 C 200.968 1126.56 264.495 1118.95 316.322 1119.83 C 325.521 1119.99 334.477 1120.11 343.596 1120.09 C 346.125 1111.86 349.078 1102.55 357.067 1098.5 C 374.858 1089.49 393.541 1112.6 385.364 1129.23 C 380.855 1138.41 373.943 1141.73 365.187 1144.87 C 357.691 1142.23 342.825 1135.94 342.638 1149.39 C 342.473 1161.32 339.077 1188.83 346.326 1198.16 C 351.359 1200.26 403.119 1197.61 413.633 1197.74 C 413.926 1203.33 413.611 1208.25 413.328 1213.81 C 406.684 1214.79 401.144 1214.9 394.444 1215.14 C 388.08 1215.68 381.736 1215.83 375.36 1216.13 C 334.392 1218.02 293.7 1221.28 252.686 1222.65 C 252.238 1217.19 252.239 1210.51 252.11 1204.92 C 265.151 1204.68 306.992 1204.12 316.356 1198.15 C 319.731 1193.11 317.343 1158.86 317.013 1150.3 C 316.758 1143.67 309.667 1143.21 304.104 1143.52 C 255.041 1146.23 200.265 1149.32 156.575 1122.88 C 117.603 1099.93 113.592 1063.65 103.833 1022.52 C 109.523 1021.21 116.833 1020.27 122.746 1019.36 z" fill="rgb(245,244,234)" transform="translate(0,0)"></path>
<path d="M 736.371 960.6 C 742.842 962.812 750.101 967.388 756.084 971.413 C 818.845 1013.64 855.201 1080.57 875.654 1151.62 C 876.504 1154.58 875.201 1155.96 873.649 1158.11 C 862.052 1164.79 847.933 1161.49 837.43 1154.07 C 793.416 1122.97 775.882 1062.81 756.212 1015.17 C 749.831 999.711 739.862 976.027 736.371 960.6 z" fill="rgb(245,244,234)" transform="translate(0,0)"></path>
<path d="M 210.839 896.075 C 287.457 846.974 360.618 792.677 429.808 733.567 C 498.353 675.157 564.174 616.977 609.118 537.167 C 608.924 556.472 610.253 570.8 612.17 590.072 C 577.32 639.73 480.329 715.78 430.316 753.352 C 361.176 805.916 288.74 853.997 213.453 897.301 L 210.839 896.075 z" fill="rgb(245,244,234)" transform="translate(0,0)"></path>
<path d="M 421.092 987.071 C 522.07 987.547 618.111 993.941 716.486 1018.4 C 726.147 1041.95 735.96 1062.62 746.967 1085.59 C 661.117 1028.82 564.336 1003.39 462.606 993.504 C 448.153 992.098 428.972 990.137 414.592 989.933 L 413.715 988.921 L 414.13 988.158 L 421.092 987.071 z" fill="rgb(245,244,234)" transform="translate(0,0)"></path>
<path d="M 156.751 930.888 C 158.68 932.802 174.333 989.656 176.393 996.611 C 153.471 998.095 112.738 1005.01 88.7645 1008.26 L 78.0899 1009.78 C 75.9428 1000.13 72.1698 989.544 69.0587 980.056 C 97.7526 963.503 127.779 947.206 156.751 930.888 z" fill="rgb(245,244,234)" transform="translate(0,0)"></path>
<path d="M 427.986 1204.51 C 446.665 1209.97 475.809 1221.38 493.945 1228.64 C 473.276 1232.3 445.046 1234.45 423.818 1236.59 L 328.031 1246.71 C 289.575 1249.58 299.873 1253.49 261.498 1237.52 C 293.822 1236 326.138 1234.3 358.444 1232.42 C 380.671 1231.15 405.779 1229.85 427.68 1226.58 L 427.986 1204.51 z" fill="rgb(245,244,234)" transform="translate(0,0)"></path>
<path d="M 713.308 770.787 C 715.348 773.075 721.088 786.589 722.298 789.723 C 733.777 819.461 725.238 860.592 712.069 888.567 C 708.352 883.497 698.65 857.835 695.969 850.988 C 708.442 819.804 711.525 804.077 713.308 770.787 z" fill="rgb(245,244,234)" transform="translate(0,0)"></path>
<path d="M 667.004 728.536 C 676.526 732.202 687.07 737.625 694.328 744.888 C 702.385 768.823 698.821 796.526 692.227 820.268 L 689.731 826.482 L 688.609 826.638 C 679.776 804.693 672.758 754.907 667.004 728.536 z" fill="rgb(245,244,234)" transform="translate(0,0)"></path>
<path d="M 210.331 1204.53 C 238.54 1202.42 237.108 1202.95 237.314 1229.3 L 220.537 1221.99 C 207.921 1216.2 195.126 1211.48 182.574 1205.34 L 210.331 1204.53 z" fill="rgb(245,244,234)" transform="translate(0,0)"></path>
<path d="M 357.986 1158.67 C 361.225 1159.12 364.1 1159.19 366.869 1160.82 C 363.95 1165.39 362.784 1164.5 362.414 1168.86 C 366.003 1175.54 373.55 1177.2 380.947 1180.21 L 384.077 1181.92 C 380.634 1183.84 363.496 1183.89 358.307 1184.06 L 357.986 1158.67 z" fill="rgb(245,244,234)" transform="translate(0,0)"></path>
<path d="M 244.21 1184.56 C 251.268 1184.06 263.023 1182.51 269.421 1184.79 C 271.033 1187.55 270.767 1186.07 269.921 1189.43 L 267.249 1190.07 C 260.031 1190.23 248.107 1192.16 241.855 1189.66 C 240.427 1187.01 240.657 1188.41 241.403 1185.29 L 244.21 1184.56 z" fill="rgb(245,244,234)" transform="translate(0,0)"></path>
<path d="M 234.227 980.442 C 228.273 981.208 193.454 986.149 190.557 985.316 C 196.998 981.617 219.613 979.316 227.792 978.257 C 230.097 979.205 231.747 980.015 234.227 980.442 z" fill="rgb(253,235,219)" transform="translate(0,0)"></path>
<path d="M 384.302 988.332 C 396.261 987.626 409.197 986.523 421.092 987.071 L 414.13 988.158 L 413.715 988.921 L 414.592 989.933 C 403.29 990.177 395.395 990.417 384.302 988.332 z" fill="rgb(221,157,133)" transform="translate(0,0)"></path>
<path d="M 187.279 910.118 C 195.046 905.183 202.886 900.686 210.839 896.075 L 213.453 897.301 C 204.293 903.016 197.344 906.434 187.279 910.118 z" fill="rgb(221,157,133)" transform="translate(0,0)"></path>
<path d="M 1892.58 689.057 C 1902.1 688.863 1906.49 703.605 1908.74 711.324 C 1915.04 732.925 1914.8 753.41 1903.73 773.44 C 1899.08 773.973 1894.42 774.466 1889.75 774.921 C 1889.73 804.246 1889.39 834.45 1890.24 863.681 C 1907.93 862.549 1913.73 860.089 1913.32 879.729 C 1939.37 887.514 1965.6 897.795 1991.44 906.455 C 1994.89 907.612 1999.97 910.969 2001.32 914.559 C 1999.77 922.115 1960.25 975.191 1953.8 984.16 C 1953.01 1033.59 1954.99 1086.76 1954.74 1137.16 C 1954.44 1175.33 1954.35 1213.51 1954.47 1251.68 C 1954.34 1279.76 1953.72 1310.75 1954.9 1338.73 C 1959.14 1344.09 1966.91 1356.78 1971.09 1363.12 C 1981.65 1379.03 1992.1 1395.01 2002.44 1411.06 C 1972.27 1425.42 1927.27 1452.48 1896.79 1469.61 L 1687.71 1588.24 C 1669.21 1598.82 1650.76 1609.51 1632.37 1620.28 C 1620.03 1627.58 1604.11 1637.73 1591.4 1643.6 C 1567.13 1629.12 1522.03 1610 1495.25 1597.06 C 1441.13 1570.91 1386.09 1543.48 1331.71 1518.11 L 1278.96 1493.52 C 1266.03 1487.49 1251.97 1481.37 1239.97 1473.8 C 1243.58 1464.14 1249.78 1452.95 1254.6 1443.62 C 1263.35 1427.33 1271.69 1410.62 1280.93 1394.62 L 1281.22 1193.92 C 1281.69 1129.57 1281.73 1065.22 1281.34 1000.88 C 1277.51 999.674 1273.33 998.649 1269.43 997.605 C 1261.69 990.062 1254.2 980.741 1246.64 972.723 C 1234.9 960.259 1221.16 947.671 1211.3 933.725 C 1225.73 926.495 1273.65 911.811 1292.4 905.517 C 1287.83 894.053 1285.76 881.584 1293.72 870.818 C 1314.7 842.421 1354.51 832.033 1387.12 823.749 C 1411.7 817.503 1436.89 815.196 1461.92 811.964 C 1568.94 800.549 1683.33 803.257 1786.83 835.235 C 1807.79 841.71 1831.48 847.855 1850.21 859.377 C 1849.85 831.421 1849.99 804.065 1849.25 776.036 C 1829.44 776.446 1806.54 778.506 1786.2 779.396 C 1742.5 781.346 1698.77 782.703 1655.04 783.468 C 1635.76 783.889 1615.91 784.782 1596.63 785.034 C 1592.69 785.085 1588.02 783.962 1585.23 780.87 C 1584.6 775.019 1590.12 772.262 1595.2 771.126 C 1695.97 748.597 1793.54 717.862 1892.58 689.057 z" fill="rgb(165,61,36)" transform="translate(0,0)"></path>
<path d="M 1936.04 990.196 L 1936.79 990.883 C 1939.63 999.475 1940.23 1326.2 1937.9 1341.42 C 1911.43 1358.22 1872.85 1377.27 1844.57 1393.1 C 1792.34 1422.15 1740.35 1451.64 1688.61 1481.56 C 1660.63 1497.57 1633.07 1512.7 1605.42 1529.41 C 1604.35 1529.92 1605.01 1529.77 1603.38 1529.37 C 1602.34 1524.06 1602.97 1499.2 1602.98 1491.87 L 1603.15 1406.77 L 1602.94 1103.84 C 1617.47 1097.07 1636.84 1090.9 1652.26 1085.6 L 1749.84 1053.04 L 1871.36 1011.62 C 1890.94 1004.97 1916.87 995.405 1936.04 990.196 z" fill="rgb(245,244,234)" transform="translate(0,0)"></path>
<path d="M 1697.05 1124.13 L 1699.78 1125.65 C 1702.38 1130.21 1702.64 1134.82 1703.46 1140.07 C 1698.11 1142.36 1691.62 1144.09 1685.98 1145.79 C 1686.12 1177.21 1692.45 1413.06 1695.39 1419.2 C 1700.75 1422.58 1702.57 1422.34 1701.47 1428.55 C 1698.74 1432.95 1656.97 1450.74 1648.52 1455.08 L 1638.99 1459.98 C 1640.84 1440.99 1641.03 1413.47 1641.6 1393.88 L 1644.84 1281.39 L 1646.94 1195.7 C 1647.1 1187.38 1648.34 1168.71 1646.75 1161.9 C 1644.06 1161.2 1641.59 1160.71 1638.88 1160.17 C 1635.08 1156.82 1633.47 1150.26 1635.91 1145.69 C 1641.17 1142.81 1689.98 1126.11 1697.05 1124.13 z" fill="rgb(165,61,36)" transform="translate(0,0)"></path>
<path d="M 1797.61 1077.16 C 1800.11 1079.7 1803.04 1085.16 1802.76 1088.81 C 1799.72 1095.09 1794.56 1095.83 1787.91 1098.22 C 1787.85 1138.24 1790.7 1179.31 1792.24 1219.41 L 1796.2 1321.96 C 1796.43 1328.07 1796.01 1357.11 1798.16 1361.01 C 1802.54 1362.3 1803.98 1362.43 1807.54 1365.07 C 1808.85 1368.31 1808.74 1366.69 1807.87 1370.08 C 1800.21 1376.72 1759.52 1395.18 1748.24 1400.56 L 1745.86 1401.6 L 1744.48 1400.91 C 1743.31 1396.86 1744.6 1372.26 1744.75 1366.78 L 1748.34 1256.29 C 1749.66 1208.31 1750.54 1160.31 1750.99 1112.32 C 1744.23 1114.52 1740.37 1117.22 1734.68 1112.26 C 1732.98 1108.15 1732.07 1104.61 1733.76 1100.3 C 1739 1097.35 1750.87 1093.71 1757.07 1091.53 L 1797.61 1077.16 z" fill="rgb(165,61,36)" transform="translate(0,0)"></path>
<path d="M 1904.72 1036.03 C 1908.02 1035.96 1906.44 1035.62 1909.53 1037.43 C 1912.01 1041.45 1912.07 1045.75 1912.72 1050.55 C 1906.65 1053.24 1901.1 1054.91 1894.8 1056.92 C 1895.81 1064.97 1896.39 1073.03 1896.87 1081.13 C 1901.4 1158.06 1901.56 1235.16 1904.96 1312.14 C 1909.01 1314.18 1911.79 1314.85 1912.76 1319.43 C 1909.99 1323.6 1864.23 1344.26 1855.26 1348.57 C 1853.4 1349.55 1854.4 1349.34 1852.24 1349.13 C 1849.69 1341.41 1861.65 1099.01 1862.03 1070.01 C 1855.85 1071.48 1852.58 1073.25 1847.38 1070.15 C 1844.9 1066.43 1844.43 1062.13 1843.47 1057.67 C 1860.05 1050.61 1886.49 1042.84 1904.72 1036.03 z" fill="rgb(165,61,36)" transform="translate(0,0)"></path>
<path d="M 1298.14 1006 C 1360.58 1024.81 1422.51 1046.26 1484.55 1066.4 C 1518.4 1077.38 1552.04 1089.85 1586.1 1099.91 C 1587.66 1114.58 1587.14 1140.39 1587.13 1155.78 L 1586.69 1258.78 L 1586.88 1452.09 C 1586.83 1478.59 1587.26 1506.39 1586.61 1532.76 C 1570.41 1525.78 1555.35 1517.78 1539.52 1510.11 C 1512.69 1497.39 1485.97 1484.45 1459.37 1471.28 C 1406.06 1445.25 1352.45 1419.85 1298.55 1395.07 C 1297.67 1380.2 1298.16 1360.62 1298.15 1345.41 L 1298.29 1255.79 C 1298.68 1172.53 1298.63 1089.26 1298.14 1006 z" fill="rgb(245,244,234)" transform="translate(0,0)"></path>
<path d="M 1481.79 1100.33 C 1494.41 1105.33 1539.48 1119.72 1546.73 1125.31 C 1548.82 1129.93 1548.54 1135.86 1544.68 1139.41 C 1540.92 1140.28 1536.85 1138.45 1533.02 1137.25 C 1532.6 1217.33 1536.26 1298.01 1536.77 1378.12 C 1536.92 1402.59 1536.47 1427.58 1537.97 1451.95 C 1543.21 1454.12 1551.37 1456.05 1549.6 1462.92 C 1546.99 1466.16 1544.24 1466.98 1540.38 1468.79 C 1539.69 1469.18 1539.33 1469.44 1538.51 1469.65 C 1534.6 1470.61 1473.82 1440.59 1466.53 1436.16 C 1471.72 1412.96 1471.94 1426.23 1479.68 1422.34 C 1481.55 1412.37 1481.44 1396.48 1481.72 1385.89 L 1483.29 1328.06 C 1485.24 1260.82 1487.97 1188.88 1488.06 1121.65 C 1475.52 1115.49 1477.64 1111.86 1481.79 1100.33 z" fill="rgb(165,61,36)" transform="translate(0,0)"></path>
<path d="M 1341.61 1049.66 C 1366.24 1058.93 1393.54 1067.59 1417.5 1077.58 C 1417.13 1083.09 1416.03 1087.12 1414.76 1092.43 L 1402.3 1089.93 C 1400.92 1122.36 1403.59 1170.13 1404.34 1203.37 L 1408.37 1392.35 C 1413.62 1396.36 1419.99 1399.61 1416.99 1407.13 C 1413.99 1409.08 1414.25 1409.09 1410.71 1409.25 C 1389.87 1400.37 1368.84 1389.18 1348.19 1379.67 C 1338.25 1375.09 1336.11 1363.97 1350.76 1363.11 L 1351.9 1363.05 C 1356.16 1356.87 1361 1107.03 1361.14 1075.03 C 1353.18 1071.18 1345.19 1067.4 1337.16 1063.7 L 1341.61 1049.66 z" fill="rgb(165,61,36)" transform="translate(0,0)"></path>
<path d="M 1946.15 1354.92 C 1949.8 1356.65 1975.72 1398.47 1979.28 1404.92 C 1950.28 1422.43 1921.3 1437.92 1891.87 1454.57 L 1715.09 1554.3 C 1684.3 1571.64 1654.1 1587.95 1623.5 1605.86 C 1616.55 1610.18 1609.03 1614.16 1601.84 1618.12 C 1601.19 1596.51 1601.62 1572.29 1601.58 1550.51 C 1615.48 1543.09 1630.24 1533.87 1644.13 1526.01 L 1784.31 1446.01 L 1881.04 1391.22 C 1902.78 1379.19 1925.07 1368.12 1946.15 1354.92 z" fill="rgb(245,244,234)" transform="translate(0,0)"></path>
<path d="M 1915.16 897.521 C 1927.37 900.449 1953.85 911.444 1965.87 916.263 C 1839.16 955.45 1712.88 996.018 1587.05 1037.96 C 1501.53 1010.4 1415.62 984.054 1329.35 958.922 C 1312.78 954.172 1268.92 939.978 1254.45 938.354 C 1269.47 931.523 1290.65 924.652 1306.63 919.052 C 1377.48 958.575 1481.2 968.674 1561.21 969.554 C 1635.46 970.37 1715.11 964.242 1785.94 941.009 C 1801.48 935.909 1810.53 927.242 1824.37 921.071 C 1826.81 923.795 1827.4 924.368 1830.22 926.678 C 1843.8 929.746 1900.19 925.333 1912.28 918.825 C 1916.42 914.517 1915.2 903.812 1915.16 897.521 z" fill="rgb(245,244,234)" transform="translate(0,0)"></path>
<path d="M 1291.32 1410.69 C 1361.89 1443.06 1431.98 1476.48 1501.56 1510.92 C 1529.07 1524.22 1558.23 1536.75 1585.24 1550.8 C 1586.76 1570.26 1585.95 1600.68 1585.9 1621.22 C 1579.04 1618.1 1572.08 1614.71 1565.25 1611.47 C 1487.95 1576.17 1412.74 1537.08 1335.57 1501.64 C 1310.64 1490.19 1285.69 1478.06 1261.12 1465.85 C 1271.42 1446.84 1281.46 1430.46 1291.32 1410.69 z" fill="rgb(245,244,234)" transform="translate(0,0)"></path>
<path d="M 1970.95 931.102 L 1971.5 931.498 C 1971.7 934.418 1949.78 963.225 1946.07 968.211 C 1917.87 976.676 1887.83 988.972 1859.5 998.316 C 1812.59 1013.79 1765.06 1028.58 1718.72 1045.53 C 1679.71 1059.8 1637.31 1070.59 1599.51 1087.28 C 1598.56 1075.78 1597.69 1064.28 1596.9 1052.77 L 1970.95 931.102 z" fill="rgb(245,244,234)" transform="translate(0,0)"></path>
<path d="M 1253.99 953.807 C 1279.04 960.76 1307.04 970.111 1332.32 977.757 L 1454.17 1014.17 C 1495.9 1027.26 1537.74 1040 1579.68 1052.38 C 1581.08 1060.91 1581.6 1072.41 1582.05 1081.12 C 1558.94 1073.97 1535.7 1064.84 1512.57 1057.08 C 1436.03 1031.37 1358.22 1008.51 1282.14 981.685 C 1276.14 979.57 1258.36 959.218 1253.99 953.807 z" fill="rgb(245,244,234)" transform="translate(0,0)"></path>
<path d="M 1888.6 706.941 L 1890.05 707.064 C 1902.1 714.53 1899.04 743.574 1896.43 755.601 C 1880.85 759.131 1847.03 760.122 1829.63 761.01 L 1688.25 766.924 C 1683.03 766.983 1677.14 767.435 1671.88 767.718 C 1693.06 760.934 1729.45 752.475 1752.13 746.433 C 1797.94 734.419 1843.45 721.251 1888.6 706.941 z" fill="rgb(245,244,234)" transform="translate(0,0)"></path>
<path d="M 1553.92 858.42 C 1570.69 856.896 1587.5 859.004 1603.56 861.603 C 1634.58 866.624 1640.52 885.847 1606.75 894.005 C 1591.64 897.655 1580.38 898.82 1564.75 899.337 C 1549.35 899.864 1495.96 897.622 1489.42 880.431 C 1489.48 863.072 1540.62 859.355 1553.92 858.42 z" fill="rgb(245,244,234)" transform="translate(0,0)"></path>
<path d="M 1554.99 867.291 C 1562.67 866.721 1579.25 866.363 1580.45 876.912 C 1578.2 880.605 1574.72 882.106 1570.75 883.448 C 1568.02 883.59 1565.29 883.663 1562.55 883.668 C 1556.64 883.643 1550.94 881.55 1546.76 877.317 C 1544.4 870.693 1549.7 869.293 1554.99 867.291 z" fill="rgb(165,61,36)" transform="translate(0,0)"></path>
<path d="M 1889.68 881.391 C 1892.73 881.11 1893.81 880.793 1896.75 881.769 C 1900.65 886.272 1899.19 900.668 1899.26 907.554 C 1880.3 910.909 1858.46 910.855 1839.16 911.13 L 1838.91 900.25 L 1838.47 882.991 C 1843.29 882.921 1858.77 882.017 1861.65 884.367 C 1853.81 900.686 1867.11 908.752 1879.52 897.739 C 1882.93 894.711 1888.7 885.84 1889.68 881.391 z" fill="rgb(245,244,234)" transform="translate(0,0)"></path>
<path d="M 1863.83 774.963 C 1867.17 774.799 1870.58 774.101 1873.19 775.833 C 1874.22 782.043 1873.82 800.55 1873.84 807.622 C 1873.77 829.833 1873.93 852.043 1874.33 874.25 C 1874.42 878.698 1875.06 880.102 1872.71 882.542 C 1869.29 883.201 1867.26 883.775 1863.73 883.571 C 1865.4 868.235 1864.81 850.809 1864.61 835.218 L 1863.83 774.963 z" fill="rgb(245,244,234)" transform="translate(0,0)"></path>
<metadata><recraft-signature>{"signed_by": "recraft", "signature_b64": "M2Sfh0x3lg4pwdcGb+GEUEl604Hleuii0VTbqr5CnvlFfQR6/Qwy6oIFzh8Xs9+NKdVHnUodm6GSNyfzyBh2Aw==", "signing_algo": "Ed25519", "generation_timestamp": 1781711190, "identifier": "f6d0c10d-54a6-47a5-bfcb-b3465ad2858f"}</recraft-signature></metadata></svg>