<svg xmlns="http://www.w3.org/2000/svg" height="1024" preserveAspectRatio="none" style="display: block;" version="1.1" viewBox="0 0 2048 2048" width="1024">
<path d="M 0 0 L 2048 0 L 2048 2048 L 0 2048 L 0 0 z" fill="rgb(250,249,240)" transform="translate(0,0)"></path>
<path d="M 1345.38 193.451 C 1448.61 192.488 1547.71 233.301 1628.32 296.638 C 1649.04 312.916 1667.59 333.793 1687.03 351.371 C 1840.96 354.449 1957.17 483.487 1968.74 631.636 C 1976.35 728.992 1943.5 804.465 1882.5 877.805 C 1891.12 918.27 1896.77 950.219 1897.09 991.745 C 1898.28 1088.2 1861.11 1181.18 1793.77 1250.24 C 1728.16 1316.78 1647.41 1350.36 1554.08 1351.14 C 1480.78 1351.7 1410.21 1323.38 1357.63 1272.31 C 1338.65 1271.98 1321.75 1278.12 1303.46 1282.71 C 1255.89 1294.61 1210.4 1293.15 1163.83 1278.46 C 1054.97 1244.11 1015.42 1130.17 1036.07 1025.74 C 1039.38 1009.03 1044.66 993.611 1049.95 977.353 C 1041.54 966.736 1027.84 955.424 1017.23 942.059 C 978.299 892.96 955.507 833.017 951.984 770.453 C 948.428 701.989 968.006 628.409 1011.95 575.349 C 1027.54 556.523 1043.62 545.964 1051.86 521.935 C 1059.47 499.716 1056.79 479.206 1057.05 455.95 C 1057.11 395.168 1079.72 336.572 1120.52 291.512 C 1178.2 227.839 1261.16 197.414 1345.38 193.451 z" fill="rgb(158,29,24)" transform="translate(0,0)"></path>
<path d="M 1328.58 203.413 C 1331.97 202.959 1341.58 202.762 1345.48 202.725 C 1438.65 201.837 1526.43 233.87 1601.64 287.91 C 1633.83 311.034 1656.52 334.223 1684.39 361.029 C 1687.31 360.794 1690.23 360.631 1693.16 360.541 C 1749.97 358.84 1828.12 396.297 1868.33 435.946 C 1991.83 557.737 1990.79 751.012 1873.25 874.479 C 1878.59 906.135 1885.94 932.771 1888.04 965.61 C 1900.42 1158.94 1769.03 1327.05 1572.6 1341.86 C 1506.03 1344.24 1445.82 1328.78 1390.71 1289.87 C 1382.13 1283.81 1364.62 1264.93 1356.26 1263.91 C 1345.44 1262.6 1321.22 1269 1310.29 1271.93 C 1258.82 1285.8 1213.25 1285.44 1162.72 1268.32 C 1057.72 1232.74 1024.55 1119.56 1046.56 1019.52 C 1050 1003.86 1055.12 990.438 1060.69 975.442 C 1057.15 971.314 1052.65 967.167 1048.77 963.234 C 1000.06 913.852 966.768 851.487 961.631 781.348 C 955.897 705.223 977.15 619.119 1033.84 565.262 C 1065.72 536.493 1066.36 503.771 1065.6 463.311 C 1062.79 313.618 1188.14 215.838 1328.58 203.413 z" fill="rgb(250,249,240)" transform="translate(0,0)"></path>
<path d="M 1521.83 386.463 C 1522.34 381.723 1521.26 383.328 1524.05 380.811 C 1530.72 380.053 1540.37 387.118 1546.61 390.301 L 1586.39 410.181 C 1625.05 429.315 1662.92 447.196 1701.67 466.733 L 1801.39 516.25 C 1813.23 522.21 1828.2 528.998 1839.47 535.38 C 1839.76 540.921 1840.75 551.037 1839.41 555.973 C 1834.61 560.441 1827.92 554.92 1822.84 552.039 C 1822.37 566.907 1822.05 581.78 1821.89 596.655 C 1822.34 617.151 1820.93 641.54 1820.18 662.276 L 1814.81 791.876 C 1813.75 816.094 1811.96 847.147 1812 871.198 C 1815.37 873.281 1816.76 874.759 1819.69 877.488 C 1819.67 885.293 1818.71 891.907 1819 900.163 C 1815.33 903.276 1812.07 905.322 1808.09 907.958 C 1807.95 933.986 1805.42 962.361 1804.24 988.48 C 1802.63 1023.82 1800.99 1059.19 1798.64 1094.49 C 1792.24 1099.07 1781.44 1104.68 1774.32 1108.95 C 1755.55 1120.22 1736.85 1131.61 1718.22 1143.12 L 1638.4 1193.87 C 1624.75 1202.52 1608.6 1213.35 1594.49 1220.79 C 1586.65 1219.53 1582.49 1218.2 1575.44 1214.87 C 1577.19 1148.9 1580.86 1078.54 1584.2 1012.51 C 1529.25 983.463 1471.42 958.119 1416.07 929.738 C 1397.16 920.046 1376.83 908.718 1357.4 900.486 C 1365.52 917.909 1368.47 928.934 1369.18 948.502 C 1370.37 981.655 1369.33 1014.85 1365.86 1047.85 C 1371.68 1046.62 1398.57 1039.08 1394.9 1054.48 C 1392.88 1062.94 1377.63 1081.64 1369.86 1086.34 C 1354.09 1095.89 1326.67 1111.72 1312.4 1092.42 L 1311.69 1091.45 C 1309.84 1091.16 1308.1 1091.29 1306.25 1091.45 C 1302.11 1083.9 1308.09 1031.49 1303.69 1021.52 L 1302.12 1021.25 C 1300.25 1022.63 1299.07 1023.69 1298.35 1025.98 C 1293.83 1040.36 1302.49 1107.53 1299.85 1112.57 C 1298 1116.11 1291.58 1118.28 1288.07 1119.83 L 1287.2 1119.41 L 1285.77 1118.7 C 1273.93 1112.92 1276.49 1109.79 1275.99 1097.06 C 1275.78 1091.78 1276.18 1086.16 1276.28 1080.85 C 1276.65 1065.61 1276.87 1050.36 1276.93 1035.12 C 1265.1 1044.32 1252.82 1052.93 1240.13 1060.9 C 1239.82 1089.84 1242.28 1119.81 1240.83 1148.56 C 1240.61 1152.97 1230.44 1157.86 1227.03 1159.51 C 1220.43 1157.39 1219.11 1156.91 1213.01 1153.42 C 1212.85 1125.56 1213.76 1097.18 1214.03 1069.24 C 1193.61 1055.75 1168.47 1041.6 1147.09 1028.21 C 1147.31 1053.79 1147.24 1079.37 1146.89 1104.96 C 1141.62 1110.48 1136.62 1113.8 1130.35 1118 C 1125.32 1115.65 1120.33 1113.36 1116.58 1109.31 C 1113.56 1102.06 1115.23 1029.15 1115.29 1017.03 L 1114.94 937.372 C 1114.95 918.43 1114.82 899.488 1114.54 880.548 C 1114.32 866.952 1113.65 850.571 1114.49 837.181 C 1120.82 831.546 1134.99 822.952 1142.55 818.128 C 1136.94 801.043 1135.5 783.899 1150.52 770.781 C 1159.46 762.968 1169.69 760.946 1179.69 754.975 L 1180.94 754.218 C 1185.84 744.707 1186.47 740.904 1187.57 730.444 C 1163.32 716.645 1171.31 672.032 1189.62 656.365 C 1197.96 649.239 1201.68 647.524 1211.77 644.722 C 1215.38 645.784 1218.45 646.488 1221.67 648.243 C 1224.67 649.88 1229.82 659.011 1232.09 659.23 C 1245.76 660.461 1255.55 655.989 1267.46 666.262 C 1281.63 678.477 1274.93 690.435 1274.94 704.972 C 1274.96 728.557 1279.09 737.023 1263.09 756.435 L 1266.99 772.313 C 1269.31 773.371 1273.82 775.684 1275.7 773.909 C 1285.66 764.532 1296.71 758.846 1308.33 751.753 L 1351.69 724.928 C 1369.86 713.632 1408.96 688.029 1426.45 680.358 C 1446.93 687.591 1492.28 714.157 1512.87 725.791 C 1516 718.418 1519.44 711.181 1523.18 704.099 C 1530.47 690.607 1544.19 670.962 1559.58 666.298 C 1549.55 644.609 1546.03 613.976 1555.48 591.558 C 1556.72 583.308 1555.87 551.384 1555.98 541.203 L 1557.33 423.814 C 1545.91 417.754 1532.88 412.078 1521.16 406.051 C 1521.1 399.715 1521.54 392.838 1521.83 386.463 z" fill="rgb(149,25,21)" transform="translate(0,0)"></path>
<path d="M 1521.83 386.463 C 1522.34 381.723 1521.26 383.328 1524.05 380.811 C 1530.72 380.053 1540.37 387.118 1546.61 390.301 L 1586.39 410.181 C 1625.05 429.315 1662.92 447.196 1701.67 466.733 L 1801.39 516.25 C 1813.23 522.21 1828.2 528.998 1839.47 535.38 C 1839.76 540.921 1840.75 551.037 1839.41 555.973 C 1834.61 560.441 1827.92 554.92 1822.84 552.039 C 1822.37 566.907 1822.05 581.78 1821.89 596.655 C 1822.34 617.151 1820.93 641.54 1820.18 662.276 L 1814.81 791.876 C 1813.75 816.094 1811.96 847.147 1812 871.198 C 1803.14 870.415 1720.35 832.358 1705.01 825.595 C 1705.5 802.466 1707.51 770.953 1703.92 748.467 C 1701.39 732.38 1699.58 728.101 1691.33 714.233 C 1685.63 710.997 1678.33 702.531 1673.94 697.586 C 1675.85 691.724 1676.34 650.989 1676.46 643.091 C 1668.95 638.178 1652.04 627.872 1644.2 624.087 L 1644.38 608.436 C 1642.7 597.426 1639.79 588.123 1632.72 579.247 C 1624.96 569.544 1613.75 563.226 1601.43 561.624 C 1587.34 562.858 1577.98 564.374 1568.34 575.949 C 1567.92 580.424 1559.35 589.424 1555.48 591.558 C 1556.72 583.308 1555.87 551.384 1555.98 541.203 L 1557.33 423.814 C 1545.91 417.754 1532.88 412.078 1521.16 406.051 C 1521.1 399.715 1521.54 392.838 1521.83 386.463 z" fill="rgb(217,102,79)" transform="translate(0,0)"></path>
<path d="M 1691.05 649.679 C 1708.84 657.189 1730.23 667.267 1746.08 677.97 C 1746.51 707.459 1746.17 736.953 1745.05 766.424 C 1736.96 762.771 1710.06 749.445 1703.92 748.467 C 1701.39 732.38 1699.58 728.101 1691.33 714.233 C 1688.94 694.928 1690.42 669.553 1691.05 649.679 z" fill="rgb(250,249,240)" transform="translate(0,0)"></path>
<path d="M 1600.81 507.727 C 1625.73 521.66 1650.12 532.32 1675.17 545.117 L 1675.15 623.414 C 1667.04 619.032 1652.48 610.745 1644.38 608.436 C 1642.7 597.426 1639.79 588.123 1632.72 579.247 C 1624.96 569.544 1613.75 563.226 1601.43 561.624 C 1600.34 545.805 1600.82 523.994 1600.81 507.727 z" fill="rgb(250,249,240)" transform="translate(0,0)"></path>
<path d="M 1521.83 386.463 C 1522.34 381.723 1521.26 383.328 1524.05 380.811 C 1530.72 380.053 1540.37 387.118 1546.61 390.301 L 1586.39 410.181 C 1625.05 429.315 1662.92 447.196 1701.67 466.733 L 1801.39 516.25 C 1813.23 522.21 1828.2 528.998 1839.47 535.38 C 1839.76 540.921 1840.75 551.037 1839.41 555.973 C 1834.61 560.441 1827.92 554.92 1822.84 552.039 C 1822.37 566.907 1822.05 581.78 1821.89 596.655 C 1821.55 595.691 1818.65 549.272 1818.86 548.296 C 1822.15 546.342 1821.81 547.071 1826.43 547.286 C 1830.02 546.61 1830.01 544.044 1831.2 540.886 C 1760.85 502.73 1686.9 468.83 1615.24 432.86 C 1584.69 417.523 1556.64 405.08 1526 388.507 L 1521.83 386.463 z" fill="rgb(158,29,24)" transform="translate(0,0)"></path>
<path d="M 1831.2 540.886 C 1834.18 543.287 1834.95 543.569 1836.16 547.254 L 1835.81 549.879 C 1832.36 552.116 1829.27 550.015 1826.43 547.286 C 1830.02 546.61 1830.01 544.044 1831.2 540.886 z" fill="rgb(185,68,62)" transform="translate(0,0)"></path>
<path d="M 1521.83 386.463 L 1526 388.507 L 1526.08 402.215 C 1538.22 408.077 1550.23 414.231 1562.08 420.673 C 1561.59 475.143 1562.25 529.939 1560.97 584.303 C 1562.36 582.616 1566.88 576.728 1568.34 575.949 C 1567.92 580.424 1559.35 589.424 1555.48 591.558 C 1556.72 583.308 1555.87 551.384 1555.98 541.203 L 1557.33 423.814 C 1545.91 417.754 1532.88 412.078 1521.16 406.051 C 1521.1 399.715 1521.54 392.838 1521.83 386.463 z" fill="rgb(158,29,24)" transform="translate(0,0)"></path>
<path d="M 1691.14 553.418 C 1705.65 558.467 1736.38 573.491 1749.73 581.284 C 1749.3 606.741 1749.03 632.201 1748.94 657.662 C 1744.48 657.604 1699.31 634.257 1690.82 630.08 L 1691.14 553.418 z" fill="rgb(250,249,240)" transform="translate(0,0)"></path>
<path d="M 1644.2 624.087 C 1652.04 627.872 1668.95 638.178 1676.46 643.091 C 1676.34 650.989 1675.85 691.724 1673.94 697.586 C 1650.53 683.41 1653.52 663.753 1630.71 652.964 C 1639.2 642.226 1640.49 637.063 1644.2 624.087 z" fill="rgb(250,249,240)" transform="translate(0,0)"></path>
<path d="M 1426.38 688.897 C 1450.4 699.536 1485.96 718.945 1508.98 732.567 C 1500.38 753.699 1498.02 763.586 1497.78 785.879 C 1504.31 789.73 1513.42 795.402 1520.71 797.079 L 1522.74 796.493 C 1524.17 792.854 1523.54 788.042 1523.37 783.997 C 1525.11 788.469 1525.09 794.903 1527.99 796.65 C 1545.26 806.576 1564.2 813.381 1582.1 822.453 C 1594.66 828.824 1605.63 843.475 1616.9 848.563 C 1635.42 856.917 1657.34 827.686 1663.32 814.07 C 1704.64 835.286 1749.1 852.177 1791.34 871.602 C 1796.65 874.043 1802.44 876.224 1807.61 878.864 C 1786.51 889.459 1760.59 906.886 1739.62 919.619 C 1699.26 944.125 1651.34 971.211 1612.66 997.857 C 1595.66 989.209 1578.93 981.642 1561.94 973.279 L 1476.92 930.521 C 1443.98 914.231 1411.39 898.703 1378.62 881.763 C 1384.61 872.182 1388.19 865.436 1393 855.168 L 1457.1 888.557 C 1466.03 893.114 1483.1 902.058 1492.23 905.511 C 1505.46 898.377 1522.34 882.753 1534.96 873.8 C 1546.93 865.306 1559.49 857.48 1571.11 848.638 C 1573.97 846.461 1577.72 843.267 1578.83 839.927 C 1577.5 837.095 1577.25 836.393 1573.9 834.704 C 1555.39 825.378 1535.87 817.873 1517.32 808.381 C 1498.08 798.541 1480.97 787.116 1460.83 779.119 L 1460.09 775.247 C 1451.57 769.839 1415.2 748.501 1407.17 745.281 C 1397.63 753.478 1393.78 750.954 1384.97 757.416 C 1377.93 754.098 1368.7 749.105 1361.96 746.263 C 1345.89 757.789 1333.05 790.398 1319.1 810.445 C 1329.48 815.851 1334.33 817.9 1343.05 825.867 C 1330.5 820.78 1318.37 814.72 1306.77 807.741 C 1300.96 792.701 1298.69 789.491 1283.28 782.651 L 1280.33 781.361 C 1303.69 763.721 1329.83 747.717 1354.86 732.445 C 1377.37 718.71 1403.42 701.275 1426.38 688.897 z" fill="rgb(250,249,240)" transform="translate(0,0)"></path>
<path d="M 1662.07 864.96 L 1663.27 865.34 C 1661.28 874.503 1667.04 879.403 1670.88 887.566 C 1676.85 900.246 1683.69 912.692 1688.82 925.756 C 1682.03 929.284 1670.01 934.116 1662.61 937.413 C 1644.53 945.471 1630.87 952.745 1614.1 963.052 C 1605.56 955.11 1594.1 950.508 1583.21 946.861 L 1568.68 941.87 C 1566.24 932.072 1551.69 887.232 1555.77 881.322 C 1561.4 880.643 1586.03 888.918 1592.45 891.832 C 1593.95 892.513 1596.9 895.29 1598.2 896.599 C 1619.95 877.78 1636.46 874.736 1662.07 864.96 z" fill="rgb(149,25,21)" transform="translate(0,0)"></path>
<path d="M 1656.34 896.499 C 1664.01 896.571 1673.69 912.981 1678.91 919.525 C 1674.25 920.462 1661.32 924.238 1658.44 923.697 C 1656.66 921.075 1656.84 920.708 1653.99 919.628 L 1653.45 920.651 L 1655.6 926.112 L 1654.52 926.534 C 1651.63 923.865 1650.67 919.646 1649.53 915.798 L 1649.04 914.09 L 1647.98 914.408 C 1647.28 917.914 1650.62 921.977 1651.41 927.555 C 1647.05 929.4 1644.48 930.054 1642.35 934.243 C 1642.57 937.491 1639.15 938.192 1636.58 939.546 C 1629.65 943.678 1622.79 947.903 1615.98 952.219 C 1612.55 938.63 1610.14 928.739 1605.11 915.588 C 1608.06 917.425 1612.44 919.385 1615.64 920.939 C 1618.2 919.783 1660.72 899.203 1660.63 899.293 L 1659.49 898.261 C 1657.4 898.664 1657.9 898.561 1655.74 898.426 L 1656.34 896.499 z" fill="rgb(250,249,240)" transform="translate(0,0)"></path>
<path d="M 1559.25 886.381 C 1569.07 888.306 1581.34 893.058 1590.95 896.547 C 1592.94 912.041 1593.96 927.644 1594.02 943.265 L 1573.9 935.674 C 1568.91 921.028 1563.95 901.734 1559.25 886.381 z" fill="rgb(250,249,240)" transform="translate(0,0)"></path>
<path d="M 1623.09 889.89 L 1624.29 890.324 C 1627.43 894.263 1628.57 898.155 1630.43 902.855 C 1624.31 906.197 1618.68 908.997 1612.39 912.023 C 1608.55 910.311 1608.54 910.509 1605.84 907.429 C 1603.77 898.021 1615.9 893.078 1623.09 889.89 z" fill="rgb(250,249,240)" transform="translate(0,0)"></path>
<path d="M 1650.86 881.021 L 1652.03 880.684 C 1655.02 882.61 1656.49 887.564 1657.98 891.073 C 1651.61 892.908 1648.91 892.722 1642.49 895.534 C 1639.55 892.139 1637.8 888.968 1635.47 885.155 C 1642.58 882.248 1643.48 881.818 1650.86 881.021 z" fill="rgb(250,249,240)" transform="translate(0,0)"></path>
<path d="M 1627.72 886.501 C 1633.08 886.226 1638.37 889.68 1638.51 895.411 C 1638.55 897.033 1636.34 898.178 1635.03 899.26 L 1634.98 900.346 L 1633.84 900.586 C 1630.3 896.453 1628.26 891.897 1627.72 886.501 z" fill="rgb(158,29,24)" transform="translate(0,0)"></path>
<path d="M 1653.81 875.915 C 1658.7 878.519 1660.62 883.703 1662.76 888.59 C 1657.73 887.393 1654.94 880.47 1653.81 875.915 z" fill="rgb(250,249,240)" transform="translate(0,0)"></path>
<path d="M 1242.76 778.332 C 1265.04 776.831 1274.92 782.209 1291.71 797.772 C 1304.87 809.978 1316.71 894.091 1322.59 899.765 L 1323.91 898.998 C 1326.43 890.188 1324.82 886.115 1323.15 876.978 C 1335.06 869.517 1345.3 868.842 1357.25 863.104 C 1358.57 862.473 1361.41 851.273 1363.06 849.362 C 1369.4 842.024 1369.42 843.928 1368.15 834.074 C 1393.6 843.348 1386.52 856.24 1373.24 874.894 C 1366.23 884.734 1333.54 920.712 1326.76 923.274 C 1296.26 934.785 1269.95 837.831 1263.02 818.939 C 1261.88 815.676 1260.84 813.113 1257.24 812.17 L 1256.54 813.671 C 1257.62 828.9 1269 859.071 1275.6 873.582 C 1270.78 894.413 1263.74 986.572 1256.5 996.579 C 1250.75 1004.53 1233.47 1006.85 1224.35 1009.21 C 1223.42 967.637 1222.96 926.052 1222.98 884.466 C 1208.42 874.941 1186.93 862.822 1173.29 851.789 C 1169.62 848.819 1173.85 847.539 1163.42 841.796 C 1165.14 838.144 1166.89 835.737 1169.14 832.371 C 1172.22 831.77 1174.53 831.223 1177.57 830.431 C 1182.04 826.468 1180.04 824.327 1181.08 823.219 C 1189.18 818.239 1202.29 817.279 1212.65 813.374 C 1232.61 805.851 1232.58 788.254 1242.76 778.332 z" fill="rgb(250,249,240)" transform="translate(0,0)"></path>
<path d="M 1654.56 694.452 C 1690.83 702.627 1663.67 788.208 1656.01 809.844 C 1650.67 824.917 1641.67 833.721 1627.64 840.215 C 1621.04 842.146 1614.19 843.615 1611.14 835.731 C 1611.57 828.477 1619.91 811.195 1622.42 802.192 C 1630.94 771.631 1638.82 741.24 1645.63 710.255 C 1646.9 704.499 1650.86 698.919 1654.56 694.452 z" fill="rgb(217,102,79)" transform="translate(0,0)"></path>
<path d="M 1572.9 597.061 C 1585.5 604.203 1587.32 608.728 1603.13 604.829 C 1605.41 622.163 1605.89 629.944 1613.88 645.247 C 1620.51 643.161 1622.66 640.439 1628.74 637.571 L 1629.56 638.764 C 1628.77 643.418 1618.83 658.762 1614.45 661.964 C 1589.36 679.875 1567.82 676.798 1559.57 642.191 C 1555.87 626.69 1563.58 609.602 1572.9 597.061 z" fill="rgb(250,249,240)" transform="translate(0,0)"></path>
<path d="M 1570.39 633.472 L 1574.12 634.864 C 1579.24 641.199 1563.84 646.929 1587.32 656.107 L 1589.17 660.438 C 1580.41 660.636 1579.84 661.127 1572.94 654.536 C 1565.81 647.73 1563.22 641.343 1570.39 633.472 z" fill="rgb(149,25,21)" transform="translate(0,0)"></path>
<path d="M 1588.47 625.588 C 1598.13 628.773 1598.01 641.448 1592.73 648.33 C 1588.95 650.478 1589.16 650.372 1584.81 650.799 C 1582.72 648.433 1580.66 645.941 1581.1 642.764 C 1585.71 642.596 1587.39 643.042 1590.47 640.443 C 1591.75 636.296 1587.67 632.557 1588.47 625.588 z" fill="rgb(149,25,21)" transform="translate(0,0)"></path>
<path d="M 1567.82 620.458 C 1572.37 620.83 1575.78 621.281 1577.69 625.945 L 1576.74 627.348 L 1574.37 627.173 C 1570.64 627.943 1566.76 629.523 1563.77 626.937 C 1564.28 623.536 1565.39 622.913 1567.82 620.458 z" fill="rgb(149,25,21)" transform="translate(0,0)"></path>
<path d="M 1401.72 764.851 C 1418.77 770.519 1433.89 770.601 1451.18 777.337 C 1445.06 788.709 1435.04 804.717 1424.92 812.694 C 1422.62 815.374 1421.27 816.736 1419.55 819.885 C 1410.09 829.418 1402.06 834.935 1392.73 843.62 C 1385.72 831.858 1379.76 829.46 1366.16 827.518 C 1378.29 807.541 1393.96 787.194 1401.72 764.851 z" fill="rgb(250,249,240)" transform="translate(0,0)"></path>
<path d="M 1120.95 850.586 C 1124.14 852.596 1127.52 854.253 1129.47 857.391 C 1135.82 899.056 1126.94 957.964 1130.24 1000.86 C 1130.51 1004.48 1191.67 1039.89 1199.63 1041.5 L 1201.8 1040.87 C 1202.89 1038.71 1202.89 1039.5 1202.84 1037.36 L 1204.3 1035.91 C 1211.5 1036.74 1221.17 1045.36 1225.01 1044.75 C 1249.14 1040.89 1271.4 1019.43 1292.81 1007.74 C 1300.03 1003.8 1300.62 1001.88 1304.42 1006.31 C 1304.78 1008.75 1304.85 1009.33 1303.35 1011.5 C 1299.87 1016.56 1289.31 1020.04 1284.08 1023.18 C 1267.01 1033.44 1251.01 1045.81 1233.69 1055.57 C 1230.07 1057.6 1224.91 1060.62 1220.81 1060.94 C 1209.77 1061.81 1136.26 1011.44 1122.37 1003.39 C 1121.32 958.276 1122.73 913.082 1121.44 867.975 C 1121.27 862.176 1120.97 856.387 1120.95 850.586 z" fill="rgb(250,249,240)" transform="translate(0,0)"></path>
<path d="M 1540.44 758.109 C 1557.47 756.097 1600.18 783.165 1616.29 792.247 C 1612.82 804.072 1610.26 815.634 1606.16 827.385 C 1597.58 822.187 1589.32 817.443 1580.72 812.615 C 1568.53 805.766 1543.29 795.545 1534 786.634 C 1532.24 779.009 1531.17 770.447 1530.01 762.635 C 1533.15 761.004 1537.13 759.481 1540.44 758.109 z" fill="rgb(250,249,240)" transform="translate(0,0)"></path>
<path d="M 1591.7 1016.05 L 1605.51 1022.95 C 1604.64 1059.87 1602.16 1097.95 1600.8 1135 C 1600.18 1151.81 1599.06 1197.49 1595.74 1212.29 C 1591.57 1212.27 1586.71 1212.52 1583.62 1209.61 C 1582.92 1202.97 1584.98 1169.19 1585.31 1159.77 L 1591.7 1016.05 z" fill="rgb(250,249,240)" transform="translate(0,0)"></path>
<path d="M 1461.24 792.667 C 1473.56 797.709 1512.41 818.237 1523.6 825.189 C 1516.06 835.16 1507.97 842.918 1501.22 853.374 C 1481.95 845.138 1456.79 832.695 1438.11 823.041 C 1445.18 814.849 1454.14 801.75 1461.24 792.667 z" fill="rgb(250,249,240)" transform="translate(0,0)"></path>
<path d="M 1560.84 674.842 C 1561.33 677.417 1556.8 695.801 1556.08 700.116 C 1553.24 717.158 1552.03 734.048 1551.96 751.294 C 1538.58 750.109 1531.01 755.53 1519.44 761.686 C 1517.84 770.153 1519.72 778.785 1516.18 783.562 C 1512.38 784.629 1512.89 783.966 1508.31 782.431 C 1506.32 781.171 1507.23 781.89 1505.96 779.52 C 1505.46 770.298 1510.41 751.163 1513.92 742.696 C 1524.5 717.147 1534.39 687.273 1560.84 674.842 z" fill="rgb(217,102,79)" transform="translate(0,0)"></path>
<path d="M 1809.49 886.922 C 1811.47 887.013 1810.48 886.686 1812.27 888.315 C 1812.92 892.114 1812.07 896.06 1808.61 898.256 C 1790.48 909.202 1772.51 922.335 1753.97 932.468 C 1707.2 958.026 1662.71 991.457 1615.84 1016.21 L 1614.07 1015.35 C 1611.66 1002.91 1621.48 1001.48 1630.9 995.724 C 1643.51 987.999 1656.08 980.205 1668.61 972.345 C 1715.08 943.072 1762.05 914.593 1809.49 886.922 z" fill="rgb(250,249,240)" transform="translate(0,0)"></path>
<path d="M 1372.8 888.807 C 1396.03 901.106 1423.16 913.412 1447.05 925.103 L 1548.91 975.605 C 1567.74 984.759 1586.91 993.371 1605.43 1003.12 C 1608.04 1004.49 1607.76 1010.12 1606.67 1012.68 L 1604.71 1012.7 C 1581.49 1002.22 1554.86 987.936 1531.63 976.52 L 1366.38 895.15 L 1372.8 888.807 z" fill="rgb(250,249,240)" transform="translate(0,0)"></path>
<path d="M 1424.92 812.694 L 1429.12 815.262 C 1429.99 820.158 1427.57 822.707 1424.73 826.964 C 1425.26 829.69 1424.63 828.546 1427.06 830.232 C 1430.21 830.05 1431.02 829.802 1434.03 829.11 C 1447.4 834.395 1484.95 851.995 1498.22 859.495 C 1493.19 866.507 1487.08 873.002 1482.59 879.555 C 1465.83 872.327 1421.31 851.62 1407.52 841.31 C 1410.05 838.658 1418.91 841.339 1421.39 823.914 L 1419.55 819.885 C 1421.27 816.736 1422.62 815.374 1424.92 812.694 z" fill="rgb(250,249,240)" transform="translate(0,0)"></path>
<path d="M 1424.92 812.694 L 1429.12 815.262 C 1425.04 818.551 1423.9 819.343 1421.39 823.914 L 1419.55 819.885 C 1421.27 816.736 1422.62 815.374 1424.92 812.694 z" fill="rgb(158,29,24)" transform="translate(0,0)"></path>
<path d="M 1180.95 891.107 C 1185.07 892.56 1197.34 899.423 1203.17 902.044 C 1203.69 939.298 1204.76 979.445 1203.62 1016.65 C 1199.18 1014.73 1196.16 1012.04 1192.31 1009.1 C 1189.25 975.052 1181.49 924.317 1180.95 891.107 z" fill="rgb(250,249,240)" transform="translate(0,0)"></path>
<path d="M 1540.01 827.037 C 1548.97 831.459 1559.24 835.602 1568.49 839.557 C 1557.99 847.944 1543.77 857.023 1532.59 865.267 C 1519.96 874.584 1503.83 888.022 1490.79 895.847 C 1467.13 884.854 1448.96 876.774 1425.57 864.342 C 1416.22 859.186 1406.98 853.845 1397.84 848.322 C 1409.45 850.586 1420.04 856.342 1430.36 861.957 C 1448.89 872.032 1466.58 881.002 1486.22 888.803 C 1502.35 872.725 1530.85 846.803 1540.01 827.037 z" fill="rgb(250,249,240)" transform="translate(0,0)"></path>
<path d="M 1796.94 913.495 C 1797.49 913.725 1798.64 914.582 1799.18 914.961 C 1799.96 923.942 1798.88 939.857 1798.53 949.566 C 1797.88 971.389 1796.95 993.203 1795.73 1015 C 1794.6 1035.25 1793.91 1069.94 1791.71 1088.87 C 1790.39 1091.39 1787.37 1092.19 1784.56 1093.44 L 1783.14 1092.97 C 1781.5 1086.85 1783.8 1055.75 1784.15 1048.04 C 1785.32 1018.12 1786.71 988.206 1788.32 958.303 C 1788.89 946.082 1788.75 933.638 1789.75 921.507 C 1790.08 917.634 1793.54 916 1796.94 913.495 z" fill="rgb(250,249,240)" transform="translate(0,0)"></path>
<path d="M 1675.65 707.655 C 1701.71 723.161 1699.44 794.711 1696.7 821.531 C 1691.01 819.272 1683.36 815.419 1677.65 812.748 C 1676.7 777.773 1685.34 740.491 1675.65 707.655 z" fill="rgb(250,249,240)" transform="translate(0,0)"></path>
<path d="M 1352.02 770.378 C 1360.47 752.701 1361.5 751.644 1378.57 761.76 C 1376.4 761.156 1374.21 760.611 1372 760.125 C 1368.43 759.372 1365.48 758.901 1362.4 760.888 C 1361.64 763.977 1361.58 762.453 1362.91 765.59 C 1372.43 764.294 1379.54 770.532 1388.2 775.79 C 1386.26 778.898 1383.81 783.152 1381.48 785.845 C 1378.59 791.473 1376.22 795.791 1372.93 801.187 C 1365.33 804.684 1360.9 806.613 1352.66 808.518 C 1349.31 807.006 1345.66 805.107 1342.17 804.212 C 1337.77 804.42 1336.01 803.975 1332.29 800.643 L 1333.45 799.669 C 1336.19 795.689 1345.49 786.655 1349.22 782.894 L 1347.53 780.334 C 1347.71 776.394 1349.37 773.275 1352.02 770.378 z" fill="rgb(158,29,24)" transform="translate(0,0)"></path>
<path d="M 1352.02 770.378 C 1360.47 752.701 1361.5 751.644 1378.57 761.76 C 1376.4 761.156 1374.21 760.611 1372 760.125 C 1368.43 759.372 1365.48 758.901 1362.4 760.888 C 1361.64 763.977 1361.58 762.453 1362.91 765.59 C 1363.76 766.532 1364.41 767.414 1365.41 768.116 C 1366.34 769.645 1367.87 771.382 1367.49 772.755 C 1365.72 779.093 1354.52 788.954 1348.39 791.838 C 1344.52 793.658 1335.89 799.48 1333.45 799.669 C 1336.19 795.689 1345.49 786.655 1349.22 782.894 L 1347.53 780.334 C 1347.71 776.394 1349.37 773.275 1352.02 770.378 z" fill="rgb(250,249,240)" transform="translate(0,0)"></path>
<path d="M 1352.02 770.378 C 1354.39 768.538 1355.66 767.078 1358.61 766.947 L 1359.46 768.308 C 1356.87 774.726 1353.74 777.783 1349.22 782.894 L 1347.53 780.334 C 1347.71 776.394 1349.37 773.275 1352.02 770.378 z" fill="rgb(158,29,24)" transform="translate(0,0)"></path>
<path d="M 1342.17 804.212 C 1340.8 802.552 1341.17 803.48 1340.96 801.469 C 1344.98 797.255 1359.91 790.823 1365.59 788.26 C 1366.9 787.669 1370.74 790.573 1375.78 787.747 L 1376.86 783.701 L 1379.84 783.326 L 1381.48 785.845 C 1378.59 791.473 1376.22 795.791 1372.93 801.187 C 1365.33 804.684 1360.9 806.613 1352.66 808.518 C 1349.31 807.006 1345.66 805.107 1342.17 804.212 z" fill="rgb(250,249,240)" transform="translate(0,0)"></path>
<path d="M 1362.91 765.59 C 1372.43 764.294 1379.54 770.532 1388.2 775.79 C 1386.26 778.898 1383.81 783.152 1381.48 785.845 L 1379.84 783.326 L 1381.32 781.969 C 1382.53 778.058 1382.66 779.889 1381.2 776.274 C 1378.32 774.004 1368.77 769.283 1365.41 768.116 C 1364.41 767.414 1363.76 766.532 1362.91 765.59 z" fill="rgb(250,249,240)" transform="translate(0,0)"></path>
<path d="M 1371.63 778.413 C 1375.27 779.883 1374.76 778.83 1376.01 781.21 C 1374.01 782.235 1372.82 782.877 1370.98 784.121 L 1369.43 785.176 C 1366.64 786.295 1367.81 786.471 1365.66 785.686 C 1367 782.427 1369.09 780.878 1371.63 778.413 z" fill="rgb(250,249,240)" transform="translate(0,0)"></path>
<path d="M 1268.24 972.477 C 1274.55 975.847 1294.64 990.535 1300.29 995.089 C 1282.64 1005.09 1263.53 1018.67 1245.57 1029.49 C 1239.54 1033.15 1231.17 1040.58 1225.23 1035.1 C 1223.19 1030.12 1223.94 1023.49 1224.06 1017.87 C 1226.77 1017.37 1229.46 1016.82 1232.15 1016.23 C 1248.18 1012.65 1278.2 1003.81 1268.37 986.044 C 1266.62 982.881 1267.77 976.314 1268.24 972.477 z" fill="rgb(250,249,240)" transform="translate(0,0)"></path>
<path d="M 1569.08 677.856 C 1572.7 678.722 1577.01 679.16 1579.57 682.145 C 1585.25 688.785 1576.45 747.314 1574.94 758.959 L 1573.38 759.95 L 1557.67 753.678 C 1558.96 725.786 1559.56 704.473 1569.08 677.856 z" fill="rgb(217,102,79)" transform="translate(0,0)"></path>
<path d="M 1129.46 835.871 C 1134.84 836.566 1201.73 878.922 1212.11 885.363 C 1209.06 888.371 1205.26 891.196 1201.87 893.879 C 1193.32 891.429 1121.64 845.007 1120.49 840.665 C 1122.74 837.621 1125.75 837.154 1129.46 835.871 z" fill="rgb(250,249,240)" transform="translate(0,0)"></path>
<path d="M 1125.01 1013.33 C 1129.11 1015.44 1134.66 1020.02 1138.48 1022.93 C 1138.89 1034.49 1140.21 1095.97 1137.44 1103.38 C 1133.39 1105.88 1130.96 1107.73 1126.39 1106.7 C 1123.81 1100.89 1124.99 1025.3 1125.01 1013.33 z" fill="rgb(233,166,132)" transform="translate(0,0)"></path>
<path d="M 1163.05 983.922 L 1169.52 1001.47 C 1183.03 1009.59 1188.12 1018.22 1203.08 1022.14 C 1203.7 1026.32 1203.97 1031.61 1204.3 1035.91 L 1202.84 1037.36 C 1193.65 1035.15 1142.74 1004.56 1134.82 997.592 C 1144.85 991.69 1152.21 987.99 1163.05 983.922 z" fill="rgb(250,249,240)" transform="translate(0,0)"></path>
<path d="M 1308.79 817.539 C 1322.86 823.198 1344.01 834.374 1357.82 841.25 L 1351.85 855.744 C 1350.71 858.625 1351.58 857.499 1349.31 859.373 C 1343.91 859.538 1324.7 849.984 1317.93 847.283 L 1308.79 817.539 z" fill="rgb(250,249,240)" transform="translate(0,0)"></path>
<path d="M 1215.64 889.835 C 1217.37 892.204 1217.47 938.696 1217.05 941.934 C 1215.8 951.471 1219.68 1028.64 1217.22 1032.5 L 1213.68 1033.05 L 1210.7 1030.12 C 1209.81 1026.89 1210.53 1014.99 1210.62 1011.05 C 1210.98 984.143 1211.04 957.232 1210.79 930.324 C 1210.71 919.098 1210.41 907.39 1210.32 896.122 C 1210.31 893.865 1213.8 891.381 1215.64 889.835 z" fill="rgb(250,249,240)" transform="translate(0,0)"></path>
<path d="M 1212.9 653.113 C 1217.24 653.734 1223.2 655.915 1225.11 660.163 C 1223.55 662.962 1215.14 667.618 1212 669.483 C 1192.37 681.146 1183.42 695.477 1189.14 718.771 C 1189.09 720.723 1188.96 720.832 1188.53 722.759 L 1187.16 722.949 C 1173.48 707.262 1181.1 667.867 1199.38 658.759 C 1204.99 655.967 1207.01 654.84 1212.9 653.113 z" fill="rgb(250,249,240)" transform="translate(0,0)"></path>
<path d="M 1136.5 861.108 C 1137.46 861.61 1138.79 862.561 1139.74 863.186 C 1143.98 872.042 1153.53 941.926 1151.18 953.005 C 1145.85 954.934 1143.82 954.905 1138.24 955.311 C 1138.11 923.903 1137.53 892.499 1136.5 861.108 z" fill="rgb(250,249,240)" transform="translate(0,0)"></path>
<path d="M 1164.35 879.774 L 1172.66 884.775 C 1176.79 912.754 1178.52 941.999 1181.8 970.176 C 1183.09 981.167 1184.6 993.836 1184.74 1004.76 C 1178.58 998.848 1176.17 965.928 1174.68 955.381 C 1171.17 930.436 1166.4 904.792 1164.35 879.774 z" fill="rgb(250,249,240)" transform="translate(0,0)"></path>
<path d="M 1229.93 1066.11 C 1231.81 1068.52 1229.66 1126.47 1231.59 1133.26 C 1231.98 1134.61 1232.21 1145.35 1232.04 1146.81 C 1230.19 1149.96 1227.97 1150.39 1224.55 1151.83 C 1223.77 1151.24 1220.93 1148.78 1221.03 1147.81 C 1223.58 1122.33 1223.12 1096.71 1223.44 1071.1 C 1224.86 1068.24 1227.02 1067.62 1229.93 1066.11 z" fill="rgb(250,249,240)" transform="translate(0,0)"></path>
<path d="M 1148.43 869.354 C 1151.29 871.058 1155.13 873.183 1157.61 875.208 C 1160.6 905.013 1165.36 934.624 1168.28 964.439 C 1168.78 969.611 1169.11 974.832 1170.18 979.924 L 1168.8 979.589 C 1159.97 948.351 1155.9 914.343 1150.36 882.398 C 1149.62 878.144 1148.88 873.633 1148.43 869.354 z" fill="rgb(250,249,240)" transform="translate(0,0)"></path>
<path d="M 1386.12 1051.25 L 1386.62 1052.38 C 1382.07 1062.07 1371.47 1074.01 1364.4 1082.57 C 1350.97 1087.61 1336.89 1094.48 1322.93 1093.92 L 1321.59 1091.49 C 1322.05 1090.96 1349.65 1084.95 1359.12 1078.4 C 1362.69 1071.23 1363.48 1066.74 1365.21 1059 C 1371.79 1056.12 1379.29 1053.65 1386.12 1051.25 z" fill="rgb(250,249,240)" transform="translate(0,0)"></path>
<path d="M 1289.81 1027.93 C 1293.01 1034.35 1289.46 1090.9 1291.06 1102.31 C 1291.99 1108.94 1291.56 1110.25 1286.56 1113.37 C 1283.31 1110.36 1285.9 1042.02 1285 1032.97 C 1284.78 1030.8 1288.11 1029.14 1289.81 1027.93 z" fill="rgb(250,249,240)" transform="translate(0,0)"></path>
<path d="M 1261.51 704.239 C 1271.68 709.443 1270.43 727.326 1267.51 736.509 C 1264.46 746.093 1260.71 751.34 1251.77 755.9 C 1249.54 756 1248.3 755.955 1246.08 755.875 C 1244.36 752.864 1254.57 746.276 1256.74 740.891 C 1261.34 729.423 1259.95 717.141 1261.39 705.241 L 1261.51 704.239 z" fill="rgb(250,249,240)" transform="translate(0,0)"></path>
<path d="M 1365.35 813.465 L 1365.69 813.404 L 1366.42 813.962 C 1363.7 817.968 1361.62 822.548 1359.46 826.909 C 1356.32 825.949 1354.78 825.649 1351.53 825.096 L 1350.86 825.906 C 1354.02 830.232 1357.69 828.347 1359.84 832.354 L 1358.51 832.43 C 1349.34 828.778 1348.88 823.651 1340.84 815.455 C 1349.27 815.128 1357.01 815.035 1365.35 813.465 z" fill="rgb(250,249,240)" transform="translate(0,0)"></path>
<path d="M 1255.31 761.555 L 1256.42 761.483 C 1258.55 764.277 1258.9 768.508 1259.57 772.113 L 1241.75 772.034 C 1238.43 771.303 1239.63 772.186 1237.88 769.528 C 1237.72 765.126 1237.08 766.941 1239.11 763.686 C 1242.91 761.68 1250.57 761.949 1255.31 761.555 z" fill="rgb(250,249,240)" transform="translate(0,0)"></path>
<path d="M 1634.32 698.073 L 1634.87 698.6 C 1634.56 702.156 1631.09 717.23 1629.36 720.371 L 1627.85 719.507 C 1624.64 715.319 1623.33 712.714 1620.89 708.143 C 1625.98 701.234 1626.29 700.015 1634.32 698.073 z" fill="rgb(250,249,240)" transform="translate(0,0)"></path>
<path d="M 1531.72 822.481 C 1533.1 823.253 1532.32 822.687 1533.78 824.506 C 1531.06 833.969 1507.58 860.71 1499.24 868.287 L 1498.34 868.452 C 1499.63 863.52 1528.04 832.491 1531.72 822.481 z" fill="rgb(250,249,240)" transform="translate(0,0)"></path>
<path d="M 1615.58 722.598 C 1620.2 725.807 1628.75 733.344 1623.84 739.497 L 1621.68 738.743 L 1607.39 732.895 C 1610.13 728.871 1612.44 726.26 1615.58 722.598 z" fill="rgb(250,249,240)" transform="translate(0,0)"></path>
<path d="M 1138.31 956.789 C 1142.93 961.116 1146.55 976.652 1143.16 983.237 C 1142.16 984.266 1141.07 985.124 1139.97 986.063 L 1138.69 985.056 C 1137.11 979.021 1138.09 963.831 1138.31 956.789 z" fill="rgb(233,221,211)" transform="translate(0,0)"></path>
<path d="M 1607.16 674.863 L 1608.02 675.253 L 1608.08 676.328 C 1604.4 680.781 1594.65 689.51 1588.86 689.765 C 1588.07 686.628 1586.98 683.917 1587.67 680.849 C 1597.19 680.46 1597.32 680.882 1605.49 675.891 L 1607.16 674.863 z" fill="rgb(250,249,240)" transform="translate(0,0)"></path>
<path d="M 1318.86 856.413 C 1322.04 857.758 1332.43 861.457 1334.29 863.661 L 1332.58 865.182 L 1321.96 870.468 L 1318.86 856.413 z" fill="rgb(250,249,240)" transform="translate(0,0)"></path>
<path d="M 1460.09 775.247 L 1460.83 779.119 C 1458.59 787.944 1441.96 807.824 1435.78 815.85 C 1441.16 805.185 1457.96 782.573 1460.09 775.247 z" fill="rgb(233,221,211)" transform="translate(0,0)"></path>
<path d="M 1587.17 721.14 C 1589.86 722.142 1588.72 721.375 1590.65 723.635 C 1590.64 728.804 1586.61 735.7 1584.22 740.634 L 1583.85 741.257 L 1583.06 740.887 C 1582.65 734.723 1584.94 726.824 1587.17 721.14 z" fill="rgb(250,249,240)" transform="translate(0,0)"></path>
<path d="M 1284.77 898.886 C 1287.26 901.891 1287.55 901.243 1287.81 904.408 C 1285.92 906.799 1281.54 907.938 1278.45 909.081 L 1276.93 908.678 L 1276.48 906.831 C 1278.58 903.224 1281.45 901.475 1284.77 898.886 z" fill="rgb(250,249,240)" transform="translate(0,0)"></path>
<path d="M 1161.27 768.541 L 1163.24 769.176 C 1157.19 775.843 1153.51 779.68 1149.47 787.692 L 1148.93 788.554 L 1148.32 788.071 C 1149.99 778.16 1153.46 774.653 1161.27 768.541 z" fill="rgb(250,249,240)" transform="translate(0,0)"></path>
<path d="M 1278.41 885.475 C 1281.38 887.863 1283.81 893.336 1283.76 897.146 C 1280.91 897.615 1280.29 898.032 1277.66 896.91 C 1276.27 892.818 1277.54 890.203 1278.41 885.475 z" fill="rgb(250,249,240)" transform="translate(0,0)"></path>
<path d="M 1406.33 758.243 C 1412.7 756.714 1422.86 763.548 1429.89 766.902 C 1422.13 766.38 1412.94 762.213 1406.33 758.243 z" fill="rgb(250,249,240)" transform="translate(0,0)"></path>
<path d="M 1330.03 808.366 C 1337.73 807.561 1340.46 807.759 1347.58 810.708 C 1341.02 811.577 1335.31 812.399 1330.03 808.366 z" fill="rgb(250,249,240)" transform="translate(0,0)"></path>
<path d="M 1588.52 696.641 L 1589.42 697.415 C 1591.56 702.165 1588.97 707.617 1587.28 712.42 L 1587.15 712.36 C 1585.83 710.127 1588 700.094 1588.52 696.641 z" fill="rgb(233,221,211)" transform="translate(0,0)"></path>
<path d="M 1168.8 979.589 L 1170.18 979.924 C 1171.11 982.704 1173.04 991.552 1171.9 994.245 C 1169.62 990.983 1169.16 983.748 1168.8 979.589 z" fill="rgb(185,68,62)" transform="translate(0,0)"></path>
<path d="M 1480.08 795.047 C 1484.25 796.216 1487.91 798.833 1491.66 801.122 C 1486.45 800.083 1483.45 799.164 1480.08 795.047 z" fill="rgb(185,68,62)" transform="translate(0,0)"></path>
<path d="M 1341.66 320.891 C 1345.67 320.712 1370.17 334.848 1375.14 337.486 L 1439.25 371.706 C 1450.75 377.831 1471.6 388.237 1481.17 395.693 C 1482.71 407.117 1467.86 416.739 1459.78 423.29 C 1460.14 424.095 1460.48 424.907 1460.81 425.725 C 1463.09 431.526 1463.17 436.716 1463.54 442.813 C 1466.45 490.368 1471.41 537.917 1474.81 585.409 C 1476.27 605.644 1455.31 601.709 1453.69 589.033 C 1449.5 556.228 1450.86 519.219 1446.81 486.442 C 1445 500.31 1444.12 569.727 1433.01 575.27 C 1398.81 592.345 1347.59 598.339 1309.77 593.803 C 1291.18 591.275 1252.04 579.486 1242.81 561.57 C 1231.33 539.281 1244.04 491.814 1242.2 466.039 C 1241.83 460.895 1243.69 445.796 1237.85 444.501 C 1234.94 449.069 1233.57 458.737 1231.64 464.165 C 1220.06 496.62 1211.93 528.512 1208.9 562.897 C 1208.65 565.694 1207.76 565.892 1205.71 567.164 L 1203.8 566.71 C 1196.19 553.573 1226.12 456.037 1230.44 438.3 C 1219.58 431.732 1206.97 424.513 1197.47 416.364 L 1194.99 403.995 C 1202.74 397.079 1228.02 383.632 1238.38 377.779 C 1272.62 358.481 1307.05 339.518 1341.66 320.891 z" fill="rgb(158,29,24)" transform="translate(0,0)"></path>
<path d="M 1340.9 330.779 C 1353.48 331.338 1450.84 388.628 1473.87 398.382 C 1464.63 408.79 1454.56 415.347 1445.67 425.305 C 1418.09 413.029 1374.65 409.799 1351.35 395.104 C 1346.74 392.196 1341.46 388.93 1335.77 390.956 C 1332.78 392.021 1329.94 395.517 1329.19 398.572 C 1328.68 400.663 1329.24 402.895 1330.3 404.72 C 1331.58 406.914 1333.62 408.641 1335.83 409.827 C 1341.54 412.889 1350.62 413.801 1357.01 415.881 C 1381.73 423.931 1406.31 432.506 1431.31 439.679 L 1418.38 451.061 C 1395.02 469.271 1372.02 487.928 1349.39 507.022 C 1314.93 480.888 1270.14 457.218 1234.55 431.645 C 1224.58 424.479 1209.35 416.549 1200.83 408.534 C 1214.21 399.56 1228.41 393.039 1242.24 384.937 C 1274.71 365.909 1307.97 348.844 1340.9 330.779 z" fill="rgb(217,102,79)" transform="translate(0,0)"></path>
<path d="M 1440.5 464.733 C 1443.48 467.218 1433.22 549.615 1433.2 560.502 C 1433.18 571.705 1413.4 575.662 1404 577.998 C 1355.89 589.954 1294.44 596.709 1253.84 562.039 C 1244.23 553.806 1245.36 539.487 1245.58 528.25 C 1246.16 508.671 1246.92 488.073 1249.05 468.606 C 1282.7 490.037 1317.44 514.038 1351.12 534.602 C 1360.93 529.12 1377.02 515.381 1386.07 508.079 C 1404.05 493.422 1422.19 478.972 1440.5 464.733 z" fill="rgb(217,102,79)" transform="translate(0,0)"></path>
<path d="M 1440.69 443.846 C 1442.81 446.394 1442.66 451.72 1442.96 455.303 C 1427.51 466.036 1412.38 477.215 1397.58 488.826 C 1383.41 500.089 1365.34 515.757 1350.43 524.805 C 1317.75 506.306 1283.45 479.904 1249.36 461.488 C 1248.72 461.076 1249.16 461.471 1247.98 459.556 C 1248.12 455.21 1247.35 454.791 1249.49 452.125 C 1253.44 452.577 1338.28 508.603 1351.48 514.543 C 1355.98 511.32 1360.54 507.412 1364.83 503.849 C 1389.83 483.091 1414.2 462.735 1440.69 443.846 z" fill="rgb(250,249,240)" transform="translate(0,0)"></path>
<path d="M 1359.92 409.058 C 1360.59 409.048 1361.57 409.001 1362.17 409.193 C 1386.65 417.105 1411.73 423.029 1436.21 430.807 C 1437.7 431.28 1438.46 432.281 1439.28 433.501 C 1432.2 433.508 1366.04 413.313 1359.92 409.058 z" fill="rgb(234,171,158)" transform="translate(0,0)"></path>
<path d="M 1459.55 548.831 C 1460.46 563.61 1462.48 577.622 1463.83 592.304 C 1459.24 585.43 1455.65 556.651 1459.55 548.831 z" fill="rgb(185,68,62)" transform="translate(0,0)"></path>
<path d="M 1338.14 397.379 C 1342.2 397.556 1354.09 404.563 1356.56 408.032 C 1350.17 406.856 1344.99 407.74 1340.02 404.867 C 1337.49 400.936 1338.2 402.534 1338.14 397.379 z" fill="rgb(217,102,79)" transform="translate(0,0)"></path>
<path d="M 1129.26 540.249 C 1141.28 541.366 1149.72 548.55 1152.14 560.557 C 1153.67 567.975 1152.04 575.697 1147.65 581.866 C 1142.3 589.279 1137.42 590.695 1129.09 592.238 C 1119.99 590.826 1117.03 589.101 1110.04 583.294 C 1101.08 562.482 1104.38 545.076 1129.26 540.249 z" fill="rgb(158,29,24)" transform="translate(0,0)"></path>
<path d="M 1126.25 548.025 C 1133.53 547.99 1139.17 551.399 1142.53 557.995 C 1144.96 562.859 1145.33 568.495 1143.56 573.635 C 1141.53 579.347 1138.17 581.003 1133.09 583.637 C 1109.21 583.789 1107.3 557.89 1126.25 548.025 z" fill="rgb(217,102,79)" transform="translate(0,0)"></path>
<path d="M 1157.33 622.89 C 1166.23 623.729 1173.85 635.085 1170.36 642.606 L 1168.02 643.234 C 1162.61 640.406 1164.78 633.642 1158.39 632.614 C 1155.66 634.003 1155.23 635.408 1153.68 638.093 L 1153.1 639.122 C 1152.71 644.774 1156.74 651.752 1152.81 655.047 C 1151.07 654.385 1148.48 653.009 1147.96 651.084 C 1144.39 637.887 1146.11 629.725 1157.33 622.89 z" fill="rgb(149,25,21)" transform="translate(0,0)"></path>
<path d="M 462.627 587.417 C 479.791 585.27 511.039 588.07 527.682 590.796 C 636.014 608.537 724.657 686.019 786.622 773.14 C 840.422 848.458 877.688 934.3 895.975 1025.03 C 899.193 1041.26 901.971 1057.58 904.306 1073.96 C 905.854 1085.61 907.311 1103.51 910.178 1114.45 C 914.079 1124.21 921.041 1133.63 925.766 1142.91 C 992.965 1274.98 969.53 1445.75 864.274 1551.19 C 847.214 1568.28 826.923 1582.11 807.003 1596.25 C 804.801 1609.86 803.525 1623.31 800.88 1636.98 C 777.466 1758.06 700.768 1842.75 573.91 1856.88 C 552.863 1858.01 533.945 1858.13 513.382 1855.18 C 385.317 1836.78 278.525 1728.09 287.087 1594.26 C 288.074 1578.83 290.405 1564.18 292.483 1549.04 C 262.142 1534.03 239.701 1522.68 213.11 1500.48 C 136.471 1436.84 88.5175 1345.15 79.9646 1245.9 C 70.0074 1133.33 110.658 1028.74 176.38 939.278 C 195.869 911.456 221.542 886.93 236.202 856.009 C 244.855 837.759 246.043 816.235 249.065 796.52 C 266.608 682.081 345.211 597.61 462.627 587.417 z" fill="rgb(158,29,24)" transform="translate(0,0)"></path>
<path d="M 464.095 596.5 C 544.981 589.247 623.663 624.808 683.742 674.462 C 810.39 779.134 881.688 939.405 898.998 1100.55 C 899.479 1105.03 900.656 1113.93 902.147 1118.1 C 906.645 1130.67 917.366 1145.99 923.077 1158.07 C 987.651 1294.67 952.287 1473.01 831.859 1567.37 C 790.822 1599.27 801.397 1579.6 792.582 1631.97 C 772.973 1748.48 693.103 1836.43 571.817 1847.6 C 556.274 1850.15 537.799 1848.54 522.266 1846.93 C 398.6 1834.13 292.184 1730.91 296.083 1602.68 C 296.67 1583.38 301.001 1565.04 300.376 1546.04 C 300.171 1539.78 272.799 1529.72 266.988 1525.88 C 152.954 1461.76 86.428 1338.6 88.1962 1208.62 C 89.5577 1108.54 126.356 1022.85 184.758 943.05 C 204.905 915.519 230.344 890.051 245.309 859.206 C 253.429 842.47 254.74 822.115 257.659 803.985 C 271.634 692.133 347.123 606.353 464.095 596.5 z" fill="rgb(250,249,240)" transform="translate(0,0)"></path>
<path d="M 495.158 675.256 C 537.818 675.414 580.534 679.286 623.213 677.465 C 626.974 677.304 631.012 677.998 632.737 681.531 C 629.766 685.931 583.616 727.888 576.217 734.972 L 581.904 736.809 C 593.879 743.607 607.667 764.66 611.266 777.973 C 614.858 791.259 614.235 804.019 619.492 817.228 L 620.044 818.581 C 627.788 824.444 632.19 827.516 637.974 835.312 C 635.475 839.446 631.574 844.656 628.724 848.708 C 629.828 881.966 624.758 910.299 587.32 909.113 C 575.615 908.742 567.193 921.809 560.256 930.493 C 607.24 973.4 602.674 1017.67 609.568 1076.52 C 615.356 1065.64 624.125 1055.6 629.038 1045 C 633.375 1035.63 634.773 1020.51 640.283 1011.1 C 645.487 1002.21 654.094 1005.15 661.123 1001.16 C 662.262 1000.52 667.602 989.793 668.636 988.077 C 675.385 976.871 694.863 932.237 701.56 925.672 C 717.364 922.198 713.646 936.301 709.422 945.123 C 701.069 962.57 691.899 979.455 683.346 996.799 C 685.49 1000.8 688.083 1005.3 689.014 1009.74 C 693.37 1030.51 679.799 1053.28 661.877 1063.42 C 655.811 1091.21 652.858 1111.62 641.234 1139.04 C 638.803 1147.65 624.151 1169.11 624.035 1176.84 C 623.609 1205.2 626.463 1233.94 622.233 1262.59 C 619.448 1281.45 613.316 1298.97 610.258 1316.54 L 574.99 1528.97 C 570.429 1556.26 566.514 1582.97 563.092 1610.42 C 560.762 1629.12 557.154 1648.6 556.871 1667.37 C 562.602 1669.71 568.255 1672.93 573.746 1675.85 C 589.192 1672.11 627.696 1664.69 636.742 1677.14 C 666.047 1717.46 603.116 1731.3 578.554 1738.81 C 560.046 1744.47 547.491 1748.4 533.31 1750.4 C 525.512 1751.46 517.614 1751.56 509.79 1750.71 C 485.816 1748.07 477.665 1737.83 484.439 1713.69 C 487.482 1702.85 494.087 1697.19 496.078 1685.57 L 496.35 1683.94 C 478.29 1693.47 451.058 1709.24 431.407 1696.44 C 429.344 1695.1 427.494 1693.45 425.918 1691.56 C 409.414 1671.96 435.403 1648.22 437.085 1624.94 C 439.71 1587.71 443.349 1550.55 447.998 1513.52 C 453.02 1473.89 459.799 1433 459.6 1393.21 C 459.4 1353.16 452.953 1312.42 445.853 1273.08 C 423.224 1265.55 391.441 1242.9 375.557 1227.15 C 348.232 1199.08 359.033 1160.56 369.977 1128.02 C 369.325 1129.96 369.879 1085.35 369.901 1084.04 C 370.325 1059.58 376.107 1044.23 390.866 1024.65 C 398.029 1015.14 398.402 1011.89 408.453 1002.58 C 411.922 986.536 416.567 970.954 426.857 957.826 C 430.176 953.591 438.303 950.482 437.384 945.159 C 432.965 942.754 428.606 940.241 424.311 937.622 C 422.819 894.488 427.192 827.239 435.649 785.462 C 427.339 784.714 392.695 782.486 387.46 778.508 L 387.31 775.703 C 387.762 774.887 388.581 773.358 389.388 772.776 C 418.589 751.551 445.11 726.331 472.819 703.123 C 480.398 696.775 486.683 683.531 495.158 675.256 z" fill="rgb(149,25,21)" transform="translate(0,0)"></path>
<path d="M 540.758 767.234 C 552.971 757.153 563.602 744.809 576.217 734.972 L 581.904 736.809 C 566.363 752.408 559.747 756.508 540.758 767.234 z" fill="rgb(217,102,79)" transform="translate(0,0)"></path>
<path d="M 600.866 1314.17 C 602.737 1316.91 565.383 1531.99 562.2 1552.97 C 557.087 1585.63 552.975 1618.44 549.87 1651.36 C 548.299 1651.84 546.72 1652.3 545.134 1652.73 C 533.141 1656.03 506.898 1661.41 502.996 1645.25 C 502.042 1559.11 517.657 1471.54 509.786 1384.92 C 507.932 1364.51 504.88 1345.67 501.439 1325.45 C 504.967 1326.64 508.543 1327.68 512.158 1328.57 C 542.984 1336.29 573.888 1330.27 600.866 1314.17 z" fill="rgb(217,102,79)" transform="translate(0,0)"></path>
<path d="M 564.531 980.153 C 581.828 978.254 588.252 981.557 591.391 999.083 C 597.45 1032.9 598.043 1067.79 604.344 1101.64 C 606.083 1110.99 609.898 1148.68 616.995 1152.49 C 620.968 1151.6 619.537 1152.63 621.811 1149.92 C 622.279 1146.74 612.092 1098.26 610.741 1090.41 C 615.699 1081.14 623.35 1069.87 629.136 1060.83 L 651.783 1072.03 C 645.084 1107.2 635.302 1135.53 617.896 1166.84 C 606.111 1188.03 583.405 1200.97 574.205 1170.29 C 569.424 1154.34 566.778 1137.3 563.683 1120.98 C 559.106 1095.51 556.302 1071 552.879 1045.44 C 552.082 1039.5 550.804 1030.85 546.013 1027.39 C 540.27 1028.57 543.647 1037.83 544.274 1042.25 C 546.464 1057.71 548.342 1073.15 550.333 1088.66 C 550.702 1097.92 555.823 1113.26 554.856 1122.02 C 552.121 1146.84 529.581 1178.89 516.173 1198.48 C 518.373 1187.32 520.08 1176.07 521.287 1164.77 C 524.873 1131.35 522.384 1106.44 513.174 1074.24 C 506.681 1051.54 506.694 1049.44 491.807 1030.95 C 510.998 1008.2 534.611 986.356 564.531 980.153 z" fill="rgb(250,249,240)" transform="translate(0,0)"></path>
<path d="M 460.069 1302.44 C 474.31 1311.29 476.309 1315.13 492.682 1322.66 C 495.183 1339.52 497.911 1355.29 499.65 1372.26 C 503.94 1407.56 502.206 1443.55 501.888 1478.78 C 501.587 1512.25 500.402 1538.96 489.887 1571.01 C 486.821 1580.36 485.737 1591.12 481.778 1600.55 C 468.545 1602.37 460.679 1603.56 447.855 1599.04 C 451.499 1574.65 452.645 1548.96 455.981 1524.33 C 462.613 1475.34 471.064 1427.35 468.781 1377.7 C 467.598 1351.99 463.875 1327.86 460.069 1302.44 z" fill="rgb(217,102,79)" transform="translate(0,0)"></path>
<path d="M 393.872 1032.66 C 395.738 1032.78 397.593 1033.02 399.428 1033.38 C 421.005 1037.41 449.149 1054.55 462.7 1072.14 C 468.614 1081.29 470.245 1093.75 473.537 1103.64 C 479.503 1121.55 486.646 1134.93 486.911 1154.41 C 487.337 1185.61 486.559 1216.1 479.89 1246.75 C 471.874 1283.58 431.096 1257.7 412.815 1245.12 C 397.012 1234.15 376.231 1220.88 369.808 1201.53 C 363.861 1183.62 369.882 1155.84 375.027 1138.68 C 380.124 1146.99 382.83 1147.71 377.16 1155.85 C 373.886 1165.24 373.728 1169.46 373.902 1178.98 C 391.876 1207.08 442.985 1244.76 434.555 1180.18 C 440.139 1180.04 448.798 1177.73 454.132 1175.99 C 454.278 1194.34 454.677 1212.93 448.39 1230.48 C 446.359 1236.14 437.785 1244.48 440.026 1249.62 C 448.666 1251.04 456.008 1236.4 457.386 1229.68 C 463.113 1201.74 465.156 1157.11 459.82 1129.37 C 458.227 1120.66 455.231 1112.28 450.947 1104.54 C 437.565 1080.61 410.526 1061.74 384.24 1054.22 C 387.456 1046.06 389.916 1040.48 393.872 1032.66 z" fill="rgb(217,102,79)" transform="translate(0,0)"></path>
<path d="M 498.046 682.898 C 539.479 684.88 576.073 685.414 617.447 685.447 C 606.71 698.16 589.515 711.399 577.158 723.086 C 563.519 735.985 549.959 748.998 536.299 761.869 C 525.699 771.02 515.62 782.462 506.108 792.825 C 481.329 784.712 468.778 781.686 443.094 778.095 C 455.014 744.471 477.026 711.346 498.046 682.898 z" fill="rgb(217,102,79)" transform="translate(0,0)"></path>
<path d="M 602.725 779.591 C 610.012 785.282 600.233 814.418 627.879 837.266 L 615.757 845.886 C 618.142 849.411 620.155 851.569 619.846 855.773 C 617.308 861.747 610.382 863.404 604.118 866.074 C 602.786 858.843 602.875 857.76 597.327 853.008 C 590.243 855.56 594.431 863.18 596.208 869.235 C 599.524 870.475 604.569 871.553 608.128 872.43 C 613.033 871.198 615.521 870.034 620.13 868.037 C 613.597 907.381 603.317 894.757 574.173 903.094 C 568.764 906.415 561.341 916.664 556.272 922.236 C 555.094 908.842 554.336 895.415 553.998 881.973 C 557.165 877.463 560.072 875.198 558.21 869.883 L 556.591 869.143 C 555.329 869.789 549.881 872.704 548.809 872.514 C 532.865 869.678 530.76 849.306 539.762 838.523 C 545.572 831.564 554.941 840.149 561.578 839.682 C 565.451 839.409 567.641 833.313 568.608 830.22 C 574.33 806.947 586.939 797.096 602.725 779.591 z" fill="rgb(250,249,240)" transform="translate(0,0)"></path>
<path d="M 594.55 809.662 C 606.156 809.93 608.75 820 600.953 827.601 C 592.187 825.355 588.342 817.341 594.55 809.662 z" fill="rgb(149,25,21)" transform="translate(0,0)"></path>
<path d="M 603.206 841.252 C 603.999 842.288 603.621 841.566 603.618 843.662 C 601.149 846.594 597.405 850.228 593.57 850.626 L 592.041 848.893 C 590.5 841.505 592.498 838.087 598.357 834.337 C 600.057 837.037 601.087 838.805 603.206 841.252 z" fill="rgb(233,221,211)" transform="translate(0,0)"></path>
<path d="M 596.166 792.067 C 599.248 791.823 599.673 791.569 602.649 792.554 C 603.268 796.343 600.881 798.314 598.298 802.266 L 596.548 801.162 L 595.767 801.2 C 593.586 802.889 593.206 803.719 590.61 803.717 C 589.136 801.133 589.502 800.929 589.758 797.845 C 591.519 794.404 592.845 794.028 596.166 792.067 z" fill="rgb(149,25,21)" transform="translate(0,0)"></path>
<path d="M 541.034 846.196 C 546.728 848.808 550.124 855.713 548.412 861.801 C 540.264 857.834 536.713 855.507 541.034 846.196 z" fill="rgb(158,29,24)" transform="translate(0,0)"></path>
<path d="M 598.357 834.337 L 596.988 832.787 C 583.55 833.083 590.155 844.278 587.346 849.64 C 583.61 844.713 586.278 835.298 591.653 832.324 C 593.781 831.152 596.349 831.097 598.525 832.179 C 602.55 834.187 602.506 837.251 603.206 841.252 C 601.087 838.805 600.057 837.037 598.357 834.337 z" fill="rgb(217,102,79)" transform="translate(0,0)"></path>
<path d="M 583.488 837.692 C 585.103 845.243 581.92 845.957 582.815 853.845 C 584.644 856.068 583.486 855.531 586.111 855.952 C 587.136 854.205 587.045 854.325 588.369 852.682 L 590.012 854.908 C 587.261 858.259 588.894 857.219 585.298 858.672 C 577.736 855.442 581.105 843.529 583.488 837.692 z" fill="rgb(233,166,132)" transform="translate(0,0)"></path>
<path d="M 616.045 1219.21 L 616.569 1219.93 C 617.042 1223.81 615.271 1259.86 613.517 1263.84 C 608.458 1275.31 582.566 1285.78 571.356 1290.04 C 541.839 1301.28 519.002 1296.6 490.996 1283.86 C 484.139 1280.23 479.711 1276.75 473.904 1271.76 C 499.794 1263.84 508.671 1261.02 525.085 1238.98 C 558.407 1239.4 585.657 1233.22 616.045 1219.21 z" fill="rgb(250,249,240)" transform="translate(0,0)"></path>
<path d="M 382.685 1061.68 C 427.63 1074.6 462.17 1119.38 453.293 1166.33 C 453.032 1167.71 449.626 1168.52 448.376 1168.99 C 417.499 1176.28 389.876 1156.57 379.546 1127.4 C 377.335 1121.15 378.244 1105.94 378.756 1098.71 C 379.535 1087.69 377.091 1071.16 382.685 1061.68 z" fill="rgb(217,102,79)" transform="translate(0,0)"></path>
<path d="M 426.068 1005.04 C 443.461 1003.66 455.536 1017.66 469.498 1025.04 C 499.056 1040.14 505.643 1071.58 511.515 1102.13 C 520.046 1146.51 511.198 1216.21 485.892 1253.82 L 486.998 1250.04 C 497.432 1214.73 496.408 1162.24 491.269 1125.92 C 488.39 1113.15 492.601 1098.72 492.693 1085.23 C 492.822 1066.23 487.164 1052.2 473.554 1038.79 C 468.359 1033.68 452.365 1018.61 445.291 1018.57 L 444.505 1019.92 C 445.572 1026.09 449.081 1027.89 453.782 1031.48 C 486.155 1056.19 485.881 1072.72 484.445 1110.15 C 480.106 1098.95 477.54 1078.86 470.822 1069.8 C 453.395 1046.3 426.739 1031.15 399.222 1024.38 C 408.505 1010.52 410.087 1010.32 426.068 1005.04 z" fill="rgb(217,102,79)" transform="translate(0,0)"></path>
<path d="M 454.477 1273.66 C 463.011 1273.52 467.505 1279.21 474.363 1284.14 C 484.335 1291.17 495.338 1296.61 506.981 1300.27 C 546.56 1312.91 573.662 1300.52 608.226 1282.65 C 607.627 1288.78 607.361 1291.8 605.78 1297.89 C 570.416 1337.97 464.753 1327.95 454.477 1273.66 z" fill="rgb(250,249,240)" transform="translate(0,0)"></path>
<path d="M 564.697 1172.75 C 567.069 1175.14 569.715 1184.65 572.757 1188.37 C 585.587 1204.06 602.391 1195.67 615.242 1185.39 C 615.168 1193.53 616.183 1201.47 617.043 1209.56 C 607.531 1215.6 597.518 1218.63 586.946 1222.26 C 564.288 1228.34 553.586 1230.79 529.828 1231.25 C 541.265 1215.54 556.082 1190.2 564.697 1172.75 z" fill="rgb(250,249,240)" transform="translate(0,0)"></path>
<path d="M 504.293 1674.41 C 518.854 1680.67 538.324 1687.15 551.94 1675.46 C 568.948 1681.3 574.668 1686.84 562.785 1703.65 C 553.297 1712.93 544.205 1716.04 531.147 1716.03 C 493.418 1716.03 503.571 1698.96 504.293 1674.41 z" fill="rgb(250,249,240)" transform="translate(0,0)"></path>
<path d="M 460.1 951.314 C 497.315 963.625 505.95 956.69 541.012 953.434 C 538.251 955.357 531.064 958.073 527.628 959.522 C 515.298 964.723 509.582 968.494 499.797 977.223 C 488.206 987.553 478.478 1001.84 469.471 1014.47 C 464.894 1001.84 457.2 988.923 452.113 975.573 C 455.084 966.426 457.531 961.452 460.1 951.314 z" fill="rgb(250,249,240)" transform="translate(0,0)"></path>
<path d="M 607.998 1679.4 C 619.443 1678.6 627.646 1697.24 610.476 1703.98 C 581.105 1715.5 526.846 1740.57 496.562 1724.32 C 493.329 1720.99 490.189 1715.6 490.983 1710.83 C 494.202 1709.91 496.481 1713.31 499.48 1715.41 C 527.067 1734.76 579.385 1723.56 578.1 1684.42 C 587.944 1682.09 597.932 1680.41 607.998 1679.4 z" fill="rgb(217,102,79)" transform="translate(0,0)"></path>
<path d="M 547.213 962.29 C 553.773 962.354 569.235 967.927 575.309 970.994 C 573.036 970.932 570.762 970.932 568.489 970.995 C 539.121 971.99 513.479 995.808 494.675 1015.78 C 491.935 1018.81 488.331 1023.53 485.654 1026.8 L 476.735 1019.3 C 478.891 1015.56 481.234 1011.92 483.754 1008.4 C 500.579 984.973 517.972 967.105 547.213 962.29 z" fill="rgb(217,102,79)" transform="translate(0,0)"></path>
<path d="M 443.765 786.436 L 459.325 788.844 C 449.541 808.722 445.669 853.728 441.351 876.601 C 438.896 889.606 439.971 916.384 440.093 930.25 C 440.156 933.134 440.447 933.848 439.167 936.418 C 435.944 935.821 435.442 934.091 432.635 931.04 C 432.759 887.864 435.529 827.988 443.765 786.436 z" fill="rgb(217,102,79)" transform="translate(0,0)"></path>
<path d="M 485.091 1617.97 L 486.8 1619.96 C 489.932 1637.63 465.2 1671.75 443.076 1659.68 C 442.324 1658.39 440.448 1655.08 440.569 1653.75 C 441.535 1643.15 443.725 1632.15 444.929 1621.54 C 461.332 1626.63 470.801 1628.86 485.091 1617.97 z" fill="rgb(250,249,240)" transform="translate(0,0)"></path>
<path d="M 556.481 1142.61 C 559.047 1144.97 560.874 1153.5 561.927 1157.25 C 547.875 1182.37 525.016 1237.82 499.395 1251.43 L 497.381 1251.8 L 496.64 1251.02 C 502.278 1240.87 508.417 1225.61 513.708 1217.05 C 529.487 1191.52 544.83 1170.63 556.481 1142.61 z" fill="rgb(217,102,79)" transform="translate(0,0)"></path>
<path d="M 385.042 1157.14 C 396.499 1174.45 410.625 1177.63 427.961 1186.46 C 428.21 1195.45 428.638 1198.89 424.726 1207.24 C 409.856 1205.74 389.644 1189.86 382.362 1176.63 C 379.079 1170.67 382.73 1162.98 385.042 1157.14 z" fill="rgb(217,102,79)" transform="translate(0,0)"></path>
<path d="M 679.106 1006.53 C 683.537 1009.3 683.394 1014.84 682.594 1019.52 C 680.075 1034.23 671.915 1046.55 660.166 1055.58 C 651.893 1052.87 645.277 1050.2 637.956 1045.55 L 641.377 1029.48 C 644.664 1017.4 646.581 1014.45 656.25 1007.27 C 653.28 1014.9 644.139 1029.11 652.585 1034.64 C 668.495 1036.18 673.599 1017.64 679.106 1006.53 z" fill="rgb(250,249,240)" transform="translate(0,0)"></path>
<path d="M 457.606 728.049 C 457.499 732.729 443.84 756.747 441.295 763.143 C 439.128 768.591 437.941 771.903 436.231 778.096 C 427.007 776.51 411.38 775.242 402.193 774.784 C 400.529 774.267 401.399 774.667 399.668 773.413 C 421.996 758.594 436.892 742.563 457.606 728.049 z" fill="rgb(217,102,79)" transform="translate(0,0)"></path>
<path d="M 623.187 1679.33 C 638.646 1683.06 639.153 1701.34 628.548 1709.22 C 617.432 1717.48 598.09 1724.74 584.53 1728.21 C 553.409 1736.17 525.244 1750.71 493.524 1737.29 C 491.382 1735.77 490.179 1735.35 489.317 1732.95 C 494.4 1732.11 512.168 1738.67 519.66 1738.16 C 548.601 1736.2 581.27 1723.74 608.608 1714.22 C 619.592 1710.4 625.814 1704.92 629.86 1695.11 C 627.948 1689.91 625.413 1684.44 623.187 1679.33 z" fill="rgb(217,102,79)" transform="translate(0,0)"></path>
<path d="M 493.585 1632.09 L 495.338 1631.75 C 493.212 1643.14 494.546 1651.81 496.162 1663.29 C 478.4 1672.08 459.938 1683.13 439.423 1676.35 C 436.105 1675.24 432.935 1673.73 429.981 1671.85 L 433.531 1659.99 C 441.274 1671.13 449.388 1670.39 461.867 1670.5 C 478.91 1660.63 487.525 1651.06 493.585 1632.09 z" fill="rgb(217,102,79)" transform="translate(0,0)"></path>
<path d="M 452.317 851.629 C 455.596 854.632 466.805 878.156 468.972 883.242 C 464.868 891.899 460.52 898.297 455.183 906.23 L 447.985 916.022 C 448.067 892.96 448.192 874.696 452.317 851.629 z" fill="rgb(250,249,240)" transform="translate(0,0)"></path>
<path d="M 495.56 1673.02 L 495.678 1675.31 C 488.999 1681.57 464.996 1691.4 455.21 1692.45 C 444.754 1693.57 437.678 1691.58 429.631 1685.17 C 429.185 1683.23 429.232 1682.6 429.1 1680.6 C 432.747 1680.61 439.572 1684.11 443.705 1685.6 C 459.122 1691.14 481.829 1679.68 495.56 1673.02 z" fill="rgb(217,102,79)" transform="translate(0,0)"></path>
<path d="M 547.998 1660 L 548.992 1660.74 C 550.054 1665.09 545.907 1670.23 542.072 1671.85 C 531.765 1676.21 517.803 1670.32 507.961 1667.01 C 504.052 1664.94 505.499 1666.36 503.265 1662.79 C 506.543 1659.46 520.377 1666.16 528.403 1665.29 C 538.726 1664.18 538.543 1664.01 547.998 1660 z" fill="rgb(217,102,79)" transform="translate(0,0)"></path>
<path d="M 432.853 964.883 C 433.912 966.693 434.429 992.022 434.905 996.658 C 429.054 996.847 426.15 997.514 420.525 998.661 C 419.729 998.576 420.294 998.699 419.146 997.609 C 420.25 985.709 426.752 974.952 432.853 964.883 z" fill="rgb(217,102,79)" transform="translate(0,0)"></path>
<path d="M 446.54 1606.34 C 459.709 1613.14 468.198 1608.38 481.71 1609.83 L 482.505 1610.92 L 480.794 1613.75 C 472.339 1617.34 456.232 1619.42 448.251 1613.85 C 445.671 1612.05 446.5 1609.15 446.54 1606.34 z" fill="rgb(217,102,79)" transform="translate(0,0)"></path>
<path d="M 556.175 939.389 C 559.598 941.769 578.502 960.832 579.073 964.125 C 570.434 960.036 562.95 956.872 554.117 953.283 C 554.838 948.657 555.524 944.025 556.175 939.389 z" fill="rgb(217,102,79)" transform="translate(0,0)"></path>
<path d="M 443.338 980.742 C 441.304 962.955 442.171 962.081 446.023 944.546 C 448.814 943.91 447.342 943.931 450.611 945.766 C 456.246 955.428 441.534 969.622 444.403 980.144 L 443.338 980.742 z" fill="rgb(217,102,79)" transform="translate(0,0)"></path>
<path d="M 497.824 1575.07 C 497.453 1587.7 497.38 1604.89 495.936 1617.04 L 494.575 1616.86 C 492.406 1612.98 492.118 1612.54 489.092 1609.27 C 492.741 1597.25 494.745 1586.96 497.824 1575.07 z" fill="rgb(250,249,240)" transform="translate(0,0)"></path>
<path d="M 443.338 980.742 L 444.403 980.144 C 448.545 986.429 452.948 998.037 455.879 1005.33 L 443.263 999.044 C 443.095 992.532 443.057 987.24 443.338 980.742 z" fill="rgb(217,102,79)" transform="translate(0,0)"></path>
<path d="M 631.093 1051.94 C 635.435 1051.7 652.62 1060.11 656.466 1063.09 C 650.685 1062.35 635.46 1056.08 631.093 1051.94 z" fill="rgb(234,171,158)" transform="translate(0,0)"></path>
<path d="M 664.681 1014.71 C 666.159 1021.1 662.088 1023.68 657.745 1027.35 L 657.256 1024.98 C 658.787 1020.97 661.828 1018.03 664.681 1014.71 z" fill="rgb(233,221,211)" transform="translate(0,0)"></path>
<path d="M 494.575 1616.86 L 495.936 1617.04 C 495.953 1621.82 496.223 1627.11 495.338 1631.75 L 493.585 1632.09 L 494.575 1616.86 z" fill="rgb(185,68,62)" transform="translate(0,0)"></path>
<path d="M 909.712 426.449 C 941.195 425.218 967.735 449.701 969.042 481.181 C 970.348 512.661 945.93 539.259 914.453 540.642 C 882.869 542.03 856.16 517.509 854.848 485.922 C 853.537 454.334 878.122 427.684 909.712 426.449 z" fill="rgb(158,29,24)" transform="translate(0,0)"></path>
<path d="M 907.57 435.348 C 933.999 432.852 957.492 452.148 960.178 478.558 C 962.865 504.969 943.739 528.6 917.349 531.477 C 890.688 534.384 866.761 515.019 864.047 488.337 C 861.332 461.656 880.869 437.869 907.57 435.348 z" fill="rgb(217,102,79)" transform="translate(0,0)"></path>
<path d="M 732.504 518.634 C 755.666 513.358 778.72 527.857 783.996 551.02 C 789.272 574.182 774.771 597.236 751.609 602.511 C 728.447 607.786 705.395 593.287 700.119 570.125 C 694.843 546.964 709.342 523.911 732.504 518.634 z" fill="rgb(158,29,24)" transform="translate(0,0)"></path>
<path d="M 736.678 526.524 C 748.949 524.612 761.3 529.446 769.013 539.18 C 776.726 548.913 778.61 562.042 773.944 573.552 C 769.278 585.061 758.784 593.172 746.47 594.787 C 727.749 597.242 710.534 584.184 707.853 565.493 C 705.172 546.803 718.021 529.431 736.678 526.524 z" fill="rgb(217,102,79)" transform="translate(0,0)"></path>
<path d="M 693.603 619.236 C 701.608 621.05 708.831 624.268 710.591 633.265 C 711.31 636.998 710.502 640.863 708.348 643.995 C 704.616 649.365 700.403 650.747 694.374 651.874 C 667.446 647.47 672.614 622.654 693.603 619.236 z" fill="rgb(158,29,24)" transform="translate(0,0)"></path>
<path d="M 689.816 626.737 C 702.151 626.795 708.461 636.021 697.133 645.15 C 683.079 644.758 679.791 636.887 689.816 626.737 z" fill="rgb(217,102,79)" transform="translate(0,0)"></path>
<metadata><recraft-signature>{"signed_by": "recraft", "signature_b64": "Rk/GRj7fFZVjhrCn4IvNvvRvMcGotMDcnywdT4sias6xuw8IzCOyUisTO8XukLqnqOrV7hVqUP5T+DHybdCwBA==", "signing_algo": "Ed25519", "generation_timestamp": 1781711165, "identifier": "410dc1af-8cdc-4bdd-8fd1-40fcf71b4b20"}</recraft-signature></metadata></svg>